<svg width="16" height="16" viewBox="0 0 16 16" fill="none" xmlns="http://www.w3.org/2000/svg">
<g clip-path="url(#clip0_2073_99824)">
<path d="M8.5978 2.03569C8.48549 1.80813 8.25373 1.66406 7.99997 1.66406C7.74621 1.66406 7.51445 1.80813 7.40215 2.03569L5.71605 5.45209L1.94582 5.99994C1.6947 6.03643 1.48607 6.21233 1.40765 6.45367C1.32923 6.69501 1.39463 6.95994 1.57634 7.13707L4.30451 9.79637L3.66048 13.5514C3.61758 13.8015 3.72039 14.0543 3.92569 14.2034C4.13099 14.3526 4.40316 14.3722 4.62778 14.2542L7.99997 12.4813L11.3722 14.2542C11.5968 14.3722 11.869 14.3526 12.0743 14.2034C12.2796 14.0543 12.3824 13.8015 12.3395 13.5514L11.6954 9.79637L14.4236 7.13707C14.6053 6.95994 14.6707 6.69501 14.5923 6.45367C14.5139 6.21233 14.3052 6.03643 14.0541 5.99994L10.2839 5.45209L8.5978 2.03569Z" fill="#FAAD14"/>
</g>
<defs>
<clipPath id="clip0_2073_99824">
<rect width="13.3333" height="13.3333" fill="white" transform="translate(1.33398 1.33203)"/>
</clipPath>
</defs>
</svg>
