<svg width="347" height="347" viewBox="0 0 347 347" fill="none" xmlns="http://www.w3.org/2000/svg">
<path d="M97.5496 319.99C95.2632 321.182 93.4768 323.151 92.5111 325.542C90.0067 322.886 88.5432 319.417 88.3888 315.77C86.9705 316.373 85.7763 317.404 84.9736 318.72C84.1709 320.035 83.7998 321.569 83.9125 323.106L70.6501 310.725C69.97 315.597 69.276 320.469 68.5681 325.341C66.0307 318.1 62.3626 311.307 57.7001 305.215C57.6029 310.734 57.5081 316.249 57.4155 321.76C51.0091 308.908 41.5018 297.855 29.7527 289.6C33.2227 297.275 36.6927 305.027 38.4485 313.272C35.154 306.69 29.763 301.392 23.125 298.212C30.2969 307.859 35.3744 318.898 38.0321 330.622L101.651 330.664C101.651 330.664 98.9445 323.661 103.664 321.302L97.5496 319.99Z" fill="#EBEBEB"/>
<path d="M97.407 103.256C113.56 87.1034 113.56 60.9142 97.407 44.7612C81.2539 28.6081 55.0647 28.6081 38.9117 44.7612C22.7587 60.9142 22.7587 87.1034 38.9117 103.256C55.0647 119.409 81.2539 119.409 97.407 103.256Z" fill="#EBEBEB"/>
<path d="M332.224 269.584C325.517 273.373 319.773 278.658 315.44 285.027C311.107 291.397 308.301 298.68 307.24 306.311C307.443 293.496 309.536 280.782 313.452 268.578C304.19 279.856 298.717 293.765 297.809 308.33L296.06 284.193C290.342 295.297 289.814 308.219 289.453 320.684C287 315.516 283.595 310.857 279.418 306.949C281.028 314.583 282.666 323.147 284.276 330.802L317.276 330.726L316.658 324.133C314.731 304.633 320.296 285.13 332.224 269.584Z" fill="#EBEBEB"/>
<path d="M302.136 118.487C302.58 115.287 298.069 112.664 294.682 112.386C293.065 112.261 291.386 112.504 289.824 111.97C286.507 110.818 285.181 106.529 281.947 105.162C279.525 104.142 276.742 105.051 274.397 106.231C272.051 107.41 269.733 108.902 267.11 109.069C264.833 109.215 262.356 108.375 260.364 109.485C258.879 110.311 258.095 112.025 256.727 113.032C255.36 114.038 253.639 114.232 251.973 114.323C250.308 114.413 248.594 114.427 247.081 115.121C245.568 115.815 244.305 117.418 244.624 119.056L302.136 118.487Z" fill="#F5F5F5"/>
<path d="M215.883 60.4753C216.264 57.6993 212.343 55.4091 209.394 55.1731C208.006 55.0621 206.528 55.2772 205.195 54.8122C202.308 53.8059 201.156 50.0791 198.345 48.8924C196.263 48.0041 193.814 48.7952 191.773 49.8224C189.733 50.8495 187.72 52.1403 185.437 52.2861C183.452 52.411 181.273 51.6753 179.566 52.6469C178.275 53.3409 177.595 54.8539 176.401 55.7352C175.207 56.6166 173.715 56.7762 172.237 56.8595C170.786 56.8214 169.34 57.0569 167.976 57.5535C166.657 58.1573 165.568 59.5522 165.838 60.9749L215.883 60.4753Z" fill="#EBEBEB"/>
<path d="M107.524 171.849C108.058 167.969 102.576 164.777 98.4602 164.444C96.5031 164.284 94.4627 164.582 92.6028 163.937C88.5776 162.549 86.9675 157.33 83.0325 155.671C80.0969 154.429 76.7102 155.533 73.8648 156.969C71.0194 158.406 68.2018 160.203 65.0163 160.439C62.2403 160.613 59.2422 159.586 56.8202 160.939C55.0158 161.945 54.0442 164.027 52.4063 165.256C50.7685 166.484 48.6587 166.706 46.6392 166.817C44.6196 166.928 42.5307 166.949 40.6916 167.789C38.8525 168.628 37.3257 170.565 37.7074 172.563L107.524 171.849Z" fill="#EBEBEB"/>
<path d="M284.199 170.873C294.435 167.28 299.819 156.069 296.226 145.833C292.632 135.597 281.422 130.213 271.186 133.806C260.95 137.399 255.565 148.61 259.159 158.846C262.752 169.082 273.963 174.467 284.199 170.873Z" fill="#EBEBEB"/>
<path d="M272.256 153.173C271.7 153.48 271.065 153.614 270.432 153.56C269.798 153.506 269.195 153.265 268.699 152.869C268.203 152.472 267.835 151.937 267.643 151.331C267.451 150.725 267.442 150.076 267.619 149.466C267.795 148.855 268.149 148.311 268.635 147.901C269.121 147.492 269.718 147.236 270.349 147.165C270.981 147.095 271.619 147.213 272.183 147.506C272.748 147.798 273.213 148.251 273.519 148.808C273.724 149.177 273.854 149.583 273.901 150.003C273.948 150.422 273.912 150.847 273.795 151.253C273.677 151.658 273.481 152.037 273.217 152.366C272.953 152.696 272.627 152.97 272.256 153.173Z" fill="white"/>
<path d="M278.183 144.699C277.859 144.877 277.491 144.954 277.123 144.922C276.755 144.891 276.406 144.75 276.118 144.52C275.83 144.289 275.617 143.978 275.505 143.626C275.394 143.275 275.389 142.898 275.492 142.543C275.594 142.189 275.8 141.873 276.082 141.635C276.364 141.397 276.71 141.249 277.077 141.207C277.444 141.166 277.814 141.235 278.142 141.404C278.47 141.574 278.74 141.836 278.919 142.159C279.037 142.374 279.113 142.611 279.14 142.855C279.167 143.099 279.146 143.346 279.078 143.582C279.01 143.818 278.895 144.038 278.742 144.23C278.588 144.422 278.398 144.581 278.183 144.699Z" fill="white"/>
<path d="M265.457 138.009C265.2 138.252 242.756 131.25 241.826 136.753C240.896 142.256 257.566 154.068 276.214 161.702C294.862 169.336 315.258 174.451 316.938 169.052C318.617 163.652 298.595 152.306 298.595 152.306L298.415 155.082C298.415 155.082 310.796 161.793 310.019 166.498C309.241 171.203 293.994 167.407 277.074 159.516C260.155 151.625 246.358 142.59 247.926 139.154C249.495 135.719 263.43 140.188 263.43 140.188L265.457 138.009Z" fill="#E0E0E0"/>
<path d="M285.802 136.225C285.712 136.461 284.074 135.837 281.354 135.608C277.83 135.269 274.284 135.967 271.152 137.615C268.019 139.263 265.436 141.791 263.719 144.886C262.366 147.26 261.95 148.96 261.707 148.905C261.464 148.849 261.575 147.052 262.762 144.394C263.468 142.842 264.404 141.406 265.538 140.133C268.33 136.935 272.215 134.893 276.433 134.407C278.126 134.197 279.841 134.241 281.52 134.539C284.359 135.066 285.886 136.08 285.802 136.225Z" fill="white"/>
<path d="M312.638 90.6217C319.355 88.2657 322.889 80.9111 320.533 74.1947C318.177 67.4783 310.823 63.9435 304.106 66.2995C297.39 68.6555 293.855 76.0101 296.211 82.7265C298.567 89.4429 305.922 92.9777 312.638 90.6217Z" fill="#E0E0E0"/>
<path d="M312.571 73.564C312.584 73.1551 312.716 72.7589 312.952 72.4248C313.188 72.0907 313.517 71.8336 313.899 71.6856C314.28 71.5375 314.697 71.5051 315.096 71.5923C315.496 71.6796 315.861 71.8826 316.146 72.1762C316.431 72.4697 316.623 72.8406 316.699 73.2427C316.774 73.6448 316.729 74.0601 316.57 74.4369C316.411 74.8138 316.144 75.1353 315.803 75.3614C315.462 75.5876 315.062 75.7082 314.653 75.7084C314.375 75.7086 314.099 75.6527 313.842 75.5442C313.585 75.4357 313.353 75.2767 313.159 75.0767C312.964 74.8767 312.812 74.6398 312.711 74.3799C312.611 74.1201 312.563 73.8426 312.571 73.564Z" fill="#F5F5F5"/>
<path d="M316.778 78.4224C316.783 78.1809 316.86 77.9465 316.999 77.7488C317.138 77.551 317.332 77.3989 317.557 77.3116C317.783 77.2243 318.029 77.2057 318.264 77.2582C318.5 77.3107 318.715 77.432 318.882 77.6066C319.049 77.7812 319.16 78.0014 319.202 78.2394C319.244 78.4773 319.214 78.7222 319.117 78.9432C319.019 79.1643 318.858 79.3514 318.654 79.4811C318.451 79.6107 318.213 79.677 317.972 79.6716C317.811 79.6689 317.652 79.6343 317.505 79.5699C317.358 79.5055 317.225 79.4125 317.114 79.2963C317.003 79.1801 316.916 79.043 316.858 78.893C316.801 78.743 316.773 78.583 316.778 78.4224Z" fill="#F5F5F5"/>
<path d="M315.141 82.1975C315.2 82.1974 315.259 82.2094 315.313 82.2326C315.368 82.2559 315.417 82.29 315.458 82.3328C315.498 82.3756 315.53 82.4263 315.551 82.4818C315.572 82.5373 315.581 82.5964 315.578 82.6555C315.578 82.7752 315.531 82.8899 315.446 82.9745C315.361 83.0591 315.247 83.1066 315.127 83.1066C315.007 83.1066 314.893 83.0591 314.808 82.9745C314.723 82.8899 314.676 82.7752 314.676 82.6555C314.675 82.5945 314.686 82.5339 314.709 82.4775C314.732 82.421 314.767 82.3698 314.81 82.327C314.854 82.2842 314.905 82.2506 314.962 82.2284C315.019 82.2061 315.08 82.1956 315.141 82.1975Z" fill="#F5F5F5"/>
<path d="M324.286 330.691C324.286 330.788 256.773 330.872 173.507 330.872C90.241 330.872 22.7148 330.788 22.7148 330.691C22.7148 330.594 90.2133 330.511 173.507 330.511C256.801 330.511 324.286 330.594 324.286 330.691Z" fill="#263238"/>
<path d="M69.462 330.691C69.417 330.58 69.3867 330.463 69.3718 330.344C69.3163 330.081 69.2538 329.747 69.1775 329.352C69.0248 328.484 68.7749 327.235 68.4349 325.701C67.5566 321.701 66.3281 317.786 64.7636 314.001C63.8815 311.927 62.8805 309.907 61.7655 307.949C61.2242 307.068 60.7384 306.207 60.211 305.45L59.4684 304.34C59.2116 303.993 58.9687 303.646 58.7744 303.348C58.3164 302.702 57.8583 302.161 57.4627 301.675C57.0672 301.189 56.7271 300.78 56.4287 300.454L55.7347 299.69C55.6504 299.606 55.578 299.51 55.5195 299.406C55.5195 299.406 55.6236 299.482 55.7902 299.642L56.4842 300.336C56.8799 300.718 57.253 301.124 57.6015 301.55C58.0041 302.022 58.4829 302.557 58.9895 303.195L59.6835 304.174C59.9403 304.527 60.1902 304.868 60.4539 305.284C60.9952 306.04 61.4949 306.894 62.0501 307.782C63.1809 309.747 64.1937 311.777 65.0829 313.862C66.6556 317.67 67.8572 321.621 68.6708 325.66C68.9831 327.207 69.1913 328.436 69.3024 329.345C69.351 329.747 69.3926 330.081 69.4273 330.351C69.4558 330.462 69.4675 330.577 69.462 330.691Z" fill="#263238"/>
<path d="M50.1488 309.816C50.5039 309.895 50.8503 310.009 51.1829 310.156C51.5833 310.299 51.9749 310.466 52.3557 310.656C52.7999 310.878 53.3273 311.1 53.8617 311.426C54.4622 311.754 55.0438 312.115 55.6037 312.509C56.2283 312.904 56.832 313.411 57.4844 313.897C60.2576 316.218 62.497 319.111 64.0496 322.377C64.3877 323.085 64.6889 323.81 64.9518 324.55C65.193 325.19 65.3992 325.844 65.5695 326.507C65.7499 327.11 65.8332 327.673 65.9373 328.158C66.0277 328.575 66.0903 328.997 66.1247 329.421C66.186 329.779 66.2116 330.142 66.201 330.504C66.1247 330.504 66.0067 328.963 65.3197 326.576C65.1389 325.924 64.9235 325.282 64.6742 324.654C64.4383 323.96 64.0913 323.266 63.7512 322.523C62.97 320.933 62.0405 319.42 60.9752 318.005C59.8766 316.608 58.6473 315.318 57.304 314.153C56.6655 313.64 56.0756 313.133 55.4649 312.765C54.9183 312.365 54.3507 311.995 53.7646 311.655C51.5923 310.385 50.1211 309.892 50.1488 309.816Z" fill="#263238"/>
<path d="M67.8346 289.023C67.8664 289.165 67.8827 289.309 67.8832 289.454C67.8832 289.773 67.904 290.182 67.9457 290.682C67.9873 291.751 68.0636 293.292 68.1816 295.2C68.4176 299.003 68.8756 304.264 69.7431 310.017C70.6106 315.77 71.7072 320.941 72.6024 324.646C73.0466 326.506 73.4213 328.005 73.6989 329.033C73.8169 329.518 73.921 329.914 73.9974 330.226C74.0397 330.364 74.0676 330.506 74.0806 330.65C74.0164 330.521 73.9653 330.386 73.9279 330.247C73.8308 329.942 73.7128 329.553 73.5601 329.074C73.2478 328.047 72.8661 326.562 72.3526 324.709C69.8724 315.054 68.3887 305.171 67.9249 295.214C67.8416 293.305 67.7999 291.744 67.8069 290.689V289.454C67.8 289.31 67.8093 289.165 67.8346 289.023Z" fill="#263238"/>
<path d="M43.5985 320.219C43.7837 320.269 43.9595 320.348 44.119 320.455C44.4452 320.628 44.8963 320.899 45.4445 321.26C46.8713 322.215 48.1845 323.331 49.3587 324.584C50.5253 325.85 51.5407 327.247 52.3845 328.748C52.7038 329.324 52.9467 329.796 53.0785 330.136C53.1751 330.302 53.2432 330.482 53.2798 330.67C52.8685 330.096 52.4908 329.498 52.1486 328.88C51.2545 327.445 50.2275 326.097 49.0811 324.855C47.9211 323.621 46.6504 322.497 45.2849 321.496C44.2508 320.698 43.5707 320.267 43.5985 320.219Z" fill="#263238"/>
<path d="M54.6175 319.24C54.7397 319.788 54.8094 320.345 54.8257 320.906C54.9298 321.947 55.0686 323.37 55.256 324.945C55.4434 326.52 55.6516 327.943 55.7973 328.97C55.9104 329.523 55.9708 330.085 55.9778 330.65C55.7724 330.122 55.628 329.572 55.5475 329.012C55.3393 327.992 55.0894 326.569 54.8951 324.987C54.7008 323.404 54.6106 321.968 54.5689 320.927C54.5223 320.364 54.5385 319.799 54.6175 319.24Z" fill="#263238"/>
<path d="M158.685 294.256C158.703 294.381 158.703 294.507 158.685 294.631L158.623 295.7C158.553 296.623 158.477 297.962 158.401 299.621C158.008 308.253 158.55 316.902 160.018 325.417C160.295 327.055 160.545 328.373 160.712 329.283C160.788 329.706 160.857 330.053 160.906 330.33C160.933 330.454 160.95 330.579 160.955 330.705C160.898 330.594 160.858 330.474 160.837 330.351L160.573 329.31C160.351 328.408 160.066 327.096 159.754 325.466C158.948 321.21 158.407 316.908 158.137 312.585C157.871 308.263 157.871 303.929 158.137 299.607C158.248 297.948 158.366 296.609 158.477 295.686C158.526 295.256 158.574 294.909 158.609 294.624C158.618 294.499 158.644 294.375 158.685 294.256Z" fill="#263238"/>
<path d="M164.298 314.021C164.198 314.829 164.054 315.631 163.868 316.423C163.59 317.894 163.243 319.941 162.993 322.218C162.743 324.494 162.639 326.569 162.591 328.068C162.602 328.881 162.565 329.695 162.48 330.504C162.426 330.291 162.398 330.072 162.396 329.852C162.396 329.435 162.341 328.824 162.334 328.068C162.317 326.102 162.417 324.137 162.632 322.183C162.848 320.227 163.177 318.285 163.618 316.367C163.791 315.632 163.951 315.042 164.069 314.639C164.114 314.423 164.191 314.215 164.298 314.021Z" fill="#263238"/>
<path d="M332.857 292.174C332.747 292.282 332.629 292.379 332.503 292.466L331.434 293.236L330.657 293.784C330.379 293.993 330.095 294.242 329.775 294.478C329.158 294.999 328.387 295.547 327.693 296.262L326.52 297.345C326.111 297.726 325.736 298.164 325.32 298.594C324.466 299.44 323.668 300.447 322.815 301.481C319.175 306.077 316.522 311.373 315.021 317.04C314.716 318.352 314.389 319.594 314.23 320.781C314.14 321.371 314.015 321.94 313.966 322.495C313.917 323.05 313.855 323.578 313.806 324.084C313.675 325.098 313.702 326.021 313.668 326.86C313.668 327.263 313.633 327.645 313.668 327.992C313.702 328.339 313.668 328.686 313.668 328.935C313.668 329.477 313.668 329.914 313.709 330.254C313.724 330.406 313.724 330.56 313.709 330.712C313.671 330.565 313.65 330.413 313.647 330.261C313.647 329.921 313.584 329.484 313.543 328.942C313.543 328.651 313.501 328.339 313.473 327.992C313.446 327.645 313.473 327.298 313.473 326.86C313.473 326.042 313.473 325.112 313.57 324.084C313.612 323.571 313.654 323.037 313.702 322.481C313.751 321.926 313.862 321.35 313.945 320.753C314.098 319.553 314.41 318.303 314.716 316.978C315.472 314.13 316.506 311.364 317.804 308.719C319.148 306.097 320.743 303.61 322.565 301.293C323.439 300.252 324.251 299.253 325.119 298.406C325.542 297.983 325.924 297.539 326.34 297.171L327.541 296.088C328.283 295.394 329.047 294.846 329.685 294.34C330.004 294.097 330.296 293.854 330.587 293.646L331.378 293.118L332.489 292.424C332.602 292.328 332.726 292.244 332.857 292.174Z" fill="#263238"/>
<path d="M328.741 311.037C328.783 311.093 327.7 311.863 326.145 313.334C325.242 314.198 324.389 315.113 323.592 316.076C322.62 317.256 321.729 318.501 320.927 319.802C320.144 321.116 319.449 322.479 318.845 323.883C318.358 325.035 317.938 326.215 317.588 327.416C316.992 329.498 316.797 330.781 316.735 330.768C316.73 330.455 316.761 330.143 316.825 329.838C316.867 329.539 316.922 329.178 317.012 328.762C317.103 328.345 317.193 327.86 317.339 327.374C317.659 326.14 318.062 324.93 318.546 323.751C319.72 320.884 321.341 318.22 323.349 315.86C324.167 314.899 325.048 313.992 325.986 313.147C326.381 312.779 326.77 312.453 327.096 312.21C327.376 311.964 327.668 311.732 327.971 311.516C328.208 311.328 328.467 311.167 328.741 311.037Z" fill="#263238"/>
<path d="M158.697 309.233C157.656 321.905 147.448 332.19 127.002 330.511C117.078 329.699 106.876 326.083 100.332 320.608L102.761 308.282L107.911 308.463C112.998 313.001 120.264 315.965 127.731 316.575C136.011 317.269 141.41 314.195 141.889 308.365C142.347 302.744 138.967 298.76 125.982 297.699L107.681 296.2L114.663 256.218L158.323 259.792L157.233 273.082L127.391 270.64L125.149 284.145L130.979 284.624C152.132 286.359 159.731 296.554 158.697 309.233Z" fill="#FF725E"/>
<g opacity="0.4">
<path d="M158.697 309.233C157.656 321.905 147.448 332.19 127.002 330.511C117.078 329.699 106.876 326.083 100.332 320.608L102.761 308.282L107.911 308.463C112.998 313.001 120.264 315.965 127.731 316.575C136.011 317.269 141.41 314.195 141.889 308.365C142.347 302.744 138.967 298.76 125.982 297.699L107.681 296.2L114.663 256.218L158.323 259.792L157.233 273.082L127.391 270.64L125.149 284.145L130.979 284.624C152.132 286.359 159.731 296.554 158.697 309.233Z" fill="black"/>
</g>
<path d="M153.506 308.788C152.465 321.468 142.256 331.746 121.811 330.073C111.894 329.261 101.685 325.646 95.1406 320.17L102.712 308.025C107.792 312.557 115.065 315.52 122.526 316.138C130.812 316.832 136.205 313.758 136.683 307.928C137.142 302.307 133.769 298.323 120.777 297.261L102.476 295.762L109.465 255.781L153.117 259.355L152.028 272.645L122.186 270.202L119.951 283.707L125.781 284.186C146.941 285.928 154.547 296.116 153.506 308.788Z" fill="#FF725E"/>
<g opacity="0.2">
<path d="M132.012 314.701L139.354 320.038L140.485 322.974L140.666 318.012L135.454 311.814C134.658 313.132 133.448 314.147 132.012 314.701Z" fill="black"/>
</g>
<g opacity="0.2">
<path d="M136.621 308.56C136.621 308.56 140.313 313.182 140.834 313.383C141.354 313.584 149.307 315.77 149.307 315.77L150.917 317.852L152.146 314.722L150.418 313.445L143.277 312.057L136.718 305.763L136.621 308.56Z" fill="black"/>
</g>
<g opacity="0.2">
<path d="M136.267 304.277L142.915 306.762C143.297 306.456 149.855 305.832 150.514 305.686C151.174 305.54 153.665 306.38 153.665 306.38L153.145 302.626L142.964 304.666L135.031 301.966L136.267 304.277Z" fill="black"/>
</g>
<g opacity="0.2">
<path d="M147.821 292.334L141.166 297.386L132.199 299.746L133.927 300.842L139.334 300.447H146.787L152.173 298.573L151.138 296.547C151.138 296.547 141.422 299.323 142.207 298.511C142.991 297.699 149.105 293.521 149.105 293.521L147.821 292.334Z" fill="black"/>
</g>
<g opacity="0.2">
<path d="M143.465 289.002L138.607 295.068L130.141 299.114L128.059 298.26L134.638 292.868L138.968 286.886C140.529 287.452 142.034 288.161 143.465 289.002Z" fill="black"/>
</g>
<g opacity="0.2">
<path d="M103.301 292.972C103.301 292.972 106.771 295.311 108.721 295.304C110.671 295.297 120.561 291.355 120.561 291.355L128.889 291.654L136.023 287.316L128.389 289.398L121.199 288.857L112.767 290.939L104.293 286.699L103.301 292.972Z" fill="black"/>
</g>
<g opacity="0.2">
<path d="M119.887 283.527L111.205 281.889L104.668 283.437L105.313 280.119L113.218 279.529L120.311 281.334L119.887 283.527Z" fill="black"/>
</g>
<g opacity="0.2">
<path d="M106.348 274.005C106.348 274.005 116.196 277.524 117.535 277.642C118.874 277.76 120.901 278.114 120.901 278.114L121.262 276.032L114.766 274.13L107.382 267.586L107.069 270.362L110.13 273.506L106.66 272.18L106.348 274.005Z" fill="black"/>
</g>
<g opacity="0.2">
<path d="M108.203 263.644C108.203 263.644 115.837 268.932 117.815 268.884C119.793 268.835 124.831 268.238 124.831 268.238L138.947 271.396L145.506 272.222L130.029 266.531C130.029 266.531 120.973 263.866 120.931 264.102C120.889 264.338 115.976 264.741 115.976 264.741L109.223 258.078L108.203 263.644Z" fill="black"/>
</g>
<g opacity="0.2">
<path d="M117.551 256.642L123.54 262.11L137.462 264.123L147.525 269.765L140.404 263.491L130.105 261.18L123.769 256.864L117.551 256.642Z" fill="black"/>
</g>
<g opacity="0.2">
<path d="M97.1953 317.45C97.1953 317.45 103.587 316.062 104.135 316.173C104.684 316.284 114.892 322.051 114.892 322.051C114.892 322.051 126.135 321.794 126.531 321.808C126.926 321.822 134.165 326.444 134.165 326.444L128.314 319.504L114.573 319.24L107.168 312.099L99.6035 313.015L97.1953 317.45Z" fill="black"/>
</g>
<g opacity="0.2">
<path d="M102.164 324.494C102.164 324.494 105.537 323.175 106.967 323.515C108.396 323.855 113.303 326.34 113.303 326.34L120.618 325.958L127.877 326.957L134.484 329.407C134.484 329.407 130.368 329.928 128.821 330.164L124.469 328.262L115.447 327.741L110.339 327.943L106.987 325.486L103.726 325.368L102.164 324.494Z" fill="black"/>
</g>
<g opacity="0.2">
<path d="M141.887 258.453L145.815 263.685L152.505 267.003L152.692 264.692L147.251 262.728L145.128 258.571L141.887 258.453Z" fill="black"/>
</g>
<path d="M232.698 298.156C232.73 298.264 232.744 298.377 232.74 298.489C232.74 298.746 232.774 299.065 232.788 299.44C232.83 300.328 232.879 301.522 232.934 302.952C233.066 305.922 233.302 310.017 233.704 314.521C234.107 319.025 234.621 323.106 235.03 326.041C235.231 327.471 235.398 328.644 235.516 329.511C235.571 329.886 235.613 330.205 235.641 330.462C235.659 330.572 235.659 330.685 235.641 330.795C235.596 330.691 235.565 330.581 235.551 330.469C235.502 330.219 235.433 329.907 235.356 329.532C235.197 328.72 234.988 327.533 234.752 326.062C234.287 323.126 233.739 319.053 233.33 314.535C232.92 310.017 232.726 305.915 232.636 302.945C232.636 301.46 232.594 300.252 232.636 299.426C232.636 299.042 232.636 298.723 232.636 298.469C232.646 298.363 232.667 298.258 232.698 298.156Z" fill="#263238"/>
<path d="M240.481 314.202C240.53 314.202 240.238 315.118 239.843 316.589C239.328 318.502 238.943 320.447 238.691 322.412C238.452 324.378 238.35 326.358 238.385 328.339C238.385 329.858 238.475 330.802 238.42 330.809C238.349 330.598 238.307 330.379 238.295 330.157C238.233 329.727 238.177 329.109 238.128 328.346C238.02 326.349 238.087 324.348 238.33 322.363C238.578 320.379 239.003 318.421 239.6 316.513C239.829 315.784 240.03 315.201 240.197 314.806C240.363 314.41 240.453 314.188 240.481 314.202Z" fill="#263238"/>
<path d="M167.489 295.769C164.477 271.993 175.893 256.815 193.625 254.552C211.433 252.269 226.243 264.081 229.283 287.864C232.323 311.648 220.955 326.798 203.175 329.081C185.394 331.364 170.536 319.552 167.489 295.769ZM212.474 290.009C210.392 273.644 203.744 267.586 195.409 268.655C187.074 269.723 182.278 277.239 184.374 293.639C186.47 310.038 193.105 316.062 201.335 315.007C209.677 313.91 214.57 306.38 212.474 290.009Z" fill="#FF725E"/>
<g opacity="0.4">
<path d="M167.489 295.769C164.477 271.993 175.893 256.815 193.625 254.552C211.433 252.269 226.243 264.081 229.283 287.864C232.323 311.648 220.955 326.798 203.175 329.081C185.394 331.364 170.536 319.552 167.489 295.769ZM212.474 290.009C210.392 273.644 203.744 267.586 195.409 268.655C187.074 269.723 182.278 277.239 184.374 293.639C186.47 310.038 193.105 316.062 201.335 315.007C209.677 313.91 214.57 306.38 212.474 290.009Z" fill="black"/>
</g>
<path d="M161.402 297.109C158.363 273.325 169.807 258.154 187.518 255.885C205.229 253.616 220.136 265.42 223.168 289.197C226.201 312.973 214.84 328.137 197.06 330.414C179.356 332.683 164.477 320.885 161.402 297.109ZM206.388 291.348C204.306 274.977 197.657 268.925 189.322 269.987C180.987 271.049 176.192 278.579 178.287 294.971C180.383 311.363 187.018 317.394 195.256 316.339C203.494 315.284 208.483 307.713 206.388 291.348Z" fill="#FF725E"/>
<g opacity="0.2">
<path d="M181.133 328.311C181.133 328.311 187.573 325.479 188.073 325.34C188.573 325.201 198.296 327.054 198.296 327.054L206.7 323.522L213.147 323.335L215.083 321.447L205.041 320.101L196.151 323.404L184.513 322.87L177.934 326.666L181.133 328.311Z" fill="black"/>
</g>
<g opacity="0.2">
<path d="M174.305 324.015L182.98 319.969L191.918 320.496L182.993 318.213L174.214 321.017L170.73 320.427L174.305 324.015Z" fill="black"/>
</g>
<g opacity="0.2">
<path d="M201.836 313.452C201.836 313.452 207.555 313.917 208.54 313.987C209.525 314.056 216.132 310.808 216.132 310.808L221.157 311.502L221.851 309.476L216.077 308.907L208.498 312.377L203.738 311.239L201.836 313.452Z" fill="black"/>
</g>
<g opacity="0.2">
<path d="M184.633 312.342L179.831 312.425L173.425 314.292L166.471 314.049L164.938 310.794L171.718 311.336L179.053 309.441L183.12 310.343L184.633 312.342Z" fill="black"/>
</g>
<g opacity="0.2">
<path d="M206.117 305.089L212.481 304.888L220.407 299.739L223.53 300.433C223.53 300.433 223.745 296.713 223.634 294.728L218.332 297.032L211.572 302.397L206.638 302.612C206.512 303.447 206.338 304.274 206.117 305.089Z" fill="black"/>
</g>
<g opacity="0.2">
<path d="M180.891 305.929L173.916 306.137L168.503 306.922L163.124 305.582L162.527 303.313L167.469 305.062L172.292 303.028L180.197 303.972L180.891 305.929Z" fill="black"/>
</g>
<g opacity="0.2">
<path d="M161.406 297.109C161.406 297.109 166.5 299.399 167.305 299.295C168.11 299.191 176.278 299.031 176.278 299.031L179.012 299.35L178.596 297.067L172.426 296.227L166.548 296.401L160.996 291.779L161.406 297.109Z" fill="black"/>
</g>
<g opacity="0.2">
<path d="M206.901 298.524L210.211 297.893L216.555 292.431L220.476 286.817L223.009 288.045L222.807 286.747L218.56 284.922L213.841 291.688L206.797 295.207L206.901 298.524Z" fill="black"/>
</g>
<g opacity="0.2">
<path d="M171.473 262.922L178.052 266.857L187.969 263.45L198.754 266.246L206.652 262.901L197.525 263.172L189.586 260.701L178.843 263.72L175.213 260.139L171.473 262.922Z" fill="black"/>
</g>
<g opacity="0.2">
<path d="M161.125 285.13C161.125 285.13 172.465 291.147 172.923 291.425C173.381 291.702 177.955 291.279 177.955 291.279L177.871 288.635L173.666 288.121L161.868 280.272L161.125 285.13Z" fill="black"/>
</g>
<g opacity="0.2">
<path d="M204.176 281.417L207.826 277.475L218.694 273.388L220.332 277.253L210.901 279.481L205.585 287.177L204.176 281.417Z" fill="black"/>
</g>
<g opacity="0.2">
<path d="M163.078 275.789L169.595 282.042L178.325 281.785L179.179 278.537L171.941 278.752L164.917 271.451L163.078 275.789Z" fill="black"/>
</g>
<g opacity="0.2">
<path d="M188.129 270.195L191.599 268.696L202.384 269.078L211.982 263.824L214.14 266.198L202.647 272.832L197.845 271.965C197.845 271.965 194.528 268.953 188.129 270.195Z" fill="black"/>
</g>
<g opacity="0.2">
<path d="M167.172 267.717C167.172 267.717 176.451 274.13 176.263 273.609C176.076 273.089 169.594 264.747 169.594 264.747L167.172 267.717Z" fill="black"/>
</g>
<path d="M102.303 144.782L102.448 144.747C101.643 144.742 100.848 144.922 100.124 145.275C99.4374 145.599 98.7941 146.007 98.2081 146.489C96.9797 147.461 95.904 148.627 94.5923 149.48C92.5411 150.812 90.058 151.309 87.6523 150.868C88.7766 152.798 91.2889 153.519 93.5028 153.228C95.7166 152.937 97.7084 151.84 99.7002 150.82C102.962 149.191 106.336 147.799 109.798 146.656C108.748 145.838 107.539 145.249 106.249 144.926C104.958 144.603 103.614 144.554 102.303 144.782Z" fill="#FF725E"/>
<g opacity="0.3">
<path d="M102.303 144.782L102.448 144.747C101.643 144.742 100.848 144.922 100.124 145.275C99.4374 145.599 98.7941 146.007 98.2081 146.489C96.9797 147.461 95.904 148.627 94.5923 149.48C92.5411 150.812 90.058 151.309 87.6523 150.868C88.7766 152.798 91.2889 153.519 93.5028 153.228C95.7166 152.937 97.7084 151.84 99.7002 150.82C102.962 149.191 106.336 147.799 109.798 146.656C108.748 145.838 107.539 145.249 106.249 144.926C104.958 144.603 103.614 144.554 102.303 144.782Z" fill="black"/>
</g>
<path d="M212.61 185.395C212.61 185.395 217.288 187.095 221.07 185.687C224.853 184.278 226.81 183.667 226.81 183.667L228.253 183.57L229.246 192.488L226.629 195.708L225.047 193.855L224.464 188.719C224.464 188.719 216.684 190.315 211.5 188.914L212.61 185.395Z" fill="#263238"/>
<path d="M282.784 225.382C282.816 225.49 282.83 225.603 282.826 225.715C282.826 225.972 282.86 226.291 282.874 226.666C282.916 227.555 282.965 228.748 283.02 230.178C283.152 233.148 283.388 237.243 283.79 241.747C284.193 246.251 284.706 250.332 285.116 253.267C285.317 254.697 285.484 255.87 285.602 256.737C285.657 257.112 285.699 257.431 285.727 257.688C285.745 257.798 285.745 257.911 285.727 258.021C285.682 257.917 285.651 257.807 285.636 257.695C285.588 257.445 285.518 257.133 285.442 256.758C285.283 255.946 285.074 254.759 284.838 253.288C284.373 250.352 283.825 246.279 283.416 241.761C283.006 237.243 282.812 233.141 282.722 230.171C282.722 228.686 282.68 227.478 282.722 226.652C282.722 226.268 282.722 225.949 282.722 225.695C282.732 225.589 282.752 225.484 282.784 225.382Z" fill="#263238"/>
<path d="M290.567 241.428C290.616 241.428 290.324 242.344 289.929 243.815C289.414 245.728 289.029 247.673 288.776 249.638C288.538 251.604 288.436 253.584 288.471 255.565C288.471 257.084 288.561 258.028 288.506 258.035C288.435 257.824 288.393 257.605 288.381 257.383C288.318 256.953 288.263 256.335 288.214 255.572C288.106 253.575 288.173 251.574 288.416 249.589C288.664 247.605 289.089 245.647 289.686 243.739C289.915 243.01 290.116 242.427 290.282 242.032C290.449 241.636 290.539 241.414 290.567 241.428Z" fill="#263238"/>
<path d="M217.575 222.995C214.563 199.219 225.979 184.041 243.711 181.779C261.519 179.495 276.329 191.307 279.369 215.091C282.408 238.874 271.041 254.024 253.26 256.307C235.48 258.59 220.622 246.779 217.575 222.995ZM262.56 217.235C260.478 200.87 253.83 194.812 245.495 195.881C237.16 196.949 232.364 204.465 234.46 220.865C236.556 237.264 243.191 243.288 251.421 242.233C259.763 241.136 264.656 233.606 262.56 217.235Z" fill="#FF725E"/>
<g opacity="0.4">
<path d="M217.575 222.995C214.563 199.219 225.979 184.041 243.711 181.779C261.519 179.495 276.329 191.307 279.369 215.091C282.408 238.874 271.041 254.024 253.26 256.307C235.48 258.59 220.622 246.779 217.575 222.995ZM262.56 217.235C260.478 200.87 253.83 194.812 245.495 195.881C237.16 196.949 232.364 204.465 234.46 220.865C236.556 237.264 243.191 243.288 251.421 242.233C259.763 241.136 264.656 233.606 262.56 217.235Z" fill="black"/>
</g>
<path d="M211.488 224.335C208.449 200.551 219.893 185.38 237.604 183.111C255.315 180.842 270.222 192.647 273.254 216.423C276.287 240.199 264.926 255.363 247.146 257.64C229.442 259.909 214.563 248.111 211.488 224.335ZM256.473 218.574C254.391 202.203 247.743 196.151 239.408 197.213C231.073 198.275 226.278 205.805 228.373 222.197C230.469 238.589 237.104 244.62 245.342 243.565C253.58 242.51 258.569 234.939 256.473 218.574Z" fill="#FF725E"/>
<g opacity="0.2">
<path d="M231.219 255.537C231.219 255.537 237.659 252.705 238.159 252.566C238.659 252.428 248.381 254.281 248.381 254.281L256.786 250.748L263.233 250.561L265.169 248.673L255.127 247.327L246.237 250.63L234.599 250.096L228.02 253.892L231.219 255.537Z" fill="black"/>
</g>
<g opacity="0.2">
<path d="M224.391 251.241L233.066 247.195L242.004 247.722L233.079 245.439L224.3 248.243L220.816 247.653L224.391 251.241Z" fill="black"/>
</g>
<g opacity="0.2">
<path d="M251.922 240.679C251.922 240.679 257.64 241.143 258.626 241.213C259.611 241.282 266.218 238.034 266.218 238.034L271.243 238.728L271.937 236.702L266.163 236.133L258.584 239.603L253.823 238.465L251.922 240.679Z" fill="black"/>
</g>
<g opacity="0.2">
<path d="M234.719 239.568L229.917 239.651L223.511 241.518L216.557 241.275L215.023 238.02L221.804 238.562L229.139 236.667L233.206 237.569L234.719 239.568Z" fill="black"/>
</g>
<g opacity="0.2">
<path d="M256.203 232.316L262.567 232.114L270.493 226.965L273.616 227.659C273.616 227.659 273.831 223.939 273.72 221.954L268.418 224.258L261.658 229.623L256.724 229.838C256.598 230.673 256.424 231.5 256.203 232.316Z" fill="black"/>
</g>
<g opacity="0.2">
<path d="M230.977 233.155L224.002 233.364L218.589 234.148L213.21 232.808L212.613 230.539L217.555 232.288L222.378 230.254L230.283 231.198L230.977 233.155Z" fill="black"/>
</g>
<g opacity="0.2">
<path d="M211.491 224.335C211.491 224.335 216.585 226.625 217.39 226.521C218.196 226.417 226.364 226.257 226.364 226.257L229.098 226.576L228.682 224.293L222.512 223.453L216.634 223.627L211.082 219.005L211.491 224.335Z" fill="black"/>
</g>
<g opacity="0.2">
<path d="M256.987 225.75L260.297 225.119L266.64 219.657L270.562 214.043L273.095 215.271L272.893 213.973L268.646 212.148L263.927 218.914L256.883 222.433L256.987 225.75Z" fill="black"/>
</g>
<g opacity="0.2">
<path d="M221.559 190.148L228.138 194.083L238.055 190.676L248.84 193.472L256.737 190.127L247.611 190.398L239.672 187.927L228.929 190.946L225.299 187.365L221.559 190.148Z" fill="black"/>
</g>
<g opacity="0.2">
<path d="M211.211 212.356C211.211 212.356 222.551 218.373 223.009 218.651C223.467 218.928 228.04 218.505 228.04 218.505L227.957 215.861L223.752 215.347L211.954 207.498L211.211 212.356Z" fill="black"/>
</g>
<g opacity="0.2">
<path d="M254.262 208.643L257.912 204.701L268.78 200.614L270.418 204.479L260.987 206.707L255.671 214.404L254.262 208.643Z" fill="black"/>
</g>
<g opacity="0.2">
<path d="M213.164 203.015L219.681 209.268L228.411 209.011L229.265 205.763L222.026 205.978L215.003 198.677L213.164 203.015Z" fill="black"/>
</g>
<g opacity="0.2">
<path d="M238.215 197.421L241.685 195.922L252.47 196.304L262.068 191.05L264.226 193.424L252.733 200.058L247.931 199.191C247.931 199.191 244.614 196.179 238.215 197.421Z" fill="black"/>
</g>
<g opacity="0.2">
<path d="M217.258 194.943C217.258 194.943 226.537 201.356 226.349 200.836C226.162 200.315 219.68 191.973 219.68 191.973L217.258 194.943Z" fill="black"/>
</g>
<g opacity="0.2">
<path d="M270.281 232.976L278.866 236.168L280.768 238.708L279.588 233.85L272.745 229.159C272.194 230.586 271.355 231.885 270.281 232.976Z" fill="black"/>
</g>
<g opacity="0.2">
<path d="M273.11 227.354C273.11 227.354 278.496 227.93 279.044 227.805C279.592 227.681 287.462 224.967 287.462 224.967L289.635 226.022C289.683 224.731 289.625 223.438 289.461 222.156L287.081 222.427L280.349 225.349L272.715 224.023C273.085 225.092 273.22 226.228 273.11 227.354Z" fill="black"/>
</g>
<g opacity="0.2">
<path d="M271.064 221.066L278.164 218.769C278.309 218.297 283.431 214.057 283.896 213.557C284.48 213.153 285.142 212.876 285.839 212.745C285.083 211.656 284.326 210.531 283.681 210.191L277.033 216.979L268.871 219.227C269.712 219.697 270.456 220.321 271.064 221.066Z" fill="black"/>
</g>
<g opacity="0.2">
<path d="M270.433 203.973L267.775 211.864L261.793 218.804C262.605 218.582 263.437 218.441 264.277 218.381L267.983 215.445L274.195 211.191L278.289 205.93C277.534 205.559 276.755 205.236 275.958 204.966C275.958 204.966 269.08 213.294 269.274 212.176C269.469 211.059 272.196 204.091 272.196 204.091L270.433 203.959" fill="black"/>
</g>
<g opacity="0.2">
<path d="M264.416 204.432L263.722 212.496L259.676 219.436L256.074 221.039L259.135 212.857L260.183 205.556C261.567 205.086 262.981 204.711 264.416 204.432Z" fill="black"/>
</g>
<g opacity="0.2">
<path d="M251.98 213.53L245.422 217.312L246.886 220.019L253.68 215.133L257.137 207.471L251.98 213.53Z" fill="black"/>
</g>
<g opacity="0.2">
<path d="M261.024 202.287L252.841 205.854L244.277 214.258L245.693 208.685L253.181 202.731L261.634 199.67L261.024 202.287Z" fill="black"/>
</g>
<g opacity="0.2">
<path d="M262.898 194.597C262.898 194.597 254.278 198.345 252.939 198.553C251.599 198.761 247.387 202.023 247.387 202.023L248.567 197.373L255.507 194.882L265.417 184.84L264.522 188.192L260.135 193.98L263.55 192.411L262.898 194.597Z" fill="black"/>
</g>
<g opacity="0.2">
<path d="M220.514 203.495C220.514 203.495 229.876 203.585 231.507 202.419C233.138 201.253 236.996 197.894 236.996 197.894L250.578 192.529L256.519 189.49L240.369 193.522C240.369 193.522 231.299 196.437 231.396 196.659C231.493 196.881 227.627 199.997 227.627 199.997L217.703 198.179L220.514 203.495Z" fill="black"/>
</g>
<g opacity="0.2">
<path d="M222.984 191.509L232.444 193.515L245.206 187.297L256.81 186.297L247.302 185.097L237.392 189.011L228.974 188.428L222.984 191.509Z" fill="black"/>
</g>
<g opacity="0.2">
<path d="M243.02 250.923C243.02 250.923 248.391 246.634 248.912 246.488C249.432 246.342 261.258 247.251 261.258 247.251C261.258 247.251 271.418 242.199 271.786 242.039C272.154 241.88 280.766 242.997 280.766 242.997L272.438 239.152L259.793 244.836L249.966 241.512L243.026 245.856L243.02 250.923Z" fill="black"/>
</g>
<g opacity="0.2">
<path d="M243.109 255.295C243.109 255.295 247.051 251.318 248.523 251.131C249.994 250.943 255.511 251.464 255.511 251.464L262.25 248.424L269.447 246.703L276.442 246.509C276.442 246.509 273.104 248.667 271.584 249.396L266.726 249.188L258.072 252.005L253.339 254.087L249.258 252.977L245.316 255.614L243.109 255.295Z" fill="black"/>
</g>
<g opacity="0.2">
<path d="M245.691 180.051L251.93 182.189L263.326 181.037L258.246 179.135L252.59 180.579L248.454 178.316L245.691 180.051Z" fill="black"/>
</g>
<path d="M186.515 149.744L182.108 127.536C182.108 127.536 159.948 85.8962 154.126 71.114C148.303 56.3318 152.738 12.8735 152.738 12.8735C122.014 46.0953 127.629 91.2678 127.629 91.2678C150.6 117.133 146.818 144.352 146.818 144.352L186.515 149.744ZM141.884 64.8958C141.681 64.8106 141.502 64.6785 141.36 64.5104C141.218 64.3422 141.119 64.1429 141.069 63.9288C141.02 63.7147 141.022 63.4919 141.076 63.2787C141.129 63.0656 141.232 62.8682 141.377 62.7027L142.765 61.0996C144.111 59.5312 146.561 59.7116 148.102 59.6561C149.642 59.6006 150.184 65.8327 147.838 66.3462C146.339 66.6655 143.66 65.6661 141.884 64.8958Z" fill="#455A64"/>
<g opacity="0.3">
<path d="M147.262 144.352C147.262 144.352 163.328 147.128 165.82 145.254C168.311 143.38 173.169 137.106 173.169 137.106L180.65 124.92L174.37 112.761C174.37 112.761 175.931 129.847 168.387 134.06C160.844 138.272 146.984 139.743 146.984 139.743L147.262 144.352Z" fill="black"/>
</g>
<g opacity="0.2">
<path d="M147.131 135.517C154.412 131.561 161.296 126.913 167.687 121.637C168.437 121.02 169.235 119.944 168.603 119.201C168.145 118.66 167.285 118.813 166.604 119.014L146.555 124.92C146.16 124.99 145.801 125.19 145.535 125.489C145.322 125.921 145.289 126.421 145.444 126.877L147.422 136.274" fill="white"/>
</g>
<g opacity="0.2">
<path d="M164.382 93.9464C162.71 97.576 160.739 101.58 157.442 104.155C154.146 106.73 150.225 108.444 146.255 109.908C145.207 110.297 143.951 110.956 144.048 111.99C144.145 113.024 145.499 113.482 146.602 113.621C154.563 114.641 162.651 113.385 169.928 109.999C170.24 109.896 170.529 109.733 170.778 109.519C171.026 109.304 171.231 109.043 171.378 108.749C171.49 108.19 171.383 107.609 171.08 107.125C169.546 103.947 166.506 98.5893 164.396 93.9395" fill="white"/>
</g>
<g opacity="0.2">
<path d="M137.831 104.856C140.253 109.34 144.223 97.2917 147.103 93.0583C147.816 92.1371 148.348 91.0892 148.671 89.97C148.826 89.4089 148.832 88.817 148.687 88.2532C148.542 87.6895 148.252 87.1735 147.845 86.7568C147.394 86.4092 146.864 86.1781 146.303 86.0837C145.741 85.9893 145.165 86.0345 144.625 86.2154C143.551 86.5826 142.527 87.0839 141.579 87.7075C137.424 90.0681 132.719 91.2869 127.941 91.24C127.941 91.24 135.506 100.56 137.831 104.856Z" fill="white"/>
</g>
<g opacity="0.2">
<path d="M153.64 69.7744C151.128 70.4684 148.525 72.6198 145.728 73.2444C142.931 73.869 140.017 74.0495 137.4 75.1321C136.338 75.5624 135.173 76.4438 135.395 77.568C135.617 78.6923 136.852 79.0324 137.907 79.2198C144.434 80.3512 151.111 80.3089 157.623 79.0948C156.097 75.6248 154.965 73.4665 153.675 69.7883" fill="white"/>
</g>
<g opacity="0.2">
<path d="M128.488 65.6453C134.714 62.5491 140.524 58.6808 145.783 54.1318C146.268 53.7672 146.658 53.2911 146.921 52.7438C147.044 52.466 147.067 52.1545 146.987 51.8614C146.908 51.5683 146.73 51.3114 146.484 51.1337C146.052 50.9599 145.572 50.9451 145.13 51.0921L130.806 54.0971C129.807 58.1223 129.03 61.9948 128.488 65.6522" fill="white"/>
</g>
<g opacity="0.2">
<path d="M151.086 42.7292C147.003 42.4107 143.088 40.9696 139.773 38.5652C142.778 35.706 147.158 34.6858 151.308 33.7905C151.134 36.511 151.113 40.1267 151.086 42.757" fill="white"/>
</g>
<path d="M148.196 144.018C147.724 134.941 147.225 125.732 144.303 117.126C140.979 107.361 134.67 98.8599 127.543 91.3994C139.785 105.835 146.281 125.405 145.462 144.345L148.196 144.018Z" fill="#263238"/>
<path d="M301.106 51.0712C255.996 48.2952 221.664 63.2023 197.221 94.356C197.221 94.356 179.288 130.173 171.786 139.181C164.471 147.967 149.578 151.313 149.578 151.313L190.316 170.627L194.612 176.963L212.517 188.907C212.517 188.907 219.533 176.519 215.099 163.818C205.848 137.28 221.608 125.072 221.608 125.072C226.93 108.895 238.313 95.4084 253.366 87.4437C263.325 65.6452 301.106 51.0712 301.106 51.0712ZM218.319 117.765C218.025 118.011 217.652 118.142 217.269 118.133C216.885 118.124 216.519 117.976 216.237 117.716C215.977 117.436 215.826 117.073 215.809 116.692C215.793 116.31 215.912 115.935 216.147 115.634L216.459 115.356C216.782 115.154 217.17 115.079 217.545 115.146C217.921 115.214 218.258 115.419 218.491 115.721C218.723 116.024 218.834 116.403 218.803 116.783C218.771 117.164 218.598 117.518 218.319 117.778V117.765ZM222.726 111.595C221.227 111.921 218.562 110.901 216.771 110.151C216.568 110.066 216.388 109.933 216.246 109.764C216.105 109.595 216.005 109.395 215.957 109.18C215.908 108.965 215.911 108.741 215.966 108.528C216.02 108.314 216.125 108.116 216.272 107.951L217.66 106.355C219.006 104.787 221.456 104.967 222.996 104.912C224.537 104.856 225.078 111.088 222.726 111.595Z" fill="#455A64"/>
<g opacity="0.2">
<path d="M210.68 85.6118C211.217 86.1864 211.867 86.6434 212.59 86.954C213.313 87.2646 214.092 87.4219 214.878 87.4162C216.451 87.395 218.012 87.1353 219.507 86.6459C226.679 84.6311 233.649 81.957 240.327 78.6579C241.188 78.2346 242.201 77.3532 241.715 76.5204C241.529 76.2953 241.291 76.1184 241.021 76.0048C240.752 75.8913 240.459 75.8443 240.168 75.868C235.643 75.521 229.758 75.174 225.219 74.834L210.68 85.6118Z" fill="white"/>
</g>
<g opacity="0.2">
<path d="M276.215 59.684C276.215 59.684 268.386 55.7282 270.08 54.9995C271.773 54.2708 281.149 53.7642 281.149 53.7642L276.215 59.684Z" fill="white"/>
</g>
<g opacity="0.2">
<path d="M242.429 63.5704C246.579 69.4673 252.839 73.5424 259.911 74.952C260.267 75.074 260.646 75.1174 261.021 75.079C261.396 75.0407 261.758 74.9216 262.083 74.7299C263.006 73.9665 262.541 72.4883 262.007 71.4195C260.475 68.3659 258.939 65.31 257.398 62.2518C257.033 61.2881 256.376 60.463 255.518 59.8922C254.435 59.3231 253.623 59.8922 252.138 60.378C248.834 61.5022 242.422 63.5634 242.422 63.5634" fill="white"/>
</g>
<path d="M225.045 187.56C224.488 187.491 223.94 187.367 223.407 187.192C223.407 187.192 216.523 190.725 213.83 189.663C211.137 188.601 200.234 178.656 201.414 171.855C205.12 167.864 207.362 161.951 198.472 155.608C182.51 144.248 150.69 144.074 150.69 144.074C146.929 143.883 143.161 143.923 139.405 144.192C133.506 144.636 128.6 141.978 126.913 141C125.227 140.021 119.043 134.872 119.043 134.872C119.043 134.872 139.863 120.957 139.468 120.527C139.072 120.096 109.383 130.978 109.383 130.978C109.383 130.978 72.1776 149.21 68.2357 152.881C64.8143 156.073 65.9385 156.58 65.9385 156.58C82.428 147.419 101.228 145.08 102.672 144.976C104.145 144.945 105.615 145.125 107.037 145.511C107.037 145.511 104.324 146.33 95.2947 152.041C89.0487 155.976 78.3542 162.229 75.9252 164.103C73.4962 165.977 73.6558 166.247 75.2312 166.567C76.8066 166.886 104.074 155.837 108.03 154.269C112.568 152.478 119.259 150.264 119.259 150.264C125.741 156.115 141.182 163.943 141.182 163.943C141.182 163.943 155.02 167.413 165.16 166.671C175.931 167.163 184.009 168.538 192.92 174.735C192.92 174.735 202.372 190.336 209.298 192.605C213.232 193.987 217.531 193.913 221.415 192.397L222.193 197.748L223.65 199.365L226.877 197.463C226.877 197.463 225.26 195.555 225.045 187.56Z" fill="#455A64"/>
<path d="M112.081 139.001C112.12 139.577 111.987 140.151 111.699 140.651C111.411 141.151 110.981 141.554 110.464 141.81C109.947 142.065 109.366 142.162 108.794 142.087C108.222 142.012 107.685 141.769 107.251 141.388C106.817 141.008 106.506 140.508 106.357 139.95C106.208 139.393 106.227 138.804 106.413 138.258C106.599 137.712 106.942 137.233 107.4 136.882C107.858 136.532 108.41 136.325 108.986 136.288C109.367 136.262 109.75 136.312 110.112 136.435C110.474 136.558 110.809 136.751 111.096 137.003C111.383 137.255 111.618 137.561 111.787 137.904C111.956 138.247 112.056 138.62 112.081 139.001Z" fill="white"/>
<path d="M111.57 139.022C111.602 139.496 111.493 139.969 111.256 140.381C111.019 140.792 110.666 141.125 110.24 141.335C109.814 141.546 109.335 141.626 108.864 141.565C108.393 141.503 107.951 141.303 107.593 140.991C107.236 140.678 106.979 140.266 106.856 139.807C106.732 139.348 106.748 138.863 106.9 138.413C107.053 137.963 107.335 137.569 107.712 137.279C108.088 136.99 108.543 136.819 109.017 136.787C109.331 136.766 109.647 136.806 109.946 136.907C110.245 137.008 110.52 137.167 110.758 137.374C110.995 137.582 111.189 137.834 111.329 138.117C111.468 138.4 111.55 138.707 111.57 139.022Z" fill="#263238"/>
<path d="M83.2831 146.198C83.1651 146.233 88.8351 142.332 89.0433 142.686C89.2515 143.04 88.9045 144.685 83.2831 146.198Z" fill="#263238"/>
<path d="M224.426 199.331C224.426 199.331 226.466 201.892 226.605 201.822C226.744 201.753 229.915 201.787 229.915 201.787L225.55 198.116L224.426 199.331Z" fill="#263238"/>
<path d="M225.344 198.352C225.344 198.352 227.495 200.76 227.634 200.691C227.773 200.621 230.937 200.649 230.937 200.649L226.586 196.985L225.344 198.352Z" fill="#263238"/>
<path d="M226.246 197.658C226.246 197.658 228.98 199.462 229.091 199.358C229.203 199.254 232.221 198.289 232.221 198.289L227.037 196.089L226.246 197.658Z" fill="#263238"/>
<g opacity="0.7">
<path d="M136.671 157.948C136.527 158.113 136.423 158.31 136.37 158.524C136.316 158.737 136.314 158.959 136.364 159.174C136.413 159.388 136.513 159.587 136.654 159.755C136.796 159.923 136.975 160.055 137.178 160.141C138.948 160.911 141.654 161.91 143.16 161.584C145.534 161.077 144.978 154.838 143.431 154.901C141.883 154.963 139.419 154.776 138.059 156.344C137.567 156.92 137.088 157.476 136.671 157.948Z" fill="white"/>
</g>
<g opacity="0.2">
<path d="M121.668 146.038C121.69 146.164 121.742 146.283 121.819 146.386C121.896 146.488 121.996 146.57 122.111 146.627C122.226 146.683 122.353 146.711 122.481 146.709C122.609 146.707 122.735 146.674 122.848 146.614C123.847 146.087 125.291 145.226 125.686 144.421C126.325 143.158 123.285 141.132 122.751 141.86C122.216 142.589 121.224 143.637 121.446 144.824C121.529 145.261 121.606 145.684 121.668 146.038Z" fill="white"/>
</g>
<g opacity="0.2">
<path d="M112.083 143.318C111.938 143.483 111.835 143.68 111.781 143.892C111.727 144.105 111.724 144.328 111.773 144.542C111.822 144.756 111.921 144.955 112.061 145.124C112.202 145.292 112.381 145.425 112.583 145.511C114.353 146.281 117.066 147.28 118.572 146.954C120.939 146.448 120.384 140.209 118.836 140.271C117.288 140.333 114.825 140.146 113.464 141.714L112.083 143.318Z" fill="white"/>
</g>
<g opacity="0.7">
<path d="M150.237 160.439C150.052 160.179 149.816 159.959 149.543 159.793C149.387 159.699 149.212 159.641 149.031 159.622C148.85 159.604 148.667 159.625 148.496 159.686C148.324 159.746 148.168 159.843 148.038 159.971C147.908 160.099 147.808 160.254 147.746 160.425C147.612 160.772 147.585 161.152 147.669 161.514C147.783 161.858 147.964 162.175 148.203 162.446C148.441 162.718 148.732 162.939 149.057 163.097C149.205 163.192 149.371 163.254 149.544 163.281C149.717 163.307 149.895 163.296 150.064 163.249C150.226 163.165 150.366 163.043 150.471 162.893C150.576 162.743 150.643 162.57 150.667 162.389C150.735 162.052 150.732 161.704 150.658 161.368C150.584 161.033 150.441 160.716 150.237 160.439Z" fill="white"/>
</g>
<g opacity="0.7">
<path d="M140.716 152.5C140.613 152.363 140.486 152.248 140.341 152.159C140.259 152.111 140.168 152.081 140.073 152.071C139.979 152.062 139.884 152.074 139.794 152.106C139.705 152.137 139.623 152.189 139.556 152.256C139.488 152.322 139.437 152.403 139.404 152.493C139.338 152.673 139.326 152.868 139.369 153.055C139.428 153.235 139.523 153.401 139.648 153.543C139.774 153.685 139.927 153.8 140.098 153.881C140.176 153.93 140.263 153.962 140.354 153.975C140.444 153.988 140.537 153.982 140.625 153.957C140.709 153.912 140.78 153.849 140.834 153.772C140.889 153.695 140.924 153.606 140.938 153.513C140.972 153.338 140.97 153.157 140.932 152.983C140.894 152.809 140.82 152.644 140.716 152.5Z" fill="white"/>
</g>
<g opacity="0.7">
<path d="M132.485 154.845C132.54 155.581 132.436 156.982 132.95 157.281C133.463 157.579 133.644 157.468 134.553 157.281C135.462 157.094 136.482 156.851 136.309 155.796C136.135 154.741 136.357 154.165 135.677 153.88C134.997 153.596 132.45 154.241 132.485 154.845Z" fill="white"/>
</g>
<g opacity="0.7">
<path d="M144.598 161.861C144.598 162.146 144.598 162.694 144.778 162.812C144.959 162.93 145.042 162.882 145.41 162.812C145.778 162.743 146.166 162.646 146.104 162.229C146.041 161.813 146.104 161.591 145.854 161.48C145.604 161.369 144.584 161.619 144.598 161.861Z" fill="white"/>
</g>
<g opacity="0.2">
<path d="M98.6105 139.529C98.6591 140.264 98.5619 141.666 99.0685 141.964C99.5752 142.263 99.7625 142.145 100.679 141.964C101.595 141.784 102.608 141.534 102.434 140.479C102.261 139.424 102.476 138.848 101.803 138.564C101.13 138.279 98.548 138.925 98.6105 139.529Z" fill="white"/>
</g>
<path d="M90.1795 142.27C90.2211 142.27 90.3113 142.541 90.2211 142.999C90.0843 143.584 89.7661 144.111 89.312 144.505C88.8724 144.887 88.3699 145.19 87.8268 145.4C87.4174 145.567 87.1328 145.636 87.1328 145.594C87.1328 145.553 87.341 145.407 87.7158 145.185C88.2087 144.923 88.6738 144.611 89.1038 144.255C89.5072 143.895 89.8169 143.443 90.006 142.936C90.1309 142.541 90.124 142.27 90.1795 142.27Z" fill="#263238"/>
<path d="M75.5312 166.379C75.5312 166.379 75.5868 166.331 75.7117 166.248L76.253 165.901L78.335 164.575L86.1356 159.772L97.7531 152.68C100.008 151.228 102.362 149.937 104.797 148.814C106.103 148.237 107.463 147.793 108.857 147.489C109.571 147.333 110.294 147.227 111.022 147.169C111.377 147.159 111.731 147.114 112.077 147.038C112.228 147.008 112.37 146.943 112.491 146.848C112.612 146.752 112.708 146.629 112.771 146.489C112.813 146.341 112.815 146.185 112.776 146.036C112.737 145.887 112.659 145.751 112.549 145.643C112.31 145.408 112.005 145.253 111.675 145.198C110.987 145.084 110.287 145.061 109.593 145.129C108.199 145.264 106.839 145.633 105.568 146.219C103.168 147.38 100.85 148.702 98.6276 150.174L87.0655 157.316L79.258 162.097L77.1205 163.388L76.5653 163.714L76.364 163.819C76.4211 163.77 76.4814 163.726 76.5445 163.687L77.0858 163.333L79.1678 161.986L86.9267 157.128L98.4541 149.904C100.688 148.414 103.02 147.079 105.436 145.906C106.751 145.301 108.159 144.921 109.6 144.782C110.338 144.711 111.082 144.736 111.814 144.858C112.21 144.931 112.575 145.122 112.862 145.407C113.011 145.561 113.117 145.752 113.169 145.96C113.221 146.168 113.218 146.387 113.16 146.593C113.076 146.789 112.946 146.961 112.78 147.094C112.614 147.227 112.418 147.317 112.209 147.357C111.842 147.438 111.468 147.486 111.092 147.503C110.375 147.559 109.663 147.666 108.961 147.822C107.588 148.119 106.249 148.554 104.964 149.12C102.538 150.233 100.192 151.51 97.9405 152.944L86.316 159.974L78.4252 164.693L76.2808 165.956L75.7186 166.282L75.5312 166.379Z" fill="#263238"/>
<path d="M79.5338 163.818C79.4921 163.902 79.0133 163.68 78.8398 163.124C78.6663 162.569 78.8398 162.077 78.93 162.118C79.0202 162.16 78.9855 162.555 79.159 163.013C79.3325 163.471 79.5893 163.735 79.5338 163.818Z" fill="#263238"/>
<path d="M82.5867 161.806C82.5867 161.896 82.0662 161.806 81.7886 161.279C81.511 160.751 81.7053 160.286 81.7886 160.328C81.8719 160.369 81.8719 160.73 82.087 161.119C82.3021 161.508 82.6422 161.702 82.5867 161.806Z" fill="#263238"/>
<path d="M86.1809 159.856C86.0907 159.856 85.9103 159.502 85.6257 159.085C85.3412 158.669 85.0636 158.35 85.1261 158.273C85.1885 158.197 85.591 158.426 85.9103 158.898C86.2295 159.37 86.2712 159.835 86.1809 159.856Z" fill="#263238"/>
<path d="M89.4857 157.704C89.3954 157.704 89.1803 157.392 88.7917 157.052C88.403 156.712 88.0977 156.504 88.0977 156.406C88.0977 156.309 88.5973 156.406 89.0068 156.809C89.4163 157.211 89.5759 157.676 89.4857 157.704Z" fill="#263238"/>
<path d="M93.468 155.456C93.3917 155.511 93.1002 155.227 92.7393 154.894C92.3784 154.561 92.0453 154.297 92.1147 154.2C92.1841 154.103 92.5727 154.269 92.9683 154.63C93.3639 154.991 93.5443 155.386 93.468 155.456Z" fill="#263238"/>
<path d="M96.3828 153.853C96.2856 153.853 96.1329 153.45 95.8206 153.013C95.5083 152.576 95.1613 152.319 95.2168 152.201C95.2724 152.083 95.7373 152.312 96.0982 152.819C96.4591 153.325 96.466 153.846 96.3828 153.853Z" fill="#263238"/>
<path d="M101.215 150.688C101.118 150.688 101.02 150.258 100.75 149.814C100.479 149.37 100.146 149.071 100.201 148.988C100.257 148.905 100.722 149.106 101.041 149.64C101.36 150.175 101.326 150.688 101.215 150.688Z" fill="#263238"/>
<path d="M105.406 148.599C105.315 148.599 105.315 148.169 105.093 147.732C104.871 147.294 104.552 147.038 104.594 146.961C104.635 146.885 105.128 147.031 105.399 147.586C105.669 148.141 105.489 148.634 105.406 148.599Z" fill="#263238"/>
<path d="M109.654 147.475C109.557 147.475 109.654 146.85 109.342 146.205C109.029 145.56 108.578 145.192 108.648 145.108C108.717 145.025 109.342 145.303 109.675 146.073C110.008 146.843 109.71 147.51 109.654 147.475Z" fill="#263238"/>
<path d="M114.076 139.799C114.076 139.834 113.916 139.757 113.653 139.764C113.275 139.804 112.921 139.968 112.646 140.229C112.256 140.66 111.906 141.124 111.598 141.617C111.369 141.925 111.079 142.182 110.746 142.372C110.413 142.562 110.044 142.681 109.662 142.721C108.902 142.803 108.136 142.632 107.483 142.235C106.961 141.919 106.509 141.499 106.158 141C105.808 140.569 105.556 140.067 105.422 139.528C105.477 139.528 105.727 140.084 106.345 140.854C106.702 141.301 107.14 141.678 107.636 141.964C108.237 142.309 108.932 142.455 109.621 142.381C109.959 142.349 110.287 142.247 110.585 142.083C110.882 141.918 111.142 141.693 111.349 141.423C111.678 140.919 112.062 140.454 112.494 140.035C112.815 139.759 113.229 139.613 113.653 139.625C113.958 139.667 114.083 139.792 114.076 139.799Z" fill="#263238"/>
<path d="M112.977 138.64C112.577 138.241 112.199 137.819 111.846 137.377C111.441 136.938 110.953 136.584 110.41 136.336C110.087 136.177 109.733 136.09 109.373 136.083C109.013 136.076 108.656 136.148 108.328 136.295C107.702 136.668 107.137 137.136 106.655 137.683C106.223 138.161 105.661 138.504 105.038 138.668C104.605 138.763 104.152 138.686 103.775 138.453C103.511 138.272 103.449 138.099 103.463 138.092C103.477 138.085 103.588 138.21 103.838 138.335C104.194 138.506 104.602 138.541 104.983 138.432C105.548 138.251 106.05 137.914 106.433 137.46C106.924 136.863 107.516 136.355 108.182 135.961C108.55 135.799 108.949 135.72 109.351 135.731C109.754 135.742 110.148 135.842 110.507 136.024C111.076 136.304 111.58 136.701 111.985 137.19C112.256 137.51 112.504 137.849 112.728 138.203C112.835 138.334 112.92 138.481 112.977 138.64Z" fill="#263238"/>
<path d="M114.433 140.34C114.433 140.34 114.433 140.514 114.315 140.791C114.158 141.183 113.947 141.552 113.691 141.888C112.846 143.03 111.589 143.798 110.188 144.03C108.786 144.262 107.35 143.939 106.182 143.13C105.829 142.893 105.51 142.611 105.231 142.29C105.044 142.061 104.96 141.923 104.974 141.909C104.988 141.895 105.425 142.395 106.307 142.929C107.451 143.643 108.815 143.917 110.146 143.698C111.477 143.48 112.682 142.785 113.538 141.742C113.864 141.293 114.162 140.825 114.433 140.34Z" fill="#263238"/>
<path d="M80.8945 146.968C81.9062 146.142 82.9884 145.406 84.1286 144.768C85.2088 144.034 86.3513 143.395 87.5431 142.86C86.5318 143.687 85.4496 144.423 84.309 145.06C83.2279 145.793 82.0855 146.432 80.8945 146.968Z" fill="#263238"/>
<g opacity="0.3">
<path d="M159.559 156.664C168.268 160.189 178.297 159.481 187.069 162.91C192.891 165.172 197.874 169.26 201.997 173.958C206.001 178.593 209.622 183.546 212.823 188.768C211.13 181.828 209.45 174.846 205.883 168.642C202.316 162.438 196.403 157.233 189.421 155.692C179.858 153.61 165.86 160.453 159.906 156.483" fill="black"/>
</g>
<path d="M212.825 188.768C212.796 188.712 212.778 188.651 212.77 188.588C212.728 188.449 212.68 188.268 212.624 188.046C212.492 187.547 212.319 186.853 212.09 185.964C211.625 184.153 210.938 181.537 209.904 178.33C208.721 174.61 207.129 171.032 205.157 167.664C202.694 163.556 199.179 160.18 194.976 157.885C192.799 156.722 190.441 155.938 188.001 155.567C185.718 155.286 183.408 155.305 181.13 155.623C176.751 156.136 172.886 157.122 169.575 157.628C168.084 157.867 166.574 157.965 165.064 157.92C163.919 157.876 162.786 157.67 161.698 157.309C161.015 157.083 160.362 156.773 159.755 156.386L159.297 156.06L159.145 155.942C159.953 156.465 160.826 156.882 161.74 157.184C162.82 157.517 163.941 157.699 165.071 157.725C166.569 157.756 168.065 157.642 169.541 157.385C172.823 156.858 176.689 155.845 181.096 155.303C183.396 154.976 185.729 154.95 188.036 155.227C190.515 155.601 192.911 156.397 195.121 157.58C199.391 159.911 202.951 163.352 205.427 167.539C207.404 170.934 208.983 174.546 210.133 178.303C211.146 181.488 211.798 184.118 212.215 185.937C212.423 186.846 212.583 187.554 212.68 188.019L212.791 188.567C212.815 188.631 212.826 188.699 212.825 188.768Z" fill="#263238"/>
<g opacity="0.2">
<path d="M159.761 156.379C167.395 153.693 175.313 150.667 180.733 144.643C189.513 134.927 189.714 119.597 198.382 109.742C199.124 108.895 200.041 108.048 201.158 107.993C201.852 107.993 202.587 108.271 203.309 108.284C204.961 108.284 206.203 106.834 207.189 105.508C208.965 103.1 210.749 98.9085 209.125 96.3893C208.591 95.5634 203.393 97.701 202.948 96.8265C202.504 95.9521 205.03 93.1275 204.253 92.8638C198.548 99.1583 196.508 102.08 192.566 106.855C187.757 112.684 186.133 121.026 182.947 127.869C177.785 138.886 169.406 148.08 158.914 154.241" fill="black"/>
</g>
<path d="M152.312 152.277C153.527 154.7 155.783 156.185 159.558 156.379C159.558 156.379 178.816 142.811 180.378 141.548C181.939 140.285 194.07 107.487 195.646 105.717C197.221 103.947 202.072 96.5215 202.072 96.5215L202.676 93.4263C202.676 93.4263 194.147 101.005 193.515 102.15C192.884 103.295 176.367 133.838 171.786 138.175C166.56 143.117 160.509 151.861 152.312 152.277Z" fill="#263238"/>
<path d="M197.328 99.936C197.564 99.8111 202.686 93.461 202.686 93.461C225.734 65.701 259.83 51.349 301.109 51.127C260.697 54.1736 225.817 67.4637 203.671 94.384L199.702 99.7625L197.328 99.936Z" fill="#263238"/>
<path d="M253.366 87.4438C253.185 87.5181 253 87.5806 252.811 87.6312L251.208 88.117C250.514 88.3322 249.653 88.5681 248.647 88.811C247.641 89.0539 246.509 89.3801 245.239 89.6716C240.173 90.9 233.108 92.2463 225.308 93.7384C221.407 94.4949 217.674 95.2583 214.349 96.0148C212.677 96.4242 211.081 96.7781 209.602 97.1807L207.465 97.7428L205.508 98.3119C204.252 98.6589 203.134 99.0059 202.156 99.3529L200.768 99.7901L199.63 100.207L198.054 100.769C197.873 100.844 197.685 100.902 197.492 100.942C197.666 100.854 197.844 100.775 198.027 100.706L199.588 100.082L200.712 99.6374L202.1 99.1724C203.079 98.8324 204.182 98.4784 205.445 98.0829L207.403 97.486L209.54 96.91C211.018 96.4936 212.614 96.1258 214.28 95.7094C217.639 94.9391 221.345 94.1618 225.245 93.4053C233.053 91.9132 240.125 90.6293 245.191 89.4356C246.461 89.158 247.606 88.8735 248.612 88.6306C249.619 88.3877 250.479 88.1725 251.18 87.9782L252.797 87.5549C252.983 87.499 253.173 87.4618 253.366 87.4438Z" fill="#263238"/>
<path d="M221.624 125.073C221.461 125.002 221.304 124.921 221.152 124.83C220.846 124.67 220.416 124.393 219.833 124.094C218.199 123.22 216.503 122.467 214.76 121.839C212.186 120.892 209.497 120.294 206.765 120.062C205.995 119.972 205.204 119.993 204.399 119.965C203.594 119.937 202.768 120.027 201.935 120.159C200.214 120.371 198.535 120.839 196.952 121.547C193.893 122.944 191.238 125.093 189.235 127.793C188.335 128.951 187.501 130.158 186.736 131.409C186.001 132.575 185.348 133.692 184.765 134.705C183.592 136.739 182.642 138.391 181.989 139.515C181.649 140.049 181.386 140.479 181.184 140.799C181.1 140.954 180.997 141.098 180.879 141.229C180.951 141.069 181.032 140.914 181.122 140.764L181.871 139.445L184.585 134.587C185.168 133.56 185.792 132.436 186.528 131.256C187.288 129.99 188.12 128.769 189.02 127.599C191.041 124.846 193.733 122.658 196.841 121.242C198.456 120.528 200.168 120.06 201.921 119.854C202.75 119.75 203.584 119.69 204.419 119.673C205.238 119.673 206.043 119.673 206.821 119.777C209.578 120.026 212.287 120.656 214.871 121.651C216.618 122.299 218.308 123.091 219.923 124.018C220.499 124.33 220.923 124.628 221.221 124.802C221.365 124.878 221.5 124.968 221.624 125.073Z" fill="#263238"/>
<path d="M154.762 152.132C154.473 152.325 154.143 152.449 153.798 152.493C152.979 152.673 152.135 152.701 151.306 152.576C150.48 152.446 149.684 152.171 148.954 151.764C148.405 151.438 148.121 151.167 148.142 151.132C149.16 151.644 150.244 152.015 151.362 152.236C152.495 152.351 153.638 152.316 154.762 152.132Z" fill="#263238"/>
<path d="M123.824 147.954C123.824 147.954 123.734 148.023 123.54 148.127C123.345 148.231 123.054 148.363 122.672 148.53C121.916 148.863 120.812 149.321 119.438 149.869C116.697 150.973 112.894 152.451 108.681 154.033L97.8547 158.121L94.5721 159.328C93.7948 159.606 93.3784 159.772 93.3645 159.752C93.3506 159.731 93.4547 159.689 93.656 159.592C93.8572 159.495 94.1487 159.37 94.5235 159.203C95.2869 158.884 96.3973 158.44 97.7714 157.892C100.547 156.809 104.33 155.338 108.542 153.728L123.824 147.954Z" fill="#263238"/>
<path d="M303.396 213.412C303.543 213.764 303.659 214.129 303.743 214.501C303.847 214.855 303.965 215.285 304.076 215.799C304.187 216.313 304.326 216.889 304.43 217.534C304.701 219.051 304.884 220.583 304.978 222.121C305.077 224.006 305.056 225.895 304.916 227.777C304.756 229.657 304.471 231.523 304.062 233.364C303.728 234.869 303.301 236.353 302.785 237.806C302.584 238.43 302.348 238.979 302.153 239.464C301.959 239.95 301.779 240.36 301.619 240.686C301.473 241.038 301.301 241.379 301.105 241.706C301.209 241.34 301.341 240.982 301.501 240.637C301.64 240.297 301.806 239.881 301.98 239.395C302.153 238.909 302.369 238.354 302.556 237.729C303.035 236.276 303.436 234.798 303.757 233.302C304.142 231.469 304.416 229.615 304.575 227.75C304.715 225.882 304.745 224.007 304.666 222.135C304.586 220.608 304.428 219.087 304.194 217.576C304.11 216.93 303.979 216.347 303.888 215.841C303.798 215.334 303.701 214.89 303.618 214.536C303.518 214.167 303.444 213.791 303.396 213.412Z" fill="#263238"/>
<path d="M309.01 234.572C308.955 234.572 309.274 233.593 309.628 232.004C310.549 227.849 310.549 223.542 309.628 219.387C309.281 217.798 308.934 216.833 309.017 216.819C309.137 217.024 309.23 217.243 309.295 217.472C309.516 218.081 309.706 218.702 309.864 219.332C310.923 223.508 310.923 227.883 309.864 232.06C309.707 232.687 309.518 233.306 309.295 233.913C309.227 234.143 309.132 234.365 309.01 234.572Z" fill="#263238"/>
<path d="M215.938 220.178C215.773 220.192 215.606 220.175 215.446 220.13C215.006 220.058 214.573 219.944 214.155 219.79C213.529 219.567 212.929 219.278 212.364 218.929C210.969 218.059 209.801 216.87 208.957 215.459C208.613 214.892 208.332 214.289 208.117 213.662C207.963 213.241 207.851 212.806 207.784 212.364C207.735 212.051 207.722 211.878 207.784 211.878C207.846 211.878 207.964 212.572 208.374 213.578C208.618 214.177 208.915 214.753 209.262 215.299C209.692 215.961 210.185 216.579 210.733 217.145C211.295 217.7 211.909 218.199 212.566 218.638C213.11 218.987 213.683 219.289 214.28 219.54C215.265 219.998 215.945 220.116 215.938 220.178Z" fill="#263238"/>
<path d="M219.243 219.109C218.668 219.023 218.111 218.848 217.591 218.589C216.309 218.016 215.135 217.227 214.121 216.257C213.101 215.285 212.254 214.147 211.616 212.891C211.335 212.38 211.132 211.831 211.012 211.26C211.067 211.26 211.31 211.857 211.831 212.773C213.189 215.184 215.239 217.133 217.716 218.367C218.611 218.846 219.263 219.054 219.243 219.109Z" fill="#263238"/>
<path d="M66.9209 183.91V266.316L57.6005 257.287L53.2422 259.369C53.2422 259.369 62.9582 272.555 66.8932 277.725V330.677H78.4205V183.91H66.9209Z" fill="#455A64"/>
<path d="M146.517 219.263L24.2068 245.961L17.1211 213.475L139.425 186.776L141.861 197.95L136.905 203.745L143.374 204.862L146.517 219.263Z" fill="#455A64"/>
<path d="M139.424 186.776C139.424 186.776 139.222 186.839 138.813 186.936L137.009 187.359L130.069 188.928L104.217 194.653L17.1755 213.752L17.3768 213.44C18.4803 218.756 19.6462 224.377 20.8468 230.096L24.2196 246.37L23.9073 246.169L111.122 226.938L137.064 221.275L144.073 219.769L145.892 219.387L146.516 219.276C146.516 219.276 146.308 219.339 145.906 219.436L144.094 219.866L137.106 221.462L111.192 227.278L24.0184 246.71L23.7616 246.766L23.7061 246.509L20.3194 230.2C19.1326 224.502 17.9667 218.888 16.8494 213.544L16.8008 213.287L17.0506 213.232L104.099 194.32L129.992 188.768L136.981 187.29L138.799 186.915L139.424 186.776Z" fill="#263238"/>
<path d="M143.885 210.06L142.608 210.261C141.769 210.414 140.526 210.518 138.951 210.851C134.494 211.747 130.11 212.972 125.834 214.516C120.4 216.403 114.099 219.103 107.027 221.934C103.495 223.322 99.747 224.71 95.7912 225.994C91.718 227.307 87.5382 228.261 83.2992 228.847C79.0506 229.405 74.759 229.563 70.481 229.319C66.317 229.145 62.3612 228.77 58.565 228.507C54.7688 228.243 51.1531 228.035 47.7733 228.111C44.6352 228.156 41.5061 228.46 38.4182 229.02C33.9269 229.768 29.6246 231.385 25.7527 233.781C25.1482 234.154 24.5644 234.559 24.0038 234.995C23.5771 235.294 23.167 235.616 22.7754 235.96C22.1369 236.515 21.7969 236.8 21.7969 236.8C21.7969 236.8 22.1161 236.495 22.7477 235.925C23.06 235.634 23.4417 235.308 23.9622 234.933C24.5221 234.49 25.1059 234.077 25.711 233.698C29.5776 231.262 33.8861 229.611 38.3904 228.84C41.4816 228.264 44.6155 227.948 47.7594 227.896C51.1531 227.813 54.7688 228.007 58.5719 228.271C62.3751 228.534 66.3447 228.895 70.481 229.069C74.7475 229.313 79.0276 229.155 83.2645 228.597C87.5036 228.015 91.6837 227.063 95.7565 225.751C99.7053 224.516 103.453 223.128 106.985 221.712C114.05 218.895 120.366 216.209 125.814 214.335C130.096 212.799 134.491 211.595 138.958 210.733C140.54 210.407 141.789 210.317 142.629 210.178L143.885 210.06Z" fill="#263238"/>
<path d="M140.429 197.505C140.429 197.505 139.985 197.45 139.145 197.318L135.453 196.742C130.935 196.031 126.383 195.552 121.816 195.305C116.063 195.076 109.039 195.222 101.732 197.554C101.273 197.7 100.815 197.838 100.344 197.998L98.9555 198.533C98.0394 198.873 97.1442 199.289 96.235 199.719C94.4029 200.619 92.6233 201.622 90.9051 202.724C87.3796 204.945 83.9304 207.548 80.3008 210.074C76.8006 212.584 73.0847 214.778 69.1968 216.632C65.5567 218.327 61.7994 219.758 57.954 220.914C51.4301 222.806 44.7648 224.17 38.0223 224.995C32.2691 225.744 27.6123 226.105 24.3644 226.383C21.1165 226.66 19.3398 226.73 19.3398 226.73C19.3398 226.73 19.784 226.681 20.6376 226.612L24.3575 226.299C27.5846 226.022 32.2552 225.605 38.0015 224.87C44.7323 224.023 51.3854 222.645 57.8985 220.747C61.7329 219.592 65.4788 218.161 69.1066 216.465C72.9954 214.619 76.7115 212.429 80.2106 209.921C83.8333 207.395 87.2894 204.792 90.8218 202.572C92.5485 201.466 94.3374 200.46 96.1795 199.56C97.0887 199.129 97.9909 198.713 98.9139 198.373L100.302 197.839C100.76 197.679 101.218 197.54 101.69 197.387C109.039 195.063 116.083 194.931 121.816 195.174C126.387 195.44 130.941 195.943 135.46 196.68C138.673 197.172 140.429 197.505 140.429 197.505Z" fill="#263238"/>
<path d="M81.4203 200.386C81.4203 200.386 81.2537 200.559 80.9206 200.878L79.4563 202.266L78.4222 203.238C78.0197 203.592 77.5686 203.932 77.0897 204.342C76.1251 205.119 75.0702 206.056 73.7794 206.937L71.7876 208.367C71.0936 208.859 70.3302 209.304 69.5598 209.803C68.033 210.824 66.298 211.74 64.4936 212.739C60.4953 214.787 56.333 216.498 52.0502 217.854C47.7626 219.141 43.3752 220.07 38.9336 220.63C36.8516 220.831 34.9292 221.06 33.0971 221.088C32.181 221.088 31.2927 221.178 30.4391 221.164L27.9962 221.109C26.4347 221.109 25.0328 220.942 23.7975 220.845C23.1798 220.789 22.6038 220.755 22.0764 220.692L20.6398 220.477L18.6549 220.172C18.2038 220.102 17.9609 220.054 17.9609 220.054L18.6549 220.13L20.6467 220.394L22.0833 220.595C22.6038 220.651 23.1798 220.678 23.7975 220.734C25.0328 220.81 26.4347 220.977 27.9615 220.963L30.4044 221.004C31.258 221.004 32.1394 220.942 33.0554 220.914C34.8876 220.88 36.8308 220.644 38.8781 220.442C43.3378 219.875 47.7434 218.942 52.0502 217.652C56.3027 216.298 60.4367 214.597 64.4104 212.565C66.2148 211.573 67.9498 210.671 69.4766 209.658C70.2469 209.165 71.0103 208.721 71.7043 208.235L73.6961 206.847C74.9869 205.972 76.0487 205.042 77.0203 204.279C77.4992 203.89 77.9572 203.537 78.3598 203.196L79.4355 202.218C80.0462 201.663 80.5459 201.219 80.9206 200.872C81.2954 200.525 81.4203 200.386 81.4203 200.386Z" fill="#263238"/>
<path d="M41.0063 239.867C40.8304 240.074 40.6109 240.239 40.3638 240.35C40.1166 240.462 39.8478 240.517 39.5767 240.513C38.9605 240.524 38.3496 240.629 37.7654 240.825C37.5955 240.899 37.4446 241.01 37.3243 241.151C37.204 241.291 37.1175 241.458 37.0714 241.637C37.0381 241.732 37.0246 241.833 37.0316 241.934C37.0386 242.034 37.066 242.132 37.1121 242.222C37.1582 242.311 37.222 242.391 37.2997 242.455C37.3774 242.519 37.4674 242.567 37.5641 242.595C38.0263 242.666 38.4982 242.645 38.9521 242.532C39.4472 242.449 39.9538 242.338 40.472 242.199C41.5733 241.903 42.6338 241.471 43.6297 240.915C44.1572 240.613 44.612 240.198 44.9621 239.701C45.1354 239.444 45.2442 239.149 45.2792 238.841C45.3142 238.533 45.2745 238.221 45.1634 237.931C44.9121 237.323 44.445 236.828 43.8517 236.543C43.2324 236.261 42.5669 236.094 41.8877 236.05C39.2701 235.839 36.6364 236.143 34.1357 236.946C32.0915 237.596 30.1139 238.439 28.2298 239.465C26.6197 240.332 25.3497 241.11 24.4822 241.651L23.4828 242.282C23.2538 242.428 23.1289 242.491 23.1289 242.491C24.7397 241.336 26.42 240.281 28.1604 239.333C30.045 238.284 32.0278 237.422 34.0802 236.758C36.6038 235.94 39.2642 235.629 41.9085 235.842C42.6149 235.889 43.3066 236.065 43.9489 236.363C44.5774 236.668 45.0715 237.194 45.3369 237.841C45.4609 238.159 45.5048 238.502 45.4649 238.841C45.425 239.18 45.3024 239.504 45.1079 239.784C44.7459 240.308 44.2717 240.744 43.7199 241.061C42.7037 241.62 41.6221 242.052 40.4997 242.345C39.9792 242.484 39.4657 242.588 38.966 242.671C38.4859 242.785 37.9874 242.8 37.5016 242.713C37.3842 242.679 37.2753 242.621 37.182 242.542C37.0888 242.463 37.0132 242.365 36.9603 242.255C36.8685 242.034 36.8562 241.789 36.9256 241.561C36.9819 241.365 37.0808 241.183 37.2151 241.03C37.3495 240.876 37.516 240.754 37.7029 240.672C38.305 240.484 38.932 240.388 39.5628 240.388C39.9538 240.368 40.3355 240.261 40.6802 240.076C40.7957 240.018 40.905 239.948 41.0063 239.867Z" fill="#263238"/>
<path d="M48.7048 209.248C48.5278 209.374 48.3231 209.455 48.108 209.484C47.7987 209.538 47.4811 209.517 47.1816 209.423C46.8821 209.329 46.6096 209.164 46.3869 208.943L46.3383 208.894L46.4008 208.853C48.2054 207.861 50.1808 207.218 52.2234 206.958C53.5868 206.743 54.9754 206.743 56.3388 206.958C56.7161 207.047 57.0632 207.233 57.3451 207.499C57.491 207.65 57.5872 207.842 57.6207 208.049C57.6542 208.257 57.6234 208.469 57.5325 208.658C57.0953 209.422 56.2347 209.602 55.5269 209.894C51.6875 211.306 47.6175 211.986 43.5276 211.899C41.8368 211.883 40.1516 211.702 38.4961 211.358L38.8431 211.393L39.8425 211.517C45.1186 212.133 50.4656 211.508 55.4575 209.692C56.1515 209.415 56.9981 209.2 57.3451 208.568C57.4184 208.417 57.4438 208.246 57.4177 208.08C57.3917 207.914 57.3155 207.76 57.1994 207.638C56.9425 207.398 56.6263 207.23 56.2833 207.152C54.9465 206.938 53.5852 206.924 52.2442 207.111C50.2192 207.36 48.256 207.974 46.4493 208.922V208.839C46.66 209.053 46.9176 209.215 47.2019 209.313C47.4862 209.411 47.7893 209.441 48.0872 209.401C48.2989 209.377 48.5066 209.326 48.7048 209.248Z" fill="#263238"/>
<path d="M143.319 214.363C143.106 214.425 142.887 214.47 142.666 214.495C142.243 214.564 141.639 214.682 140.897 214.842C138.96 215.277 137.07 215.9 135.255 216.702C133.441 217.51 131.711 218.495 130.091 219.644C129.474 220.081 128.981 220.456 128.648 220.72C128.479 220.865 128.301 220.997 128.113 221.115C128.257 220.947 128.417 220.793 128.592 220.657C128.911 220.373 129.39 219.963 129.98 219.519C133.211 217.124 136.936 215.478 140.883 214.703C141.639 214.55 142.271 214.46 142.673 214.418C142.887 214.384 143.103 214.365 143.319 214.363Z" fill="#263238"/>
<path d="M140.693 192.363C140.544 192.4 140.39 192.419 140.235 192.419C139.944 192.419 139.541 192.453 138.986 192.419C137.603 192.38 136.229 192.168 134.899 191.787C133.57 191.41 132.293 190.872 131.095 190.184C130.731 189.972 130.379 189.74 130.041 189.49C129.911 189.408 129.79 189.312 129.68 189.205C129.68 189.171 130.242 189.538 131.165 190.038C132.371 190.685 133.644 191.199 134.961 191.572C136.277 191.945 137.628 192.178 138.993 192.266C140.041 192.356 140.693 192.321 140.693 192.363Z" fill="#263238"/>
<path d="M62.7434 224.435L63.1459 226.323L55.2412 227.995L53.0898 217.793L60.8002 216.197L61.1958 218.092L55.8034 219.188L56.2753 221.402L61.0084 220.403L61.397 222.242L56.6639 223.241L57.1567 225.601L62.7434 224.435Z" fill="white"/>
<path d="M71.5218 224.56L68.954 222.131H68.836L66.754 222.561L67.3508 225.406L64.9912 225.899L62.8398 215.697L67.2814 214.809C70.0089 214.233 72.0076 215.288 72.4934 217.585C72.6693 218.264 72.6302 218.982 72.3817 219.638C72.1331 220.294 71.6872 220.857 71.1054 221.249L74.0826 224.025L71.5218 224.56ZM67.559 216.745L65.6367 217.155L66.3862 220.708L68.3086 220.306C69.7521 220 70.335 219.174 70.106 218.071C69.877 216.967 68.9887 216.44 67.559 216.745Z" fill="white"/>
<path d="M82.2327 222.298L79.6649 219.875H79.5469L77.4649 220.313L78.0687 223.151L75.7022 223.651L73.5508 213.449L77.9716 212.512C80.692 211.943 82.6977 212.991 83.1835 215.288C83.3594 215.967 83.3204 216.685 83.0718 217.341C82.8232 217.997 82.3773 218.56 81.7955 218.952L84.7797 221.728L82.2327 222.298ZM78.27 214.49L76.3476 214.893L77.0971 218.453L79.0195 218.043C80.463 217.738 81.0529 216.919 80.817 215.809C80.581 214.698 79.7135 214.185 78.27 214.49Z" fill="white"/>
<path d="M84.7314 216.447C84.086 213.414 85.9737 210.673 89.2008 209.993C92.4279 209.312 95.2524 211.04 95.8909 214.087C96.5294 217.134 94.6278 219.868 91.4216 220.541C88.2153 221.214 85.3699 219.473 84.7314 216.447ZM93.5036 214.594C93.3573 213.969 93.0299 213.401 92.5623 212.961C92.0947 212.521 91.5077 212.229 90.8748 212.121C90.2419 212.013 89.5913 212.095 89.0045 212.355C88.4177 212.616 87.9208 213.043 87.576 213.585C87.2312 214.126 87.0539 214.758 87.0663 215.399C87.0786 216.041 87.2801 216.665 87.6455 217.193C88.0109 217.721 88.5239 218.129 89.1203 218.367C89.7167 218.604 90.37 218.661 90.9982 218.529C91.4287 218.449 91.8382 218.282 92.2011 218.038C92.5641 217.793 92.8728 217.476 93.1078 217.107C93.3429 216.738 93.4994 216.324 93.5675 215.892C93.6355 215.459 93.6138 215.017 93.5036 214.594Z" fill="white"/>
<path d="M105.244 217.447L102.677 215.018H102.559L100.477 215.455L101.08 218.293L98.7139 218.793L96.5625 208.591L100.983 207.661C103.704 207.085 105.709 208.14 106.195 210.437C106.372 211.119 106.333 211.839 106.084 212.498C105.834 213.157 105.385 213.722 104.8 214.115L107.784 216.891L105.244 217.447ZM101.282 209.632L99.3593 210.042L100.109 213.595L102.031 213.192C103.475 212.887 104.065 212.061 103.829 210.951C103.593 209.84 102.725 209.327 101.282 209.632Z" fill="white"/>
</svg>
