<svg width="347" height="348" viewBox="0 0 347 348" fill="none" xmlns="http://www.w3.org/2000/svg">
<path d="M97.5496 320.49C95.2632 321.682 93.4768 323.651 92.5111 326.042C90.0067 323.386 88.5432 319.917 88.3888 316.27C86.9705 316.873 85.7763 317.904 84.9736 319.22C84.1709 320.535 83.7998 322.069 83.9125 323.606L70.6501 311.225C69.97 316.097 69.276 320.969 68.5681 325.841C66.0307 318.6 62.3626 311.807 57.7001 305.715C57.6029 311.234 57.5081 316.749 57.4155 322.26C51.0091 309.408 41.5018 298.355 29.7527 290.1C33.2227 297.775 36.6927 305.527 38.4485 313.772C35.154 307.19 29.763 301.892 23.125 298.712C30.2969 308.359 35.3744 319.398 38.0321 331.122L101.651 331.164C101.651 331.164 98.9445 324.161 103.664 321.802L97.5496 320.49Z" fill="#EBEBEB"/>
<path d="M97.407 103.756C113.56 87.6034 113.56 61.4142 97.407 45.2612C81.2539 29.1081 55.0647 29.1081 38.9117 45.2612C22.7587 61.4142 22.7587 87.6034 38.9117 103.756C55.0647 119.909 81.2539 119.909 97.407 103.756Z" fill="#EBEBEB"/>
<path d="M332.224 270.084C325.517 273.873 319.773 279.158 315.44 285.527C311.107 291.897 308.301 299.18 307.24 306.811C307.443 293.996 309.536 281.282 313.452 269.078C304.19 280.356 298.717 294.265 297.809 308.83L296.06 284.693C290.342 295.797 289.814 308.719 289.453 321.184C287 316.016 283.595 311.357 279.418 307.449C281.028 315.083 282.666 323.647 284.276 331.302L317.276 331.226L316.658 324.633C314.731 305.133 320.296 285.63 332.224 270.084Z" fill="#EBEBEB"/>
<path d="M302.136 118.987C302.58 115.787 298.069 113.164 294.682 112.886C293.065 112.761 291.386 113.004 289.824 112.47C286.507 111.318 285.181 107.029 281.947 105.662C279.525 104.642 276.742 105.551 274.397 106.731C272.051 107.91 269.733 109.402 267.11 109.569C264.833 109.715 262.356 108.875 260.364 109.985C258.879 110.811 258.095 112.525 256.727 113.532C255.36 114.538 253.639 114.732 251.973 114.823C250.308 114.913 248.594 114.927 247.081 115.621C245.568 116.315 244.305 117.918 244.624 119.556L302.136 118.987Z" fill="#F5F5F5"/>
<path d="M215.883 60.9753C216.264 58.1993 212.343 55.9091 209.394 55.6731C208.006 55.5621 206.528 55.7772 205.195 55.3122C202.308 54.3059 201.156 50.5791 198.345 49.3924C196.263 48.5041 193.814 49.2952 191.773 50.3224C189.733 51.3495 187.72 52.6403 185.437 52.7861C183.452 52.911 181.273 52.1753 179.566 53.1469C178.275 53.8409 177.595 55.3539 176.401 56.2352C175.207 57.1166 173.715 57.2762 172.237 57.3595C170.786 57.3214 169.34 57.5569 167.976 58.0535C166.657 58.6573 165.568 60.0522 165.838 61.4749L215.883 60.9753Z" fill="#EBEBEB"/>
<path d="M107.524 172.349C108.058 168.469 102.576 165.277 98.4602 164.944C96.5031 164.784 94.4627 165.082 92.6028 164.437C88.5776 163.049 86.9675 157.83 83.0325 156.171C80.0969 154.929 76.7102 156.033 73.8648 157.469C71.0194 158.906 68.2018 160.703 65.0163 160.939C62.2403 161.113 59.2422 160.086 56.8202 161.439C55.0158 162.445 54.0442 164.527 52.4063 165.756C50.7685 166.984 48.6587 167.206 46.6392 167.317C44.6196 167.428 42.5307 167.449 40.6916 168.289C38.8525 169.128 37.3257 171.065 37.7074 173.063L107.524 172.349Z" fill="#EBEBEB"/>
<path d="M284.199 171.373C294.435 167.78 299.819 156.569 296.226 146.333C292.632 136.097 281.422 130.713 271.186 134.306C260.95 137.899 255.565 149.11 259.159 159.346C262.752 169.582 273.963 174.967 284.199 171.373Z" fill="#EBEBEB"/>
<path d="M272.256 153.673C271.7 153.98 271.065 154.114 270.432 154.06C269.798 154.006 269.195 153.765 268.699 153.369C268.203 152.972 267.835 152.437 267.643 151.831C267.451 151.225 267.442 150.576 267.619 149.966C267.795 149.355 268.149 148.811 268.635 148.401C269.121 147.992 269.718 147.736 270.349 147.665C270.981 147.595 271.619 147.713 272.183 148.006C272.748 148.298 273.213 148.751 273.519 149.308C273.724 149.677 273.854 150.083 273.901 150.503C273.948 150.922 273.912 151.347 273.795 151.753C273.677 152.158 273.481 152.537 273.217 152.866C272.953 153.196 272.627 153.47 272.256 153.673Z" fill="white"/>
<path d="M278.183 145.199C277.859 145.377 277.491 145.454 277.123 145.422C276.755 145.391 276.406 145.25 276.118 145.02C275.83 144.789 275.617 144.478 275.505 144.126C275.394 143.775 275.389 143.398 275.492 143.043C275.594 142.689 275.8 142.373 276.082 142.135C276.364 141.897 276.71 141.749 277.077 141.707C277.444 141.666 277.814 141.735 278.142 141.904C278.47 142.074 278.74 142.336 278.919 142.659C279.037 142.874 279.113 143.111 279.14 143.355C279.167 143.599 279.146 143.846 279.078 144.082C279.01 144.318 278.895 144.538 278.742 144.73C278.588 144.922 278.398 145.081 278.183 145.199Z" fill="white"/>
<path d="M265.457 138.509C265.2 138.752 242.756 131.75 241.826 137.253C240.896 142.756 257.566 154.568 276.214 162.202C294.862 169.836 315.258 174.951 316.938 169.552C318.617 164.152 298.595 152.806 298.595 152.806L298.415 155.582C298.415 155.582 310.796 162.293 310.019 166.998C309.241 171.703 293.994 167.907 277.074 160.016C260.155 152.125 246.358 143.09 247.926 139.654C249.495 136.219 263.43 140.688 263.43 140.688L265.457 138.509Z" fill="#E0E0E0"/>
<path d="M285.802 136.725C285.712 136.961 284.074 136.337 281.354 136.108C277.83 135.769 274.284 136.467 271.152 138.115C268.019 139.763 265.436 142.291 263.719 145.386C262.366 147.76 261.95 149.46 261.707 149.405C261.464 149.349 261.575 147.552 262.762 144.894C263.468 143.342 264.404 141.906 265.538 140.633C268.33 137.435 272.215 135.393 276.433 134.907C278.126 134.697 279.841 134.741 281.52 135.039C284.359 135.566 285.886 136.58 285.802 136.725Z" fill="white"/>
<path d="M312.638 91.1217C319.355 88.7657 322.889 81.4111 320.533 74.6947C318.177 67.9783 310.823 64.4435 304.106 66.7995C297.39 69.1555 293.855 76.5101 296.211 83.2265C298.567 89.9429 305.922 93.4777 312.638 91.1217Z" fill="#E0E0E0"/>
<path d="M312.571 74.064C312.584 73.6551 312.716 73.2589 312.952 72.9248C313.188 72.5907 313.517 72.3336 313.899 72.1856C314.28 72.0375 314.697 72.0051 315.096 72.0923C315.496 72.1796 315.861 72.3826 316.146 72.6762C316.431 72.9697 316.623 73.3406 316.699 73.7427C316.774 74.1448 316.729 74.5601 316.57 74.9369C316.411 75.3138 316.144 75.6353 315.803 75.8614C315.462 76.0876 315.062 76.2082 314.653 76.2084C314.375 76.2086 314.099 76.1527 313.842 76.0442C313.585 75.9357 313.353 75.7767 313.159 75.5767C312.964 75.3767 312.812 75.1398 312.711 74.8799C312.611 74.6201 312.563 74.3426 312.571 74.064Z" fill="#F5F5F5"/>
<path d="M316.778 78.9224C316.783 78.6809 316.86 78.4465 316.999 78.2488C317.138 78.051 317.332 77.8989 317.557 77.8116C317.783 77.7243 318.029 77.7057 318.264 77.7582C318.5 77.8107 318.715 77.932 318.882 78.1066C319.049 78.2812 319.16 78.5014 319.202 78.7394C319.244 78.9773 319.214 79.2222 319.117 79.4432C319.019 79.6643 318.858 79.8514 318.654 79.9811C318.451 80.1107 318.213 80.177 317.972 80.1716C317.811 80.1689 317.652 80.1343 317.505 80.0699C317.358 80.0055 317.225 79.9125 317.114 79.7963C317.003 79.6801 316.916 79.543 316.858 79.393C316.801 79.243 316.773 79.083 316.778 78.9224Z" fill="#F5F5F5"/>
<path d="M315.141 82.6975C315.2 82.6974 315.259 82.7094 315.313 82.7326C315.368 82.7559 315.417 82.79 315.458 82.8328C315.498 82.8756 315.53 82.9263 315.551 82.9818C315.572 83.0373 315.581 83.0964 315.578 83.1555C315.578 83.2752 315.531 83.3899 315.446 83.4745C315.361 83.5591 315.247 83.6066 315.127 83.6066C315.007 83.6066 314.893 83.5591 314.808 83.4745C314.723 83.3899 314.676 83.2752 314.676 83.1555C314.675 83.0945 314.686 83.0339 314.709 82.9775C314.732 82.921 314.767 82.8698 314.81 82.827C314.854 82.7842 314.905 82.7506 314.962 82.7284C315.019 82.7061 315.08 82.6956 315.141 82.6975Z" fill="#F5F5F5"/>
<path d="M324.286 331.191C324.286 331.288 256.773 331.372 173.507 331.372C90.241 331.372 22.7148 331.288 22.7148 331.191C22.7148 331.094 90.2133 331.011 173.507 331.011C256.801 331.011 324.286 331.094 324.286 331.191Z" fill="#263238"/>
<path d="M69.462 331.191C69.417 331.08 69.3867 330.963 69.3718 330.844C69.3163 330.581 69.2538 330.247 69.1775 329.852C69.0248 328.984 68.7749 327.735 68.4349 326.201C67.5566 322.201 66.3281 318.286 64.7636 314.501C63.8815 312.427 62.8805 310.407 61.7655 308.449C61.2242 307.568 60.7384 306.707 60.211 305.95L59.4684 304.84C59.2116 304.493 58.9687 304.146 58.7744 303.848C58.3164 303.202 57.8583 302.661 57.4627 302.175C57.0672 301.689 56.7271 301.28 56.4287 300.954L55.7347 300.19C55.6504 300.106 55.578 300.01 55.5195 299.906C55.5195 299.906 55.6236 299.982 55.7902 300.142L56.4842 300.836C56.8799 301.218 57.253 301.624 57.6015 302.05C58.0041 302.522 58.4829 303.057 58.9895 303.695L59.6835 304.674C59.9403 305.027 60.1902 305.368 60.4539 305.784C60.9952 306.54 61.4949 307.394 62.0501 308.282C63.1809 310.247 64.1937 312.277 65.0829 314.362C66.6556 318.17 67.8572 322.121 68.6708 326.16C68.9831 327.707 69.1913 328.936 69.3024 329.845C69.351 330.247 69.3926 330.581 69.4273 330.851C69.4558 330.962 69.4675 331.077 69.462 331.191Z" fill="#263238"/>
<path d="M50.1488 310.316C50.5039 310.395 50.8503 310.509 51.1829 310.656C51.5833 310.799 51.9749 310.966 52.3557 311.156C52.7999 311.378 53.3273 311.6 53.8617 311.926C54.4622 312.254 55.0438 312.615 55.6037 313.009C56.2283 313.404 56.832 313.911 57.4844 314.397C60.2576 316.718 62.497 319.611 64.0496 322.877C64.3877 323.585 64.6889 324.31 64.9518 325.05C65.193 325.69 65.3992 326.344 65.5695 327.007C65.7499 327.61 65.8332 328.173 65.9373 328.658C66.0277 329.075 66.0903 329.497 66.1247 329.921C66.186 330.279 66.2116 330.642 66.201 331.004C66.1247 331.004 66.0067 329.463 65.3197 327.076C65.1389 326.424 64.9235 325.782 64.6742 325.154C64.4383 324.46 64.0913 323.766 63.7512 323.023C62.97 321.433 62.0405 319.92 60.9752 318.505C59.8766 317.108 58.6473 315.818 57.304 314.653C56.6655 314.14 56.0756 313.633 55.4649 313.265C54.9183 312.865 54.3507 312.495 53.7646 312.155C51.5923 310.885 50.1211 310.392 50.1488 310.316Z" fill="#263238"/>
<path d="M67.8346 289.523C67.8664 289.665 67.8827 289.809 67.8832 289.954C67.8832 290.273 67.904 290.682 67.9457 291.182C67.9873 292.251 68.0636 293.792 68.1816 295.7C68.4176 299.503 68.8756 304.764 69.7431 310.517C70.6106 316.27 71.7072 321.441 72.6024 325.146C73.0466 327.006 73.4213 328.505 73.6989 329.533C73.8169 330.018 73.921 330.414 73.9974 330.726C74.0397 330.864 74.0676 331.006 74.0806 331.15C74.0164 331.021 73.9653 330.886 73.9279 330.747C73.8308 330.442 73.7128 330.053 73.5601 329.574C73.2478 328.547 72.8661 327.062 72.3526 325.209C69.8724 315.554 68.3887 305.671 67.9249 295.714C67.8416 293.805 67.7999 292.244 67.8069 291.189V289.954C67.8 289.81 67.8093 289.665 67.8346 289.523Z" fill="#263238"/>
<path d="M43.5985 320.719C43.7837 320.769 43.9595 320.848 44.119 320.955C44.4452 321.128 44.8963 321.399 45.4445 321.76C46.8713 322.715 48.1845 323.831 49.3587 325.084C50.5253 326.35 51.5407 327.747 52.3845 329.248C52.7038 329.824 52.9467 330.296 53.0785 330.636C53.1751 330.802 53.2432 330.982 53.2798 331.17C52.8685 330.596 52.4908 329.998 52.1486 329.38C51.2545 327.945 50.2275 326.597 49.0811 325.355C47.9211 324.121 46.6504 322.997 45.2849 321.996C44.2508 321.198 43.5707 320.767 43.5985 320.719Z" fill="#263238"/>
<path d="M54.6175 319.74C54.7397 320.288 54.8094 320.845 54.8257 321.406C54.9298 322.447 55.0686 323.87 55.256 325.445C55.4434 327.02 55.6516 328.443 55.7973 329.47C55.9104 330.023 55.9708 330.585 55.9778 331.15C55.7724 330.622 55.628 330.072 55.5475 329.512C55.3393 328.492 55.0894 327.069 54.8951 325.487C54.7008 323.904 54.6106 322.468 54.5689 321.427C54.5223 320.864 54.5385 320.299 54.6175 319.74Z" fill="#263238"/>
<path d="M158.685 294.756C158.703 294.881 158.703 295.007 158.685 295.131L158.623 296.2C158.553 297.123 158.477 298.462 158.401 300.121C158.008 308.753 158.55 317.402 160.018 325.917C160.295 327.555 160.545 328.873 160.712 329.783C160.788 330.206 160.857 330.553 160.906 330.83C160.933 330.954 160.95 331.079 160.955 331.205C160.898 331.094 160.858 330.974 160.837 330.851L160.573 329.81C160.351 328.908 160.066 327.596 159.754 325.966C158.948 321.71 158.407 317.408 158.137 313.085C157.871 308.763 157.871 304.429 158.137 300.107C158.248 298.448 158.366 297.109 158.477 296.186C158.526 295.756 158.574 295.409 158.609 295.124C158.618 294.999 158.644 294.875 158.685 294.756Z" fill="#263238"/>
<path d="M164.298 314.521C164.198 315.329 164.054 316.131 163.868 316.923C163.59 318.394 163.243 320.441 162.993 322.718C162.743 324.994 162.639 327.069 162.591 328.568C162.602 329.381 162.565 330.195 162.48 331.004C162.426 330.791 162.398 330.572 162.396 330.352C162.396 329.935 162.341 329.324 162.334 328.568C162.317 326.602 162.417 324.637 162.632 322.683C162.848 320.727 163.177 318.785 163.618 316.867C163.791 316.132 163.951 315.542 164.069 315.139C164.114 314.923 164.191 314.715 164.298 314.521Z" fill="#263238"/>
<path d="M232.698 298.656C232.73 298.764 232.744 298.877 232.74 298.989C232.74 299.246 232.774 299.565 232.788 299.94C232.83 300.828 232.879 302.022 232.934 303.452C233.066 306.422 233.302 310.517 233.704 315.021C234.107 319.525 234.621 323.606 235.03 326.541C235.231 327.971 235.398 329.144 235.516 330.011C235.571 330.386 235.613 330.705 235.641 330.962C235.659 331.072 235.659 331.185 235.641 331.295C235.596 331.191 235.565 331.081 235.551 330.969C235.502 330.719 235.433 330.407 235.356 330.032C235.197 329.22 234.988 328.033 234.752 326.562C234.287 323.626 233.739 319.553 233.33 315.035C232.92 310.517 232.726 306.415 232.636 303.445C232.636 301.96 232.594 300.752 232.636 299.926C232.636 299.542 232.636 299.223 232.636 298.969C232.646 298.863 232.667 298.758 232.698 298.656Z" fill="#263238"/>
<path d="M240.481 314.702C240.53 314.702 240.238 315.618 239.843 317.089C239.328 319.002 238.943 320.947 238.691 322.912C238.452 324.878 238.35 326.858 238.385 328.839C238.385 330.358 238.475 331.302 238.42 331.309C238.349 331.098 238.307 330.879 238.295 330.657C238.233 330.227 238.177 329.609 238.128 328.846C238.02 326.849 238.087 324.848 238.33 322.863C238.578 320.879 239.003 318.921 239.6 317.013C239.829 316.284 240.03 315.701 240.197 315.306C240.363 314.91 240.453 314.688 240.481 314.702Z" fill="#263238"/>
<path d="M332.857 292.674C332.747 292.782 332.629 292.879 332.503 292.966L331.434 293.736L330.657 294.284C330.379 294.493 330.095 294.742 329.775 294.978C329.158 295.499 328.387 296.047 327.693 296.762L326.52 297.845C326.111 298.226 325.736 298.664 325.32 299.094C324.466 299.94 323.668 300.947 322.815 301.981C319.175 306.577 316.522 311.873 315.021 317.54C314.716 318.852 314.389 320.094 314.23 321.281C314.14 321.871 314.015 322.44 313.966 322.995C313.917 323.55 313.855 324.078 313.806 324.584C313.675 325.598 313.702 326.521 313.668 327.36C313.668 327.763 313.633 328.145 313.668 328.492C313.702 328.839 313.668 329.186 313.668 329.435C313.668 329.977 313.668 330.414 313.709 330.754C313.724 330.906 313.724 331.06 313.709 331.212C313.671 331.065 313.65 330.913 313.647 330.761C313.647 330.421 313.584 329.984 313.543 329.442C313.543 329.151 313.501 328.839 313.473 328.492C313.446 328.145 313.473 327.798 313.473 327.36C313.473 326.542 313.473 325.612 313.57 324.584C313.612 324.071 313.654 323.537 313.702 322.981C313.751 322.426 313.862 321.85 313.945 321.253C314.098 320.053 314.41 318.803 314.716 317.478C315.472 314.63 316.506 311.864 317.804 309.219C319.148 306.597 320.743 304.11 322.565 301.793C323.439 300.752 324.251 299.753 325.119 298.906C325.542 298.483 325.924 298.039 326.34 297.671L327.541 296.588C328.283 295.894 329.047 295.346 329.685 294.84C330.004 294.597 330.296 294.354 330.587 294.146L331.378 293.618L332.489 292.924C332.602 292.828 332.726 292.744 332.857 292.674Z" fill="#263238"/>
<path d="M328.741 311.537C328.783 311.593 327.7 312.363 326.145 313.834C325.242 314.698 324.389 315.613 323.592 316.576C322.62 317.756 321.729 319.001 320.927 320.302C320.144 321.616 319.449 322.979 318.845 324.383C318.358 325.535 317.938 326.715 317.588 327.916C316.992 329.998 316.797 331.281 316.735 331.268C316.73 330.955 316.761 330.643 316.825 330.338C316.867 330.039 316.922 329.678 317.012 329.262C317.103 328.845 317.193 328.36 317.339 327.874C317.659 326.64 318.062 325.43 318.546 324.251C319.72 321.384 321.341 318.72 323.349 316.36C324.167 315.399 325.048 314.492 325.986 313.647C326.381 313.279 326.77 312.953 327.096 312.71C327.376 312.464 327.668 312.232 327.971 312.016C328.208 311.828 328.467 311.667 328.741 311.537Z" fill="#263238"/>
<path d="M158.697 309.733C157.656 322.405 147.448 332.69 127.002 331.011C117.078 330.199 106.876 326.583 100.332 321.108L102.761 308.782L107.911 308.963C112.998 313.501 120.264 316.465 127.731 317.075C136.011 317.769 141.41 314.695 141.889 308.865C142.347 303.244 138.967 299.26 125.982 298.199L107.681 296.7L114.663 256.718L158.323 260.292L157.233 273.582L127.391 271.14L125.149 284.645L130.979 285.124C152.132 286.859 159.731 297.054 158.697 309.733Z" fill="#FF725E"/>
<g opacity="0.4">
<path d="M158.697 309.733C157.656 322.405 147.448 332.69 127.002 331.011C117.078 330.199 106.876 326.583 100.332 321.108L102.761 308.782L107.911 308.963C112.998 313.501 120.264 316.465 127.731 317.075C136.011 317.769 141.41 314.695 141.889 308.865C142.347 303.244 138.967 299.26 125.982 298.199L107.681 296.7L114.663 256.718L158.323 260.292L157.233 273.582L127.391 271.14L125.149 284.645L130.979 285.124C152.132 286.859 159.731 297.054 158.697 309.733Z" fill="black"/>
</g>
<path d="M153.506 309.288C152.465 321.968 142.256 332.246 121.811 330.573C111.894 329.761 101.685 326.146 95.1406 320.67L102.712 308.525C107.792 313.057 115.065 316.02 122.526 316.638C130.812 317.332 136.205 314.258 136.683 308.428C137.142 302.807 133.769 298.823 120.777 297.761L102.476 296.262L109.465 256.281L153.117 259.855L152.028 273.145L122.186 270.702L119.951 284.207L125.781 284.686C146.941 286.428 154.547 296.616 153.506 309.288Z" fill="#FF725E"/>
<g opacity="0.2">
<path d="M132.012 315.201L139.354 320.538L140.485 323.474L140.666 318.512L135.454 312.314C134.658 313.632 133.448 314.647 132.012 315.201Z" fill="black"/>
</g>
<g opacity="0.2">
<path d="M136.621 309.06C136.621 309.06 140.313 313.682 140.834 313.883C141.354 314.084 149.307 316.27 149.307 316.27L150.917 318.352L152.146 315.222L150.418 313.945L143.277 312.557L136.718 306.263L136.621 309.06Z" fill="black"/>
</g>
<g opacity="0.2">
<path d="M136.267 304.777L142.915 307.262C143.297 306.956 149.855 306.332 150.514 306.186C151.174 306.04 153.665 306.88 153.665 306.88L153.145 303.126L142.964 305.166L135.031 302.466L136.267 304.777Z" fill="black"/>
</g>
<g opacity="0.2">
<path d="M147.821 292.834L141.166 297.886L132.199 300.246L133.927 301.342L139.334 300.947H146.787L152.173 299.073L151.138 297.047C151.138 297.047 141.422 299.823 142.207 299.011C142.991 298.199 149.105 294.021 149.105 294.021L147.821 292.834Z" fill="black"/>
</g>
<g opacity="0.2">
<path d="M143.465 289.502L138.607 295.568L130.141 299.614L128.059 298.76L134.638 293.368L138.968 287.386C140.529 287.952 142.034 288.661 143.465 289.502Z" fill="black"/>
</g>
<g opacity="0.2">
<path d="M103.301 293.472C103.301 293.472 106.771 295.811 108.721 295.804C110.671 295.797 120.561 291.855 120.561 291.855L128.889 292.154L136.023 287.816L128.389 289.898L121.199 289.357L112.767 291.439L104.293 287.199L103.301 293.472Z" fill="black"/>
</g>
<g opacity="0.2">
<path d="M119.887 284.027L111.205 282.389L104.668 283.937L105.313 280.619L113.218 280.029L120.311 281.834L119.887 284.027Z" fill="black"/>
</g>
<g opacity="0.2">
<path d="M106.348 274.505C106.348 274.505 116.196 278.024 117.535 278.142C118.874 278.26 120.901 278.614 120.901 278.614L121.262 276.532L114.766 274.63L107.382 268.086L107.069 270.862L110.13 274.006L106.66 272.68L106.348 274.505Z" fill="black"/>
</g>
<g opacity="0.2">
<path d="M108.203 264.144C108.203 264.144 115.837 269.432 117.815 269.384C119.793 269.335 124.831 268.738 124.831 268.738L138.947 271.896L145.506 272.722L130.029 267.031C130.029 267.031 120.973 264.366 120.931 264.602C120.889 264.838 115.976 265.241 115.976 265.241L109.223 258.578L108.203 264.144Z" fill="black"/>
</g>
<g opacity="0.2">
<path d="M117.551 257.142L123.54 262.61L137.462 264.623L147.525 270.265L140.404 263.991L130.105 261.68L123.769 257.364L117.551 257.142Z" fill="black"/>
</g>
<g opacity="0.2">
<path d="M97.1953 317.95C97.1953 317.95 103.587 316.562 104.135 316.673C104.684 316.784 114.892 322.551 114.892 322.551C114.892 322.551 126.135 322.294 126.531 322.308C126.926 322.322 134.165 326.944 134.165 326.944L128.314 320.004L114.573 319.74L107.168 312.599L99.6035 313.515L97.1953 317.95Z" fill="black"/>
</g>
<g opacity="0.2">
<path d="M102.164 324.994C102.164 324.994 105.537 323.675 106.967 324.015C108.396 324.355 113.303 326.84 113.303 326.84L120.618 326.458L127.877 327.457L134.484 329.907C134.484 329.907 130.368 330.428 128.821 330.664L124.469 328.762L115.447 328.241L110.339 328.443L106.987 325.986L103.726 325.868L102.164 324.994Z" fill="black"/>
</g>
<g opacity="0.2">
<path d="M141.887 258.953L145.815 264.185L152.505 267.503L152.692 265.192L147.251 263.228L145.128 259.071L141.887 258.953Z" fill="black"/>
</g>
<path d="M167.489 296.269C164.477 272.493 175.893 257.315 193.625 255.052C211.433 252.769 226.243 264.581 229.283 288.364C232.323 312.148 220.955 327.298 203.175 329.581C185.394 331.864 170.536 320.052 167.489 296.269ZM212.474 290.509C210.392 274.144 203.744 268.086 195.409 269.155C187.074 270.223 182.278 277.739 184.374 294.139C186.47 310.538 193.105 316.562 201.335 315.507C209.677 314.41 214.57 306.88 212.474 290.509Z" fill="#FF725E"/>
<g opacity="0.4">
<path d="M167.489 296.269C164.477 272.493 175.893 257.315 193.625 255.052C211.433 252.769 226.243 264.581 229.283 288.364C232.323 312.148 220.955 327.298 203.175 329.581C185.394 331.864 170.536 320.052 167.489 296.269ZM212.474 290.509C210.392 274.144 203.744 268.086 195.409 269.155C187.074 270.223 182.278 277.739 184.374 294.139C186.47 310.538 193.105 316.562 201.335 315.507C209.677 314.41 214.57 306.88 212.474 290.509Z" fill="black"/>
</g>
<path d="M161.402 297.609C158.363 273.825 169.807 258.654 187.518 256.385C205.229 254.116 220.136 265.92 223.168 289.697C226.201 313.473 214.84 328.637 197.06 330.914C179.356 333.183 164.477 321.385 161.402 297.609ZM206.388 291.848C204.306 275.477 197.657 269.425 189.322 270.487C180.987 271.549 176.192 279.079 178.287 295.471C180.383 311.863 187.018 317.894 195.256 316.839C203.494 315.784 208.483 308.213 206.388 291.848Z" fill="#FF725E"/>
<g opacity="0.2">
<path d="M181.133 328.811C181.133 328.811 187.573 325.979 188.073 325.84C188.573 325.701 198.296 327.554 198.296 327.554L206.7 324.022L213.147 323.835L215.083 321.947L205.041 320.601L196.151 323.904L184.513 323.37L177.934 327.166L181.133 328.811Z" fill="black"/>
</g>
<g opacity="0.2">
<path d="M174.305 324.515L182.98 320.469L191.918 320.996L182.993 318.713L174.214 321.517L170.73 320.927L174.305 324.515Z" fill="black"/>
</g>
<g opacity="0.2">
<path d="M201.836 313.952C201.836 313.952 207.555 314.417 208.54 314.487C209.525 314.556 216.132 311.308 216.132 311.308L221.157 312.002L221.851 309.976L216.077 309.407L208.498 312.877L203.738 311.739L201.836 313.952Z" fill="black"/>
</g>
<g opacity="0.2">
<path d="M184.633 312.842L179.831 312.925L173.425 314.792L166.471 314.549L164.938 311.294L171.718 311.836L179.053 309.941L183.12 310.843L184.633 312.842Z" fill="black"/>
</g>
<g opacity="0.2">
<path d="M206.117 305.589L212.481 305.388L220.407 300.239L223.53 300.933C223.53 300.933 223.745 297.213 223.634 295.228L218.332 297.532L211.572 302.897L206.638 303.112C206.512 303.947 206.338 304.774 206.117 305.589Z" fill="black"/>
</g>
<g opacity="0.2">
<path d="M180.891 306.429L173.916 306.637L168.503 307.422L163.124 306.082L162.527 303.813L167.469 305.562L172.292 303.528L180.197 304.472L180.891 306.429Z" fill="black"/>
</g>
<g opacity="0.2">
<path d="M161.406 297.609C161.406 297.609 166.5 299.899 167.305 299.795C168.11 299.691 176.278 299.531 176.278 299.531L179.012 299.85L178.596 297.567L172.426 296.727L166.548 296.901L160.996 292.279L161.406 297.609Z" fill="black"/>
</g>
<g opacity="0.2">
<path d="M206.901 299.024L210.211 298.393L216.555 292.931L220.476 287.317L223.009 288.545L222.807 287.247L218.56 285.422L213.841 292.188L206.797 295.707L206.901 299.024Z" fill="black"/>
</g>
<g opacity="0.2">
<path d="M171.473 263.422L178.052 267.357L187.969 263.95L198.754 266.746L206.652 263.401L197.525 263.672L189.586 261.201L178.843 264.22L175.213 260.639L171.473 263.422Z" fill="black"/>
</g>
<g opacity="0.2">
<path d="M161.125 285.63C161.125 285.63 172.465 291.647 172.923 291.925C173.381 292.202 177.955 291.779 177.955 291.779L177.871 289.135L173.666 288.621L161.868 280.772L161.125 285.63Z" fill="black"/>
</g>
<g opacity="0.2">
<path d="M204.176 281.917L207.826 277.975L218.694 273.888L220.332 277.753L210.901 279.981L205.585 287.677L204.176 281.917Z" fill="black"/>
</g>
<g opacity="0.2">
<path d="M163.078 276.289L169.595 282.542L178.325 282.285L179.179 279.037L171.941 279.252L164.917 271.951L163.078 276.289Z" fill="black"/>
</g>
<g opacity="0.2">
<path d="M188.129 270.695L191.599 269.196L202.384 269.578L211.982 264.324L214.14 266.698L202.647 273.332L197.845 272.465C197.845 272.465 194.528 269.453 188.129 270.695Z" fill="black"/>
</g>
<g opacity="0.2">
<path d="M167.172 268.217C167.172 268.217 176.451 274.63 176.263 274.109C176.076 273.589 169.594 265.247 169.594 265.247L167.172 268.217Z" fill="black"/>
</g>
<path d="M102.303 145.282L102.448 145.247C101.643 145.242 100.848 145.422 100.124 145.775C99.4374 146.099 98.7941 146.507 98.2081 146.989C96.9797 147.961 95.904 149.127 94.5923 149.98C92.5411 151.312 90.058 151.809 87.6523 151.368C88.7766 153.298 91.2889 154.019 93.5028 153.728C95.7166 153.437 97.7084 152.34 99.7002 151.32C102.962 149.691 106.336 148.299 109.798 147.156C108.748 146.338 107.539 145.749 106.249 145.426C104.958 145.103 103.614 145.054 102.303 145.282Z" fill="#FF725E"/>
<g opacity="0.3">
<path d="M102.303 145.282L102.448 145.247C101.643 145.242 100.848 145.422 100.124 145.775C99.4374 146.099 98.7941 146.507 98.2081 146.989C96.9797 147.961 95.904 149.127 94.5923 149.98C92.5411 151.312 90.058 151.809 87.6523 151.368C88.7766 153.298 91.2889 154.019 93.5028 153.728C95.7166 153.437 97.7084 152.34 99.7002 151.32C102.962 149.691 106.336 148.299 109.798 147.156C108.748 146.338 107.539 145.749 106.249 145.426C104.958 145.103 103.614 145.054 102.303 145.282Z" fill="black"/>
</g>
<path d="M212.61 185.895C212.61 185.895 217.288 187.595 221.07 186.187C224.853 184.778 226.81 184.167 226.81 184.167L228.253 184.07L229.246 192.988L226.629 196.208L225.047 194.355L224.464 189.219C224.464 189.219 216.684 190.815 211.5 189.414L212.61 185.895Z" fill="#263238"/>
<path d="M291.371 213.197C296.965 224.058 293.71 238.313 275.409 247.744C266.387 252.387 255.818 254.684 247.281 253.498L243.013 241.443L247.177 239.104C253.951 240.27 261.848 238.875 268.566 235.419C276.027 231.574 279.06 226.168 276.36 220.921C273.848 216.063 268.691 214.856 260.224 219.221L253.416 222.691L248.35 212.864L253.902 191.038L226.475 205.161L220.312 193.196L265.423 169.968L270.405 179.635L264.395 203.689C276.908 199.574 286.485 203.717 291.371 213.197Z" fill="#FF725E"/>
<g opacity="0.4">
<path d="M291.371 213.197C296.965 224.058 293.71 238.313 275.409 247.744C266.387 252.387 255.818 254.684 252.341 253.296L243.013 241.498L247.177 239.16C253.951 240.326 261.848 238.931 268.566 235.474C276.027 231.63 279.06 226.223 276.36 220.977C273.848 216.119 268.691 214.911 260.224 219.276L253.416 222.746L248.35 212.864L253.902 191.038L226.475 205.161L220.312 193.196L265.423 169.968L270.405 179.635L264.395 203.689C276.908 199.574 286.485 203.717 291.371 213.197Z" fill="black"/>
</g>
<path d="M287.18 215.543C292.774 226.404 289.519 240.658 271.218 250.09C262.196 254.733 251.62 257.03 243.09 255.843L243.007 241.443C249.781 242.615 257.685 241.221 264.403 237.764C271.857 233.92 274.896 228.513 272.19 223.267C269.677 218.409 264.556 217.201 256.061 221.566L249.246 225.036L244.173 215.189L249.725 193.362L222.256 207.52L216.094 195.555L261.204 172.327L266.18 181.995L260.17 206.049C272.745 201.919 282.294 206.062 287.18 215.543Z" fill="#FF725E"/>
<g opacity="0.2">
<path d="M270.281 233.476L278.866 236.668L280.768 239.208L279.588 234.35L272.745 229.659C272.194 231.086 271.355 232.385 270.281 233.476Z" fill="black"/>
</g>
<g opacity="0.2">
<path d="M273.11 227.854C273.11 227.854 278.496 228.43 279.044 228.305C279.592 228.181 287.462 225.467 287.462 225.467L289.635 226.522C289.683 225.231 289.625 223.938 289.461 222.656L287.081 222.927L280.349 225.849L272.715 224.523C273.085 225.592 273.22 226.728 273.11 227.854Z" fill="black"/>
</g>
<g opacity="0.2">
<path d="M271.064 221.566L278.164 219.269C278.309 218.797 283.431 214.557 283.896 214.057C284.48 213.653 285.142 213.376 285.839 213.245C285.083 212.156 284.326 211.031 283.681 210.691L277.033 217.479L268.871 219.727C269.712 220.197 270.456 220.821 271.064 221.566Z" fill="black"/>
</g>
<g opacity="0.2">
<path d="M270.433 204.473L267.775 212.364L261.793 219.304C262.605 219.082 263.437 218.941 264.277 218.881L267.983 215.945L274.195 211.691L278.289 206.43C277.534 206.059 276.755 205.736 275.958 205.466C275.958 205.466 269.08 213.794 269.274 212.676C269.469 211.559 272.196 204.591 272.196 204.591L270.433 204.459" fill="black"/>
</g>
<g opacity="0.2">
<path d="M264.416 204.932L263.722 212.996L259.676 219.936L256.074 221.539L259.135 213.357L260.183 206.056C261.567 205.586 262.981 205.211 264.416 204.932Z" fill="black"/>
</g>
<g opacity="0.2">
<path d="M251.98 214.03L245.422 217.812L246.886 220.519L253.68 215.633L257.137 207.971L251.98 214.03Z" fill="black"/>
</g>
<g opacity="0.2">
<path d="M261.024 202.787L252.841 206.354L244.277 214.758L245.693 209.185L253.181 203.231L261.634 200.17L261.024 202.787Z" fill="black"/>
</g>
<g opacity="0.2">
<path d="M262.898 195.097C262.898 195.097 254.278 198.845 252.939 199.053C251.599 199.261 247.387 202.523 247.387 202.523L248.567 197.873L255.507 195.382L265.417 185.34L264.522 188.692L260.135 194.48L263.55 192.911L262.898 195.097Z" fill="black"/>
</g>
<g opacity="0.2">
<path d="M220.514 203.995C220.514 203.995 229.876 204.085 231.507 202.919C233.138 201.753 236.996 198.394 236.996 198.394L250.578 193.029L256.519 189.99L240.369 194.022C240.369 194.022 231.299 196.937 231.396 197.159C231.493 197.381 227.627 200.497 227.627 200.497L217.703 198.679L220.514 203.995Z" fill="black"/>
</g>
<g opacity="0.2">
<path d="M222.984 192.009L232.444 194.015L245.206 187.797L256.81 186.797L247.302 185.597L237.392 189.511L228.974 188.928L222.984 192.009Z" fill="black"/>
</g>
<g opacity="0.2">
<path d="M243.02 251.423C243.02 251.423 248.391 247.134 248.912 246.988C249.432 246.842 261.258 247.751 261.258 247.751C261.258 247.751 271.418 242.699 271.786 242.539C272.154 242.38 280.766 243.497 280.766 243.497L272.438 239.652L259.793 245.336L249.966 242.012L243.026 246.356L243.02 251.423Z" fill="black"/>
</g>
<g opacity="0.2">
<path d="M243.109 255.795C243.109 255.795 247.051 251.818 248.523 251.631C249.994 251.443 255.511 251.964 255.511 251.964L262.25 248.924L269.447 247.203L276.442 247.009C276.442 247.009 273.104 249.167 271.584 249.896L266.726 249.688L258.072 252.505L253.339 254.587L249.258 253.477L245.316 256.114L243.109 255.795Z" fill="black"/>
</g>
<g opacity="0.2">
<path d="M245.691 180.551L251.93 182.689L263.326 181.537L258.246 179.635L252.59 181.079L248.454 178.816L245.691 180.551Z" fill="black"/>
</g>
<path d="M186.515 150.244L182.108 128.036C182.108 128.036 159.948 86.3962 154.126 71.614C148.303 56.8318 152.738 13.3735 152.738 13.3735C122.014 46.5953 127.629 91.7678 127.629 91.7678C150.6 117.633 146.818 144.852 146.818 144.852L186.515 150.244ZM141.884 65.3958C141.681 65.3106 141.502 65.1785 141.36 65.0104C141.218 64.8422 141.119 64.6429 141.069 64.4288C141.02 64.2147 141.022 63.9919 141.076 63.7787C141.129 63.5656 141.232 63.3682 141.377 63.2027L142.765 61.5996C144.111 60.0312 146.561 60.2116 148.102 60.1561C149.642 60.1006 150.184 66.3327 147.838 66.8462C146.339 67.1655 143.66 66.1661 141.884 65.3958Z" fill="#455A64"/>
<g opacity="0.3">
<path d="M147.262 144.852C147.262 144.852 163.328 147.628 165.82 145.754C168.311 143.88 173.169 137.606 173.169 137.606L180.65 125.42L174.37 113.261C174.37 113.261 175.931 130.347 168.387 134.56C160.844 138.772 146.984 140.243 146.984 140.243L147.262 144.852Z" fill="black"/>
</g>
<g opacity="0.2">
<path d="M147.131 136.017C154.412 132.061 161.296 127.413 167.687 122.137C168.437 121.52 169.235 120.444 168.603 119.701C168.145 119.16 167.285 119.313 166.604 119.514L146.555 125.42C146.16 125.49 145.801 125.69 145.535 125.989C145.322 126.421 145.289 126.921 145.444 127.377L147.422 136.774" fill="white"/>
</g>
<g opacity="0.2">
<path d="M164.382 94.4464C162.71 98.076 160.739 102.08 157.442 104.655C154.146 107.23 150.225 108.944 146.255 110.408C145.207 110.797 143.951 111.456 144.048 112.49C144.145 113.524 145.499 113.982 146.602 114.121C154.563 115.141 162.651 113.885 169.928 110.499C170.24 110.396 170.529 110.233 170.778 110.019C171.026 109.804 171.231 109.543 171.378 109.249C171.49 108.69 171.383 108.109 171.08 107.625C169.546 104.447 166.506 99.0893 164.396 94.4395" fill="white"/>
</g>
<g opacity="0.2">
<path d="M137.831 105.356C140.253 109.84 144.223 97.7917 147.103 93.5583C147.816 92.6371 148.348 91.5892 148.671 90.47C148.826 89.9089 148.832 89.317 148.687 88.7532C148.542 88.1895 148.252 87.6735 147.845 87.2568C147.394 86.9092 146.864 86.6781 146.303 86.5837C145.741 86.4893 145.165 86.5345 144.625 86.7154C143.551 87.0826 142.527 87.5839 141.579 88.2075C137.424 90.5681 132.719 91.7869 127.941 91.74C127.941 91.74 135.506 101.06 137.831 105.356Z" fill="white"/>
</g>
<g opacity="0.2">
<path d="M153.64 70.2744C151.128 70.9684 148.525 73.1198 145.728 73.7444C142.931 74.369 140.017 74.5495 137.4 75.6321C136.338 76.0624 135.173 76.9438 135.395 78.068C135.617 79.1923 136.852 79.5324 137.907 79.7198C144.434 80.8512 151.111 80.8089 157.623 79.5948C156.097 76.1248 154.965 73.9665 153.675 70.2883" fill="white"/>
</g>
<g opacity="0.2">
<path d="M128.488 66.1453C134.714 63.0491 140.524 59.1808 145.783 54.6318C146.268 54.2672 146.658 53.7911 146.921 53.2438C147.044 52.966 147.067 52.6545 146.987 52.3614C146.908 52.0683 146.73 51.8114 146.484 51.6337C146.052 51.4599 145.572 51.4451 145.13 51.5921L130.806 54.5971C129.807 58.6223 129.03 62.4948 128.488 66.1522" fill="white"/>
</g>
<g opacity="0.2">
<path d="M151.086 43.2292C147.003 42.9107 143.088 41.4696 139.773 39.0652C142.778 36.206 147.158 35.1858 151.308 34.2905C151.134 37.011 151.113 40.6267 151.086 43.257" fill="white"/>
</g>
<path d="M148.196 144.518C147.724 135.441 147.225 126.232 144.303 117.626C140.979 107.861 134.67 99.3599 127.543 91.8994C139.785 106.335 146.281 125.905 145.462 144.845L148.196 144.518Z" fill="#263238"/>
<path d="M301.106 51.5712C255.996 48.7952 221.664 63.7023 197.221 94.856C197.221 94.856 179.288 130.673 171.786 139.681C164.471 148.467 149.578 151.813 149.578 151.813L190.316 171.127L194.612 177.463L212.517 189.407C212.517 189.407 219.533 177.019 215.099 164.318C205.848 137.78 221.608 125.572 221.608 125.572C226.93 109.395 238.313 95.9084 253.366 87.9437C263.325 66.1452 301.106 51.5712 301.106 51.5712ZM218.319 118.265C218.025 118.511 217.652 118.642 217.269 118.633C216.885 118.624 216.519 118.476 216.237 118.216C215.977 117.936 215.826 117.573 215.809 117.192C215.793 116.81 215.912 116.435 216.147 116.134L216.459 115.856C216.782 115.654 217.17 115.579 217.545 115.646C217.921 115.714 218.258 115.919 218.491 116.221C218.723 116.524 218.834 116.903 218.803 117.283C218.771 117.664 218.598 118.018 218.319 118.278V118.265ZM222.726 112.095C221.227 112.421 218.562 111.401 216.771 110.651C216.568 110.566 216.388 110.433 216.246 110.264C216.105 110.095 216.005 109.895 215.957 109.68C215.908 109.465 215.911 109.241 215.966 109.028C216.02 108.814 216.125 108.616 216.272 108.451L217.66 106.855C219.006 105.287 221.456 105.467 222.996 105.412C224.537 105.356 225.078 111.588 222.726 112.095Z" fill="#455A64"/>
<g opacity="0.2">
<path d="M210.68 86.1118C211.217 86.6864 211.867 87.1434 212.59 87.454C213.313 87.7646 214.092 87.9219 214.878 87.9162C216.451 87.895 218.012 87.6353 219.507 87.1459C226.679 85.1311 233.649 82.457 240.327 79.1579C241.188 78.7346 242.201 77.8532 241.715 77.0204C241.529 76.7953 241.291 76.6184 241.021 76.5048C240.752 76.3913 240.459 76.3443 240.168 76.368C235.643 76.021 229.758 75.674 225.219 75.334L210.68 86.1118Z" fill="white"/>
</g>
<g opacity="0.2">
<path d="M276.215 60.184C276.215 60.184 268.386 56.2282 270.08 55.4995C271.773 54.7708 281.149 54.2642 281.149 54.2642L276.215 60.184Z" fill="white"/>
</g>
<g opacity="0.2">
<path d="M242.429 64.0704C246.579 69.9673 252.839 74.0424 259.911 75.452C260.267 75.574 260.646 75.6174 261.021 75.579C261.396 75.5407 261.758 75.4216 262.083 75.2299C263.006 74.4665 262.541 72.9883 262.007 71.9195C260.475 68.8659 258.939 65.81 257.398 62.7518C257.033 61.7881 256.376 60.963 255.518 60.3922C254.435 59.8231 253.623 60.3922 252.138 60.878C248.834 62.0022 242.422 64.0634 242.422 64.0634" fill="white"/>
</g>
<path d="M225.045 188.06C224.488 187.991 223.94 187.867 223.407 187.692C223.407 187.692 216.523 191.225 213.83 190.163C211.137 189.101 200.234 179.156 201.414 172.355C205.12 168.364 207.362 162.451 198.472 156.108C182.51 144.748 150.69 144.574 150.69 144.574C146.929 144.383 143.161 144.423 139.405 144.692C133.506 145.136 128.6 142.478 126.913 141.5C125.227 140.521 119.043 135.372 119.043 135.372C119.043 135.372 139.863 121.457 139.468 121.027C139.072 120.596 109.383 131.478 109.383 131.478C109.383 131.478 72.1776 149.71 68.2357 153.381C64.8143 156.573 65.9385 157.08 65.9385 157.08C82.428 147.919 101.228 145.58 102.672 145.476C104.145 145.445 105.615 145.625 107.037 146.011C107.037 146.011 104.324 146.83 95.2947 152.541C89.0487 156.476 78.3542 162.729 75.9252 164.603C73.4962 166.477 73.6558 166.747 75.2312 167.067C76.8066 167.386 104.074 156.337 108.03 154.769C112.568 152.978 119.259 150.764 119.259 150.764C125.741 156.615 141.182 164.443 141.182 164.443C141.182 164.443 155.02 167.913 165.16 167.171C175.931 167.663 184.009 169.038 192.92 175.235C192.92 175.235 202.372 190.836 209.298 193.105C213.232 194.487 217.531 194.413 221.415 192.897L222.193 198.248L223.65 199.865L226.877 197.963C226.877 197.963 225.26 196.055 225.045 188.06Z" fill="#455A64"/>
<path d="M112.081 139.501C112.12 140.077 111.987 140.651 111.699 141.151C111.411 141.651 110.981 142.054 110.464 142.31C109.947 142.565 109.366 142.662 108.794 142.587C108.222 142.512 107.685 142.269 107.251 141.888C106.817 141.508 106.506 141.008 106.357 140.45C106.208 139.893 106.227 139.304 106.413 138.758C106.599 138.212 106.942 137.733 107.4 137.382C107.858 137.032 108.41 136.825 108.986 136.788C109.367 136.762 109.75 136.812 110.112 136.935C110.474 137.058 110.809 137.251 111.096 137.503C111.383 137.755 111.618 138.061 111.787 138.404C111.956 138.747 112.056 139.12 112.081 139.501Z" fill="white"/>
<path d="M111.57 139.522C111.602 139.996 111.493 140.469 111.256 140.881C111.019 141.292 110.666 141.625 110.24 141.835C109.814 142.046 109.335 142.126 108.864 142.065C108.393 142.003 107.951 141.803 107.593 141.491C107.236 141.178 106.979 140.766 106.856 140.307C106.732 139.848 106.748 139.363 106.9 138.913C107.053 138.463 107.335 138.069 107.712 137.779C108.088 137.49 108.543 137.319 109.017 137.287C109.331 137.266 109.647 137.306 109.946 137.407C110.245 137.508 110.52 137.667 110.758 137.874C110.995 138.082 111.189 138.334 111.329 138.617C111.468 138.9 111.55 139.207 111.57 139.522Z" fill="#263238"/>
<path d="M83.2831 146.698C83.1651 146.733 88.8351 142.832 89.0433 143.186C89.2515 143.54 88.9045 145.185 83.2831 146.698Z" fill="#263238"/>
<path d="M224.426 199.831C224.426 199.831 226.466 202.392 226.605 202.322C226.744 202.253 229.915 202.287 229.915 202.287L225.55 198.616L224.426 199.831Z" fill="#263238"/>
<path d="M225.344 198.852C225.344 198.852 227.495 201.26 227.634 201.191C227.773 201.121 230.937 201.149 230.937 201.149L226.586 197.485L225.344 198.852Z" fill="#263238"/>
<path d="M226.246 198.158C226.246 198.158 228.98 199.962 229.091 199.858C229.203 199.754 232.221 198.789 232.221 198.789L227.037 196.589L226.246 198.158Z" fill="#263238"/>
<g opacity="0.7">
<path d="M136.671 158.448C136.527 158.613 136.423 158.81 136.37 159.024C136.316 159.237 136.314 159.459 136.364 159.674C136.413 159.888 136.513 160.087 136.654 160.255C136.796 160.423 136.975 160.555 137.178 160.641C138.948 161.411 141.654 162.41 143.16 162.084C145.534 161.577 144.978 155.338 143.431 155.401C141.883 155.463 139.419 155.276 138.059 156.844C137.567 157.42 137.088 157.976 136.671 158.448Z" fill="white"/>
</g>
<g opacity="0.2">
<path d="M121.668 146.538C121.69 146.664 121.742 146.783 121.819 146.886C121.896 146.988 121.996 147.07 122.111 147.127C122.226 147.183 122.353 147.211 122.481 147.209C122.609 147.207 122.735 147.174 122.848 147.114C123.847 146.587 125.291 145.726 125.686 144.921C126.325 143.658 123.285 141.632 122.751 142.36C122.216 143.089 121.224 144.137 121.446 145.324C121.529 145.761 121.606 146.184 121.668 146.538Z" fill="white"/>
</g>
<g opacity="0.2">
<path d="M112.083 143.818C111.938 143.983 111.835 144.18 111.781 144.392C111.727 144.605 111.724 144.828 111.773 145.042C111.822 145.256 111.921 145.455 112.061 145.624C112.202 145.792 112.381 145.925 112.583 146.011C114.353 146.781 117.066 147.78 118.572 147.454C120.939 146.948 120.384 140.709 118.836 140.771C117.288 140.833 114.825 140.646 113.464 142.214L112.083 143.818Z" fill="white"/>
</g>
<g opacity="0.7">
<path d="M150.237 160.939C150.052 160.679 149.816 160.459 149.543 160.293C149.387 160.199 149.212 160.141 149.031 160.122C148.85 160.104 148.667 160.125 148.496 160.186C148.324 160.246 148.168 160.343 148.038 160.471C147.908 160.599 147.808 160.754 147.746 160.925C147.612 161.272 147.585 161.652 147.669 162.014C147.783 162.358 147.964 162.675 148.203 162.946C148.441 163.218 148.732 163.439 149.057 163.597C149.205 163.692 149.371 163.754 149.544 163.781C149.717 163.807 149.895 163.796 150.064 163.749C150.226 163.665 150.366 163.543 150.471 163.393C150.576 163.243 150.643 163.07 150.667 162.889C150.735 162.552 150.732 162.204 150.658 161.868C150.584 161.533 150.441 161.216 150.237 160.939Z" fill="white"/>
</g>
<g opacity="0.7">
<path d="M140.716 153C140.613 152.863 140.486 152.748 140.341 152.659C140.259 152.611 140.168 152.581 140.073 152.571C139.979 152.562 139.884 152.574 139.794 152.606C139.705 152.637 139.623 152.689 139.556 152.756C139.488 152.822 139.437 152.903 139.404 152.993C139.338 153.173 139.326 153.368 139.369 153.555C139.428 153.735 139.523 153.901 139.648 154.043C139.774 154.185 139.927 154.3 140.098 154.381C140.176 154.43 140.263 154.462 140.354 154.475C140.444 154.488 140.537 154.482 140.625 154.457C140.709 154.412 140.78 154.349 140.834 154.272C140.889 154.195 140.924 154.106 140.938 154.013C140.972 153.838 140.97 153.657 140.932 153.483C140.894 153.309 140.82 153.144 140.716 153Z" fill="white"/>
</g>
<g opacity="0.7">
<path d="M132.485 155.345C132.54 156.081 132.436 157.482 132.95 157.781C133.463 158.079 133.644 157.968 134.553 157.781C135.462 157.594 136.482 157.351 136.309 156.296C136.135 155.241 136.357 154.665 135.677 154.38C134.997 154.096 132.45 154.741 132.485 155.345Z" fill="white"/>
</g>
<g opacity="0.7">
<path d="M144.598 162.361C144.598 162.646 144.598 163.194 144.778 163.312C144.959 163.43 145.042 163.382 145.41 163.312C145.778 163.243 146.166 163.146 146.104 162.729C146.041 162.313 146.104 162.091 145.854 161.98C145.604 161.869 144.584 162.119 144.598 162.361Z" fill="white"/>
</g>
<g opacity="0.2">
<path d="M98.6105 140.029C98.6591 140.764 98.5619 142.166 99.0685 142.464C99.5752 142.763 99.7625 142.645 100.679 142.464C101.595 142.284 102.608 142.034 102.434 140.979C102.261 139.924 102.476 139.348 101.803 139.064C101.13 138.779 98.548 139.425 98.6105 140.029Z" fill="white"/>
</g>
<path d="M90.1795 142.77C90.2211 142.77 90.3113 143.041 90.2211 143.499C90.0843 144.084 89.7661 144.611 89.312 145.005C88.8724 145.387 88.3699 145.69 87.8268 145.9C87.4174 146.067 87.1328 146.136 87.1328 146.094C87.1328 146.053 87.341 145.907 87.7158 145.685C88.2087 145.423 88.6738 145.111 89.1038 144.755C89.5072 144.395 89.8169 143.943 90.006 143.436C90.1309 143.041 90.124 142.77 90.1795 142.77Z" fill="#263238"/>
<path d="M75.5312 166.879C75.5312 166.879 75.5868 166.831 75.7117 166.748L76.253 166.401L78.335 165.075L86.1356 160.272L97.7531 153.18C100.008 151.728 102.362 150.437 104.797 149.314C106.103 148.737 107.463 148.293 108.857 147.989C109.571 147.833 110.294 147.727 111.022 147.669C111.377 147.659 111.731 147.614 112.077 147.538C112.228 147.508 112.37 147.443 112.491 147.348C112.612 147.252 112.708 147.129 112.771 146.989C112.813 146.841 112.815 146.685 112.776 146.536C112.737 146.387 112.659 146.251 112.549 146.143C112.31 145.908 112.005 145.753 111.675 145.698C110.987 145.584 110.287 145.561 109.593 145.629C108.199 145.764 106.839 146.133 105.568 146.719C103.168 147.88 100.85 149.202 98.6276 150.674L87.0655 157.816L79.258 162.597L77.1205 163.888L76.5653 164.214L76.364 164.319C76.4211 164.27 76.4814 164.226 76.5445 164.187L77.0858 163.833L79.1678 162.486L86.9267 157.628L98.4541 150.404C100.688 148.914 103.02 147.579 105.436 146.406C106.751 145.801 108.159 145.421 109.6 145.282C110.338 145.211 111.082 145.236 111.814 145.358C112.21 145.431 112.575 145.622 112.862 145.907C113.011 146.061 113.117 146.252 113.169 146.46C113.221 146.668 113.218 146.887 113.16 147.093C113.076 147.289 112.946 147.461 112.78 147.594C112.614 147.727 112.418 147.817 112.209 147.857C111.842 147.938 111.468 147.986 111.092 148.003C110.375 148.059 109.663 148.166 108.961 148.322C107.588 148.619 106.249 149.054 104.964 149.62C102.538 150.733 100.192 152.01 97.9405 153.444L86.316 160.474L78.4252 165.193L76.2808 166.456L75.7186 166.782L75.5312 166.879Z" fill="#263238"/>
<path d="M79.5338 164.318C79.4921 164.402 79.0133 164.18 78.8398 163.624C78.6663 163.069 78.8398 162.577 78.93 162.618C79.0202 162.66 78.9855 163.055 79.159 163.513C79.3325 163.971 79.5893 164.235 79.5338 164.318Z" fill="#263238"/>
<path d="M82.5867 162.306C82.5867 162.396 82.0662 162.306 81.7886 161.779C81.511 161.251 81.7053 160.786 81.7886 160.828C81.8719 160.869 81.8719 161.23 82.087 161.619C82.3021 162.008 82.6422 162.202 82.5867 162.306Z" fill="#263238"/>
<path d="M86.1809 160.356C86.0907 160.356 85.9103 160.002 85.6257 159.585C85.3412 159.169 85.0636 158.85 85.1261 158.773C85.1885 158.697 85.591 158.926 85.9103 159.398C86.2295 159.87 86.2712 160.335 86.1809 160.356Z" fill="#263238"/>
<path d="M89.4857 158.204C89.3954 158.204 89.1803 157.892 88.7917 157.552C88.403 157.212 88.0977 157.004 88.0977 156.906C88.0977 156.809 88.5973 156.906 89.0068 157.309C89.4163 157.711 89.5759 158.176 89.4857 158.204Z" fill="#263238"/>
<path d="M93.468 155.956C93.3917 156.011 93.1002 155.727 92.7393 155.394C92.3784 155.061 92.0453 154.797 92.1147 154.7C92.1841 154.603 92.5727 154.769 92.9683 155.13C93.3639 155.491 93.5443 155.886 93.468 155.956Z" fill="#263238"/>
<path d="M96.3828 154.353C96.2856 154.353 96.1329 153.95 95.8206 153.513C95.5083 153.076 95.1613 152.819 95.2168 152.701C95.2724 152.583 95.7373 152.812 96.0982 153.319C96.4591 153.825 96.466 154.346 96.3828 154.353Z" fill="#263238"/>
<path d="M101.215 151.188C101.118 151.188 101.02 150.758 100.75 150.314C100.479 149.87 100.146 149.571 100.201 149.488C100.257 149.405 100.722 149.606 101.041 150.14C101.36 150.675 101.326 151.188 101.215 151.188Z" fill="#263238"/>
<path d="M105.406 149.099C105.315 149.099 105.315 148.669 105.093 148.232C104.871 147.794 104.552 147.538 104.594 147.461C104.635 147.385 105.128 147.531 105.399 148.086C105.669 148.641 105.489 149.134 105.406 149.099Z" fill="#263238"/>
<path d="M109.654 147.975C109.557 147.975 109.654 147.35 109.342 146.705C109.029 146.06 108.578 145.692 108.648 145.608C108.717 145.525 109.342 145.803 109.675 146.573C110.008 147.343 109.71 148.01 109.654 147.975Z" fill="#263238"/>
<path d="M114.076 140.299C114.076 140.334 113.916 140.257 113.653 140.264C113.275 140.304 112.921 140.468 112.646 140.729C112.256 141.16 111.906 141.624 111.598 142.117C111.369 142.425 111.079 142.682 110.746 142.872C110.413 143.062 110.044 143.181 109.662 143.221C108.902 143.303 108.136 143.132 107.483 142.735C106.961 142.419 106.509 141.999 106.158 141.5C105.808 141.069 105.556 140.567 105.422 140.028C105.477 140.028 105.727 140.584 106.345 141.354C106.702 141.801 107.14 142.178 107.636 142.464C108.237 142.809 108.932 142.955 109.621 142.881C109.959 142.849 110.287 142.747 110.585 142.583C110.882 142.418 111.142 142.193 111.349 141.923C111.678 141.419 112.062 140.954 112.494 140.535C112.815 140.259 113.229 140.113 113.653 140.125C113.958 140.167 114.083 140.292 114.076 140.299Z" fill="#263238"/>
<path d="M112.977 139.14C112.577 138.741 112.199 138.319 111.846 137.877C111.441 137.438 110.953 137.084 110.41 136.836C110.087 136.677 109.733 136.59 109.373 136.583C109.013 136.576 108.656 136.648 108.328 136.795C107.702 137.168 107.137 137.636 106.655 138.183C106.223 138.661 105.661 139.004 105.038 139.168C104.605 139.263 104.152 139.186 103.775 138.953C103.511 138.772 103.449 138.599 103.463 138.592C103.477 138.585 103.588 138.71 103.838 138.835C104.194 139.006 104.602 139.041 104.983 138.932C105.548 138.751 106.05 138.414 106.433 137.96C106.924 137.363 107.516 136.855 108.182 136.461C108.55 136.299 108.949 136.22 109.351 136.231C109.754 136.242 110.148 136.342 110.507 136.524C111.076 136.804 111.58 137.201 111.985 137.69C112.256 138.01 112.504 138.349 112.728 138.703C112.835 138.834 112.92 138.981 112.977 139.14Z" fill="#263238"/>
<path d="M114.433 140.84C114.433 140.84 114.433 141.014 114.315 141.291C114.158 141.683 113.947 142.052 113.691 142.388C112.846 143.53 111.589 144.298 110.188 144.53C108.786 144.762 107.35 144.439 106.182 143.63C105.829 143.393 105.51 143.111 105.231 142.79C105.044 142.561 104.96 142.423 104.974 142.409C104.988 142.395 105.425 142.895 106.307 143.429C107.451 144.143 108.815 144.417 110.146 144.198C111.477 143.98 112.682 143.285 113.538 142.242C113.864 141.793 114.162 141.325 114.433 140.84Z" fill="#263238"/>
<path d="M80.8945 147.468C81.9062 146.642 82.9884 145.906 84.1286 145.268C85.2088 144.534 86.3513 143.895 87.5431 143.36C86.5318 144.187 85.4496 144.923 84.309 145.56C83.2279 146.293 82.0855 146.932 80.8945 147.468Z" fill="#263238"/>
<g opacity="0.3">
<path d="M159.559 157.164C168.268 160.689 178.297 159.981 187.069 163.41C192.891 165.672 197.874 169.76 201.997 174.458C206.001 179.093 209.622 184.046 212.823 189.268C211.13 182.328 209.45 175.346 205.883 169.142C202.316 162.938 196.403 157.733 189.421 156.192C179.858 154.11 165.86 160.953 159.906 156.983" fill="black"/>
</g>
<path d="M212.825 189.268C212.796 189.212 212.778 189.151 212.77 189.088C212.728 188.949 212.68 188.768 212.624 188.546C212.492 188.047 212.319 187.353 212.09 186.464C211.625 184.653 210.938 182.037 209.904 178.83C208.721 175.11 207.129 171.532 205.157 168.164C202.694 164.056 199.179 160.68 194.976 158.385C192.799 157.222 190.441 156.438 188.001 156.067C185.718 155.786 183.408 155.805 181.13 156.123C176.751 156.636 172.886 157.622 169.575 158.128C168.084 158.367 166.574 158.465 165.064 158.42C163.919 158.376 162.786 158.17 161.698 157.809C161.015 157.583 160.362 157.273 159.755 156.886L159.297 156.56L159.145 156.442C159.953 156.965 160.826 157.382 161.74 157.684C162.82 158.017 163.941 158.199 165.071 158.225C166.569 158.256 168.065 158.142 169.541 157.885C172.823 157.358 176.689 156.345 181.096 155.803C183.396 155.476 185.729 155.45 188.036 155.727C190.515 156.101 192.911 156.897 195.121 158.08C199.391 160.411 202.951 163.852 205.427 168.039C207.404 171.434 208.983 175.046 210.133 178.803C211.146 181.988 211.798 184.618 212.215 186.437C212.423 187.346 212.583 188.054 212.68 188.519L212.791 189.067C212.815 189.131 212.826 189.199 212.825 189.268Z" fill="#263238"/>
<g opacity="0.2">
<path d="M159.761 156.879C167.395 154.193 175.313 151.167 180.733 145.143C189.513 135.427 189.714 120.097 198.382 110.242C199.124 109.395 200.041 108.548 201.158 108.493C201.852 108.493 202.587 108.771 203.309 108.784C204.961 108.784 206.203 107.334 207.189 106.008C208.965 103.6 210.749 99.4085 209.125 96.8893C208.591 96.0634 203.393 98.201 202.948 97.3265C202.504 96.4521 205.03 93.6275 204.253 93.3638C198.548 99.6583 196.508 102.58 192.566 107.355C187.757 113.184 186.133 121.526 182.947 128.369C177.785 139.386 169.406 148.58 158.914 154.741" fill="black"/>
</g>
<path d="M152.312 152.777C153.527 155.2 155.783 156.685 159.558 156.879C159.558 156.879 178.816 143.311 180.378 142.048C181.939 140.785 194.07 107.987 195.646 106.217C197.221 104.447 202.072 97.0215 202.072 97.0215L202.676 93.9263C202.676 93.9263 194.147 101.505 193.515 102.65C192.884 103.795 176.367 134.338 171.786 138.675C166.56 143.617 160.509 152.361 152.312 152.777Z" fill="#263238"/>
<path d="M197.328 100.436C197.564 100.311 202.686 93.961 202.686 93.961C225.734 66.201 259.83 51.849 301.109 51.627C260.697 54.6736 225.817 67.9637 203.671 94.884L199.702 100.262L197.328 100.436Z" fill="#263238"/>
<path d="M253.366 87.9438C253.185 88.0181 253 88.0806 252.811 88.1312L251.208 88.617C250.514 88.8322 249.653 89.0681 248.647 89.311C247.641 89.5539 246.509 89.8801 245.239 90.1716C240.173 91.4 233.108 92.7463 225.308 94.2384C221.407 94.9949 217.674 95.7583 214.349 96.5148C212.677 96.9242 211.081 97.2781 209.602 97.6807L207.465 98.2428L205.508 98.8119C204.252 99.1589 203.134 99.5059 202.156 99.8529L200.768 100.29L199.63 100.707L198.054 101.269C197.873 101.344 197.685 101.402 197.492 101.442C197.666 101.354 197.844 101.275 198.027 101.206L199.588 100.582L200.712 100.137L202.1 99.6724C203.079 99.3324 204.182 98.9784 205.445 98.5829L207.403 97.986L209.54 97.41C211.018 96.9936 212.614 96.6258 214.28 96.2094C217.639 95.4391 221.345 94.6618 225.245 93.9053C233.053 92.4132 240.125 91.1293 245.191 89.9356C246.461 89.658 247.606 89.3735 248.612 89.1306C249.619 88.8877 250.479 88.6725 251.18 88.4782L252.797 88.0549C252.983 87.999 253.173 87.9618 253.366 87.9438Z" fill="#263238"/>
<path d="M221.624 125.573C221.461 125.502 221.304 125.421 221.152 125.33C220.846 125.17 220.416 124.893 219.833 124.594C218.199 123.72 216.503 122.967 214.76 122.339C212.186 121.392 209.497 120.794 206.765 120.562C205.995 120.472 205.204 120.493 204.399 120.465C203.594 120.437 202.768 120.527 201.935 120.659C200.214 120.871 198.535 121.339 196.952 122.047C193.893 123.444 191.238 125.593 189.235 128.293C188.335 129.451 187.501 130.658 186.736 131.909C186.001 133.075 185.348 134.192 184.765 135.205C183.592 137.239 182.642 138.891 181.989 140.015C181.649 140.549 181.386 140.979 181.184 141.299C181.1 141.454 180.997 141.598 180.879 141.729C180.951 141.569 181.032 141.414 181.122 141.264L181.871 139.945L184.585 135.087C185.168 134.06 185.792 132.936 186.528 131.756C187.288 130.49 188.12 129.269 189.02 128.099C191.041 125.346 193.733 123.158 196.841 121.742C198.456 121.028 200.168 120.56 201.921 120.354C202.75 120.25 203.584 120.19 204.419 120.173C205.238 120.173 206.043 120.173 206.821 120.277C209.578 120.526 212.287 121.156 214.871 122.151C216.618 122.799 218.308 123.591 219.923 124.518C220.499 124.83 220.923 125.128 221.221 125.302C221.365 125.378 221.5 125.468 221.624 125.573Z" fill="#263238"/>
<path d="M154.762 152.632C154.473 152.825 154.143 152.949 153.798 152.993C152.979 153.173 152.135 153.201 151.306 153.076C150.48 152.946 149.684 152.671 148.954 152.264C148.405 151.938 148.121 151.667 148.142 151.632C149.16 152.144 150.244 152.515 151.362 152.736C152.495 152.851 153.638 152.816 154.762 152.632Z" fill="#263238"/>
<path d="M123.824 148.454C123.824 148.454 123.734 148.523 123.54 148.627C123.345 148.731 123.054 148.863 122.672 149.03C121.916 149.363 120.812 149.821 119.438 150.369C116.697 151.473 112.894 152.951 108.681 154.533L97.8547 158.621L94.5721 159.828C93.7948 160.106 93.3784 160.272 93.3645 160.252C93.3506 160.231 93.4547 160.189 93.656 160.092C93.8572 159.995 94.1487 159.87 94.5235 159.703C95.2869 159.384 96.3973 158.94 97.7714 158.392C100.547 157.309 104.33 155.838 108.542 154.228L123.824 148.454Z" fill="#263238"/>
<path d="M303.396 213.912C303.543 214.264 303.659 214.629 303.743 215.001C303.847 215.355 303.965 215.785 304.076 216.299C304.187 216.813 304.326 217.389 304.43 218.034C304.701 219.551 304.884 221.083 304.978 222.621C305.077 224.506 305.056 226.395 304.916 228.277C304.756 230.157 304.471 232.023 304.062 233.864C303.728 235.369 303.301 236.853 302.785 238.306C302.584 238.93 302.348 239.479 302.153 239.964C301.959 240.45 301.779 240.86 301.619 241.186C301.473 241.538 301.301 241.879 301.105 242.206C301.209 241.84 301.341 241.482 301.501 241.137C301.64 240.797 301.806 240.381 301.98 239.895C302.153 239.409 302.369 238.854 302.556 238.229C303.035 236.776 303.436 235.298 303.757 233.802C304.142 231.969 304.416 230.115 304.575 228.25C304.715 226.382 304.745 224.507 304.666 222.635C304.586 221.108 304.428 219.587 304.194 218.076C304.11 217.43 303.979 216.847 303.888 216.341C303.798 215.834 303.701 215.39 303.618 215.036C303.518 214.667 303.444 214.291 303.396 213.912Z" fill="#263238"/>
<path d="M309.01 235.072C308.955 235.072 309.274 234.093 309.628 232.504C310.549 228.349 310.549 224.042 309.628 219.887C309.281 218.298 308.934 217.333 309.017 217.319C309.137 217.524 309.23 217.743 309.295 217.972C309.516 218.581 309.706 219.202 309.864 219.832C310.923 224.008 310.923 228.383 309.864 232.56C309.707 233.187 309.518 233.806 309.295 234.413C309.227 234.643 309.132 234.865 309.01 235.072Z" fill="#263238"/>
<path d="M215.938 220.678C215.773 220.692 215.606 220.675 215.446 220.63C215.006 220.558 214.573 220.444 214.155 220.29C213.529 220.067 212.929 219.778 212.364 219.429C210.969 218.559 209.801 217.37 208.957 215.959C208.613 215.392 208.332 214.789 208.117 214.162C207.963 213.741 207.851 213.306 207.784 212.864C207.735 212.551 207.722 212.378 207.784 212.378C207.846 212.378 207.964 213.072 208.374 214.078C208.618 214.677 208.915 215.253 209.262 215.799C209.692 216.461 210.185 217.079 210.733 217.645C211.295 218.2 211.909 218.699 212.566 219.138C213.11 219.487 213.683 219.789 214.28 220.04C215.265 220.498 215.945 220.616 215.938 220.678Z" fill="#263238"/>
<path d="M219.243 219.609C218.668 219.523 218.111 219.348 217.591 219.089C216.309 218.516 215.135 217.727 214.121 216.757C213.101 215.785 212.254 214.647 211.616 213.391C211.335 212.88 211.132 212.331 211.012 211.76C211.067 211.76 211.31 212.357 211.831 213.273C213.189 215.684 215.239 217.633 217.716 218.867C218.611 219.346 219.263 219.554 219.243 219.609Z" fill="#263238"/>
<path d="M66.9209 184.41V266.816L57.6005 257.787L53.2422 259.869C53.2422 259.869 62.9582 273.055 66.8932 278.225V331.177H78.4205V184.41H66.9209Z" fill="#455A64"/>
<path d="M146.517 219.763L24.2068 246.461L17.1211 213.975L139.425 187.276L141.861 198.45L136.905 204.245L143.374 205.362L146.517 219.763Z" fill="#455A64"/>
<path d="M139.424 187.276C139.424 187.276 139.222 187.339 138.813 187.436L137.009 187.859L130.069 189.428L104.217 195.153L17.1755 214.252L17.3768 213.94C18.4803 219.256 19.6462 224.877 20.8468 230.596L24.2196 246.87L23.9073 246.669L111.122 227.438L137.064 221.775L144.073 220.269L145.892 219.887L146.516 219.776C146.516 219.776 146.308 219.839 145.906 219.936L144.094 220.366L137.106 221.962L111.192 227.778L24.0184 247.21L23.7616 247.266L23.7061 247.009L20.3194 230.7C19.1326 225.002 17.9667 219.388 16.8494 214.044L16.8008 213.787L17.0506 213.732L104.099 194.82L129.992 189.268L136.981 187.79L138.799 187.415L139.424 187.276Z" fill="#263238"/>
<path d="M143.885 210.56L142.608 210.761C141.769 210.914 140.526 211.018 138.951 211.351C134.494 212.247 130.11 213.472 125.834 215.016C120.4 216.903 114.099 219.603 107.027 222.434C103.495 223.822 99.747 225.21 95.7912 226.494C91.718 227.807 87.5382 228.761 83.2992 229.347C79.0506 229.905 74.759 230.063 70.481 229.819C66.317 229.645 62.3612 229.27 58.565 229.007C54.7688 228.743 51.1531 228.535 47.7733 228.611C44.6352 228.656 41.5061 228.96 38.4182 229.52C33.9269 230.268 29.6246 231.885 25.7527 234.281C25.1482 234.654 24.5644 235.059 24.0038 235.495C23.5771 235.794 23.167 236.116 22.7754 236.46C22.1369 237.015 21.7969 237.3 21.7969 237.3C21.7969 237.3 22.1161 236.995 22.7477 236.425C23.06 236.134 23.4417 235.808 23.9622 235.433C24.5221 234.99 25.1059 234.577 25.711 234.198C29.5776 231.762 33.8861 230.111 38.3904 229.34C41.4816 228.764 44.6155 228.448 47.7594 228.396C51.1531 228.313 54.7688 228.507 58.5719 228.771C62.3751 229.034 66.3447 229.395 70.481 229.569C74.7475 229.813 79.0276 229.655 83.2645 229.097C87.5036 228.515 91.6837 227.563 95.7565 226.251C99.7053 225.016 103.453 223.628 106.985 222.212C114.05 219.395 120.366 216.709 125.814 214.835C130.096 213.299 134.491 212.095 138.958 211.233C140.54 210.907 141.789 210.817 142.629 210.678L143.885 210.56Z" fill="#263238"/>
<path d="M140.429 198.005C140.429 198.005 139.985 197.95 139.145 197.818L135.453 197.242C130.935 196.531 126.383 196.052 121.816 195.805C116.063 195.576 109.039 195.722 101.732 198.054C101.273 198.2 100.815 198.338 100.344 198.498L98.9555 199.033C98.0394 199.373 97.1442 199.789 96.235 200.219C94.4029 201.119 92.6233 202.122 90.9051 203.224C87.3796 205.445 83.9304 208.048 80.3008 210.574C76.8006 213.084 73.0847 215.278 69.1968 217.132C65.5567 218.827 61.7994 220.258 57.954 221.414C51.4301 223.306 44.7648 224.67 38.0223 225.495C32.2691 226.244 27.6123 226.605 24.3644 226.883C21.1165 227.16 19.3398 227.23 19.3398 227.23C19.3398 227.23 19.784 227.181 20.6376 227.112L24.3575 226.799C27.5846 226.522 32.2552 226.105 38.0015 225.37C44.7323 224.523 51.3854 223.145 57.8985 221.247C61.7329 220.092 65.4788 218.661 69.1066 216.965C72.9954 215.119 76.7115 212.929 80.2106 210.421C83.8333 207.895 87.2894 205.292 90.8218 203.072C92.5485 201.966 94.3374 200.96 96.1795 200.06C97.0887 199.629 97.9909 199.213 98.9139 198.873L100.302 198.339C100.76 198.179 101.218 198.04 101.69 197.887C109.039 195.563 116.083 195.431 121.816 195.674C126.387 195.94 130.941 196.443 135.46 197.18C138.673 197.672 140.429 198.005 140.429 198.005Z" fill="#263238"/>
<path d="M81.4203 200.886C81.4203 200.886 81.2537 201.059 80.9206 201.378L79.4563 202.766L78.4222 203.738C78.0197 204.092 77.5686 204.432 77.0897 204.842C76.1251 205.619 75.0702 206.556 73.7794 207.437L71.7876 208.867C71.0936 209.359 70.3302 209.804 69.5598 210.303C68.033 211.324 66.298 212.24 64.4936 213.239C60.4953 215.287 56.333 216.998 52.0502 218.354C47.7626 219.641 43.3752 220.57 38.9336 221.13C36.8516 221.331 34.9292 221.56 33.0971 221.588C32.181 221.588 31.2927 221.678 30.4391 221.664L27.9962 221.609C26.4347 221.609 25.0328 221.442 23.7975 221.345C23.1798 221.289 22.6038 221.255 22.0764 221.192L20.6398 220.977L18.6549 220.672C18.2038 220.602 17.9609 220.554 17.9609 220.554L18.6549 220.63L20.6467 220.894L22.0833 221.095C22.6038 221.151 23.1798 221.178 23.7975 221.234C25.0328 221.31 26.4347 221.477 27.9615 221.463L30.4044 221.504C31.258 221.504 32.1394 221.442 33.0554 221.414C34.8876 221.38 36.8308 221.144 38.8781 220.942C43.3378 220.375 47.7434 219.442 52.0502 218.152C56.3027 216.798 60.4367 215.097 64.4104 213.065C66.2148 212.073 67.9498 211.171 69.4766 210.158C70.2469 209.665 71.0103 209.221 71.7043 208.735L73.6961 207.347C74.9869 206.472 76.0487 205.542 77.0203 204.779C77.4992 204.39 77.9572 204.037 78.3598 203.696L79.4355 202.718C80.0462 202.163 80.5459 201.719 80.9206 201.372C81.2954 201.025 81.4203 200.886 81.4203 200.886Z" fill="#263238"/>
<path d="M41.0063 240.367C40.8304 240.574 40.6109 240.739 40.3638 240.85C40.1166 240.962 39.8478 241.017 39.5767 241.013C38.9605 241.024 38.3496 241.129 37.7654 241.325C37.5955 241.399 37.4446 241.51 37.3243 241.651C37.204 241.791 37.1175 241.958 37.0714 242.137C37.0381 242.232 37.0246 242.333 37.0316 242.434C37.0386 242.534 37.066 242.632 37.1121 242.722C37.1582 242.811 37.222 242.891 37.2997 242.955C37.3774 243.019 37.4674 243.067 37.5641 243.095C38.0263 243.166 38.4982 243.145 38.9521 243.032C39.4472 242.949 39.9538 242.838 40.472 242.699C41.5733 242.403 42.6338 241.971 43.6297 241.415C44.1572 241.113 44.612 240.698 44.9621 240.201C45.1354 239.944 45.2442 239.649 45.2792 239.341C45.3142 239.033 45.2745 238.721 45.1634 238.431C44.9121 237.823 44.445 237.328 43.8517 237.043C43.2324 236.761 42.5669 236.594 41.8877 236.55C39.2701 236.339 36.6364 236.643 34.1357 237.446C32.0915 238.096 30.1139 238.939 28.2298 239.965C26.6197 240.832 25.3497 241.61 24.4822 242.151L23.4828 242.782C23.2538 242.928 23.1289 242.991 23.1289 242.991C24.7397 241.836 26.42 240.781 28.1604 239.833C30.045 238.784 32.0278 237.922 34.0802 237.258C36.6038 236.44 39.2642 236.129 41.9085 236.342C42.6149 236.389 43.3066 236.565 43.9489 236.863C44.5774 237.168 45.0715 237.694 45.3369 238.341C45.4609 238.659 45.5048 239.002 45.4649 239.341C45.425 239.68 45.3024 240.004 45.1079 240.284C44.7459 240.808 44.2717 241.244 43.7199 241.561C42.7037 242.12 41.6221 242.552 40.4997 242.845C39.9792 242.984 39.4657 243.088 38.966 243.171C38.4859 243.285 37.9874 243.3 37.5016 243.213C37.3842 243.179 37.2753 243.121 37.182 243.042C37.0888 242.963 37.0132 242.865 36.9603 242.755C36.8685 242.534 36.8562 242.289 36.9256 242.061C36.9819 241.865 37.0808 241.683 37.2151 241.53C37.3495 241.376 37.516 241.254 37.7029 241.172C38.305 240.984 38.932 240.888 39.5628 240.888C39.9538 240.868 40.3355 240.761 40.6802 240.576C40.7957 240.518 40.905 240.448 41.0063 240.367Z" fill="#263238"/>
<path d="M48.7048 209.748C48.5278 209.874 48.3231 209.955 48.108 209.984C47.7987 210.038 47.4811 210.017 47.1816 209.923C46.8821 209.829 46.6096 209.664 46.3869 209.443L46.3383 209.394L46.4008 209.353C48.2054 208.361 50.1808 207.718 52.2234 207.458C53.5868 207.243 54.9754 207.243 56.3388 207.458C56.7161 207.547 57.0632 207.733 57.3451 207.999C57.491 208.15 57.5872 208.342 57.6207 208.549C57.6542 208.757 57.6234 208.969 57.5325 209.158C57.0953 209.922 56.2347 210.102 55.5269 210.394C51.6875 211.806 47.6175 212.486 43.5276 212.399C41.8368 212.383 40.1516 212.202 38.4961 211.858L38.8431 211.893L39.8425 212.017C45.1186 212.633 50.4656 212.008 55.4575 210.192C56.1515 209.915 56.9981 209.7 57.3451 209.068C57.4184 208.917 57.4438 208.746 57.4177 208.58C57.3917 208.414 57.3155 208.26 57.1994 208.138C56.9425 207.898 56.6263 207.73 56.2833 207.652C54.9465 207.438 53.5852 207.424 52.2442 207.611C50.2192 207.86 48.256 208.474 46.4493 209.422V209.339C46.66 209.553 46.9176 209.715 47.2019 209.813C47.4862 209.911 47.7893 209.941 48.0872 209.901C48.2989 209.877 48.5066 209.826 48.7048 209.748Z" fill="#263238"/>
<path d="M143.319 214.863C143.106 214.925 142.887 214.97 142.666 214.995C142.243 215.064 141.639 215.182 140.897 215.342C138.96 215.777 137.07 216.4 135.255 217.202C133.441 218.01 131.711 218.995 130.091 220.144C129.474 220.581 128.981 220.956 128.648 221.22C128.479 221.365 128.301 221.497 128.113 221.615C128.257 221.447 128.417 221.293 128.592 221.157C128.911 220.873 129.39 220.463 129.98 220.019C133.211 217.624 136.936 215.978 140.883 215.203C141.639 215.05 142.271 214.96 142.673 214.918C142.887 214.884 143.103 214.865 143.319 214.863Z" fill="#263238"/>
<path d="M140.693 192.863C140.544 192.9 140.39 192.919 140.235 192.919C139.944 192.919 139.541 192.953 138.986 192.919C137.603 192.88 136.229 192.668 134.899 192.287C133.57 191.91 132.293 191.372 131.095 190.684C130.731 190.472 130.379 190.24 130.041 189.99C129.911 189.908 129.79 189.812 129.68 189.705C129.68 189.671 130.242 190.038 131.165 190.538C132.371 191.185 133.644 191.699 134.961 192.072C136.277 192.445 137.628 192.678 138.993 192.766C140.041 192.856 140.693 192.821 140.693 192.863Z" fill="#263238"/>
<path d="M62.7434 224.935L63.1459 226.823L55.2412 228.495L53.0898 218.293L60.8002 216.697L61.1958 218.592L55.8034 219.688L56.2753 221.902L61.0084 220.903L61.397 222.742L56.6639 223.741L57.1567 226.101L62.7434 224.935Z" fill="white"/>
<path d="M71.5218 225.06L68.954 222.631H68.836L66.754 223.061L67.3508 225.906L64.9912 226.399L62.8398 216.197L67.2814 215.309C70.0089 214.733 72.0076 215.788 72.4934 218.085C72.6693 218.764 72.6302 219.482 72.3817 220.138C72.1331 220.794 71.6872 221.357 71.1054 221.749L74.0826 224.525L71.5218 225.06ZM67.559 217.245L65.6367 217.655L66.3862 221.208L68.3086 220.806C69.7521 220.5 70.335 219.674 70.106 218.571C69.877 217.467 68.9887 216.94 67.559 217.245Z" fill="white"/>
<path d="M82.2327 222.798L79.6649 220.375H79.5469L77.4649 220.813L78.0687 223.651L75.7022 224.151L73.5508 213.949L77.9716 213.012C80.692 212.443 82.6977 213.491 83.1835 215.788C83.3594 216.467 83.3204 217.185 83.0718 217.841C82.8232 218.497 82.3773 219.06 81.7955 219.452L84.7797 222.228L82.2327 222.798ZM78.27 214.99L76.3476 215.393L77.0971 218.953L79.0195 218.543C80.463 218.238 81.0529 217.419 80.817 216.309C80.581 215.198 79.7135 214.685 78.27 214.99Z" fill="white"/>
<path d="M84.7314 216.947C84.086 213.914 85.9737 211.173 89.2008 210.493C92.4279 209.812 95.2524 211.54 95.8909 214.587C96.5294 217.634 94.6278 220.368 91.4216 221.041C88.2153 221.714 85.3699 219.973 84.7314 216.947ZM93.5036 215.094C93.3573 214.469 93.0299 213.901 92.5623 213.461C92.0947 213.021 91.5077 212.729 90.8748 212.621C90.2419 212.513 89.5913 212.595 89.0045 212.855C88.4177 213.116 87.9208 213.543 87.576 214.085C87.2312 214.626 87.0539 215.258 87.0663 215.899C87.0786 216.541 87.2801 217.165 87.6455 217.693C88.0109 218.221 88.5239 218.629 89.1203 218.867C89.7167 219.104 90.37 219.161 90.9982 219.029C91.4287 218.949 91.8382 218.782 92.2011 218.538C92.5641 218.293 92.8728 217.976 93.1078 217.607C93.3429 217.238 93.4994 216.824 93.5675 216.392C93.6355 215.959 93.6138 215.517 93.5036 215.094Z" fill="white"/>
<path d="M105.244 217.947L102.677 215.518H102.559L100.477 215.955L101.08 218.793L98.7139 219.293L96.5625 209.091L100.983 208.161C103.704 207.585 105.709 208.64 106.195 210.937C106.372 211.619 106.333 212.339 106.084 212.998C105.834 213.657 105.385 214.222 104.8 214.615L107.784 217.391L105.244 217.947ZM101.282 210.132L99.3593 210.542L100.109 214.095L102.031 213.692C103.475 213.387 104.065 212.561 103.829 211.451C103.593 210.34 102.725 209.827 101.282 210.132Z" fill="white"/>
</svg>
