<svg width="329" height="96" viewBox="0 0 329 96" fill="none" xmlns="http://www.w3.org/2000/svg">
<g clip-path="url(#clip0_1011_82266)">
<mask id="mask0_1011_82266" style="mask-type:luminance" maskUnits="userSpaceOnUse" x="0" y="0" width="329" height="96">
<path d="M328.615 0H0V96H328.615V0Z" fill="white"/>
</mask>
<g mask="url(#mask0_1011_82266)">
<path d="M9.57129 67.2014L12.7617 58.2414L11.326 57.7614L9.73081 48.4814L13.7189 47.0414L14.995 43.6814L16.1117 44.3214L29.1925 41.4414L31.5853 51.8414C31.9044 53.6014 31.9044 55.3614 31.4258 56.9614C29.6711 63.6814 23.2902 63.6814 23.2902 63.6814L21.2164 69.1214L9.57129 67.2014Z" fill="#D0A8FF"/>
<path d="M21.2161 69.4414L9.25195 67.3613L12.4424 58.4013L11.1662 57.9214L9.41148 48.4813L13.3995 47.0414L14.6757 43.6813L15.9519 44.3214L29.1922 41.2812L31.585 51.8414C31.9041 53.6014 31.9041 55.3613 31.4255 57.1214C30.947 58.7214 30.3089 60.0014 29.3517 61.1214C28.5541 61.9214 27.597 62.7213 26.6399 63.2013C25.0446 64.0013 23.7685 64.0013 23.2899 64.0013L21.2161 69.4414ZM9.73052 67.0414L20.8971 68.9613L22.9708 63.5214H23.1304C23.1304 63.5214 24.7256 63.5214 26.4803 62.7214C28.8732 61.6014 30.3089 59.6813 31.1065 56.9613C31.585 55.3613 31.585 53.6014 31.266 51.8414L29.0327 41.6013L15.9519 44.4813L14.9947 44.0013L13.7186 47.2013L9.89004 48.6414L11.4853 57.6013L12.921 58.0813L9.73052 67.0414Z" fill="#A137FF"/>
<path d="M11.0074 59.2016L8.61457 48.0016C7.81696 44.1616 9.89074 41.1216 13.4002 39.2016L21.2169 34.5616C23.2906 33.2816 26.0025 33.2816 28.0763 34.5616C28.8739 35.0416 29.6715 35.6816 30.1501 36.8016C30.1501 36.8016 32.2239 42.0816 29.831 44.6416C29.831 44.6416 23.6097 41.6016 21.0573 44.9616C21.0573 44.9616 25.843 48.1616 20.2597 53.1216L21.2169 57.1216L18.505 57.6016C18.505 57.6016 18.1859 52.9616 15.155 52.9616C15.155 52.9616 12.6026 53.1216 13.7193 58.7216L11.0074 59.2016Z" fill="#8026D8"/>
<path d="M28.7144 35.0416C26.9596 34.5616 25.0454 34.8816 23.6097 35.8416L15.7931 40.4816C12.2836 42.5616 10.2098 45.6016 11.0074 49.2816L13.0812 58.7216L11.0074 59.2016L8.61457 48.0016C7.81696 44.1616 9.89074 41.1216 13.4002 39.2016L21.2169 34.5616C23.2906 33.2816 26.0025 33.2816 28.0763 34.5616C28.2358 34.7216 28.3953 34.8816 28.7144 35.0416Z" fill="#7225B7"/>
<path d="M22.9716 81.1202C22.9716 81.1202 18.9835 98.8802 -0.637695 103.36V61.7602C-0.637695 61.7602 5.1051 60.0002 11.486 63.2002L14.9955 68.3202H21.6954L22.3335 70.5602L39.0833 82.2402L45.9427 70.4002L52.4831 72.8002L44.6666 90.4002C43.5499 92.8002 40.838 93.9202 38.4452 92.8002L21.8549 85.1202" fill="white"/>
<path d="M52.3236 72.9598L44.507 90.5598C43.3904 92.9598 40.6785 94.0798 38.2857 92.9598L21.5359 85.1198C19.143 90.7198 13.0812 100.16 -0.637695 103.2V99.5198C12.1241 96.1598 17.8669 87.0398 20.2597 81.7598L22.3335 82.7198H22.493L37.169 89.4398C39.5619 90.5598 42.4333 89.4398 43.3904 87.0398L50.0903 71.8398L52.3236 72.9598Z" fill="#D5B6F2"/>
<path d="M51.3663 61.1211L48.1759 61.4411L49.4521 64.8011L47.8568 68.4809L47.2188 69.9211L52.6425 71.3609L54.5568 67.2011C57.2686 67.0411 57.2686 64.9609 57.2686 64.9609C55.0353 64.1609 52.483 62.0811 51.3663 61.1211Z" fill="#8026D8"/>
<path d="M52.6422 71.6808L46.8994 70.0808L47.697 68.3208L49.2922 64.6408L47.8565 61.1208L51.366 60.8008C52.4827 61.9208 55.035 63.8408 57.1088 64.8008H57.2683V64.9608C57.2683 64.9608 57.2683 65.4408 56.9493 66.0808C56.6303 66.5608 55.9922 67.2008 54.5565 67.3608L52.6422 71.6808ZM47.378 69.7608L52.3232 71.0408L54.0779 66.8808H54.2374C56.4707 66.7208 56.7898 65.4408 56.7898 64.9608C54.716 64.0008 52.3232 62.0808 51.2065 60.9608L48.3351 61.1208L49.6113 64.3208L47.8565 68.1608L47.378 69.7608Z" fill="#A137FF"/>
<path d="M-0.797363 103.681V61.7612H-0.637841C-0.637841 61.7612 0.797857 61.2812 3.03117 61.2812C4.30734 61.2812 5.58352 61.4413 6.85969 61.6013C8.45491 61.9213 10.0501 62.4014 11.4858 63.0414L14.8358 68.1612H21.5357L22.1738 70.5612L38.7641 82.0812L45.6235 70.2414L52.483 72.8013L44.6664 90.7214C44.1878 92.0012 43.2307 92.8012 41.9545 93.2812C40.6784 93.7612 39.4022 93.7612 38.126 93.1214L21.5357 85.4414C20.8976 86.8814 19.9405 88.6412 18.6643 90.5612C16.5905 93.4412 14.1977 96.0014 11.4858 98.0814C7.97635 100.641 3.9883 102.401 -0.637841 103.521L-0.797363 103.681ZM-0.318797 61.9214V103.041C9.57157 100.641 15.3144 94.8812 18.5048 90.4012C20.2595 87.8412 21.3762 85.4414 22.0143 83.8414C22.6524 82.0814 22.9714 80.9612 22.9714 80.9612L23.2905 81.1214C23.2905 81.1214 22.9714 82.2412 22.3333 84.0012C22.1738 84.3212 22.0143 84.6414 21.8548 85.1214L38.4451 92.8012C39.5617 93.2812 40.8379 93.2812 41.9545 92.9612C43.0712 92.4812 44.0283 91.6812 44.5069 90.5612L52.164 73.1214L45.9426 70.7214L39.0831 82.5612L22.0143 70.5612L21.3762 68.3214H14.6763L11.1668 63.0414C7.97635 61.4414 4.94543 61.2812 2.87164 61.2812C1.27642 61.6012 0.000246811 61.7614 -0.318797 61.9214Z" fill="#A137FF"/>
<path d="M14.995 68.1616L11.645 68.8016L6.85938 61.6016H10.6879L14.995 68.1616Z" fill="white"/>
<path d="M11.4857 68.9609L6.54053 61.2809L10.8476 61.1211L15.3142 68.1609L11.4857 68.9609ZM7.17862 61.7609L11.6452 68.6411L14.6762 68.1609L10.6881 61.7609H7.17862Z" fill="#A137FF"/>
<path d="M15.1548 68L16.5905 71.2H23.9285L22.3333 68H15.1548Z" fill="white"/>
<path d="M16.2715 71.5198L14.6763 67.8398H22.1738L24.0881 71.5198H16.2715ZM15.3144 68.1598L16.431 71.0398H23.2905L21.8548 68.1598H15.3144Z" fill="#A137FF"/>
<path d="M14.038 70.5583L13.5594 77.5983C13.5594 77.5983 12.6023 89.4383 4.78568 91.3583C4.78568 91.3583 1.27619 92.1583 -2.87138 91.6783L-4.78564 88.9583L-2.23329 86.3983C-2.23329 86.3983 -0.957116 87.0383 1.75476 87.1983C3.98807 87.3583 6.06185 86.3983 7.65707 84.7983C9.57134 82.7183 11.6451 79.1983 11.9642 73.1183L12.2832 70.2383L14.038 70.5583Z" fill="#D8B2FF"/>
<path d="M1.60933e-05 92.1617C-0.797594 92.1617 -1.75473 92.1619 -2.71186 92.0019C-2.71186 92.0019 -2.87138 92.0019 -2.87138 91.8419L-4.78564 89.1219C-4.78564 89.1219 -4.78564 88.9619 -4.78564 88.8019L-2.55234 86.0817C-2.55234 86.0817 -2.39281 85.9217 -2.23329 86.0817C-2.23329 86.0817 -0.957116 86.7217 1.75476 86.8817C3.98807 87.0419 6.06185 86.0817 7.49755 84.4817C9.25229 82.5617 11.3261 79.0417 11.6451 72.9617L11.9642 70.0817C11.9642 70.0817 11.9642 69.9219 12.1237 69.9219H12.2832L14.1975 70.4019C14.357 70.4019 14.357 70.5617 14.357 70.5617L13.8784 77.6019C13.8784 77.6019 13.5594 80.6419 12.4427 83.8419C11.8046 85.7619 10.8475 87.3617 9.73086 88.4817C8.45468 90.0817 6.85946 91.0419 5.10472 91.5219C4.9452 91.6819 2.87141 92.1617 1.60933e-05 92.1617ZM-2.55234 91.5219C1.43571 92.0019 4.78568 91.2019 4.9452 91.2019C8.77373 90.2419 11.007 86.5617 11.9642 83.6817C13.0808 80.6417 13.3999 77.6019 13.3999 77.6019L13.8784 70.7219L12.2832 70.4019L11.9642 72.9617C11.8046 75.6817 11.3261 78.2417 10.3689 80.4817C9.73086 82.2417 8.77373 83.6819 7.65707 84.8019C6.22138 86.4019 4.14759 87.3617 1.91428 87.3617C1.75476 87.3617 1.75476 87.3617 1.59524 87.3617C-0.638072 87.2017 -1.91425 86.8817 -2.39281 86.5617L-4.4666 88.9617L-2.55234 91.5219Z" fill="#A137FF"/>
<path d="M11.645 68.8002L15.1545 68.1602L16.4307 71.3602L14.0378 72.4802L11.8045 71.6802L11.645 68.8002Z" fill="#D8B2FF"/>
<path d="M14.038 72.64L11.8047 71.84L11.6452 71.68L11.3262 68.8C11.3262 68.64 11.3262 68.64 11.4857 68.64L14.9952 68C15.1547 68 15.1547 68 15.1547 68.16L16.4309 71.36C16.4309 71.52 16.4309 71.52 16.2714 71.68L14.038 72.64ZM12.1238 71.52L14.038 72.16L16.1118 71.2L14.8357 68.32L11.6452 68.96L12.1238 71.52Z" fill="#A137FF"/>
<path d="M44.3475 73.2812L44.188 73.6013L46.1023 74.5612L46.2618 74.2414L44.3475 73.2812Z" fill="#A137FF"/>
<path d="M43.8685 74.0781L43.709 74.3981L44.5066 74.8781L44.6661 74.5581L43.8685 74.0781Z" fill="#A137FF"/>
<path d="M71.307 21.28C71.1474 21.44 70.9879 21.44 70.8284 21.28C70.5094 21.12 70.3498 20.8 70.5094 20.48L74.976 8.16011C75.1355 7.84011 75.4545 7.68011 75.7736 7.84011C76.0926 8.00011 76.2522 8.32011 76.0926 8.64011L71.626 20.96C71.626 21.12 71.4665 21.28 71.307 21.28Z" fill="white"/>
<path d="M71.466 21.4384C71.3065 21.5984 70.9875 21.5984 70.8279 21.4384C70.3494 21.2784 70.1898 20.7984 70.3494 20.3184L74.816 7.99844C74.816 7.83844 74.9755 7.67844 75.2946 7.51844C75.4541 7.35844 75.7731 7.35844 75.9326 7.51844C76.4112 7.67844 76.5707 8.15844 76.4112 8.63844L71.7851 21.1184C71.7851 21.2784 71.6255 21.4384 71.466 21.4384ZM75.2946 7.99844C75.135 7.99844 75.135 8.15844 75.135 8.15844L70.6684 20.4784C70.5089 20.6384 70.6684 20.9584 70.9875 21.1184C71.147 21.1184 71.3065 21.1184 71.3065 21.1184C71.466 21.1184 71.466 20.9584 71.466 20.9584L75.9326 8.63844C76.0922 8.47844 75.9326 8.15844 75.6136 7.99844C75.4541 7.99844 75.4541 7.99844 75.2946 7.99844Z" fill="#A137FF"/>
<path d="M96.0318 44.9607C95.8723 44.9607 95.7128 45.1207 95.5533 44.9607L82.7915 42.4007C82.4725 42.4007 82.1534 41.9207 82.3129 41.6007C82.3129 41.2807 82.7915 40.9607 83.1105 41.1207L95.8723 43.6807C96.1914 43.6807 96.5104 44.1607 96.3509 44.4807C96.3509 44.6407 96.1914 44.8007 96.0318 44.9607Z" fill="white"/>
<path d="M96.1912 45.1211C96.0317 45.2811 95.8722 45.2809 95.5532 45.2809L82.7914 42.7211C82.3128 42.5611 81.9938 42.2411 82.1533 41.7611C82.1533 41.6011 82.3128 41.4409 82.4724 41.2809C82.6319 41.1209 82.7914 41.1211 83.1104 41.1211L95.8722 43.6809C96.3508 43.8409 96.6698 44.1611 96.5103 44.6411C96.5103 44.8011 96.3508 44.9611 96.1912 45.1211ZM82.6319 41.4411C82.4724 41.6011 82.4724 41.6011 82.4724 41.7611C82.4724 42.0811 82.6319 42.2411 82.7914 42.2411L95.5532 44.8011C95.7127 44.8011 95.7127 44.8011 95.8722 44.8011C96.0317 44.8011 96.0317 44.6409 96.0317 44.4809C96.0317 44.1609 95.8722 44.0011 95.7127 44.0011L82.9509 41.4411C82.9509 41.2811 82.7914 41.2811 82.6319 41.4411Z" fill="#A137FF"/>
<path d="M75.6132 32.8006C75.2942 32.9606 74.9751 32.8006 74.8156 32.4806C74.6561 32.1606 74.8156 31.8406 74.9751 31.6806L87.8964 24.3206C88.2154 24.1606 88.5345 24.3206 88.694 24.6406C88.8535 24.9606 88.694 25.2806 88.5345 25.4406L75.6132 32.8006Z" fill="white"/>
<path d="M75.7731 32.9604C75.4541 33.1204 74.816 32.9604 74.6564 32.6404C74.4969 32.3204 74.4969 31.6804 74.9755 31.5204L87.8968 24.1604C88.2158 24.0004 88.8539 24.1604 89.0134 24.4804C89.1729 24.6404 89.1729 24.9604 89.1729 25.1204C89.1729 25.2804 89.0134 25.4404 88.8539 25.6004L75.7731 32.9604ZM75.4541 32.6404L88.3753 25.2804C88.5349 25.2804 88.5349 25.1204 88.5349 24.9604C88.5349 24.8004 88.5349 24.6404 88.5349 24.6404C88.3753 24.4804 88.0563 24.3204 87.8968 24.4804L74.9755 31.8404C74.816 32.0004 74.6564 32.3204 74.816 32.4804C74.9755 32.6404 75.2945 32.8004 75.4541 32.6404Z" fill="#A137FF"/>
<path d="M54.0778 70.8794L46.5802 67.5195L45.1445 70.8794L52.6421 74.2395L54.0778 70.8794Z" fill="white"/>
<path d="M52.6423 74.5594L44.8257 71.0394L46.4209 67.3594L54.2375 70.8794L52.6423 74.5594ZM45.4638 70.7194L52.4827 73.9194L53.7589 70.8794L46.7399 67.6794L45.4638 70.7194Z" fill="#A137FF"/>
<path d="M54.3969 52.9609L60.9373 62.5609L56.4707 65.6009C56.4707 65.6009 55.1946 65.9209 48.4946 56.9609L54.3969 52.9609Z" fill="#D0A8FF"/>
<path d="M61.2566 62.7206L56.4709 65.9206C56.1519 65.9206 55.6733 65.6006 54.8757 64.9606C53.2805 63.5206 51.2067 60.9606 48.3353 57.1206L48.1758 56.9606L54.5567 52.6406L61.2566 62.7206ZM56.3114 65.4406L60.6185 62.5606L54.3971 53.2806L48.9734 56.9606C51.5257 60.3206 53.44 62.7206 54.8757 64.1606C55.6733 65.1206 56.1519 65.4406 56.3114 65.4406Z" fill="#A137FF"/>
<path d="M46.1017 58.7202L53.7588 53.6002L47.5374 44.1602L39.8803 49.2802C38.9232 49.9202 38.6042 51.2002 39.4018 52.1602L43.3898 58.0802C43.8684 59.0402 45.1446 59.3602 46.1017 58.7202Z" fill="#8026D8"/>
<path d="M54.0782 53.5998L46.2617 58.8798C45.145 59.5198 43.7093 59.3598 43.0712 58.2398L39.0832 52.3198C38.4451 51.1998 38.6046 49.7598 39.7213 49.1198L47.5378 43.8398L54.0782 53.5998ZM39.8808 49.5998C39.0832 50.2398 38.7641 51.3598 39.4022 52.1598L43.3903 58.0798C44.0284 58.8798 45.145 59.1998 45.9426 58.5598L53.2806 53.5998L47.2188 44.6398L39.8808 49.5998Z" fill="#A137FF"/>
<path d="M47.3784 44.1605L53.7593 53.7605L74.6567 46.8805C75.4543 46.5605 75.7733 45.6005 75.2948 44.9605L63.4901 27.5205C63.0116 26.8805 61.8949 26.7205 61.4164 27.3605L47.3784 44.1605Z" fill="white"/>
<path d="M53.2807 53.2802L53.5997 53.9202L74.3376 47.0402C75.1352 46.7202 75.4542 45.7602 74.9757 45.1202L74.3376 44.1602L52.6426 51.8402L53.2807 53.2802Z" fill="#D0A8FF"/>
<path d="M47.0588 48.1602L41.9541 51.5202L42.2731 52.0002L47.3778 48.6402L47.0588 48.1602Z" fill="#A137FF"/>
<path d="M48.4948 50.3984L43.3901 53.7584L43.7092 54.2384L48.8139 50.8784L48.4948 50.3984Z" fill="#A137FF"/>
<path d="M49.9304 52.4805L44.8257 55.8406L45.1447 56.3206L50.2494 52.9605L49.9304 52.4805Z" fill="#A137FF"/>
<path d="M75.7733 45.5989L74.9757 46.7191L72.5829 47.6789L60.1401 29.1191L61.8949 27.3589L63.1711 26.8789L75.7733 45.5989Z" fill="#8026D8"/>
<path d="M74.8159 47.1986L53.759 54.0786L47.0591 44.1586L61.2565 27.1986C61.5756 26.8786 62.0542 26.5586 62.5327 26.5586C63.0113 26.5586 63.4899 26.8786 63.8089 27.1986L75.6135 44.7986C75.9326 45.2786 75.9326 45.7586 75.773 46.2386C75.6135 46.5586 75.454 46.8786 75.135 47.0386C74.9754 47.0386 74.8159 47.0386 74.8159 47.1986ZM61.7351 27.5186L47.8567 44.1586L54.0781 53.2786L74.6564 46.5586C74.9754 46.3986 75.135 46.2386 75.2945 45.9186C75.454 45.5986 75.2945 45.2786 75.135 45.1186L63.3303 27.6786C63.1708 27.3586 62.8518 27.1986 62.5327 27.1986C62.3732 27.1986 62.0542 27.1986 61.8946 27.3586L61.7351 27.5186Z" fill="#A137FF"/>
<path d="M51.8452 61.4386C51.5261 61.2786 51.0475 60.6386 50.888 60.6386V60.4786C50.888 60.4786 51.0475 60.3186 51.0475 60.4786L51.6856 60.7986C52.3237 61.1186 53.1213 60.7986 53.2809 60.1586C53.4404 59.5186 53.2808 58.8786 52.6428 58.7186L50.569 57.7586C49.6118 57.2786 48.4952 57.7586 48.0166 58.7186V58.8786C47.6976 59.8386 47.6976 60.7986 48.0166 61.5986L48.9738 63.8386" fill="#8026D8"/>
<path d="M48.8141 63.5207L47.857 61.2807C47.5379 60.3207 47.5379 59.3607 47.857 58.4007V58.2407C48.0165 57.7607 48.495 57.2807 48.9736 57.1207C49.4522 56.9607 50.0903 56.9607 50.5688 57.2807L52.6426 58.2407C53.2807 58.5607 53.5998 59.3607 53.2807 60.0007C53.1212 60.3207 52.8021 60.6407 52.4831 60.8007C52.1641 60.9607 51.6855 60.9607 51.3664 60.8007L51.0474 60.4807C51.2069 60.6407 51.526 60.9607 51.845 61.2807L51.526 61.6007C51.526 61.6007 50.7284 60.8007 50.5688 60.6407C50.4093 60.4807 50.4093 60.3207 50.5688 60.1607C50.7284 60.0007 50.8879 60.0007 51.0474 60.0007L51.6855 60.3207C52.0045 60.4807 52.1641 60.4807 52.4831 60.3207C52.8021 60.1607 52.9617 60.0007 52.9617 59.6807C53.1212 59.2007 52.9617 58.7207 52.4831 58.4007L50.5688 57.6007C50.0903 57.4407 49.7712 57.4407 49.2927 57.6007C48.8141 57.7607 48.495 58.0807 48.3355 58.4007V58.5607C48.0165 59.3607 48.0165 60.3207 48.3355 61.1207L49.2927 63.3607L48.8141 63.5207Z" fill="#A137FF"/>
<path d="M55.6735 59.0396C55.3545 58.5596 55.3545 57.9196 55.833 57.5996L58.5449 55.1996C59.0235 54.8796 59.6616 54.8796 59.9806 55.3596C60.2997 55.8396 60.2997 56.4796 59.8211 56.7996L56.9497 59.1996C56.6307 59.5196 55.9926 59.5196 55.6735 59.0396Z" fill="#8026D8"/>
<path d="M55.9921 59.5198C55.8326 59.5198 55.6731 59.3598 55.5136 59.1998C55.035 58.7198 55.1945 57.9198 55.6731 57.4398L58.385 55.0398C58.8635 54.5598 59.6611 54.7198 60.1397 55.1998C60.2992 55.5198 60.4587 55.6798 60.4587 55.9998C60.4587 56.3198 60.2992 56.6398 59.9802 56.7998L57.2683 59.1998C56.9493 59.3598 56.7897 59.5198 56.4707 59.5198C56.1517 59.5198 55.9921 59.5198 55.9921 59.5198ZM59.3421 55.3598C59.023 55.1998 58.704 55.3598 58.5445 55.5198L55.8326 57.7598C55.5136 58.0798 55.5136 58.5598 55.8326 58.8798C55.9921 59.0398 56.1517 59.1998 56.3112 59.1998C56.4707 59.1998 56.7897 59.1998 56.9493 59.0398L59.6611 56.6398C59.8207 56.4798 59.9802 56.3198 59.9802 56.1598C59.9802 55.9998 59.9802 55.6798 59.8207 55.5198C59.5016 55.3598 59.5016 55.3598 59.3421 55.3598Z" fill="#A137FF"/>
<path d="M56.9495 60.8018C56.4709 60.3218 56.6305 59.6818 56.9495 59.3618L59.1828 57.4418C59.5019 57.1218 60.1399 57.1218 60.459 57.6018H60.6185C60.9375 57.9218 60.9376 58.5618 60.459 58.8818L58.2257 60.8018C57.9066 61.1218 57.2685 61.1218 56.9495 60.8018Z" fill="#8026D8"/>
<path d="M57.2684 61.1209C57.1088 61.1209 56.9493 60.9609 56.7898 60.8009H56.6303C56.1517 60.3209 56.3112 59.6809 56.7898 59.2009L59.0231 57.2809C59.1826 57.1209 59.5017 56.9609 59.8207 56.9609C60.1398 56.9609 60.4588 57.1209 60.6183 57.2809L60.7778 57.4409C61.2564 57.9209 61.0969 58.5609 60.6183 59.0409L58.385 60.9609C58.066 61.2809 57.5874 61.2809 57.2684 61.1209ZM59.9802 57.4409C59.6612 57.2809 59.5017 57.4409 59.1826 57.6009L56.9493 59.5209C56.6303 59.8409 56.6303 60.3209 56.9493 60.4809L57.1088 60.6409C57.4279 60.9609 57.9064 60.9609 58.066 60.6409L60.2993 58.7209C60.6183 58.4009 60.6183 57.9209 60.2993 57.7609V57.6009C60.2993 57.4409 60.1397 57.4409 59.9802 57.4409Z" fill="#A137FF"/>
<path d="M58.385 62.2402C58.0659 61.9202 58.0659 61.2802 58.5445 60.9602L59.8207 59.8402C60.1397 59.5202 60.7778 59.5202 61.0968 60.0002C61.4159 60.3202 61.4159 60.9602 60.9373 61.2802L59.6611 62.4002C59.3421 62.5602 58.704 62.5602 58.385 62.2402Z" fill="#8026D8"/>
<path d="M58.704 62.5592C58.5445 62.5592 58.385 62.3992 58.2255 62.2392C57.7469 61.7592 57.9064 60.9592 58.385 60.6392L59.6612 59.5192C59.8207 59.3592 60.1397 59.1992 60.4588 59.1992C60.7778 59.1992 61.0969 59.3592 61.2564 59.5192C61.4159 59.6792 61.5754 59.9992 61.5754 60.3192C61.5754 60.6392 61.4159 60.9592 61.2564 61.1192L59.8207 62.3992C59.6612 62.5592 59.3421 62.7192 59.0231 62.7192C58.8636 62.7192 58.8636 62.7192 58.704 62.5592ZM60.6183 59.8392H60.4588C60.2993 59.8392 60.1397 59.8392 59.9802 59.9992L58.704 61.1192C58.5445 61.2792 58.385 61.4392 58.385 61.5992C58.385 61.7592 58.385 61.9192 58.5445 62.0792C58.704 62.2392 58.8636 62.3992 59.0231 62.3992C59.1826 62.3992 59.3421 62.3992 59.5017 62.2392L60.7778 61.1192C60.9374 60.9592 61.0969 60.7992 61.0969 60.6392C61.0969 60.4792 61.0969 60.3192 60.9374 60.1592C60.7778 59.8392 60.7778 59.8392 60.6183 59.8392Z" fill="#A137FF"/>
<path d="M55.833 56.1618L55.6735 56.0018C55.3545 55.5218 55.3545 55.0418 55.833 54.5618L57.1092 53.4418C57.5878 53.1218 58.0664 53.1218 58.5449 53.6018L58.7044 53.7618C59.0235 54.2418 59.0235 54.7218 58.5449 55.2018L57.2687 56.3218C56.7902 56.6418 56.1521 56.4818 55.833 56.1618Z" fill="#8026D8"/>
<path d="M56.1517 56.6409C55.9921 56.6409 55.8326 56.4809 55.6731 56.3209L55.5136 56.0009C55.035 55.5209 55.1945 54.7209 55.6731 54.4009L56.9493 53.2809C57.1088 53.1209 57.4278 52.9609 57.7469 52.9609C58.0659 52.9609 58.385 53.1209 58.5445 53.2809L58.704 53.4409C59.1826 53.9209 59.023 54.7209 58.5445 55.0409L57.4278 56.3209C57.2683 56.4809 56.9493 56.6409 56.6302 56.6409C56.4707 56.6409 56.3112 56.6409 56.1517 56.6409ZM57.9064 53.4409H57.7469C57.5873 53.4409 57.2683 53.4409 57.1088 53.6009L55.8326 54.7209C55.5136 55.0409 55.5136 55.5209 55.8326 55.8409L55.9921 56.0009C56.1517 56.1609 56.3112 56.3209 56.4707 56.3209C56.6302 56.3209 56.9493 56.3209 57.1088 56.1609L58.385 55.0409C58.704 54.7209 58.704 54.2409 58.385 53.9209L58.2254 53.7609C58.0659 53.6009 58.0659 53.4409 57.9064 53.4409Z" fill="#A137FF"/>
<path d="M10.8474 59.5214L8.29506 48.1614C7.8165 46.2414 8.13554 44.4814 9.09267 42.8814C9.89028 41.4414 11.326 40.1614 13.0807 39.0414L20.8972 34.4014C23.1305 33.1214 25.8424 33.1214 27.9162 34.4014C28.8733 35.0414 29.671 35.6814 29.99 36.6414C29.99 36.6414 30.4686 37.9214 30.7876 39.6814C30.9471 40.6414 30.9471 41.6014 30.7876 42.2414C30.6281 43.2014 30.309 44.0014 29.671 44.6414V44.8014H29.5114C29.5114 44.8014 27.9162 44.0014 26.1615 43.6814C23.9282 43.2014 22.1734 43.6814 21.2163 44.8014C21.6948 45.1214 22.8115 46.2414 22.971 48.0014C23.1305 49.6014 22.1734 51.3614 20.2592 53.1214L21.2163 57.1214L18.1854 57.7614V57.6014C18.1854 57.6014 18.0258 56.4814 17.7068 55.3614C17.0687 53.9214 16.2711 53.1214 15.1545 53.1214C15.1545 53.1214 14.5164 53.2814 14.1974 53.7614C13.7188 54.4014 13.2402 55.6814 13.8783 58.5614V58.7214L10.8474 59.5214ZM24.5662 33.9214C23.4496 33.9214 22.1734 34.2414 21.2163 34.8814L13.3998 39.5214C9.73076 41.6014 7.97602 44.6414 8.77363 48.0014L11.1665 59.0414L13.3998 58.5614C13.0807 57.2814 13.0807 56.3214 13.2402 55.3614C13.3998 54.5614 13.5593 54.0814 13.8783 53.6014C14.3569 52.8014 15.1545 52.8014 15.1545 52.8014C16.4306 52.8014 17.5473 53.7614 18.1854 55.3614C18.5044 56.3214 18.6639 57.1214 18.6639 57.4414L20.8972 56.9614L19.9401 53.1214L20.0996 52.9614C22.0139 51.3614 22.8115 49.6014 22.652 48.1614C22.4925 46.2414 20.8972 45.1214 20.8972 45.1214L20.7377 44.9614L20.8972 44.8014C21.5353 44.0014 22.3329 43.5214 23.4496 43.2014C24.2472 43.0414 25.3639 43.0414 26.4805 43.2014C28.0757 43.5214 29.3519 44.0014 29.8305 44.1614C30.9471 42.8814 30.9471 40.9614 30.7876 39.5214C30.6281 37.9214 30.1495 36.6414 29.99 36.6414C29.671 35.8414 29.0329 35.0414 28.0757 34.5614C26.7996 34.2414 25.6829 33.9214 24.5662 33.9214Z" fill="#640AB3"/>
<g opacity="0.5">
<path opacity="0.5" d="M127.936 76.6384C128.574 76.7984 128.893 77.4384 128.734 78.0784C128.574 78.7184 127.936 79.0384 127.298 78.8784C126.66 78.7184 126.341 78.0784 126.501 77.4384C126.82 76.7984 127.458 76.4784 127.936 76.6384Z" fill="#E391FF"/>
<path opacity="0.5" d="M132.562 59.8416C133.2 60.0016 133.519 60.6416 133.36 61.2816C133.2 61.9216 132.562 62.2416 131.924 62.0816C131.286 61.9216 130.967 61.2816 131.127 60.6416C131.286 60.0016 131.924 59.6816 132.562 59.8416Z" fill="#E391FF"/>
<path opacity="0.5" d="M137.029 43.0408C137.667 43.2008 137.986 43.8408 137.827 44.4808C137.667 45.1208 137.029 45.4408 136.391 45.2808C135.753 45.1208 135.434 44.4808 135.593 43.8408C135.912 43.2008 136.391 42.8808 137.029 43.0408Z" fill="#E391FF"/>
<path opacity="0.5" d="M140.857 28.3198C141.495 28.4798 142.133 28.1598 142.293 27.5198C142.452 26.8798 142.133 26.2398 141.495 26.0798C140.857 25.9198 140.219 26.2398 140.06 26.8798C139.9 27.5198 140.379 28.1598 140.857 28.3198Z" fill="#E391FF"/>
<path opacity="0.5" d="M145.962 9.27905C146.6 9.43905 146.919 10.0791 146.759 10.7191C146.6 11.3591 145.962 11.6791 145.324 11.5191C144.686 11.3591 144.366 10.7191 144.526 10.0791C144.845 9.43905 145.324 9.11905 145.962 9.27905Z" fill="#E391FF"/>
<path opacity="0.5" d="M143.09 80.6384C143.729 80.7984 144.048 81.4384 143.888 82.0784C143.729 82.7184 143.091 83.0384 142.453 82.8784C141.814 82.7184 141.495 82.0784 141.655 81.4384C141.814 80.7984 142.452 80.4784 143.09 80.6384Z" fill="#E391FF"/>
<path opacity="0.5" d="M147.557 63.8416C148.195 64.0016 148.515 64.6416 148.355 65.2816C148.195 65.9216 147.557 66.2416 146.919 66.0816C146.281 65.9216 145.962 65.2816 146.122 64.6416C146.281 64.0016 146.919 63.6816 147.557 63.8416Z" fill="#E391FF"/>
<path opacity="0.5" d="M152.023 47.0408C152.661 47.2008 152.98 47.8408 152.821 48.4808C152.661 49.1208 152.023 49.4408 151.385 49.2808C150.747 49.1208 150.428 48.4808 150.588 47.8408C150.747 47.2008 151.385 46.8808 152.023 47.0408Z" fill="#E391FF"/>
<path opacity="0.5" d="M156.012 32.3198C156.65 32.4798 157.288 32.1598 157.448 31.5198C157.607 30.8798 157.288 30.2398 156.65 30.0798C156.012 29.9198 155.374 30.2398 155.214 30.8798C155.055 31.5198 155.374 32.1598 156.012 32.3198Z" fill="#E391FF"/>
<path opacity="0.5" d="M160.479 15.5191C161.117 15.6791 161.755 15.3591 161.915 14.7191C162.074 14.0791 161.755 13.4391 161.117 13.2791C160.479 13.1191 159.841 13.4391 159.681 14.0791C159.521 14.7191 159.841 15.3591 160.479 15.5191Z" fill="#E391FF"/>
<path opacity="0.5" d="M157.448 86.8784C158.086 87.0384 158.724 86.7184 158.883 86.0784C159.043 85.4384 158.724 84.7984 158.086 84.6384C157.448 84.4784 156.81 84.7984 156.65 85.4384C156.491 86.0784 156.81 86.7184 157.448 86.8784Z" fill="#E391FF"/>
<path opacity="0.5" d="M161.915 70.0816C162.553 70.2416 163.191 69.9216 163.351 69.2816C163.51 68.6416 163.191 68.0016 162.553 67.8416C161.915 67.6816 161.277 68.0016 161.117 68.6416C160.958 69.2816 161.436 69.9216 161.915 70.0816Z" fill="#E391FF"/>
<path opacity="0.5" d="M167.019 51.0408C167.657 51.2008 167.976 51.8408 167.817 52.4808C167.657 53.1208 167.019 53.4408 166.381 53.2808C165.743 53.1208 165.424 52.4808 165.584 51.8408C165.903 51.2008 166.381 50.8808 167.019 51.0408Z" fill="#E391FF"/>
<path opacity="0.5" d="M171.486 34.24C172.124 34.4 172.443 35.04 172.284 35.68C172.124 36.32 171.486 36.64 170.848 36.48C170.21 36.32 169.891 35.68 170.05 35.04C170.369 34.4 171.008 34.08 171.486 34.24Z" fill="#E391FF"/>
<path opacity="0.5" d="M176.112 17.2791C176.75 17.4391 177.069 18.0791 176.91 18.7191C176.75 19.3591 176.112 19.6791 175.474 19.5191C174.836 19.3591 174.517 18.7191 174.676 18.0791C174.836 17.4391 175.474 17.1191 176.112 17.2791Z" fill="#E391FF"/>
<path opacity="0.5" d="M173.081 88.7986C173.719 88.9586 174.038 89.5986 173.878 90.2386C173.719 90.8786 173.081 91.1986 172.443 91.0386C171.805 90.8786 171.486 90.2386 171.645 89.5986C171.805 88.9586 172.443 88.6386 173.081 88.7986Z" fill="#E391FF"/>
<path opacity="0.5" d="M177.548 71.84C178.186 72 178.505 72.64 178.345 73.28C178.186 73.92 177.548 74.24 176.91 74.08C176.271 73.92 175.952 73.28 176.112 72.64C176.431 72.16 176.91 71.68 177.548 71.84Z" fill="#E391FF"/>
<path opacity="0.5" d="M182.014 55.0408C182.653 55.2008 182.972 55.8408 182.812 56.4808C182.653 57.1208 182.014 57.4408 181.376 57.2808C180.738 57.1208 180.419 56.4808 180.579 55.8408C180.898 55.2008 181.536 54.8808 182.014 55.0408Z" fill="#E391FF"/>
<path opacity="0.5" d="M186.002 40.48C186.64 40.64 187.279 40.32 187.438 39.68C187.598 39.04 187.279 38.4 186.64 38.24C186.002 38.08 185.364 38.4 185.205 39.04C185.045 39.68 185.364 40.32 186.002 40.48Z" fill="#E391FF"/>
<path opacity="0.5" d="M191.107 21.4392C191.745 21.5992 192.064 22.2392 191.905 22.8792C191.745 23.5192 191.107 23.8392 190.469 23.6792C189.831 23.5192 189.512 22.8792 189.672 22.2392C189.831 21.5992 190.469 21.2792 191.107 21.4392Z" fill="#E391FF"/>
<path opacity="0.5" d="M188.076 92.7986C188.714 92.9586 189.033 93.5986 188.874 94.2386C188.714 94.8786 188.076 95.1986 187.438 95.0386C186.8 94.8786 186.481 94.2386 186.64 93.5986C186.959 92.9586 187.438 92.6386 188.076 92.7986Z" fill="#E391FF"/>
<path opacity="0.5" d="M192.543 76.0017C193.181 76.1617 193.5 76.8017 193.34 77.4417C193.181 78.0817 192.543 78.4017 191.905 78.2417C191.267 78.0817 190.948 77.4417 191.107 76.8017C191.426 76.1617 191.905 75.8417 192.543 76.0017Z" fill="#E391FF"/>
<path opacity="0.5" d="M197.01 59.0408C197.648 59.2008 197.967 59.8408 197.807 60.4808C197.648 61.1208 197.01 61.4408 196.371 61.2808C195.733 61.1208 195.414 60.4808 195.574 59.8408C195.893 59.2008 196.371 58.8808 197.01 59.0408Z" fill="#E391FF"/>
<path opacity="0.5" d="M200.997 44.48C201.636 44.64 202.274 44.32 202.433 43.68C202.593 43.04 202.274 42.4 201.636 42.24C200.997 42.08 200.359 42.4 200.2 43.04C200.04 43.68 200.359 44.32 200.997 44.48Z" fill="#E391FF"/>
<path opacity="0.5" d="M205.464 27.5191C206.102 27.6791 206.74 27.3591 206.9 26.7191C207.059 26.0791 206.74 25.4391 206.102 25.2791C205.464 25.1191 204.826 25.4391 204.667 26.0791C204.507 26.7191 204.826 27.3591 205.464 27.5191Z" fill="#E391FF"/>
<path opacity="0.5" d="M207.06 82.2417C207.698 82.4017 208.336 82.0817 208.496 81.4417C208.655 80.8017 208.336 80.1617 207.698 80.0017C207.06 79.8417 206.422 80.1617 206.262 80.8017C206.103 81.4417 206.422 82.0817 207.06 82.2417Z" fill="#E391FF"/>
<path opacity="0.5" d="M212.005 63.2009C212.643 63.3609 212.962 64.0009 212.802 64.6409C212.643 65.2809 212.005 65.6009 211.367 65.4409C210.728 65.2809 210.409 64.6409 210.569 64.0009C210.888 63.3609 211.526 63.0409 212.005 63.2009Z" fill="#E391FF"/>
<path opacity="0.5" d="M216.631 46.24C217.269 46.4 217.588 47.04 217.428 47.68C217.269 48.32 216.631 48.64 215.993 48.48C215.354 48.32 215.035 47.68 215.195 47.04C215.354 46.4 215.993 46.08 216.631 46.24Z" fill="#E391FF"/>
<path opacity="0.5" d="M221.097 29.4392C221.736 29.5992 222.055 30.2392 221.895 30.8792C221.736 31.5192 221.097 31.8392 220.459 31.6792C219.821 31.5192 219.502 30.8792 219.662 30.2392C219.821 29.5992 220.459 29.2792 221.097 29.4392Z" fill="#E391FF"/>
<path opacity="0.5" d="M258.745 30.72C258.426 30.72 258.426 30.4 258.426 30.08L270.39 -7.68C270.39 -8 270.709 -8 271.028 -8C271.347 -8 271.347 -7.68 271.347 -7.36L259.383 30.4C259.223 30.56 258.904 30.72 258.745 30.72Z" fill="white"/>
<path opacity="0.5" d="M245.344 44.0008C245.025 44.0008 245.025 43.6808 245.025 43.3608L256.99 5.12078C256.99 4.80078 257.309 4.80078 257.628 4.80078C257.947 4.80078 257.947 5.12078 257.947 5.44078L245.983 43.6808C245.823 43.8408 245.504 44.0008 245.344 44.0008Z" fill="#E391FF"/>
<path opacity="0.5" d="M266.083 50.3992C265.764 50.3992 265.764 50.0792 265.764 49.7592L277.728 11.5192C277.728 11.1992 278.047 11.1992 278.366 11.1992C278.685 11.1992 278.685 11.5192 278.685 11.8392L266.721 50.0792C266.561 50.3992 266.242 50.5592 266.083 50.3992Z" fill="#E391FF"/>
<path opacity="0.5" d="M231.786 47.8389C231.467 47.8389 231.467 47.5189 231.467 47.1989L237.688 27.1989C237.688 26.8789 238.007 26.8789 238.326 26.8789C238.645 26.8789 238.645 27.1989 238.645 27.5189L232.424 47.5189C232.264 47.8389 232.105 47.9989 231.786 47.8389Z" fill="white"/>
<path opacity="0.5" d="M267.359 64.1608C267.04 64.1608 267.04 63.8408 267.04 63.5208L270.39 53.1208C270.39 52.8008 270.709 52.8008 271.028 52.8008C271.347 52.8008 271.347 53.1208 271.347 53.4408L267.997 63.8408C267.838 64.0008 267.678 64.1608 267.359 64.1608Z" fill="#E391FF"/>
<path opacity="0.5" d="M236.73 21.9187C236.411 21.9187 236.411 21.5987 236.411 21.2787L244.706 -4.96125C244.706 -5.28125 245.025 -5.28125 245.344 -5.28125C245.663 -5.28125 245.663 -4.96125 245.663 -4.64125L237.368 21.5987C237.209 21.7587 236.89 21.9187 236.73 21.9187Z" fill="#E391FF"/>
<path opacity="0.5" d="M280.758 42.7194C280.439 42.7194 280.439 42.3994 280.439 42.0794L282.513 35.6794C282.513 35.3594 282.832 35.3594 283.151 35.3594C283.47 35.3594 283.47 35.6794 283.47 35.9994L281.397 42.3994C281.237 42.7194 280.918 42.8794 280.758 42.7194Z" fill="white"/>
<path opacity="0.5" d="M223.331 17.6003C223.012 17.6003 223.012 17.2803 223.012 16.9603L224.447 12.6403C224.447 12.3203 224.766 12.3203 225.086 12.3203C225.405 12.3203 225.405 12.6403 225.405 12.9603L223.969 17.2803C223.809 17.4403 223.65 17.6003 223.331 17.6003Z" fill="white"/>
<path opacity="0.5" d="M243.75 100.8C249.014 102.24 254.278 99.0403 255.714 93.9203C257.149 88.6403 253.959 83.3603 248.854 81.9203C243.59 80.4803 238.326 83.6803 236.89 88.8003C235.454 93.9203 238.485 99.3603 243.75 100.8Z" fill="#E391FF"/>
<path opacity="0.5" d="M244.867 96.4781C242.314 95.8381 240.081 94.0781 238.645 91.6781C237.209 89.2781 236.89 86.5581 237.688 83.8381C238.326 81.1181 240.081 79.0381 242.474 77.5981C247.419 74.7181 253.64 76.4781 256.512 81.4381C257.947 83.8381 258.266 86.5581 257.469 89.2781C256.831 91.9981 255.076 94.0781 252.683 95.5181C250.29 96.9581 247.419 97.1181 244.867 96.4781ZM249.971 77.5981C247.738 76.9581 245.186 77.2781 242.952 78.5581C240.878 79.8381 239.283 81.7581 238.645 84.1581C238.007 86.5581 238.326 88.9581 239.602 91.1981C242.155 95.5181 247.738 97.1181 252.045 94.5581C254.119 93.2781 255.714 91.3581 256.352 88.9581C256.99 86.5581 256.671 84.1581 255.395 81.9181C254.278 79.6781 252.205 78.2381 249.971 77.5981Z" fill="white"/>
<path opacity="0.5" d="M162.553 40.319C161.915 39.359 161.756 38.239 162.075 37.119C162.713 34.879 165.105 33.439 167.339 34.079C170.529 34.879 173.72 33.119 174.517 29.919C175.315 26.719 173.56 23.679 170.37 22.879C168.136 22.239 166.701 19.839 167.339 17.599C167.977 15.359 170.37 13.919 172.603 14.559C180.26 16.639 184.727 24.479 182.653 32.159C180.579 39.839 172.763 44.319 165.105 42.399C164.148 41.919 163.191 41.279 162.553 40.319Z" fill="white"/>
<path opacity="0.5" d="M298.147 68.8002C296.711 66.4002 297.668 63.3602 299.901 61.9202C302.294 60.4802 305.325 61.4402 306.761 63.6802C308.197 66.0802 307.239 69.1202 305.006 70.5602C302.613 72.0002 299.582 71.2002 298.147 68.8002ZM304.049 65.4402C303.57 64.6402 302.454 64.3202 301.656 64.8002C300.859 65.2802 300.54 66.4002 301.018 67.2002C301.497 68.0002 302.613 68.3202 303.411 67.8402C304.209 67.3602 304.528 66.2402 304.049 65.4402Z" fill="white"/>
<path opacity="0.5" d="M115.972 45.9213C114.536 43.5213 115.493 40.4813 117.727 39.0413C120.119 37.6013 123.15 38.5613 124.586 40.8013C126.022 43.2013 125.065 46.2413 122.831 47.6813C120.279 49.2813 117.248 48.3213 115.972 45.9213ZM121.874 42.5613C121.396 41.7613 120.279 41.4413 119.481 41.9213C118.524 42.4013 118.365 43.5213 118.843 44.3213C119.322 45.2813 120.439 45.4413 121.236 44.9613C122.034 44.4813 122.353 43.5213 121.874 42.5613Z" fill="#E391FF"/>
</g>
</g>
</g>
<defs>
<clipPath id="clip0_1011_82266">
<rect width="328.615" height="96" fill="white"/>
</clipPath>
</defs>
</svg>
