<svg width="329" height="96" viewBox="0 0 329 96" fill="none" xmlns="http://www.w3.org/2000/svg">
<mask id="mask0_1011_82363" style="mask-type:luminance" maskUnits="userSpaceOnUse" x="0" y="0" width="329" height="96">
<path d="M0.384613 0H329V96H0.384613V0Z" fill="white"/>
</mask>
<g mask="url(#mask0_1011_82363)">
<path d="M319.428 67.2014L316.237 58.2414L317.673 57.7614L319.268 48.4814L315.28 47.0414L314.004 43.6814L312.887 44.3214L299.807 41.4414L297.414 51.8414C297.095 53.6014 297.095 55.3614 297.573 56.9614C299.328 63.6814 305.709 63.6814 305.709 63.6814L307.783 69.1214L319.428 67.2014Z" fill="#D0A8FF"/>
<path d="M307.783 69.4414L319.747 67.3613L316.557 58.4013L317.833 57.9214L319.588 48.4813L315.599 47.0414L314.323 43.6813L313.047 44.3214L299.807 41.2812L297.414 51.8414C297.095 53.6014 297.095 55.3613 297.574 57.1214C298.052 58.7214 298.69 60.0014 299.647 61.1214C300.445 61.9214 301.402 62.7213 302.359 63.2013C303.954 64.0013 305.231 64.0013 305.709 64.0013L307.783 69.4414ZM319.269 67.0414L308.102 68.9613L306.028 63.5214H305.869C305.869 63.5214 304.273 63.5214 302.519 62.7214C300.126 61.6014 298.69 59.6813 297.893 56.9613C297.414 55.3613 297.414 53.6014 297.733 51.8414L299.966 41.6013L313.047 44.4813L314.004 44.0013L315.28 47.2013L319.109 48.6414L317.514 57.6013L316.078 58.0813L319.269 67.0414Z" fill="#A137FF"/>
<path d="M317.993 59.2016L320.385 48.0016C321.183 44.1616 319.109 41.1216 315.6 39.2016L307.783 34.5616C305.709 33.2816 302.997 33.2816 300.924 34.5616C300.126 35.0416 299.328 35.6816 298.85 36.8016C298.85 36.8016 296.776 42.0816 299.169 44.6416C299.169 44.6416 305.39 41.6016 307.943 44.9616C307.943 44.9616 303.157 48.1616 308.74 53.1216L307.783 57.1216L310.495 57.6016C310.495 57.6016 310.814 52.9616 313.845 52.9616C313.845 52.9616 316.397 53.1216 315.281 58.7216L317.993 59.2016Z" fill="#8026D8"/>
<path d="M300.286 35.0416C302.04 34.5616 303.955 34.8816 305.39 35.8416L313.207 40.4816C316.716 42.5616 318.79 45.6016 317.993 49.2816L315.919 58.7216L317.993 59.2016L320.385 48.0016C321.183 44.1616 319.109 41.1216 315.6 39.2016L307.783 34.5616C305.709 33.2816 302.997 33.2816 300.924 34.5616C300.764 34.7216 300.605 34.8816 300.286 35.0416Z" fill="#7225B7"/>
<path d="M306.028 81.1202C306.028 81.1202 310.016 98.8802 329.638 103.36V61.7602C329.638 61.7602 323.895 60.0002 317.514 63.2002L314.005 68.3202H307.305L306.667 70.5602L289.917 82.2402L283.057 70.4002L276.517 72.8002L284.333 90.4002C285.45 92.8002 288.162 93.9202 290.555 92.8002L307.145 85.1202" fill="white"/>
<path d="M276.676 72.9598L284.493 90.5598C285.61 92.9598 288.321 94.0798 290.714 92.9598L307.464 85.1198C309.857 90.7198 315.919 100.16 329.638 103.2V99.5198C316.876 96.1598 311.133 87.0398 308.74 81.7598L306.667 82.7198H306.507L291.831 89.4398C289.438 90.5598 286.567 89.4398 285.61 87.0398L278.91 71.8398L276.676 72.9598Z" fill="#D5B6F2"/>
<path d="M277.634 61.1211L280.824 61.4411L279.548 64.8011L281.143 68.4809L281.781 69.9211L276.358 71.3609L274.443 67.2011C271.731 67.0411 271.731 64.9609 271.731 64.9609C273.965 64.1609 276.517 62.0811 277.634 61.1211Z" fill="#8026D8"/>
<path d="M276.358 71.6808L282.101 70.0808L281.303 68.3208L279.708 64.6408L281.143 61.1208L277.634 60.8008C276.517 61.9208 273.965 63.8408 271.891 64.8008H271.732V64.9608C271.732 64.9608 271.732 65.4408 272.051 66.0808C272.37 66.5608 273.008 67.2008 274.444 67.3608L276.358 71.6808ZM281.622 69.7608L276.677 71.0408L274.922 66.8808H274.763C272.529 66.7208 272.21 65.4408 272.21 64.9608C274.284 64.0008 276.677 62.0808 277.793 60.9608L280.665 61.1208L279.389 64.3208L281.143 68.1608L281.622 69.7608Z" fill="#A137FF"/>
<path d="M329.797 103.681V61.7612H329.637C329.637 61.7612 328.202 61.2812 325.968 61.2812C324.692 61.2812 323.416 61.4413 322.14 61.6013C320.545 61.9213 318.949 62.4014 317.514 63.0414L314.164 68.1612H307.464L306.826 70.5612L290.235 82.0812L283.376 70.2414L276.517 72.8013L284.333 90.7214C284.812 92.0012 285.769 92.8012 287.045 93.2812C288.321 93.7612 289.597 93.7612 290.873 93.1214L307.464 85.4414C308.102 86.8814 309.059 88.6412 310.335 90.5612C312.409 93.4412 314.802 96.0014 317.514 98.0814C321.023 100.641 325.011 102.401 329.637 103.521L329.797 103.681ZM329.318 61.9214V103.041C319.428 100.641 313.685 94.8812 310.495 90.4012C308.74 87.8412 307.623 85.4414 306.985 83.8414C306.347 82.0814 306.028 80.9612 306.028 80.9612L305.709 81.1214C305.709 81.1214 306.028 82.2412 306.666 84.0012C306.826 84.3212 306.985 84.6414 307.145 85.1214L290.554 92.8012C289.438 93.2812 288.162 93.2812 287.045 92.9612C285.928 92.4812 284.971 91.6812 284.493 90.5612L276.836 73.1214L283.057 70.7214L289.916 82.5612L306.985 70.5612L307.623 68.3214H314.323L317.833 63.0414C321.023 61.4414 324.054 61.2812 326.128 61.2812C327.723 61.6012 328.999 61.7614 329.318 61.9214Z" fill="#A137FF"/>
<path d="M314.005 68.1616L317.355 68.8016L322.141 61.6016H318.312L314.005 68.1616Z" fill="white"/>
<path d="M317.514 68.9609L322.459 61.2809L318.152 61.1211L313.685 68.1609L317.514 68.9609ZM321.821 61.7609L317.354 68.6411L314.323 68.1609L318.311 61.7609H321.821Z" fill="#A137FF"/>
<path d="M313.845 68L312.409 71.2H305.071L306.666 68H313.845Z" fill="white"/>
<path d="M312.728 71.5198L314.323 67.8398H306.826L304.911 71.5198H312.728ZM313.685 68.1598L312.568 71.0398H305.709L307.145 68.1598H313.685Z" fill="#A137FF"/>
<path d="M314.962 70.5583L315.44 77.5983C315.44 77.5983 316.397 89.4383 324.214 91.3583C324.214 91.3583 327.723 92.1583 331.871 91.6783L333.785 88.9583L331.233 86.3983C331.233 86.3983 329.957 87.0383 327.245 87.1983C325.011 87.3583 322.938 86.3983 321.342 84.7983C319.428 82.7183 317.354 79.1983 317.035 73.1183L316.716 70.2383L314.962 70.5583Z" fill="#D8B2FF"/>
<path d="M328.999 92.1617C329.797 92.1617 330.754 92.1619 331.711 92.0019C331.711 92.0019 331.871 92.0019 331.871 91.8419L333.785 89.1219C333.785 89.1219 333.785 88.9619 333.785 88.8019L331.552 86.0817C331.552 86.0817 331.392 85.9217 331.233 86.0817C331.233 86.0817 329.957 86.7217 327.245 86.8817C325.011 87.0419 322.938 86.0817 321.502 84.4817C319.747 82.5617 317.673 79.0417 317.354 72.9617L317.035 70.0817C317.035 70.0817 317.035 69.9219 316.876 69.9219H316.716L314.802 70.4019C314.643 70.4019 314.643 70.5617 314.643 70.5617L315.121 77.6019C315.121 77.6019 315.44 80.6419 316.557 83.8419C317.195 85.7619 318.152 87.3617 319.269 88.4817C320.545 90.0817 322.14 91.0419 323.895 91.5219C324.054 91.6819 326.128 92.1617 328.999 92.1617ZM331.552 91.5219C327.564 92.0019 324.214 91.2019 324.054 91.2019C320.226 90.2419 317.992 86.5617 317.035 83.6817C315.919 80.6417 315.6 77.6019 315.6 77.6019L315.121 70.7219L316.716 70.4019L317.035 72.9617C317.195 75.6817 317.673 78.2417 318.631 80.4817C319.269 82.2417 320.226 83.6819 321.342 84.8019C322.778 86.4019 324.852 87.3617 327.085 87.3617C327.245 87.3617 327.245 87.3617 327.404 87.3617C329.638 87.2017 330.914 86.8817 331.392 86.5617L333.466 88.9617L331.552 91.5219Z" fill="#A137FF"/>
<path d="M317.354 68.8002L313.845 68.1602L312.569 71.3602L314.962 72.4802L317.195 71.6802L317.354 68.8002Z" fill="#D8B2FF"/>
<path d="M314.961 72.64L317.194 71.84L317.354 71.68L317.673 68.8C317.673 68.64 317.673 68.64 317.513 68.64L314.004 68C313.844 68 313.844 68 313.844 68.16L312.568 71.36C312.568 71.52 312.568 71.52 312.728 71.68L314.961 72.64ZM316.875 71.52L314.961 72.16L312.887 71.2L314.163 68.32L317.354 68.96L316.875 71.52Z" fill="#A137FF"/>
<path d="M284.652 73.2812L284.812 73.6013L282.897 74.5612L282.738 74.2414L284.652 73.2812Z" fill="#A137FF"/>
<path d="M285.131 74.0781L285.291 74.3981L284.493 74.8781L284.334 74.5581L285.131 74.0781Z" fill="#A137FF"/>
<path d="M257.693 21.28C257.852 21.44 258.012 21.44 258.171 21.28C258.49 21.12 258.65 20.8 258.49 20.48L254.024 8.16011C253.864 7.84011 253.545 7.68011 253.226 7.84011C252.907 8.00011 252.747 8.32011 252.907 8.64011L257.374 20.96C257.374 21.12 257.533 21.28 257.693 21.28Z" fill="white"/>
<path d="M257.533 21.4384C257.693 21.5984 258.012 21.5984 258.172 21.4384C258.65 21.2784 258.81 20.7984 258.65 20.3184L254.184 7.99844C254.184 7.83844 254.024 7.67844 253.705 7.51844C253.545 7.35844 253.226 7.35844 253.067 7.51844C252.588 7.67844 252.429 8.15844 252.588 8.63844L257.214 21.1184C257.214 21.2784 257.374 21.4384 257.533 21.4384ZM253.705 7.99844C253.864 7.99844 253.864 8.15844 253.864 8.15844L258.331 20.4784C258.491 20.6384 258.331 20.9584 258.012 21.1184C257.853 21.1184 257.693 21.1184 257.693 21.1184C257.533 21.1184 257.533 20.9584 257.533 20.9584L253.067 8.63844C252.907 8.47844 253.067 8.15844 253.386 7.99844C253.545 7.99844 253.545 7.99844 253.705 7.99844Z" fill="#A137FF"/>
<path d="M232.967 44.9607C233.127 44.9607 233.286 45.1207 233.446 44.9607L246.208 42.4007C246.527 42.4007 246.846 41.9207 246.686 41.6007C246.686 41.2807 246.208 40.9607 245.888 41.1207L233.127 43.6807C232.808 43.6807 232.489 44.1607 232.648 44.4807C232.648 44.6407 232.808 44.8007 232.967 44.9607Z" fill="white"/>
<path d="M232.808 45.1211C232.968 45.2811 233.127 45.2809 233.446 45.2809L246.208 42.7211C246.687 42.5611 247.006 42.2411 246.846 41.7611C246.846 41.6011 246.687 41.4409 246.527 41.2809C246.368 41.1209 246.208 41.1211 245.889 41.1211L233.127 43.6809C232.649 43.8409 232.33 44.1611 232.489 44.6411C232.489 44.8011 232.649 44.9611 232.808 45.1211ZM246.368 41.4411C246.527 41.6011 246.527 41.6011 246.527 41.7611C246.527 42.0811 246.368 42.2411 246.208 42.2411L233.446 44.8011C233.287 44.8011 233.287 44.8011 233.127 44.8011C232.968 44.8011 232.968 44.6409 232.968 44.4809C232.968 44.1609 233.127 44.0011 233.287 44.0011L246.049 41.4411C246.049 41.2811 246.208 41.2811 246.368 41.4411Z" fill="#A137FF"/>
<path d="M253.386 32.8006C253.705 32.9606 254.024 32.8006 254.184 32.4806C254.343 32.1606 254.184 31.8406 254.024 31.6806L241.103 24.3206C240.784 24.1606 240.465 24.3206 240.306 24.6406C240.146 24.9606 240.306 25.2806 240.465 25.4406L253.386 32.8006Z" fill="white"/>
<path d="M253.226 32.9604C253.545 33.1204 254.184 32.9604 254.343 32.6404C254.503 32.3204 254.503 31.6804 254.024 31.5204L241.103 24.1604C240.784 24.0004 240.146 24.1604 239.986 24.4804C239.827 24.6404 239.827 24.9604 239.827 25.1204C239.827 25.2804 239.986 25.4404 240.146 25.6004L253.226 32.9604ZM253.545 32.6404L240.624 25.2804C240.465 25.2804 240.465 25.1204 240.465 24.9604C240.465 24.8004 240.465 24.6404 240.465 24.6404C240.624 24.4804 240.943 24.3204 241.103 24.4804L254.024 31.8404C254.184 32.0004 254.343 32.3204 254.184 32.4804C254.024 32.6404 253.705 32.8004 253.545 32.6404Z" fill="#A137FF"/>
<path d="M274.922 70.8794L282.42 67.5195L283.855 70.8794L276.358 74.2395L274.922 70.8794Z" fill="white"/>
<path d="M276.357 74.5594L284.174 71.0394L282.579 67.3594L274.762 70.8794L276.357 74.5594ZM283.536 70.7194L276.517 73.9194L275.241 70.8794L282.26 67.6794L283.536 70.7194Z" fill="#A137FF"/>
<path d="M274.603 52.9609L268.062 62.5609L272.529 65.6009C272.529 65.6009 273.805 65.9209 280.505 56.9609L274.603 52.9609Z" fill="#D0A8FF"/>
<path d="M267.742 62.7206L272.528 65.9206C272.847 65.9206 273.326 65.6006 274.123 64.9606C275.719 63.5206 277.792 60.9606 280.664 57.1206L280.823 56.9606L274.442 52.6406L267.742 62.7206ZM272.688 65.4406L268.381 62.5606L274.602 53.2806L280.026 56.9606C277.473 60.3206 275.559 62.7206 274.123 64.1606C273.326 65.1206 272.847 65.4406 272.688 65.4406Z" fill="#A137FF"/>
<path d="M282.898 58.7202L275.241 53.6002L281.462 44.1602L289.119 49.2802C290.076 49.9202 290.395 51.2002 289.598 52.1602L285.61 58.0802C285.131 59.0402 283.855 59.3602 282.898 58.7202Z" fill="#8026D8"/>
<path d="M274.922 53.5998L282.738 58.8798C283.855 59.5198 285.291 59.3598 285.929 58.2398L289.917 52.3198C290.555 51.1998 290.395 49.7598 289.279 49.1198L281.462 43.8398L274.922 53.5998ZM289.119 49.5998C289.917 50.2398 290.236 51.3598 289.598 52.1598L285.61 58.0798C284.972 58.8798 283.855 59.1998 283.057 58.5598L275.719 53.5998L281.781 44.6398L289.119 49.5998Z" fill="#A137FF"/>
<path d="M281.621 44.1605L275.24 53.7605L254.343 46.8805C253.545 46.5605 253.226 45.6005 253.705 44.9605L265.509 27.5205C265.988 26.8805 267.105 26.7205 267.583 27.3605L281.621 44.1605Z" fill="white"/>
<path d="M275.719 53.2802L275.4 53.9202L254.662 47.0402C253.865 46.7202 253.546 45.7602 254.024 45.1202L254.662 44.1602L276.357 51.8402L275.719 53.2802Z" fill="#D0A8FF"/>
<path d="M281.941 48.1602L287.046 51.5202L286.727 52.0002L281.622 48.6402L281.941 48.1602Z" fill="#A137FF"/>
<path d="M280.505 50.3984L285.609 53.7584L285.29 54.2384L280.186 50.8784L280.505 50.3984Z" fill="#A137FF"/>
<path d="M279.069 52.4805L284.174 55.8406L283.855 56.3206L278.75 52.9605L279.069 52.4805Z" fill="#A137FF"/>
<path d="M253.226 45.5989L254.024 46.7191L256.417 47.6789L268.859 29.1191L267.105 27.3589L265.828 26.8789L253.226 45.5989Z" fill="#8026D8"/>
<path d="M254.184 47.1986L275.241 54.0786L281.94 44.1586L267.743 27.1986C267.424 26.8786 266.945 26.5586 266.467 26.5586C265.988 26.5586 265.51 26.8786 265.191 27.1986L253.386 44.7986C253.067 45.2786 253.067 45.7586 253.226 46.2386C253.386 46.5586 253.546 46.8786 253.865 47.0386C254.024 47.0386 254.184 47.0386 254.184 47.1986ZM267.264 27.5186L281.143 44.1586L274.921 53.2786L254.343 46.5586C254.024 46.3986 253.865 46.2386 253.705 45.9186C253.546 45.5986 253.705 45.2786 253.865 45.1186L265.669 27.6786C265.829 27.3586 266.148 27.1986 266.467 27.1986C266.626 27.1986 266.945 27.1986 267.105 27.3586L267.264 27.5186Z" fill="#A137FF"/>
<path d="M277.155 61.4386C277.474 61.2786 277.952 60.6386 278.112 60.6386V60.4786C278.112 60.4786 277.952 60.3186 277.952 60.4786L277.314 60.7986C276.676 61.1186 275.879 60.7986 275.719 60.1586C275.56 59.5186 275.719 58.8786 276.357 58.7186L278.431 57.7586C279.388 57.2786 280.505 57.7586 280.983 58.7186V58.8786C281.302 59.8386 281.302 60.7986 280.983 61.5986L280.026 63.8386" fill="#8026D8"/>
<path d="M280.185 63.5207L281.143 61.2807C281.462 60.3207 281.462 59.3607 281.143 58.4007V58.2407C280.983 57.7607 280.504 57.2807 280.026 57.1207C279.547 56.9607 278.909 56.9607 278.431 57.2807L276.357 58.2407C275.719 58.5607 275.4 59.3607 275.719 60.0007C275.878 60.3207 276.197 60.6407 276.516 60.8007C276.835 60.9607 277.314 60.9607 277.633 60.8007L277.952 60.4807C277.793 60.6407 277.474 60.9607 277.155 61.2807L277.474 61.6007C277.474 61.6007 278.271 60.8007 278.431 60.6407C278.59 60.4807 278.59 60.3207 278.431 60.1607C278.271 60.0007 278.112 60.0007 277.952 60.0007L277.314 60.3207C276.995 60.4807 276.835 60.4807 276.516 60.3207C276.197 60.1607 276.038 60.0007 276.038 59.6807C275.878 59.2007 276.038 58.7207 276.516 58.4007L278.431 57.6007C278.909 57.4407 279.228 57.4407 279.707 57.6007C280.185 57.7607 280.504 58.0807 280.664 58.4007V58.5607C280.983 59.3607 280.983 60.3207 280.664 61.1207L279.707 63.3607L280.185 63.5207Z" fill="#A137FF"/>
<path d="M273.326 59.0396C273.646 58.5596 273.646 57.9196 273.167 57.5996L270.455 55.1996C269.977 54.8796 269.338 54.8796 269.019 55.3596C268.7 55.8396 268.7 56.4796 269.179 56.7996L272.05 59.1996C272.369 59.5196 273.007 59.5196 273.326 59.0396Z" fill="#8026D8"/>
<path d="M273.008 59.5198C273.167 59.5198 273.327 59.3598 273.486 59.1998C273.965 58.7198 273.805 57.9198 273.327 57.4398L270.615 55.0398C270.136 54.5598 269.339 54.7198 268.86 55.1998C268.701 55.5198 268.541 55.6798 268.541 55.9998C268.541 56.3198 268.701 56.6398 269.02 56.7998L271.732 59.1998C272.051 59.3598 272.21 59.5198 272.529 59.5198C272.848 59.5198 273.008 59.5198 273.008 59.5198ZM269.658 55.3598C269.977 55.1998 270.296 55.3598 270.456 55.5198L273.167 57.7598C273.486 58.0798 273.486 58.5598 273.167 58.8798C273.008 59.0398 272.848 59.1998 272.689 59.1998C272.529 59.1998 272.21 59.1998 272.051 59.0398L269.339 56.6398C269.179 56.4798 269.02 56.3198 269.02 56.1598C269.02 55.9998 269.02 55.6798 269.179 55.5198C269.498 55.3598 269.498 55.3598 269.658 55.3598Z" fill="#A137FF"/>
<path d="M272.05 60.8018C272.528 60.3218 272.369 59.6818 272.05 59.3618L269.816 57.4418C269.497 57.1218 268.859 57.1218 268.54 57.6018H268.381C268.061 57.9218 268.061 58.5618 268.54 58.8818L270.773 60.8018C271.092 61.1218 271.73 61.1218 272.05 60.8018Z" fill="#8026D8"/>
<path d="M271.731 61.1209C271.891 61.1209 272.05 60.9609 272.21 60.8009H272.369C272.848 60.3209 272.688 59.6809 272.21 59.2009L269.976 57.2809C269.817 57.1209 269.498 56.9609 269.179 56.9609C268.86 56.9609 268.541 57.1209 268.381 57.2809L268.222 57.4409C267.743 57.9209 267.903 58.5609 268.381 59.0409L270.615 60.9609C270.934 61.2809 271.412 61.2809 271.731 61.1209ZM269.019 57.4409C269.338 57.2809 269.498 57.4409 269.817 57.6009L272.05 59.5209C272.369 59.8409 272.369 60.3209 272.05 60.4809L271.891 60.6409C271.572 60.9609 271.093 60.9609 270.934 60.6409L268.7 58.7209C268.381 58.4009 268.381 57.9209 268.7 57.7609V57.6009C268.7 57.4409 268.86 57.4409 269.019 57.4409Z" fill="#A137FF"/>
<path d="M270.615 62.2402C270.934 61.9202 270.934 61.2802 270.455 60.9602L269.179 59.8402C268.86 59.5202 268.222 59.5202 267.903 60.0002C267.584 60.3202 267.584 60.9602 268.062 61.2802L269.338 62.4002C269.657 62.5602 270.296 62.5602 270.615 62.2402Z" fill="#8026D8"/>
<path d="M270.295 62.5592C270.454 62.5592 270.614 62.3992 270.774 62.2392C271.252 61.7592 271.093 60.9592 270.614 60.6392L269.338 59.5192C269.178 59.3592 268.859 59.1992 268.54 59.1992C268.221 59.1992 267.902 59.3592 267.743 59.5192C267.583 59.6792 267.424 59.9992 267.424 60.3192C267.424 60.6392 267.583 60.9592 267.743 61.1192L269.178 62.3992C269.338 62.5592 269.657 62.7192 269.976 62.7192C270.135 62.7192 270.135 62.7192 270.295 62.5592ZM268.381 59.8392H268.54C268.7 59.8392 268.859 59.8392 269.019 59.9992L270.295 61.1192C270.454 61.2792 270.614 61.4392 270.614 61.5992C270.614 61.7592 270.614 61.9192 270.454 62.0792C270.295 62.2392 270.135 62.3992 269.976 62.3992C269.816 62.3992 269.657 62.3992 269.497 62.2392L268.221 61.1192C268.062 60.9592 267.902 60.7992 267.902 60.6392C267.902 60.4792 267.902 60.3192 268.062 60.1592C268.221 59.8392 268.221 59.8392 268.381 59.8392Z" fill="#A137FF"/>
<path d="M273.167 56.1618L273.326 56.0018C273.646 55.5218 273.646 55.0418 273.167 54.5618L271.891 53.4418C271.412 53.1218 270.934 53.1218 270.455 53.6018L270.296 53.7618C269.977 54.2418 269.977 54.7218 270.455 55.2018L271.731 56.3218C272.21 56.6418 272.848 56.4818 273.167 56.1618Z" fill="#8026D8"/>
<path d="M272.848 56.6409C273.008 56.6409 273.167 56.4809 273.327 56.3209L273.486 56.0009C273.965 55.5209 273.805 54.7209 273.327 54.4009L272.051 53.2809C271.891 53.1209 271.572 52.9609 271.253 52.9609C270.934 52.9609 270.615 53.1209 270.456 53.2809L270.296 53.4409C269.817 53.9209 269.977 54.7209 270.456 55.0409L271.572 56.3209C271.732 56.4809 272.051 56.6409 272.37 56.6409C272.529 56.6409 272.689 56.6409 272.848 56.6409ZM271.094 53.4409H271.253C271.413 53.4409 271.732 53.4409 271.891 53.6009L273.167 54.7209C273.486 55.0409 273.486 55.5209 273.167 55.8409L273.008 56.0009C272.848 56.1609 272.689 56.3209 272.529 56.3209C272.37 56.3209 272.051 56.3209 271.891 56.1609L270.615 55.0409C270.296 54.7209 270.296 54.2409 270.615 53.9209L270.775 53.7609C270.934 53.6009 270.934 53.4409 271.094 53.4409Z" fill="#A137FF"/>
<path d="M318.153 59.5214L320.705 48.1614C321.184 46.2414 320.864 44.4814 319.907 42.8814C319.11 41.4414 317.674 40.1614 315.919 39.0414L308.103 34.4014C305.869 33.1214 303.158 33.1214 301.084 34.4014C300.127 35.0414 299.329 35.6814 299.01 36.6414C299.01 36.6414 298.531 37.9214 298.212 39.6814C298.053 40.6414 298.053 41.6014 298.212 42.2414C298.372 43.2014 298.691 44.0014 299.329 44.6414V44.8014H299.489C299.489 44.8014 301.084 44.0014 302.839 43.6814C305.072 43.2014 306.827 43.6814 307.784 44.8014C307.305 45.1214 306.188 46.2414 306.029 48.0014C305.869 49.6014 306.827 51.3614 308.741 53.1214L307.784 57.1214L310.815 57.7614V57.6014C310.815 57.6014 310.974 56.4814 311.293 55.3614C311.931 53.9214 312.729 53.1214 313.845 53.1214C313.845 53.1214 314.484 53.2814 314.803 53.7614C315.281 54.4014 315.76 55.6814 315.122 58.5614V58.7214L318.153 59.5214ZM304.434 33.9214C305.55 33.9214 306.827 34.2414 307.784 34.8814L315.6 39.5214C319.269 41.6014 321.024 44.6414 320.226 48.0014L317.834 59.0414L315.6 58.5614C315.919 57.2814 315.919 56.3214 315.76 55.3614C315.6 54.5614 315.441 54.0814 315.122 53.6014C314.643 52.8014 313.845 52.8014 313.845 52.8014C312.569 52.8014 311.453 53.7614 310.815 55.3614C310.496 56.3214 310.336 57.1214 310.336 57.4414L308.103 56.9614L309.06 53.1214L308.9 52.9614C306.986 51.3614 306.188 49.6014 306.348 48.1614C306.508 46.2414 308.103 45.1214 308.103 45.1214L308.262 44.9614L308.103 44.8014C307.465 44.0014 306.667 43.5214 305.55 43.2014C304.753 43.0414 303.636 43.0414 302.519 43.2014C300.924 43.5214 299.648 44.0014 299.17 44.1614C298.053 42.8814 298.053 40.9614 298.212 39.5214C298.372 37.9214 298.85 36.6414 299.01 36.6414C299.329 35.8414 299.967 35.0414 300.924 34.5614C302.2 34.2414 303.317 33.9214 304.434 33.9214Z" fill="#640AB3"/>
<g opacity="0.5">
<path opacity="0.5" d="M201.063 76.6384C200.425 76.7984 200.106 77.4384 200.265 78.0784C200.425 78.7184 201.063 79.0384 201.701 78.8784C202.339 78.7184 202.658 78.0784 202.498 77.4384C202.179 76.7984 201.541 76.4784 201.063 76.6384Z" fill="#E391FF"/>
<path opacity="0.5" d="M196.437 59.8416C195.799 60.0016 195.48 60.6416 195.639 61.2816C195.799 61.9216 196.437 62.2416 197.075 62.0816C197.713 61.9216 198.032 61.2816 197.872 60.6416C197.713 60.0016 197.075 59.6816 196.437 59.8416Z" fill="#E391FF"/>
<path opacity="0.5" d="M191.97 43.0408C191.332 43.2008 191.013 43.8408 191.172 44.4808C191.332 45.1208 191.97 45.4408 192.608 45.2808C193.246 45.1208 193.565 44.4808 193.406 43.8408C193.087 43.2008 192.608 42.8808 191.97 43.0408Z" fill="#E391FF"/>
<path opacity="0.5" d="M188.142 28.3198C187.504 28.4798 186.866 28.1598 186.706 27.5198C186.547 26.8798 186.866 26.2398 187.504 26.0798C188.142 25.9198 188.78 26.2398 188.939 26.8798C189.099 27.5198 188.62 28.1598 188.142 28.3198Z" fill="#E391FF"/>
<path opacity="0.5" d="M183.037 9.27905C182.399 9.43905 182.08 10.0791 182.24 10.7191C182.399 11.3591 183.037 11.6791 183.675 11.5191C184.313 11.3591 184.633 10.7191 184.473 10.0791C184.154 9.43905 183.675 9.11905 183.037 9.27905Z" fill="#E391FF"/>
<path opacity="0.5" d="M185.909 80.6384C185.27 80.7984 184.951 81.4384 185.111 82.0784C185.27 82.7184 185.908 83.0384 186.547 82.8784C187.185 82.7184 187.504 82.0784 187.344 81.4384C187.185 80.7984 186.547 80.4784 185.909 80.6384Z" fill="#E391FF"/>
<path opacity="0.5" d="M181.442 63.8416C180.804 64.0016 180.484 64.6416 180.644 65.2816C180.804 65.9216 181.442 66.2416 182.08 66.0816C182.718 65.9216 183.037 65.2816 182.877 64.6416C182.718 64.0016 182.08 63.6816 181.442 63.8416Z" fill="#E391FF"/>
<path opacity="0.5" d="M176.976 47.0408C176.338 47.2008 176.019 47.8408 176.178 48.4808C176.338 49.1208 176.976 49.4408 177.614 49.2808C178.252 49.1208 178.571 48.4808 178.411 47.8408C178.252 47.2008 177.614 46.8808 176.976 47.0408Z" fill="#E391FF"/>
<path opacity="0.5" d="M172.987 32.3198C172.349 32.4798 171.711 32.1598 171.551 31.5198C171.392 30.8798 171.711 30.2398 172.349 30.0798C172.987 29.9198 173.625 30.2398 173.785 30.8798C173.944 31.5198 173.625 32.1598 172.987 32.3198Z" fill="#E391FF"/>
<path opacity="0.5" d="M168.52 15.5191C167.882 15.6791 167.244 15.3591 167.084 14.7191C166.925 14.0791 167.244 13.4391 167.882 13.2791C168.52 13.1191 169.158 13.4391 169.318 14.0791C169.478 14.7191 169.158 15.3591 168.52 15.5191Z" fill="#E391FF"/>
<path opacity="0.5" d="M171.551 86.8784C170.913 87.0384 170.275 86.7184 170.116 86.0784C169.956 85.4384 170.275 84.7984 170.913 84.6384C171.551 84.4784 172.189 84.7984 172.349 85.4384C172.509 86.0784 172.189 86.7184 171.551 86.8784Z" fill="#E391FF"/>
<path opacity="0.5" d="M167.084 70.0816C166.446 70.2416 165.808 69.9216 165.648 69.2816C165.489 68.6416 165.808 68.0016 166.446 67.8416C167.084 67.6816 167.722 68.0016 167.882 68.6416C168.041 69.2816 167.563 69.9216 167.084 70.0816Z" fill="#E391FF"/>
<path opacity="0.5" d="M161.98 51.0408C161.342 51.2008 161.023 51.8408 161.182 52.4808C161.342 53.1208 161.98 53.4408 162.618 53.2808C163.256 53.1208 163.575 52.4808 163.415 51.8408C163.096 51.2008 162.618 50.8808 161.98 51.0408Z" fill="#E391FF"/>
<path opacity="0.5" d="M157.513 34.24C156.875 34.4 156.556 35.04 156.715 35.68C156.875 36.32 157.513 36.64 158.151 36.48C158.789 36.32 159.108 35.68 158.949 35.04C158.63 34.4 157.991 34.08 157.513 34.24Z" fill="#E391FF"/>
<path opacity="0.5" d="M152.887 17.2791C152.249 17.4391 151.93 18.0791 152.089 18.7191C152.249 19.3591 152.887 19.6791 153.525 19.5191C154.163 19.3591 154.482 18.7191 154.323 18.0791C154.163 17.4391 153.525 17.1191 152.887 17.2791Z" fill="#E391FF"/>
<path opacity="0.5" d="M155.918 88.7986C155.28 88.9586 154.961 89.5986 155.121 90.2386C155.28 90.8786 155.918 91.1986 156.556 91.0386C157.194 90.8786 157.513 90.2386 157.354 89.5986C157.194 88.9586 156.556 88.6386 155.918 88.7986Z" fill="#E391FF"/>
<path opacity="0.5" d="M151.451 71.84C150.813 72 150.494 72.64 150.654 73.28C150.813 73.92 151.451 74.24 152.089 74.08C152.728 73.92 153.047 73.28 152.887 72.64C152.568 72.16 152.089 71.68 151.451 71.84Z" fill="#E391FF"/>
<path opacity="0.5" d="M146.985 55.0408C146.346 55.2008 146.027 55.8408 146.187 56.4808C146.346 57.1208 146.985 57.4408 147.623 57.2808C148.261 57.1208 148.58 56.4808 148.42 55.8408C148.101 55.2008 147.463 54.8808 146.985 55.0408Z" fill="#E391FF"/>
<path opacity="0.5" d="M142.997 40.48C142.359 40.64 141.721 40.32 141.561 39.68C141.401 39.04 141.721 38.4 142.359 38.24C142.997 38.08 143.635 38.4 143.794 39.04C143.954 39.68 143.635 40.32 142.997 40.48Z" fill="#E391FF"/>
<path opacity="0.5" d="M137.892 21.4392C137.254 21.5992 136.935 22.2392 137.094 22.8792C137.254 23.5192 137.892 23.8392 138.53 23.6792C139.168 23.5192 139.487 22.8792 139.328 22.2392C139.168 21.5992 138.53 21.2792 137.892 21.4392Z" fill="#E391FF"/>
<path opacity="0.5" d="M140.923 92.7986C140.285 92.9586 139.966 93.5986 140.125 94.2386C140.285 94.8786 140.923 95.1986 141.561 95.0386C142.199 94.8786 142.518 94.2386 142.359 93.5986C142.04 92.9586 141.561 92.6386 140.923 92.7986Z" fill="#E391FF"/>
<path opacity="0.5" d="M136.456 76.0017C135.818 76.1617 135.499 76.8017 135.659 77.4417C135.818 78.0817 136.456 78.4017 137.094 78.2417C137.732 78.0817 138.051 77.4417 137.892 76.8017C137.573 76.1617 137.094 75.8417 136.456 76.0017Z" fill="#E391FF"/>
<path opacity="0.5" d="M131.989 59.0408C131.351 59.2008 131.032 59.8408 131.192 60.4808C131.351 61.1208 131.989 61.4408 132.628 61.2808C133.266 61.1208 133.585 60.4808 133.425 59.8408C133.106 59.2008 132.628 58.8808 131.989 59.0408Z" fill="#E391FF"/>
<path opacity="0.5" d="M128.002 44.48C127.363 44.64 126.725 44.32 126.566 43.68C126.406 43.04 126.725 42.4 127.363 42.24C128.002 42.08 128.64 42.4 128.799 43.04C128.959 43.68 128.64 44.32 128.002 44.48Z" fill="#E391FF"/>
<path opacity="0.5" d="M123.535 27.5191C122.897 27.6791 122.259 27.3591 122.099 26.7191C121.94 26.0791 122.259 25.4391 122.897 25.2791C123.535 25.1191 124.173 25.4391 124.332 26.0791C124.492 26.7191 124.173 27.3591 123.535 27.5191Z" fill="#E391FF"/>
<path opacity="0.5" d="M121.939 82.2417C121.301 82.4017 120.663 82.0817 120.503 81.4417C120.344 80.8017 120.663 80.1617 121.301 80.0017C121.939 79.8417 122.577 80.1617 122.737 80.8017C122.896 81.4417 122.577 82.0817 121.939 82.2417Z" fill="#E391FF"/>
<path opacity="0.5" d="M116.994 63.2009C116.356 63.3609 116.037 64.0009 116.197 64.6409C116.356 65.2809 116.994 65.6009 117.632 65.4409C118.271 65.2809 118.59 64.6409 118.43 64.0009C118.111 63.3609 117.473 63.0409 116.994 63.2009Z" fill="#E391FF"/>
<path opacity="0.5" d="M112.368 46.24C111.73 46.4 111.411 47.04 111.571 47.68C111.73 48.32 112.368 48.64 113.006 48.48C113.645 48.32 113.964 47.68 113.804 47.04C113.645 46.4 113.006 46.08 112.368 46.24Z" fill="#E391FF"/>
<path opacity="0.5" d="M107.902 29.4392C107.263 29.5992 106.944 30.2392 107.104 30.8792C107.263 31.5192 107.902 31.8392 108.54 31.6792C109.178 31.5192 109.497 30.8792 109.337 30.2392C109.178 29.5992 108.54 29.2792 107.902 29.4392Z" fill="#E391FF"/>
<path opacity="0.5" d="M70.2542 30.72C70.5732 30.72 70.5732 30.4 70.5732 30.08L58.6091 -7.68C58.6091 -8 58.2901 -8 57.971 -8C57.652 -8 57.6519 -7.68 57.6519 -7.36L69.6161 30.4C69.7756 30.56 70.0947 30.72 70.2542 30.72Z" fill="white"/>
<path opacity="0.5" d="M83.6546 44.0008C83.9736 44.0008 83.9736 43.6808 83.9736 43.3608L72.0095 5.12078C72.0095 4.80078 71.6904 4.80078 71.3714 4.80078C71.0524 4.80078 71.0524 5.12078 71.0524 5.44078L83.0165 43.6808C83.176 43.8408 83.4951 44.0008 83.6546 44.0008Z" fill="#E391FF"/>
<path opacity="0.5" d="M62.9163 50.3992C63.2354 50.3992 63.2354 50.0792 63.2354 49.7592L51.2712 11.5192C51.2712 11.1992 50.9522 11.1992 50.6331 11.1992C50.3141 11.1992 50.3141 11.5192 50.3141 11.8392L62.2782 50.0792C62.4378 50.3992 62.7568 50.5592 62.9163 50.3992Z" fill="#E391FF"/>
<path opacity="0.5" d="M97.2132 47.8389C97.5322 47.8389 97.5322 47.5189 97.5322 47.1989L91.3109 27.1989C91.3109 26.8789 90.9918 26.8789 90.6728 26.8789C90.3538 26.8789 90.3537 27.1989 90.3537 27.5189L96.5751 47.5189C96.7346 47.8389 96.8941 47.9989 97.2132 47.8389Z" fill="white"/>
<path opacity="0.5" d="M61.6399 64.1608C61.959 64.1608 61.959 63.8408 61.959 63.5208L58.609 53.1208C58.609 52.8008 58.29 52.8008 57.9709 52.8008C57.6519 52.8008 57.6519 53.1208 57.6519 53.4408L61.0018 63.8408C61.1614 64.0008 61.3209 64.1608 61.6399 64.1608Z" fill="#E391FF"/>
<path opacity="0.5" d="M92.2689 21.9187C92.5879 21.9187 92.5879 21.5987 92.5879 21.2787L84.2928 -4.96125C84.2928 -5.28125 83.9737 -5.28125 83.6546 -5.28125C83.3356 -5.28125 83.3356 -4.96125 83.3356 -4.64125L91.6307 21.5987C91.7903 21.7587 92.1093 21.9187 92.2689 21.9187Z" fill="#E391FF"/>
<path opacity="0.5" d="M48.2405 42.7194C48.5596 42.7194 48.5596 42.3994 48.5596 42.0794L46.4858 35.6794C46.4858 35.3594 46.1667 35.3594 45.8477 35.3594C45.5287 35.3594 45.5287 35.6794 45.5287 35.9994L47.6025 42.3994C47.762 42.7194 48.081 42.8794 48.2405 42.7194Z" fill="white"/>
<path opacity="0.5" d="M105.668 17.6003C105.987 17.6003 105.987 17.2803 105.987 16.9603L104.552 12.6403C104.552 12.3203 104.233 12.3203 103.914 12.3203C103.594 12.3203 103.594 12.6403 103.594 12.9603L105.03 17.2803C105.19 17.4403 105.349 17.6003 105.668 17.6003Z" fill="white"/>
<path opacity="0.5" d="M85.2494 100.8C79.9852 102.24 74.721 99.0403 73.2853 93.9203C71.8496 88.6403 75.04 83.3603 80.1447 81.9203C85.4089 80.4803 90.6732 83.6803 92.1089 88.8003C93.5446 93.9203 90.5136 99.3603 85.2494 100.8Z" fill="#E391FF"/>
<path opacity="0.5" d="M84.1325 96.4781C86.6849 95.8381 88.9182 94.0781 90.3539 91.6781C91.7895 89.2781 92.1086 86.5581 91.311 83.8381C90.6729 81.1181 88.9182 79.0381 86.5253 77.5981C81.5801 74.7181 75.3588 76.4781 72.4874 81.4381C71.0517 83.8381 70.7327 86.5581 71.5303 89.2781C72.1684 91.9981 73.9231 94.0781 76.3159 95.5181C78.7088 96.9581 81.5801 97.1181 84.1325 96.4781ZM79.0278 77.5981C81.2611 76.9581 83.8135 77.2781 86.0468 78.5581C88.1205 79.8381 89.7158 81.7581 90.3539 84.1581C90.9919 86.5581 90.6729 88.9581 89.3967 91.1981C86.8444 95.5181 81.2611 97.1181 76.954 94.5581C74.8802 93.2781 73.285 91.3581 72.6469 88.9581C72.0088 86.5581 72.3279 84.1581 73.604 81.9181C74.7207 79.6781 76.7945 78.2381 79.0278 77.5981Z" fill="white"/>
<path opacity="0.5" d="M166.446 40.319C167.084 39.359 167.244 38.239 166.924 37.119C166.286 34.879 163.894 33.439 161.66 34.079C158.47 34.879 155.279 33.119 154.482 29.919C153.684 26.719 155.439 23.679 158.629 22.879C160.863 22.239 162.298 19.839 161.66 17.599C161.022 15.359 158.629 13.919 156.396 14.559C148.739 16.639 144.272 24.479 146.346 32.159C148.42 39.839 156.236 44.319 163.894 42.399C164.851 41.919 165.808 41.279 166.446 40.319Z" fill="white"/>
<path opacity="0.5" d="M30.8523 68.8002C32.288 66.4002 31.3309 63.3602 29.0976 61.9202C26.7047 60.4802 23.6738 61.4402 22.2381 63.6802C20.8024 66.0802 21.7596 69.1202 23.9929 70.5602C26.3857 72.0002 29.4166 71.2002 30.8523 68.8002ZM24.95 65.4402C25.4285 64.6402 26.5452 64.3202 27.3428 64.8002C28.1404 65.2802 28.4595 66.4002 27.9809 67.2002C27.5023 68.0002 26.3857 68.3202 25.5881 67.8402C24.7905 67.3602 24.4714 66.2402 24.95 65.4402Z" fill="white"/>
<path opacity="0.5" d="M213.027 45.9213C214.463 43.5213 213.506 40.4813 211.272 39.0413C208.88 37.6013 205.849 38.5613 204.413 40.8013C202.977 43.2013 203.934 46.2413 206.168 47.6813C208.72 49.2813 211.751 48.3213 213.027 45.9213ZM207.125 42.5613C207.603 41.7613 208.72 41.4413 209.518 41.9213C210.475 42.4013 210.634 43.5213 210.156 44.3213C209.677 45.2813 208.56 45.4413 207.763 44.9613C206.965 44.4813 206.646 43.5213 207.125 42.5613Z" fill="#E391FF"/>
</g>
</g>
</svg>
