<svg width="666" height="538" viewBox="0 0 666 538" fill="none" xmlns="http://www.w3.org/2000/svg">
<path d="M347.657 538C523.473 538 666 532.995 666 526.822C666 520.648 523.473 515.643 347.657 515.643C171.841 515.643 29.3145 520.648 29.3145 526.822C29.3145 532.995 171.841 538 347.657 538Z" fill="#939598"/>
<path d="M496.073 143.459V35.016C496.073 15.6773 480.381 0 461.024 0H235.184C215.827 0 200.135 15.6773 200.135 35.016V83.0549H197.818V102.666H200.135V124.019H197.818V168.642H200.135V173.601H197.818V218.226H200.135V490.521C200.135 491.143 200.153 491.762 200.184 492.378C200.398 496.476 201.318 500.386 202.824 503.988C202.915 504.215 203.013 504.439 203.114 504.659C203.125 504.694 203.139 504.726 203.156 504.761C203.254 504.984 203.359 505.212 203.468 505.432C203.478 505.467 203.496 505.502 203.513 505.534C203.618 505.761 203.727 505.985 203.842 506.205C205.2 508.919 206.905 511.429 208.897 513.682C210.493 515.49 212.271 517.133 214.207 518.577C215.918 519.857 217.752 520.983 219.688 521.935C220.311 522.249 220.948 522.54 221.596 522.809C221.669 522.84 221.746 522.875 221.823 522.903C222.152 523.04 222.481 523.173 222.817 523.295C223.041 523.382 223.269 523.466 223.496 523.543C223.531 523.557 223.57 523.571 223.608 523.582C223.941 523.701 224.277 523.812 224.613 523.917C225.11 524.075 225.611 524.222 226.118 524.355C226.57 524.477 227.021 524.589 227.48 524.69C229.233 525.085 231.036 525.348 232.881 525.463C233.231 525.488 233.581 525.505 233.931 525.516C234.165 525.526 234.403 525.533 234.641 525.533C234.82 525.54 235.002 525.54 235.184 525.54H461.024C461.098 525.54 461.175 525.54 461.248 525.537C464.801 525.516 468.228 524.967 471.455 523.963C475.228 522.788 478.725 520.997 481.83 518.703C483.149 517.731 484.399 516.665 485.568 515.514C487.119 514 488.529 512.335 489.772 510.552C492.478 506.688 494.421 502.253 495.383 497.466C495.415 497.319 495.443 497.169 495.471 497.018C495.471 497.018 495.471 497.015 495.471 497.011C495.866 494.909 496.073 492.738 496.073 490.521V208.973H497.497V143.459H496.073ZM481.371 490.521C481.371 492.598 481.06 494.602 480.475 496.49C480.423 496.665 480.367 496.836 480.307 497.011C480.307 497.011 480.307 497.015 480.307 497.018C480.255 497.169 480.202 497.315 480.15 497.466C479.219 500.012 477.794 502.323 475.988 504.278C472.316 508.268 467.073 510.79 461.248 510.849C461.175 510.853 461.098 510.853 461.024 510.853H235.184C234.533 510.853 233.885 510.821 233.252 510.762C232.664 510.706 232.086 510.625 231.516 510.52C231.379 510.496 231.246 510.471 231.113 510.443C230.546 510.328 229.989 510.188 229.443 510.027C228.712 509.814 227.998 509.559 227.305 509.265C226.734 509.024 226.178 508.761 225.635 508.467C225.397 508.345 225.163 508.212 224.932 508.076C224.441 507.789 223.962 507.481 223.496 507.156C223.069 506.855 222.653 506.537 222.25 506.205C222.107 506.086 221.963 505.964 221.823 505.841C221.708 505.74 221.592 505.635 221.477 505.534C221.438 505.499 221.403 505.464 221.368 505.432C221.13 505.215 220.899 504.991 220.679 504.761C220.644 504.729 220.612 504.694 220.577 504.659C220.367 504.442 220.157 504.215 219.954 503.988C219.706 503.704 219.461 503.418 219.23 503.12C218.414 502.096 217.7 500.991 217.094 499.819C216.37 498.42 215.806 496.931 215.421 495.364C215.04 493.811 214.837 492.189 214.837 490.521V35.016C214.837 23.7904 223.948 14.6876 235.184 14.6876H276.05H420.158H461.024C472.26 14.6876 481.371 23.7904 481.371 35.016V490.521Z" fill="#A7B0C0"/>
<path d="M477.425 35.016V490.521C477.425 492.661 477.022 494.707 476.291 496.592C476.235 496.735 476.179 496.878 476.119 497.018C476.056 497.169 475.99 497.319 475.923 497.466C475.738 497.875 475.535 498.274 475.317 498.662C472.475 503.781 467.043 507.272 460.802 507.352C460.728 507.355 460.651 507.355 460.578 507.355H234.738C234.083 507.355 233.439 507.317 232.805 507.244C232.679 507.23 232.553 507.216 232.427 507.195C231.829 507.114 231.241 507.002 230.667 506.855C230.096 506.715 229.54 506.548 228.997 506.348C228.871 506.303 228.745 506.257 228.623 506.205C228.112 506.006 227.611 505.782 227.124 505.534C227.058 505.502 226.991 505.467 226.928 505.432C226.529 505.226 226.141 505.002 225.763 504.761C225.71 504.729 225.658 504.694 225.605 504.659C225.273 504.446 224.954 504.222 224.639 503.988C224.188 503.649 223.754 503.288 223.341 502.911C221.286 501.019 219.704 498.63 218.783 495.934C218.206 494.234 217.891 492.413 217.891 490.521V35.016C217.891 25.7348 225.448 18.1847 234.738 18.1847H460.578C469.868 18.1847 477.425 25.7348 477.425 35.016Z" fill="#FEFEFF"/>
<path d="M528.998 302.163C528.042 299.838 525.465 298.164 522.99 298.616" stroke="#231F20" stroke-miterlimit="10"/>
<path d="M483.116 326.332C481.739 325.164 480.946 323.764 480.625 322.303" stroke="#231F20" stroke-miterlimit="10"/>
<path d="M488.135 326.676C494.055 327.724 500.448 325.537 504.481 321.083" stroke="#231F20" stroke-miterlimit="10"/>
<path d="M477.893 378.553H472.643C472.643 375.222 472.676 371.871 472.708 368.63C472.826 356.557 472.937 345.153 471.519 333.452C470.459 324.708 469.258 314.797 464.614 306.862C460.663 300.111 452.42 293.589 443.657 295.217C438.735 296.132 434.1 299.609 430.941 304.755C428.38 308.929 426.687 314.188 425.614 321.307C423.056 338.273 423.773 350.527 424.679 366.041C424.898 369.783 425.124 373.654 425.318 377.825L420.073 378.068C419.881 373.928 419.656 370.074 419.438 366.346C418.513 350.527 417.783 338.032 420.422 320.525C421.166 315.594 422.601 308.31 426.466 302.013C430.4 295.602 436.317 291.245 442.697 290.059C447.759 289.118 453.076 290.156 458.071 293.062C462.52 295.651 466.454 299.611 469.147 304.214C474.34 313.087 475.61 323.571 476.732 332.821C478.191 344.861 478.073 356.97 477.958 368.681C477.926 371.909 477.893 375.248 477.893 378.553Z" fill="#284B91"/>
<path d="M582.496 526.263H406.57L404.288 526.406L401.551 526.581L401.208 526.602L400.973 523.71L387.003 350.508L517.145 354.204L529.364 354.551L534.041 354.684L534.58 356.47L534.727 356.953L582.496 526.263Z" fill="#2C569F"/>
<path d="M401.208 526.602H352.928L375.96 350.508H387.003L387.07 351.316L387.245 353.495L401.208 526.602Z" fill="#284B91"/>
<path d="M534.727 356.953L534.58 356.47C526.599 367.832 524.436 382.457 523.624 396.421C522.759 411.273 523.022 426.534 517.855 440.487C508.265 466.404 482.481 482.095 458.455 495.782C446.428 502.637 434.398 509.487 422.37 516.342C417.078 519.356 411.611 522.598 406.57 526.263H582.496L534.727 356.953Z" fill="#284B91"/>
<path d="M490.422 378.553H485.171C485.171 375.222 485.204 371.871 485.236 368.63C485.354 356.557 485.465 345.153 484.047 333.452C482.987 324.708 481.786 314.797 477.142 306.862C473.192 300.111 464.949 293.589 456.186 295.217C451.263 296.132 446.629 299.609 443.47 304.755C440.908 308.929 439.215 314.188 438.142 321.307C435.585 338.273 436.301 350.527 437.208 366.041C437.426 369.783 437.652 373.654 437.846 377.825L432.601 378.068C432.409 373.928 432.184 370.074 431.966 366.346C431.042 350.527 430.312 338.032 432.951 320.525C433.694 315.594 435.129 308.31 438.994 302.013C442.929 295.602 448.845 291.245 455.226 290.059C460.288 289.118 465.604 290.156 470.599 293.062C475.048 295.651 478.982 299.611 481.675 304.214C486.868 313.087 488.139 323.571 489.26 332.821C490.719 344.861 490.601 356.97 490.486 368.681C490.454 371.909 490.422 375.248 490.422 378.553Z" fill="#284B91"/>
<path d="M440.39 379.245C442.676 376.961 442.676 373.258 440.39 370.975C438.104 368.691 434.398 368.691 432.112 370.975C429.826 373.258 429.826 376.961 432.112 379.245C434.398 381.528 438.104 381.528 440.39 379.245Z" fill="#1F3E7C"/>
<path d="M493.596 378.157C494.406 375.03 492.526 371.839 489.396 371.03C486.267 370.22 483.073 372.098 482.263 375.225C481.452 378.351 483.332 381.542 486.462 382.352C489.591 383.162 492.785 381.283 493.596 378.157Z" fill="#1F3E7C"/>
<path d="M480.625 322.303C480.046 319.671 480.997 316.838 482.819 314.802C485.631 311.658 490.233 310.91 494.453 310.83C498.672 310.749 503.058 311.112 506.954 309.491C510.117 308.174 512.713 305.555 513.999 302.382" stroke="#231F20" stroke-miterlimit="10"/>
<path d="M625.505 273.821L610.751 237.474C608.557 232.07 602.193 229.715 597.005 232.387L512.468 275.921C507.905 278.271 505.888 283.71 507.818 288.463L519.336 316.837C521.396 321.913 527.184 324.359 532.264 322.3L620.037 286.737C625.117 284.679 627.565 278.896 625.505 273.821ZM529.724 303.495C525.944 303.495 522.879 300.433 522.879 296.656C522.879 292.88 525.944 289.818 529.724 289.818C533.504 289.818 536.568 292.88 536.568 296.656C536.568 300.433 533.504 303.495 529.724 303.495Z" fill="#FFCB28"/>
<path d="M504.481 321.083C505.593 319.854 506.581 318.433 508.051 317.669C508.853 317.253 509.749 317.062 510.633 316.874C512.068 316.57 513.503 316.266 514.938 315.961C517.4 315.439 519.879 314.912 522.193 313.924C524.507 312.937 526.672 311.447 528.058 309.349C529.445 307.25 529.954 304.488 528.998 302.162" stroke="#231F20" stroke-miterlimit="10"/>
<path d="M551.002 269.391C555.487 269.391 557.846 271.743 557.846 277.155C557.846 282.568 555.487 284.92 551.002 284.92C546.517 284.92 544.159 282.568 544.159 277.155C544.159 271.743 546.518 269.391 551.002 269.391ZM551.002 279.507C551.667 279.507 552.065 279.246 552.065 277.156C552.065 275.066 551.667 274.804 551.002 274.804C550.338 274.804 549.939 275.066 549.939 277.156C549.939 279.246 550.338 279.507 551.002 279.507ZM551.766 293.319L566.516 269.989H571.234L556.517 293.319H551.766ZM571.998 293.916C567.513 293.916 565.154 291.564 565.154 286.152C565.154 280.739 567.513 278.387 571.998 278.387C576.483 278.387 578.841 280.739 578.841 286.152C578.841 291.564 576.483 293.916 571.998 293.916ZM571.998 283.8C571.334 283.8 570.935 284.061 570.935 286.152C570.935 288.242 571.334 288.503 571.998 288.503C572.663 288.503 573.061 288.242 573.061 286.152C573.061 284.061 572.663 283.8 571.998 283.8Z" fill="white"/>
<path d="M579.723 263.838L601.496 255.951" stroke="white" stroke-width="4" stroke-miterlimit="10" stroke-linecap="round"/>
<path d="M581.175 267.839L602.948 259.952" stroke="white" stroke-width="4" stroke-miterlimit="10" stroke-linecap="round"/>
<path d="M582.627 271.839L604.4 263.952" stroke="white" stroke-width="4" stroke-miterlimit="10" stroke-linecap="round"/>
<path d="M584.079 275.84L605.852 267.953" stroke="white" stroke-width="4" stroke-miterlimit="10" stroke-linecap="round"/>
<path d="M558.256 436.594H555.063C555.063 434.568 555.083 432.531 555.103 430.56C555.174 423.22 555.242 416.287 554.38 409.173C553.736 403.857 553.006 397.832 550.182 393.007C547.781 388.904 542.769 384.938 537.441 385.928C534.449 386.484 531.631 388.598 529.711 391.727C528.153 394.264 527.124 397.462 526.472 401.79C524.917 412.104 525.352 419.554 525.904 428.986C526.036 431.261 526.174 433.614 526.292 436.151L523.103 436.299C522.986 433.782 522.849 431.438 522.717 429.172C522.155 419.555 521.711 411.958 523.316 401.315C523.767 398.317 524.64 393.889 526.99 390.06C529.382 386.162 532.979 383.514 536.858 382.793C539.935 382.221 543.168 382.852 546.204 384.618C548.91 386.192 551.301 388.6 552.938 391.398C556.095 396.793 556.868 403.166 557.549 408.79C558.437 416.11 558.365 423.472 558.295 430.591C558.275 432.554 558.256 434.584 558.256 436.594Z" fill="#9CD42E"/>
<path d="M621.85 526.396H514.894L513.506 526.483L511.842 526.589L511.633 526.602L511.491 524.844L502.998 419.543L582.119 421.79L589.549 422.001L592.392 422.082L592.719 423.168L592.809 423.461L621.85 526.396Z" fill="#ABE232"/>
<path d="M511.633 526.602H482.281L496.284 419.543H502.998L503.038 420.034L503.144 421.359L511.633 526.602Z" fill="#9CD42E"/>
<path d="M592.809 423.461L592.719 423.168C587.867 430.075 586.552 438.967 586.059 447.456C585.533 456.486 585.693 465.764 582.552 474.247C576.721 490.003 561.045 499.543 546.438 507.864C539.126 512.032 531.812 516.197 524.5 520.364C521.282 522.197 517.958 524.167 514.894 526.395H621.851L592.809 423.461Z" fill="#9CD42E"/>
<path d="M565.872 436.594H562.68C562.68 434.568 562.7 432.531 562.719 430.56C562.791 423.22 562.859 416.287 561.997 409.173C561.353 403.857 560.622 397.832 557.799 393.007C555.397 388.904 550.386 384.938 545.058 385.928C542.065 386.484 539.248 388.598 537.327 391.727C535.77 394.264 534.741 397.462 534.088 401.79C532.533 412.104 532.969 419.554 533.52 428.986C533.653 431.261 533.79 433.614 533.908 436.151L530.72 436.299C530.603 433.782 530.466 431.438 530.333 429.172C529.772 419.555 529.327 411.958 530.932 401.315C531.384 398.317 532.256 393.889 534.606 390.06C536.998 386.162 540.595 383.514 544.474 382.793C547.552 382.221 550.784 382.852 553.821 384.618C556.526 386.192 558.917 388.6 560.555 391.398C563.712 396.793 564.484 403.166 565.166 408.79C566.053 416.11 565.981 423.472 565.911 430.591C565.892 432.554 565.872 434.584 565.872 436.594Z" fill="#9CD42E"/>
<path d="M532.943 438.055C534.908 438.055 536.501 436.464 536.501 434.5C536.501 432.537 534.908 430.945 532.943 430.945C530.978 430.945 529.385 432.537 529.385 434.5C529.385 436.464 530.978 438.055 532.943 438.055Z" fill="#88BF28"/>
<path d="M564.354 439.046C566.319 439.046 567.912 437.454 567.912 435.491C567.912 433.527 566.319 431.936 564.354 431.936C562.389 431.936 560.796 433.527 560.796 435.491C560.796 437.454 562.389 439.046 564.354 439.046Z" fill="#88BF28"/>
<path d="M346.013 436.594H342.821C342.821 434.568 342.841 432.531 342.86 430.56C342.932 423.22 342.999 416.287 342.138 409.173C341.493 403.857 340.763 397.832 337.94 393.007C335.538 388.904 330.526 384.938 325.199 385.928C322.206 386.484 319.388 388.598 317.468 391.727C315.91 394.264 314.881 397.462 314.229 401.79C312.674 412.104 313.109 419.554 313.661 428.986C313.793 431.261 313.931 433.614 314.049 436.151L310.86 436.299C310.743 433.782 310.606 431.438 310.474 429.172C309.912 419.555 309.468 411.958 311.073 401.315C311.525 398.317 312.397 393.889 314.747 390.06C317.139 386.162 320.736 383.514 324.615 382.793C327.692 382.221 330.925 382.852 333.962 384.618C336.667 386.192 339.058 388.6 340.695 391.398C343.852 396.793 344.625 403.166 345.306 408.79C346.194 416.11 346.122 423.472 346.052 430.591C346.033 432.554 346.013 434.584 346.013 436.594Z" fill="#D43A57"/>
<path d="M409.607 526.396H302.651L301.263 526.483L299.599 526.589L299.391 526.602L299.248 524.844L290.755 419.543L369.876 421.79L377.305 422.001L380.148 422.082L380.476 423.168L380.566 423.461L409.607 526.396Z" fill="#E24A6B"/>
<path d="M299.391 526.602H270.038L284.041 419.543H290.755L290.795 420.034L290.902 421.359L299.391 526.602Z" fill="#D43A57"/>
<path d="M380.566 423.461L380.476 423.168C375.624 430.075 374.309 438.967 373.816 447.456C373.29 456.486 373.45 465.764 370.309 474.247C364.478 490.003 348.802 499.543 334.195 507.864C326.883 512.032 319.569 516.197 312.257 520.364C309.039 522.197 305.715 524.167 302.651 526.395H409.608L380.566 423.461Z" fill="#D43A57"/>
<path d="M353.63 436.594H350.438C350.438 434.568 350.457 432.531 350.477 430.56C350.548 423.22 350.616 416.287 349.754 409.173C349.11 403.857 348.38 397.832 345.556 393.007C343.154 388.904 338.143 384.938 332.815 385.928C329.823 386.484 327.005 388.598 325.084 391.727C323.527 394.264 322.498 397.462 321.846 401.79C320.291 412.104 320.726 419.554 321.277 428.986C321.41 431.261 321.548 433.614 321.666 436.151L318.477 436.299C318.36 433.782 318.223 431.438 318.091 429.172C317.529 419.555 317.085 411.958 318.689 401.315C319.141 398.317 320.014 393.889 322.363 390.06C324.755 386.162 328.352 383.514 332.232 382.793C335.309 382.221 338.541 382.852 341.578 384.618C344.283 386.192 346.675 388.6 348.312 391.398C351.469 396.793 352.242 403.166 352.923 408.79C353.81 416.11 353.738 423.472 353.669 430.591C353.649 432.554 353.63 434.584 353.63 436.594Z" fill="#D43A57"/>
<path d="M320.7 438.055C322.665 438.055 324.258 436.464 324.258 434.5C324.258 432.537 322.665 430.945 320.7 430.945C318.735 430.945 317.141 432.537 317.141 434.5C317.141 436.464 318.735 438.055 320.7 438.055Z" fill="#BF3C51"/>
<path d="M352.111 439.046C354.077 439.046 355.67 437.454 355.67 435.491C355.67 433.527 354.077 431.936 352.111 431.936C350.146 431.936 348.553 433.527 348.553 435.491C348.553 437.454 350.146 439.046 352.111 439.046Z" fill="#BF3C51"/>
<path d="M442.799 526.602H331.209C325.336 526.602 320.575 521.845 320.575 515.978V459.616C320.575 453.749 325.336 448.992 331.209 448.992H442.799C448.672 448.992 453.433 453.749 453.433 459.616V515.978C453.433 521.845 448.672 526.602 442.799 526.602Z" fill="#697FFF"/>
<path opacity="0.8" d="M441.945 459.847H400.169V471.077H441.945V459.847Z" fill="white"/>
<path opacity="0.8" d="M398.113 510.004H336.576C335.92 510.004 335.388 509.473 335.388 508.817V508.646C335.388 507.991 335.92 507.459 336.576 507.459H398.113C398.769 507.459 399.301 507.99 399.301 508.646V508.817C399.301 509.473 398.769 510.004 398.113 510.004Z" fill="white"/>
<path opacity="0.8" d="M398.113 515.11H336.576C335.92 515.11 335.388 514.579 335.388 513.924V513.752C335.388 513.097 335.92 512.565 336.576 512.565H398.113C398.769 512.565 399.301 513.097 399.301 513.752V513.924C399.301 514.579 398.769 515.11 398.113 515.11Z" fill="white"/>
<path d="M351.845 492.877H336.093C334.453 492.877 333.124 491.549 333.124 489.91V476.909C333.124 475.271 334.454 473.943 336.093 473.943H351.845C353.485 473.943 354.815 475.271 354.815 476.909V489.91C354.815 491.549 353.485 492.877 351.845 492.877Z" fill="#5B72D6"/>
<path opacity="0.8" d="M435.946 515.685H420.195C418.555 515.685 417.225 514.357 417.225 512.718V499.718C417.225 498.079 418.555 496.751 420.195 496.751H435.946C437.586 496.751 438.916 498.079 438.916 499.718V512.718C438.916 514.357 437.586 515.685 435.946 515.685Z" fill="white"/>
<path d="M337.188 503.023L336.512 504.831H334.552L335.911 501.898L334.658 499.205H336.61L337.188 500.945L337.766 499.205H339.718L338.464 501.898L339.823 504.831H337.864L337.188 503.023Z" fill="white"/>
<path d="M342.247 503.023L341.571 504.831H339.612L340.971 501.898L339.717 499.205H341.669L342.247 500.945L342.825 499.205H344.777L343.524 501.898L344.882 504.831H342.923L342.247 503.023Z" fill="white"/>
<path d="M347.306 503.023L346.63 504.831H344.671L346.03 501.898L344.776 499.205H346.728L347.306 500.945L347.884 499.205H349.836L348.583 501.898L349.941 504.831H347.982L347.306 503.023Z" fill="white"/>
<path d="M353.641 503.023L352.966 504.831H351.006L352.365 501.898L351.111 499.205H353.063L353.641 500.945L354.22 499.205H356.171L354.918 501.898L356.277 504.831H354.317L353.641 503.023Z" fill="white"/>
<path d="M358.7 503.023L358.025 504.831H356.065L357.424 501.898L356.17 499.205H358.122L358.7 500.945L359.278 499.205H361.23L359.977 501.898L361.336 504.831H359.376L358.7 503.023Z" fill="white"/>
<path d="M363.759 503.023L363.084 504.831H361.124L362.483 501.898L361.229 499.205H363.181L363.759 500.945L364.337 499.205H366.289L365.036 501.898L366.395 504.831H364.435L363.759 503.023Z" fill="white"/>
<path d="M370.094 503.023L369.419 504.831H367.459L368.818 501.898L367.564 499.205H369.516L370.094 500.945L370.673 499.205H372.624L371.371 501.898L372.73 504.831H370.77L370.094 503.023Z" fill="white"/>
<path d="M375.153 503.023L374.478 504.831H372.518L373.877 501.898L372.623 499.205H374.576L375.153 500.945L375.732 499.205H377.684L376.43 501.898L377.789 504.831H375.829L375.153 503.023Z" fill="white"/>
<path d="M380.212 503.023L379.537 504.831H377.577L378.936 501.898L377.682 499.205H379.634L380.212 500.945L380.791 499.205H382.742L381.489 501.898L382.848 504.831H380.888L380.212 503.023Z" fill="white"/>
<path d="M386.548 503.023L385.872 504.831H383.912L385.271 501.898L384.017 499.205H385.97L386.548 500.945L387.126 499.205H389.078L387.824 501.898L389.183 504.831H387.223L386.548 503.023Z" fill="white"/>
<path d="M391.607 503.023L390.931 504.831H388.971L390.33 501.898L389.077 499.205H391.029L391.607 500.945L392.185 499.205H394.137L392.883 501.898L394.242 504.831H392.283L391.607 503.023Z" fill="white"/>
<path d="M396.666 503.023L395.99 504.831H394.03L395.389 501.898L394.136 499.205H396.088L396.666 500.945L397.244 499.205H399.196L397.942 501.898L399.301 504.831H397.342L396.666 503.023Z" fill="white"/>
<path d="M540.436 462.519H465.559V477.304H540.436V462.519Z" fill="#FEC606"/>
<path d="M536.142 477.304H469.853V526.602H536.142V477.304Z" fill="#FEC606"/>
<path d="M524.111 448.637C523.354 446.799 521.194 445.784 518.608 446.055C516.276 446.298 513.907 447.224 511.365 448.887C509.575 450.059 507.909 451.454 506.413 453.034C505.105 454.416 503.931 455.938 502.922 457.558C502.797 457.759 502.675 457.962 502.554 458.167C502.418 457.938 502.28 457.712 502.138 457.488C501.116 455.878 499.929 454.366 498.609 452.994C497.1 451.428 495.423 450.047 493.623 448.89C491.067 447.248 488.689 446.342 486.355 446.119C483.765 445.874 481.615 446.904 480.875 448.748C480.43 449.855 480.305 451.667 482.237 454.008C483.987 456.127 486.221 457.878 488.699 459.07C489.821 459.611 490.973 460.029 492.088 460.434C492.783 460.687 493.44 460.926 494.09 461.193C495.032 461.578 495.953 462.022 496.847 462.519H495.746V526.602H510.248V462.519H508.298C509.175 462.024 510.078 461.58 511.002 461.193C511.65 460.921 512.305 460.676 512.999 460.418C514.109 460.003 515.257 459.575 516.375 459.025C518.843 457.812 521.062 456.042 522.794 453.907C524.706 451.551 524.565 449.741 524.111 448.637ZM493.215 457.341C492.13 456.946 491.104 456.573 490.13 456.104C488.079 455.117 486.229 453.668 484.781 451.913C484.106 451.096 483.782 450.353 483.934 449.974C484.077 449.618 484.797 449.377 485.63 449.377C485.765 449.377 485.903 449.383 486.042 449.397C487.841 449.568 489.738 450.308 491.841 451.66C493.426 452.678 494.904 453.895 496.234 455.277C497.402 456.489 498.452 457.827 499.356 459.251C499.654 459.721 499.939 460.205 500.206 460.696C498.664 459.694 497.032 458.839 495.341 458.146C494.629 457.855 493.911 457.593 493.215 457.341ZM520.233 451.835C518.8 453.602 516.963 455.067 514.919 456.072C513.949 456.549 512.927 456.93 511.845 457.334C511.152 457.593 510.435 457.861 509.726 458.158C508.042 458.865 506.417 459.734 504.883 460.749C505.146 460.257 505.426 459.771 505.721 459.297C506.613 457.865 507.652 456.519 508.809 455.296C510.127 453.902 511.595 452.673 513.171 451.642C515.263 450.273 517.153 449.517 518.95 449.33C519.102 449.314 519.252 449.306 519.399 449.306C520.216 449.306 520.92 449.54 521.064 449.89C521.219 450.267 520.901 451.012 520.233 451.835Z" fill="#E9111B"/>
<path d="M536.142 477.304H469.853V481.083H536.142V477.304Z" fill="#D1D3D4"/>
<path d="M97.921 525.284C102.288 520.922 102.288 513.849 97.921 509.486C93.5543 505.123 86.4745 505.123 82.1078 509.486C77.7411 513.849 77.7411 520.922 82.1078 525.284C86.4745 529.647 93.5543 529.647 97.921 525.284Z" fill="black"/>
<path d="M98.1333 517.389C98.1333 521.866 94.501 525.495 90.0202 525.495C85.5395 525.495 81.9072 521.866 81.9072 517.389C81.9072 512.913 85.5395 509.284 90.0202 509.284C94.501 509.284 98.1333 512.913 98.1333 517.389Z" fill="#333333"/>
<path d="M161.095 527.722C166.8 525.361 169.51 518.826 167.146 513.126C164.783 507.426 158.242 504.719 152.536 507.08C146.831 509.441 144.121 515.976 146.485 521.676C148.848 527.377 155.389 530.083 161.095 527.722Z" fill="black"/>
<path d="M164.913 517.389C164.913 521.866 161.28 525.495 156.8 525.495C152.319 525.495 148.687 521.866 148.687 517.389C148.687 512.913 152.319 509.284 156.8 509.284C161.28 509.284 164.913 512.913 164.913 517.389Z" fill="#333333"/>
<path d="M101.11 503.452L99.7575 508.086L98.9895 510.715L97.7553 514.941L97.2341 516.724C96.2981 519.926 93.36 522.128 90.021 522.128C86.68 522.128 83.7418 519.926 82.8058 516.724L82.2846 514.941L81.0525 510.717L80.2825 508.086L78.9299 503.452H101.11Z" fill="#E74036"/>
<path d="M156.799 522.128C153.46 522.128 150.521 519.927 149.585 516.724L145.708 503.453H167.89L164.013 516.724C163.078 519.926 160.139 522.128 156.799 522.128Z" fill="#E74036"/>
<path d="M92.507 517.389C92.507 518.762 91.3936 519.874 90.0204 519.874C88.6469 519.874 87.5334 518.762 87.5334 517.389C87.5334 516.018 88.6469 514.905 90.0204 514.905C91.3936 514.905 92.507 516.018 92.507 517.389Z" fill="white"/>
<path d="M90.7439 515.644H89.2965L88.2727 516.667V518.113L89.2965 519.135H90.7439L91.7678 518.113V516.667L90.7439 515.644Z" fill="#1A1A1A"/>
<path d="M91.0038 517.389C91.0038 517.932 90.5635 518.372 90.0202 518.372C89.477 518.372 89.0366 517.932 89.0366 517.389C89.0366 516.847 89.477 516.407 90.0202 516.407C90.5631 516.407 91.0038 516.847 91.0038 517.389Z" fill="white"/>
<path d="M159.286 517.389C159.286 518.762 158.173 519.874 156.8 519.874C155.426 519.874 154.313 518.762 154.313 517.389C154.313 516.018 155.426 514.905 156.8 514.905C158.173 514.905 159.286 516.018 159.286 517.389Z" fill="white"/>
<path d="M157.523 515.644H156.075L155.052 516.667V518.113L156.075 519.135H157.523L158.547 518.113V516.667L157.523 515.644Z" fill="#1A1A1A"/>
<path d="M157.783 517.389C157.783 517.932 157.343 518.372 156.8 518.372C156.256 518.372 155.816 517.932 155.816 517.389C155.816 516.847 156.256 516.407 156.8 516.407C157.343 516.407 157.783 516.847 157.783 517.389Z" fill="white"/>
<path d="M101.11 503.452L99.7576 508.086H80.2822L78.9297 503.452H101.11Z" fill="#C1231F"/>
<path d="M167.89 503.452L166.537 508.086H147.062L145.709 503.452H167.89Z" fill="#C1231F"/>
<path d="M188.586 406.041C187.981 405.299 187.086 404.838 186.13 404.777C182.471 404.544 177.773 404.243 172.309 403.894C172.298 403.893 172.287 403.893 172.276 403.892C172.257 403.89 172.236 403.889 172.216 403.888H172.209C161.81 403.222 148.654 402.381 134.623 401.485C134.603 401.483 134.585 401.481 134.565 401.48H134.544C130.328 401.21 126.035 400.936 121.714 400.66C121.693 400.659 121.671 400.658 121.651 400.656C117.556 400.394 113.437 400.131 109.335 399.871C109.326 399.869 109.315 399.869 109.306 399.867C109.291 399.866 109.276 399.866 109.261 399.865H109.251C105.061 399.597 100.893 399.33 96.7899 399.07C87.9723 398.507 79.4602 397.964 71.7144 397.472C71.6895 397.469 71.6661 397.468 71.6423 397.467C71.6374 397.466 71.6311 397.466 71.6262 397.466C67.1745 397.183 62.9776 396.917 59.1203 396.671C59.1129 396.671 59.1052 396.669 59.0979 396.669C54.7543 396.395 50.8445 396.146 47.4933 395.935C46.3168 395.861 45.21 395.79 44.1767 395.725C41.7185 395.57 39.6802 395.442 38.1345 395.347C37.341 395.297 36.5824 395.512 35.9583 395.944C35.6101 396.185 35.3031 396.495 35.0556 396.862C34.3629 397.888 34.2698 399.168 34.8043 400.284L43.0773 417.534L43.254 417.9L47.9595 427.714C47.9658 427.726 47.9718 427.739 47.977 427.75L61.7787 456.526C61.7924 456.555 61.805 456.582 61.8197 456.61L70.211 474.107C70.7941 475.322 72.0028 476.069 73.32 476.069C73.4866 476.069 73.6546 476.056 73.8237 476.031L80.8383 475.015C80.8407 475.015 80.8432 475.014 80.8446 475.014C80.8607 475.012 80.8768 475.01 80.8918 475.007C80.8943 475.009 80.8967 475.007 80.8992 475.006C80.9153 475.005 80.9303 475.002 80.9464 474.999C80.9513 474.999 80.9562 474.999 80.9625 474.996L90.2132 473.657H90.2146L90.273 473.648L96.9593 472.679L96.9978 472.674L99.9647 472.244C99.9661 472.244 99.9685 472.244 99.971 472.243L100.037 472.233C100.046 472.233 100.054 472.231 100.063 472.229L100.867 472.112C100.869 472.112 100.869 472.112 100.87 472.112L108.378 471.024C108.403 471.022 108.429 471.019 108.454 471.014L117.492 469.705C117.498 469.705 117.505 469.703 117.513 469.702L127.129 468.308L136.493 466.953C136.504 466.951 136.515 466.949 136.526 466.948L145.899 465.59C145.908 465.589 145.915 465.588 145.924 465.586L164.267 462.929C164.292 462.925 164.316 462.923 164.34 462.919L174.119 461.501L179.568 460.712C181.081 460.494 182.284 459.284 182.495 457.772L184.116 446.142C184.121 446.111 184.124 446.08 184.128 446.049L186.736 427.332C186.737 427.327 186.738 427.322 186.738 427.316C186.742 427.295 186.745 427.273 186.747 427.252C186.747 427.247 186.748 427.243 186.748 427.237L189.331 408.699C189.463 407.75 189.191 406.781 188.586 406.041ZM179.561 457.364C179.532 457.58 179.359 457.754 179.143 457.785L175.349 458.334L172.4 458.761L165.47 459.765L162.53 460.191L155.902 461.151L152.97 461.576L146.908 462.455L143.975 462.88L137.403 463.831L134.461 464.257L128.023 465.19L125.071 465.618L118.335 466.593L115.371 467.023L109.224 467.914L106.243 468.345L100.741 469.142L97.7301 469.578L90.9444 470.561L87.9177 471L81.5929 471.915L78.5438 472.358L73.398 473.103C73.1852 473.134 72.9766 473.024 72.8821 472.829L65.3998 457.23L64.0319 454.375L51.6551 428.571L50.2365 425.612L45.9353 416.646C45.9314 416.636 45.9279 416.627 45.9227 416.617L45.8033 416.369L37.4754 399.006C37.3686 398.783 37.4519 398.603 37.5114 398.516C37.5674 398.433 37.6917 398.298 37.9157 398.298C37.9269 398.298 37.9381 398.298 37.9507 398.3C39.8059 398.415 42.3702 398.576 45.5173 398.774C46.5667 398.842 47.6823 398.911 48.8573 398.986C51.5967 399.158 54.6619 399.354 57.9973 399.564C59.0705 399.633 60.1696 399.702 61.2964 399.774C64.2149 399.959 67.3064 400.157 70.5369 400.362C71.6101 400.43 72.698 400.498 73.8013 400.569C76.9113 400.767 80.1333 400.973 83.4397 401.183C84.4968 401.25 85.5623 401.318 86.6369 401.388H86.6383C89.5593 401.573 92.5363 401.763 95.5529 401.954C96.6012 402.021 97.6531 402.089 98.7088 402.157H98.7102C101.795 402.353 104.912 402.552 108.043 402.752C109.082 402.818 110.123 402.885 111.164 402.951C114.24 403.147 117.323 403.343 120.393 403.54C121.424 403.605 122.452 403.671 123.478 403.737C126.761 403.947 130.023 404.155 133.241 404.361H133.242C134.262 404.425 135.277 404.491 136.288 404.556C139.513 404.761 142.688 404.965 145.788 405.162C146.783 405.225 147.771 405.289 148.748 405.352C152.285 405.578 155.71 405.797 158.989 406.006C159.998 406.07 160.992 406.135 161.97 406.197C165.047 406.393 167.976 406.581 170.727 406.757C171.742 406.822 172.732 406.885 173.695 406.947C178.49 407.253 182.64 407.518 185.941 407.73C186.128 407.742 186.241 407.848 186.292 407.91C186.343 407.972 186.424 408.105 186.398 408.29L183.985 425.611L183.572 428.57L181.349 444.531L180.931 447.534L179.561 457.364Z" fill="#DD2C5C"/>
<path d="M185.274 428.57H49.303C48.485 428.57 47.822 427.908 47.822 427.091C47.822 426.273 48.485 425.611 49.303 425.611H185.273C186.091 425.611 186.754 426.273 186.754 427.091C186.755 427.908 186.092 428.57 185.274 428.57Z" fill="#DD2C5C"/>
<path d="M63.135 457.414C62.3733 457.414 61.7261 456.83 61.661 456.058C61.5928 455.244 62.198 454.528 63.0128 454.46L182.529 444.432C183.342 444.365 184.06 444.968 184.128 445.782C184.197 446.597 183.591 447.312 182.776 447.381L63.2606 457.409C63.2183 457.412 63.1766 457.414 63.135 457.414Z" fill="#DD2C5C"/>
<path d="M173.922 461.515C173.126 461.515 172.469 460.884 172.443 460.083L170.682 405.414C170.656 404.598 171.297 403.914 172.115 403.888C172.931 403.863 173.616 404.502 173.643 405.319L175.403 459.988C175.43 460.805 174.788 461.488 173.971 461.515C173.954 461.515 173.938 461.515 173.922 461.515Z" fill="#DD2C5C"/>
<path d="M164.095 462.939C163.321 462.939 162.67 462.339 162.619 461.556L158.903 404.71C158.85 403.895 159.469 403.191 160.285 403.137C161.096 403.087 161.806 403.701 161.859 404.517L165.575 461.363C165.628 462.178 165.009 462.883 164.193 462.936C164.16 462.938 164.128 462.939 164.095 462.939Z" fill="#DD2C5C"/>
<path d="M154.446 462.939C153.712 462.939 153.075 462.394 152.979 461.647L145.787 405.555C145.683 404.744 146.256 404.003 147.067 403.899C147.879 403.797 148.62 404.368 148.724 405.179L155.917 461.271C156.021 462.082 155.447 462.823 154.636 462.927C154.572 462.935 154.509 462.939 154.446 462.939Z" fill="#DD2C5C"/>
<path d="M145.707 465.603C145.006 465.603 144.383 465.104 144.252 464.39L133.032 403.225C132.885 402.422 133.417 401.651 134.222 401.504C135.025 401.355 135.798 401.888 135.945 402.692L147.165 463.857C147.313 464.66 146.78 465.431 145.976 465.579C145.885 465.595 145.795 465.603 145.707 465.603Z" fill="#DD2C5C"/>
<path d="M136.265 466.971C135.591 466.971 134.982 466.508 134.824 465.824L120.143 402.468C119.959 401.672 120.455 400.878 121.252 400.693C122.048 400.509 122.844 401.005 123.029 401.801L137.71 465.157C137.894 465.953 137.398 466.748 136.601 466.932C136.488 466.958 136.376 466.971 136.265 466.971Z" fill="#DD2C5C"/>
<path d="M126.935 468.323C126.283 468.323 125.685 467.889 125.507 467.229L107.765 401.73C107.552 400.941 108.018 400.129 108.808 399.915C109.598 399.702 110.411 400.168 110.624 400.957L128.366 466.456C128.579 467.245 128.113 468.057 127.323 468.271C127.193 468.306 127.063 468.323 126.935 468.323Z" fill="#DD2C5C"/>
<path d="M117.288 469.72C116.653 469.72 116.066 469.309 115.871 468.671L95.2532 400.975C95.0152 400.193 95.4563 399.367 96.2389 399.129C97.0209 398.891 97.8487 399.332 98.0867 400.114L118.705 467.81C118.943 468.591 118.502 469.418 117.719 469.656C117.576 469.699 117.431 469.72 117.288 469.72Z" fill="#DD2C5C"/>
<path d="M108.216 471.034C107.599 471.034 107.024 470.646 106.814 470.03L83.1213 400.245C82.8588 399.471 83.2735 398.631 84.0482 398.369C84.8235 398.107 85.6636 398.521 85.9264 399.295L109.619 469.079C109.882 469.853 109.467 470.693 108.692 470.956C108.535 471.009 108.374 471.034 108.216 471.034Z" fill="#DD2C5C"/>
<path d="M99.7908 472.255C99.1996 472.255 98.6409 471.898 98.412 471.315L70.1922 399.486C69.8932 398.725 70.2685 397.867 71.0294 397.568C71.7904 397.269 72.6501 397.644 72.949 398.405L101.169 470.234C101.468 470.995 101.093 471.854 100.332 472.152C100.154 472.222 99.9707 472.255 99.7908 472.255Z" fill="#DD2C5C"/>
<path d="M90.0206 473.67C89.4413 473.67 88.8914 473.329 88.6537 472.761L57.642 398.718C57.3263 397.964 57.6822 397.098 58.4366 396.782C59.1916 396.467 60.0586 396.822 60.3743 397.576L91.386 471.619C91.7018 472.373 91.3458 473.24 90.5915 473.555C90.4049 473.633 90.2113 473.67 90.0206 473.67Z" fill="#DD2C5C"/>
<path d="M80.6989 475.021C80.1332 475.021 79.5931 474.695 79.3467 474.146L44.9103 397.424L40.5979 387.465C38.0168 381.504 32.1482 377.652 25.6467 377.652H6.72854C5.91052 377.652 5.24756 376.989 5.24756 376.172C5.24756 375.355 5.91052 374.693 6.72854 374.693H25.6467C33.3299 374.693 40.2657 379.245 43.3162 386.29L47.6209 396.231L82.0493 472.935C82.3839 473.681 82.0503 474.556 81.3037 474.891C81.1074 474.979 80.9015 475.021 80.6989 475.021Z" fill="#DD2C5C"/>
<path d="M44.5885 418.739C44.0375 418.739 43.5083 418.43 43.2531 417.901L32.5198 395.631C29.6814 389.479 23.6885 383.251 17.725 383.251H6.26882C5.4508 383.251 4.78784 382.588 4.78784 381.771C4.78784 380.954 5.4508 380.292 6.26882 380.292H17.725C25.2643 380.292 32.0689 387.593 35.2045 394.381L45.9218 416.617C46.2767 417.353 45.9669 418.238 45.2297 418.592C45.0229 418.692 44.8041 418.739 44.5885 418.739Z" fill="#DD2C5C"/>
<path d="M16.6167 385.571H6.63589C2.97106 385.571 0 382.603 0 378.942C0 375.28 2.97106 372.312 6.63589 372.312H16.6167V385.571Z" fill="#E74036"/>
<path d="M7.12278 384.112C3.45796 384.112 0.486893 381.144 0.486893 377.482C0.486893 377.02 0.534499 376.569 0.624807 376.132C0.224721 376.985 0 377.937 0 378.941C0 382.603 2.97106 385.571 6.63589 385.571H16.6167V384.112L7.12278 384.112Z" fill="#C1231F"/>
<path d="M174.739 504.88H68.8547C66.2365 504.88 63.962 503.389 62.9186 500.99C61.8755 498.591 62.3375 495.912 64.1244 494L78.7316 478.374C80.7264 476.24 83.4101 474.783 86.2877 474.274L86.3353 474.266L100.624 472.133C101.597 471.989 102.499 472.657 102.644 473.627C102.789 474.596 102.12 475.5 101.149 475.645L86.8855 477.774C84.7693 478.155 82.7968 479.228 81.3292 480.797L66.7224 496.424C65.9043 497.299 65.7013 498.477 66.1787 499.575C66.6562 500.674 67.6566 501.329 68.8547 501.329H174.739C175.721 501.329 176.517 502.124 176.517 503.105C176.517 504.085 175.721 504.88 174.739 504.88Z" fill="#DD2C5C"/>
<path d="M271.811 320.751C280.414 312.958 281.068 299.67 273.272 291.07C265.476 282.471 252.181 281.817 243.578 289.61C234.974 297.403 234.32 310.691 242.117 319.29C249.913 327.89 263.208 328.544 271.811 320.751Z" fill="#FFD2DB"/>
<path d="M265.712 318.36H249.725V307.767H247.82V319.028C247.82 319.709 248.374 320.264 249.056 320.264H266.379C267.061 320.264 267.617 319.709 267.617 319.028V307.767H265.712V318.36Z" fill="#F5F5F7"/>
<path d="M258.543 298.822H258.267C258.251 298.86 258.233 298.901 258.216 298.94C258.325 298.899 258.435 298.859 258.543 298.822Z" fill="#F5F5F7"/>
<path d="M256.788 298.822C256.822 298.836 256.857 298.849 256.892 298.863L257.294 299.005C257.272 298.943 257.249 298.883 257.227 298.822H256.788Z" fill="#F5F5F7"/>
<path d="M268.247 298.822H263.785C263.535 298.916 263.282 299.005 263.027 299.084C262.306 299.29 261.577 299.468 260.838 299.579C260.703 299.601 260.569 299.62 260.435 299.64H261.161H262.882H263.261H263.691H263.742H263.849H263.904H263.906H263.92H263.926C263.927 299.548 263.928 299.577 263.93 299.64H263.931C263.932 299.618 263.932 299.691 263.931 299.774C263.932 299.856 263.932 299.929 263.931 299.907H263.93C263.928 299.971 263.927 299.999 263.926 299.907H263.92H263.906H263.904H263.849H263.742H263.691H263.261H262.882H261.161H259.06H259.058H257.718H256.377H256.375H254.273H252.552H252.173H251.743H251.691H251.584H251.531H251.528H251.515H251.508C251.507 299.999 251.506 299.971 251.505 299.907H251.503C251.502 299.929 251.502 299.856 251.503 299.774C251.502 299.691 251.502 299.618 251.503 299.64H251.505C251.506 299.577 251.507 299.548 251.508 299.64H251.515H251.528H251.531H251.584H251.691H251.743H252.173H252.552H254.273H255C254.865 299.622 254.732 299.603 254.599 299.58C253.86 299.47 253.13 299.293 252.41 299.087C252.154 299.008 251.902 298.918 251.651 298.824H247.188C246.336 298.824 245.889 299.372 245.889 299.914V306.678C245.889 307.218 246.336 307.77 247.188 307.77H247.82V305.865H247.795V300.727H267.641V305.865H267.615V307.77H268.246C269.098 307.77 269.545 307.22 269.545 306.678V299.914C269.546 299.369 269.099 298.822 268.247 298.822Z" fill="#F5F5F7"/>
<path d="M265.712 305.935H249.725V307.767H265.712V305.935Z" fill="#F5F5F7"/>
<path d="M247.82 305.862V307.767H249.725V305.935H265.712V307.767H267.617V305.862H247.82Z" fill="#F5F5F7"/>
<path d="M257.602 298.654L257.6 298.822H257.838L257.836 298.653L257.784 297.536C257.765 297.283 257.744 297.031 257.72 296.777C257.696 297.031 257.675 297.284 257.656 297.537L257.602 298.654Z" fill="#F5F5F7"/>
<path d="M255.851 298.474C255.514 298.331 255.169 298.228 254.845 298.078C254.183 297.821 253.565 297.516 252.978 297.222C252.695 297.057 252.412 296.907 252.157 296.74C252.022 296.662 251.902 296.574 251.784 296.485C251.663 296.4 251.546 296.313 251.441 296.225C251.001 295.881 250.676 295.499 250.469 295.166C250.262 294.819 250.196 294.525 250.176 294.242C250.183 293.957 250.198 293.658 250.337 293.321C250.457 292.991 250.652 292.628 250.917 292.319C251.049 292.165 251.183 292.016 251.328 291.882C251.475 291.754 251.627 291.644 251.776 291.552C251.924 291.467 252.062 291.387 252.191 291.337C252.317 291.29 252.429 291.268 252.53 291.242C252.628 291.226 252.721 291.219 252.827 291.222C252.878 291.241 252.936 291.233 252.995 291.262C253.057 291.27 253.124 291.302 253.196 291.33C253.269 291.359 253.342 291.411 253.424 291.454C253.499 291.522 253.586 291.56 253.665 291.644C253.747 291.721 253.841 291.783 253.923 291.881C254.009 291.971 254.1 292.058 254.18 292.17C254.264 292.274 254.353 292.378 254.431 292.502C254.514 292.622 254.608 292.73 254.684 292.866C254.762 292.997 254.846 293.125 254.924 293.261C254.996 293.402 255.074 293.542 255.155 293.684C255.235 293.824 255.303 293.978 255.378 294.127C255.455 294.275 255.523 294.429 255.591 294.587L255.807 295.06L256.003 295.55C256.282 296.206 256.517 296.896 256.79 297.6C256.935 298.002 257.077 298.409 257.225 298.82H257.598L257.6 298.653L257.653 297.536C257.672 297.283 257.694 297.03 257.717 296.776C257.672 296.286 257.616 295.797 257.537 295.309C257.433 294.57 257.26 293.839 257.058 293.118C256.848 292.399 256.569 291.696 256.202 291.035C255.832 290.38 255.369 289.757 254.756 289.293C254.453 289.057 254.111 288.873 253.754 288.729C253.389 288.601 253.009 288.524 252.623 288.507C252.238 288.5 251.854 288.547 251.482 288.64C251.112 288.74 250.757 288.888 250.42 289.066C250.088 289.252 249.774 289.469 249.483 289.713C249.198 289.964 248.927 290.23 248.691 290.53C248.457 290.828 248.238 291.141 248.065 291.479C247.885 291.813 247.739 292.166 247.635 292.532C247.416 293.261 247.372 294.048 247.525 294.798C247.688 295.547 248.046 296.252 248.553 296.821C249.054 297.396 249.672 297.855 250.331 298.22C250.756 298.454 251.199 298.65 251.651 298.82H256.787C256.472 298.697 256.158 298.594 255.851 298.474Z" fill="#F5F5F7"/>
<path d="M257.834 298.653L257.837 298.822H258.266C258.286 298.773 258.307 298.724 258.327 298.675L258.553 298.138L258.763 297.608C259.055 296.909 259.327 296.227 259.619 295.58L259.831 295.099C259.909 294.943 259.988 294.79 260.057 294.636C260.126 294.48 260.202 294.33 260.282 294.185C260.361 294.041 260.436 293.892 260.516 293.754L260.749 293.345C260.831 293.213 260.917 293.092 260.998 292.967C261.167 292.727 261.322 292.494 261.497 292.307C261.577 292.203 261.669 292.125 261.751 292.044C261.828 291.95 261.913 291.894 261.989 291.824C262.065 291.75 262.146 291.721 262.216 291.663C262.289 291.628 262.358 291.591 262.418 291.566C262.537 291.511 262.635 291.505 262.709 291.499C262.788 291.515 262.846 291.523 262.913 291.531C262.984 291.552 263.068 291.578 263.168 291.619C263.271 291.664 263.395 291.716 263.527 291.79C263.786 291.958 264.08 292.188 264.325 292.474C264.445 292.617 264.557 292.769 264.646 292.925C264.703 292.999 264.733 293.078 264.783 293.153C264.812 293.23 264.863 293.307 264.884 293.381C264.954 293.533 264.977 293.677 265.015 293.811C265.057 293.949 265.057 294.071 265.067 294.201C265.049 294.445 265.035 294.729 264.837 295.054C264.79 295.134 264.743 295.22 264.678 295.307C264.646 295.351 264.621 295.397 264.586 295.44L264.474 295.572C264.406 295.665 264.311 295.75 264.221 295.838C264.136 295.93 264.028 296.013 263.926 296.105C263.509 296.464 262.991 296.797 262.425 297.12C261.848 297.421 261.236 297.736 260.578 298.007C260.255 298.158 259.915 298.271 259.578 298.42C259.409 298.493 259.235 298.549 259.061 298.614L258.538 298.819L258.537 298.82H263.78C264.232 298.65 264.676 298.453 265.101 298.218C265.76 297.853 266.378 297.395 266.877 296.819C267.385 296.25 267.743 295.544 267.905 294.796C268.059 294.045 268.015 293.258 267.794 292.53C267.691 292.164 267.545 291.81 267.363 291.477C267.189 291.139 266.972 290.825 266.737 290.528C266.503 290.229 266.23 289.964 265.945 289.712C265.654 289.468 265.34 289.251 265.007 289.065C264.67 288.887 264.316 288.74 263.946 288.64C263.573 288.547 263.19 288.5 262.805 288.507C262.419 288.526 262.038 288.602 261.675 288.731C261.317 288.874 260.976 289.058 260.673 289.294C260.06 289.758 259.596 290.381 259.226 291.037C258.86 291.697 258.58 292.401 258.371 293.12C258.168 293.841 257.996 294.572 257.891 295.312C257.812 295.798 257.756 296.287 257.712 296.776C257.735 297.03 257.756 297.282 257.775 297.535L257.834 298.653Z" fill="#F5F5F7"/>
<path d="M257.85 299.64L257.843 299.198L257.681 299.141C257.652 299.151 257.624 299.163 257.594 299.174L257.587 299.64H257.719H257.85Z" fill="#F5F5F7"/>
<path d="M257.843 299.08C257.789 299.1 257.735 299.121 257.681 299.141L257.844 299.198L257.843 299.08Z" fill="#F5F5F7"/>
<path d="M257.535 299.639C257.553 299.683 257.568 299.727 257.586 299.771V299.772L257.588 299.639H257.535Z" fill="#F5F5F7"/>
<path d="M259.059 299.796H259.061L259.063 299.639H259.061L259.059 299.796Z" fill="#F5F5F7"/>
<path d="M257.595 299.11L257.594 299.173C257.623 299.162 257.651 299.151 257.68 299.141L257.595 299.11Z" fill="#F5F5F7"/>
<path d="M259.061 299.639H259.064C258.735 299.503 258.405 299.395 258.075 299.279C258.024 299.399 257.971 299.518 257.915 299.639H259.061Z" fill="#F5F5F7"/>
<path d="M263.932 299.907C263.933 299.929 263.933 299.855 263.932 299.772C263.932 299.82 263.931 299.869 263.929 299.907H263.932Z" fill="#F5F5F7"/>
<path d="M257.85 299.639H257.719H257.587L257.584 299.771H257.852V299.77L257.85 299.639Z" fill="#F5F5F7"/>
<path d="M263.932 299.639C263.933 299.677 263.932 299.726 263.933 299.773C263.933 299.69 263.933 299.617 263.932 299.639Z" fill="#F5F5F7"/>
<path d="M263.927 299.64H263.931C263.93 299.576 263.928 299.548 263.927 299.64Z" fill="#F5F5F7"/>
<path d="M263.931 299.906H263.927C263.928 300 263.93 299.972 263.931 299.906Z" fill="#F5F5F7"/>
<path d="M251.509 299.906H251.506C251.507 299.972 251.508 300 251.509 299.906Z" fill="#F5F5F7"/>
<path d="M251.506 299.64H251.509C251.508 299.548 251.507 299.576 251.506 299.64Z" fill="#F5F5F7"/>
<path d="M251.505 299.639C251.503 299.617 251.503 299.69 251.505 299.773C251.505 299.726 251.506 299.676 251.506 299.639H251.505Z" fill="#F5F5F7"/>
<path d="M251.505 299.907H251.506C251.506 299.87 251.505 299.82 251.505 299.772C251.503 299.857 251.503 299.93 251.505 299.907Z" fill="#F5F5F7"/>
<path d="M257.716 299.877L256.825 299.834C256.676 299.822 256.526 299.809 256.376 299.796V299.907H256.379L257.497 299.889L257.716 299.877Z" fill="#F5F5F7"/>
<path d="M259.059 299.795V299.906H259.061V299.795H259.059Z" fill="#F5F5F7"/>
<path d="M257.717 299.877L257.496 299.888L256.379 299.905H257.719H259.059L257.945 299.888L257.717 299.877Z" fill="#F5F5F7"/>
<path d="M258.614 299.832L257.717 299.876L257.944 299.888L259.058 299.905L259.059 299.795C258.911 299.808 258.762 299.821 258.614 299.832Z" fill="#F5F5F7"/>
<path d="M255.001 299.639H254.275H252.554H252.174H251.744H251.692H251.585H251.532H251.529H251.516H251.509H251.506C251.506 299.677 251.505 299.725 251.505 299.772C251.505 299.819 251.506 299.868 251.506 299.905H251.509H251.516H251.529H251.532H251.585H251.692H251.744H252.174H252.554H254.275H256.376V299.795C255.917 299.755 255.458 299.705 255.001 299.639Z" fill="#F5F5F7"/>
<path d="M256.376 299.639H255.001C255.458 299.705 255.917 299.755 256.376 299.795V299.639Z" fill="#F5F5F7"/>
<path d="M258.216 298.939C258.169 299.053 258.122 299.166 258.075 299.279C258.405 299.395 258.735 299.501 259.064 299.639H260.437C260.571 299.62 260.706 299.6 260.84 299.578C261.579 299.467 262.309 299.291 263.029 299.083C263.285 299.004 263.536 298.916 263.787 298.82H258.544C258.434 298.859 258.325 298.899 258.216 298.939Z" fill="#F5F5F7"/>
<path d="M254.6 299.579C254.733 299.601 254.867 299.62 255.001 299.639H256.376H256.379C256.718 299.492 257.053 299.379 257.385 299.253C257.353 299.169 257.324 299.087 257.293 299.004L256.891 298.863C256.856 298.849 256.822 298.836 256.788 298.822H251.652C251.903 298.917 252.155 299.005 252.411 299.084C253.131 299.29 253.861 299.468 254.6 299.579Z" fill="#F5F5F7"/>
<path d="M259.062 299.795C259.52 299.755 259.979 299.705 260.436 299.639H259.063L259.062 299.795Z" fill="#F5F5F7"/>
<path d="M259.062 299.905H261.162H262.883H263.263H263.693H263.743H263.851H263.905H263.907H263.921H263.927H263.931C263.932 299.869 263.932 299.819 263.933 299.772C263.933 299.725 263.932 299.676 263.931 299.639H263.927H263.921H263.907H263.905H263.851H263.743H263.693H263.263H262.883H261.162H260.436C259.98 299.705 259.521 299.755 259.062 299.795V299.905Z" fill="#F5F5F7"/>
<path d="M257.587 299.64L257.594 299.174C257.554 299.189 257.515 299.203 257.475 299.219C257.445 299.23 257.415 299.241 257.384 299.253C257.432 299.382 257.483 299.51 257.534 299.64H257.587Z" fill="#F5F5F7"/>
<path d="M258.217 298.94C258.233 298.899 258.251 298.86 258.268 298.822H257.838L257.841 299.08C257.967 299.032 258.092 298.986 258.217 298.94Z" fill="#F5F5F7"/>
<path d="M257.843 299.198L257.956 299.238C257.996 299.252 258.035 299.266 258.075 299.279C258.124 299.166 258.171 299.053 258.217 298.939C258.092 298.985 257.967 299.031 257.842 299.079L257.843 299.198Z" fill="#F5F5F7"/>
<path d="M257.681 299.141C257.734 299.121 257.789 299.1 257.842 299.08L257.838 298.822H257.6L257.595 299.111L257.681 299.141Z" fill="#F5F5F7"/>
<path d="M257.843 299.197L257.85 299.64H257.915C257.971 299.52 258.024 299.399 258.075 299.279C258.036 299.265 257.996 299.252 257.956 299.238L257.843 299.197Z" fill="#F5F5F7"/>
<path d="M257.6 298.822H257.227C257.25 298.882 257.272 298.943 257.295 299.005L257.597 299.111L257.6 298.822Z" fill="#F5F5F7"/>
<path d="M257.852 299.771V299.772H257.853C257.875 299.728 257.895 299.683 257.915 299.639H257.85L257.852 299.771Z" fill="#F5F5F7"/>
<path d="M256.825 299.832L257.716 299.876L258.613 299.832C258.762 299.821 258.91 299.808 259.059 299.795L259.06 299.639H257.913C257.893 299.683 257.873 299.728 257.852 299.771H257.584V299.77C257.567 299.726 257.551 299.683 257.534 299.639H256.377H256.375V299.795C256.526 299.808 256.676 299.821 256.825 299.832Z" fill="#F5F5F7"/>
<path d="M257.385 299.253C257.053 299.379 256.718 299.492 256.379 299.639H257.535C257.483 299.511 257.434 299.381 257.385 299.253Z" fill="#F5F5F7"/>
<path d="M257.594 299.174L257.595 299.11L257.293 299.004C257.324 299.087 257.353 299.169 257.385 299.253C257.415 299.241 257.446 299.231 257.476 299.219C257.515 299.204 257.554 299.19 257.594 299.174Z" fill="#F5F5F7"/>
<path d="M416.142 280.219C427.752 280.219 437.164 270.811 437.164 259.206C437.164 247.601 427.752 238.194 416.142 238.194C404.531 238.194 395.119 247.601 395.119 259.206C395.119 270.811 404.531 280.219 416.142 280.219Z" fill="#FFD2DB"/>
<path d="M433.775 262.115L416.678 253.497V253.994C416.678 254.29 416.439 254.53 416.142 254.53C415.846 254.53 415.605 254.29 415.605 253.994V253.497L398.508 262.115C398.035 262.353 397.955 262.715 398.036 262.974C398.119 263.233 398.402 263.51 398.952 263.51H433.33C433.88 263.51 434.163 263.233 434.246 262.974C434.328 262.716 434.247 262.354 433.775 262.115ZM401.411 262.187L416.142 254.761L430.872 262.187H401.411Z" fill="#F5F5F7"/>
<path d="M416.678 253.497V252.144C416.705 252.056 416.881 251.844 417.01 251.687C417.412 251.203 417.961 250.54 417.961 249.568C417.961 248.889 417.654 248.237 417.116 247.778C416.573 247.314 415.874 247.109 415.198 247.216C413.783 247.44 413.287 248.994 413.047 249.741C412.958 250.024 413.113 250.324 413.395 250.415C413.677 250.504 413.978 250.349 414.069 250.067C414.346 249.199 414.695 248.381 415.366 248.275C415.731 248.217 416.115 248.334 416.42 248.593C416.718 248.849 416.889 249.204 416.889 249.568C416.889 250.153 416.53 250.586 416.184 251.003C415.886 251.362 415.605 251.701 415.605 252.13V253.496L416.141 253.226L416.678 253.497Z" fill="#F5F5F7"/>
<path d="M416.142 254.529C416.437 254.529 416.678 254.289 416.678 253.993V253.496L416.142 253.226L415.605 253.496V253.993C415.605 254.29 415.846 254.529 416.142 254.529Z" fill="#F5F5F7"/>
</svg>
