<svg width="24" height="25" viewBox="0 0 24 25" fill="none" xmlns="http://www.w3.org/2000/svg">
<path d="M11.9999 22.25C11.0119 22.25 10.1239 21.737 9.62192 20.878C9.41392 20.52 9.53391 20.061 9.89191 19.852C10.2479 19.644 10.7079 19.764 10.9179 20.122C11.3769 20.909 12.6229 20.909 13.0819 20.122C13.2909 19.764 13.7509 19.644 14.1079 19.852C14.4659 20.06 14.5869 20.52 14.3779 20.878C13.8759 21.737 12.9879 22.25 11.9999 22.25ZM20.6749 18.825C20.7999 18.565 20.7649 18.257 20.5859 18.032C20.5669 18.009 18.7449 15.689 18.7449 13V9.49499C18.7449 5.77599 15.7189 2.75 11.9999 2.75C8.28091 2.75 5.25492 5.77599 5.25492 9.49499V13C5.25492 15.689 3.43292 18.009 3.41392 18.032C3.23492 18.257 3.19993 18.566 3.32493 18.825C3.44993 19.084 3.71191 19.25 3.99991 19.25H19.9999C20.2879 19.25 20.5499 19.084 20.6749 18.825ZM6.75492 13V9.49499C6.75492 6.60299 9.10791 4.25 11.9999 4.25C14.8919 4.25 17.2449 6.60299 17.2449 9.49499V13C17.2449 14.936 17.9949 16.658 18.6129 17.75H5.3859C6.0049 16.658 6.75492 14.936 6.75492 13ZM3.74592 8.57499C3.91692 6.86599 4.60693 5.28299 5.74293 3.99699C6.01693 3.68599 5.98692 3.212 5.67692 2.938C5.36592 2.663 4.89193 2.69299 4.61793 3.00399C3.27393 4.52699 2.45591 6.40199 2.25391 8.42599C2.21191 8.83799 2.5129 9.20599 2.9249 9.24699C2.9499 9.24899 2.97592 9.251 3.00092 9.251C3.38092 9.25 3.70792 8.96099 3.74592 8.57499ZM21.0749 9.246C21.4869 9.205 21.7879 8.837 21.7459 8.425C21.5439 6.402 20.7259 4.527 19.3819 3.003C19.1089 2.693 18.6339 2.66199 18.3229 2.93699C18.0119 3.21099 17.9829 3.685 18.2569 3.996C19.3919 5.282 20.0829 6.865 20.2539 8.574C20.2929 8.961 20.6189 9.24899 20.9989 9.24899C21.0239 9.24999 21.0489 9.249 21.0749 9.246Z" fill="#24262D"/>
</svg>
