<svg width="24" height="25" viewBox="0 0 24 25" fill="none" xmlns="http://www.w3.org/2000/svg">
<g id="icon/globe-earth">
<path id="globe-earth" d="M22.462 13.254C22.48 13.004 22.5 12.754 22.5 12.5C22.5 8.839 20.614 5.61401 17.765 3.73401C17.748 3.72301 17.732 3.712 17.714 3.703C16.684 3.031 15.53 2.53701 14.293 2.26001C14.274 2.25301 14.254 2.25 14.234 2.245C13.513 2.088 12.766 2 11.999 2C6.20902 2 1.49902 6.71 1.49902 12.5C1.49902 18.29 6.20902 23 11.999 23C12.805 23 13.587 22.9 14.341 22.728C14.408 22.725 14.47 22.707 14.529 22.679C18.84 21.606 22.102 17.872 22.458 13.323C22.459 13.3 22.464 13.277 22.462 13.254ZM21.5 12.5C21.5 12.603 21.488 12.702 21.485 12.804C21 12.867 20.49 13.114 20.138 13.512C20.083 13.574 20.048 13.591 20.041 13.592C20.026 13.592 19.627 13.565 18.718 11.889C18.036 10.631 18.333 9.99001 18.71 9.17801C18.832 8.91401 18.954 8.64901 19.043 8.37201C19.248 7.76501 19.086 6.79299 18.807 5.88699C20.47 7.59899 21.5 9.93 21.5 12.5ZM2.5 12.5C2.5 11.63 2.62702 10.79 2.84802 9.98901C3.47002 13.15 5.71997 14.294 6.90997 14.894C7.17197 15.026 7.48498 15.175 7.53198 15.187C7.62298 15.577 7.61299 15.794 7.59399 16.19C7.57899 16.512 7.56003 16.912 7.59003 17.536C7.64303 18.628 8.53603 19.094 9.25403 19.469C9.72303 19.714 10.167 19.946 10.413 20.31C10.58 20.549 10.701 21.231 10.597 21.886C6.02298 21.203 2.5 17.26 2.5 12.5ZM11.592 21.979C11.711 21.146 11.582 20.235 11.236 19.742C10.852 19.175 10.249 18.86 9.716 18.582C9.011 18.214 8.61201 17.982 8.58801 17.487C8.56001 16.908 8.57798 16.535 8.59198 16.236C8.61198 15.816 8.62701 15.484 8.505 14.959C8.40401 14.528 7.96599 14.307 7.35999 14.001C5.93599 13.283 3.56899 12.083 3.68799 7.909C5.30899 4.985 8.426 2.99899 12 2.99899C12.529 2.99899 13.044 3.05299 13.55 3.13699C13.403 3.55199 13.005 3.90101 12.609 4.03101C10.712 4.65301 10.692 6.31501 10.678 7.52802C10.665 8.60901 10.602 8.93499 10.21 9.01599C10.072 9.03799 9.632 8.802 9.396 8.673C8.901 8.404 8.38603 8.125 7.90503 8.242C7.50903 8.335 7.00402 8.72101 6.84802 9.25101C6.77102 9.51101 6.71898 10.028 7.22998 10.557C7.65298 10.995 7.672 11.204 7.703 11.522C7.724 11.741 7.75 12.012 7.896 12.348C8.395 13.449 9.83398 13.418 10.881 13.299C11.978 13.163 12.31 13.12 12.974 13.812C13.232 14.081 13.374 14.403 13.524 14.743C13.779 15.324 14.098 16.048 15.084 16.162C15.922 16.266 16.622 16.545 16.867 16.873C16.949 16.982 16.975 17.09 16.952 17.221C16.885 17.618 16.463 18.019 15.973 18.484C15.172 19.245 14.198 20.188 13.889 21.808C13.278 21.932 12.647 21.998 12.001 21.998C11.862 22 11.728 21.985 11.592 21.979ZM14.995 21.509C15.334 20.485 16.028 19.813 16.661 19.211C17.254 18.647 17.815 18.115 17.937 17.389C18.004 16.989 17.911 16.604 17.667 16.277C17.073 15.48 15.748 15.238 15.202 15.171C14.813 15.126 14.697 14.932 14.438 14.343C14.268 13.957 14.076 13.519 13.694 13.121C12.682 12.068 11.915 12.164 10.761 12.308C9.63199 12.437 8.97498 12.312 8.80798 11.943C8.72798 11.76 8.71402 11.614 8.69702 11.429C8.66002 11.039 8.614 10.553 7.948 9.86401C7.765 9.67501 7.79499 9.57 7.80499 9.535C7.85099 9.375 8.05502 9.235 8.13202 9.216C8.26202 9.201 8.67399 9.419 8.91699 9.552C9.40899 9.82 9.91301 10.098 10.411 9.996C11.651 9.74 11.666 8.52001 11.678 7.54001C11.694 6.19601 11.785 5.35299 12.921 4.98099C13.612 4.75499 14.304 4.14199 14.531 3.35199C15.465 3.61099 16.341 4.00601 17.136 4.51901C17.64 5.26001 18.326 7.36801 18.094 8.05701C18.015 8.30101 17.908 8.52901 17.802 8.75601C17.387 9.65101 16.916 10.665 17.838 12.365C18.641 13.845 19.264 14.51 19.922 14.585C19.959 14.589 19.998 14.592 20.04 14.592C20.28 14.592 20.591 14.508 20.886 14.175C21.037 14.004 21.224 13.897 21.395 13.836C20.884 17.435 18.359 20.387 14.995 21.509Z" fill="#687387"/>
</g>
</svg>
