<svg width="24" height="24" viewBox="0 0 24 24" fill="none" xmlns="http://www.w3.org/2000/svg">
<path opacity="0.4" d="M4.94995 17.212C3.72995 15.892 3 14.121 3 12.001C3 6.99998 7.03 4 12 4C16.97 4 21 6.99998 21 12.001C21 17.002 16.97 20.002 12 20.002C10.72 20.002 9.50991 19.802 8.40991 19.422C7.06991 20.852 4.87996 21.0419 3.45996 20.9919C3.02996 20.9819 2.83992 20.432 3.16992 20.152C4.25992 19.273 4.79995 18.173 4.94995 17.212Z" fill="#25314C"/>
<path d="M15.8678 13.156C15.4438 12.917 15.1818 12.477 15.1808 12.001C15.1808 11.524 15.4418 11.082 15.8678 10.843L15.9999 10.7679L15.0829 9.22998L14.9518 9.30396C14.5248 9.54296 13.9989 9.543 13.5729 9.302C13.1489 9.063 12.8878 8.62395 12.8878 8.14795C12.8878 8.06495 12.8188 7.99902 12.7338 7.99902H11.2089C11.1239 7.99902 11.0548 8.06595 11.0548 8.14795C11.0548 8.62295 10.794 9.063 10.371 9.302C9.94499 9.542 9.41884 9.54296 8.99184 9.30396C8.91984 9.26296 8.82681 9.28703 8.78481 9.35803L8.01992 10.641C7.97792 10.711 8.00285 10.801 8.07485 10.842L8.0768 10.843C8.5008 11.082 8.76183 11.52 8.76283 11.995C8.76383 12.473 8.5028 12.915 8.0768 13.155L8.07485 13.156C8.00185 13.197 7.97792 13.287 8.01992 13.358L8.78383 14.64C8.82583 14.711 8.91884 14.735 8.99184 14.694C9.41884 14.455 9.94401 14.455 10.37 14.696C10.794 14.935 11.0539 15.375 11.0539 15.85C11.0539 15.932 11.1229 15.999 11.2079 15.999H12.735C12.82 15.999 12.8888 15.932 12.8888 15.85C12.8888 15.375 13.1499 14.935 13.5739 14.696C13.9999 14.456 14.5258 14.455 14.9528 14.694C15.0258 14.735 15.1178 14.711 15.1598 14.64L15.9249 13.3571C15.9669 13.2871 15.942 13.197 15.87 13.156H15.8678ZM12.0199 13C11.4679 13 11.0148 12.552 11.0148 12C11.0148 11.448 11.4579 11 12.0099 11H12.0199C12.5729 11 13.0199 11.448 13.0199 12C13.0199 12.552 12.5719 13 12.0199 13Z" fill="#25314C"/>
</svg>
