<svg width="15" height="11" viewBox="0 0 15 11" fill="none" xmlns="http://www.w3.org/2000/svg">
<path id="Arrow" d="M5.56072 6.50979C4.76773 7.30391 4.00923 8.06466 3.24999 8.82578C2.6001 9.47567 1.95021 10.1246 1.30032 10.7725C1.08773 10.9835 0.831269 11.0488 0.542193 10.9637C0.253116 10.8786 0.0810205 10.6735 0.0172812 10.3836C-0.0442085 10.1017 0.0633984 9.87035 0.260615 9.67126C1.16196 8.77041 2.06256 7.86932 2.96241 6.96797C3.62955 6.30108 4.29719 5.63457 4.96532 4.96843C5.33164 4.60474 5.75569 4.60287 6.1205 4.9628C6.62742 5.46272 7.13096 5.96639 7.63112 6.4738C7.68774 6.53079 7.72336 6.6084 7.76348 6.66839L11.9763 2.45185C11.9163 2.4481 11.8585 2.44173 11.8004 2.44135C11.313 2.44135 10.8256 2.44623 10.3382 2.43835C10.0161 2.43348 9.77351 2.27713 9.64116 1.98431C9.51481 1.7046 9.5568 1.43315 9.75364 1.19469C9.82425 1.10631 9.91422 1.03533 10.0166 0.987224C10.119 0.939119 10.2311 0.915174 10.3442 0.917236C11.511 0.914611 12.6808 0.912362 13.8491 0.918361C14.2904 0.92061 14.6169 1.2558 14.6184 1.69635C14.6222 2.85866 14.6222 4.02096 14.6184 5.18327C14.6184 5.62494 14.2724 5.97064 13.8532 5.96689C13.434 5.96314 13.1108 5.63319 13.1033 5.19039C13.0962 4.71572 13.1015 4.24068 13.1015 3.76563V3.56879L13.0332 3.52455C12.9908 3.59136 12.9434 3.6549 12.8915 3.71464C11.3997 5.20914 9.90687 6.70251 8.41287 8.19476C8.02406 8.58282 7.60375 8.58357 7.21644 8.19814C6.70778 7.69172 6.19999 7.18368 5.69308 6.67402C5.64958 6.63015 5.61471 6.57616 5.56072 6.50979Z" fill="#4BB543"/>
</svg>
