<svg width="24" height="24" viewBox="0 0 24 24" fill="none" xmlns="http://www.w3.org/2000/svg">
<path opacity="0.4" d="M15.08 18.541L13.061 20.56C12.475 21.146 11.5249 21.146 10.9399 20.56L8.92102 18.541C8.39302 18.013 7.55696 17.954 6.95996 18.402L5.60095 19.421C4.94195 19.915 4.00098 19.445 4.00098 18.621V6C4.00098 4 5.00098 3 7.00098 3H17.001C19.001 3 20.001 4 20.001 6V18.621C20.001 19.445 19.06 19.915 18.401 19.421L17.042 18.402C16.444 17.954 15.608 18.013 15.08 18.541Z" fill="#25314C"/>
<path d="M12.454 7.28002L13.371 9.12301C13.44 9.26201 13.573 9.35802 13.727 9.38002L15.844 9.68502C16.232 9.74102 16.3869 10.215 16.1059 10.487L14.576 11.967C14.464 12.075 14.4129 12.231 14.4399 12.384L14.79 14.409C14.861 14.82 14.428 15.133 14.056 14.94L12.22 13.982C12.082 13.91 11.918 13.91 11.78 13.982L9.94493 14.939C9.57293 15.133 9.13894 14.819 9.20994 14.407L9.56004 12.383C9.58604 12.23 9.53493 12.074 9.42393 11.966L7.89402 10.486C7.61302 10.214 7.76799 9.74001 8.15599 9.68401L10.2729 9.37902C10.4269 9.35702 10.56 9.26103 10.629 9.12203L11.546 7.27901C11.732 6.90601 12.268 6.90602 12.454 7.28002Z" fill="#25314C"/>
</svg>
