<svg width="24" height="24" viewBox="0 0 24 24" fill="none" xmlns="http://www.w3.org/2000/svg">
<path opacity="0.4" d="M21 21H4.5C2.958 21 2 20.042 2 18.5V4C2 3.448 2.448 3 3 3C3.552 3 4 3.448 4 4V18.5C4 18.949 4.051 19 4.5 19H21C21.552 19 22 19.448 22 20C22 20.552 21.552 21 21 21Z" fill="#2F9E2E"/>
<path d="M13 17C12.448 17 12 16.552 12 16V12C12 11.448 12.448 11 13 11C13.552 11 14 11.448 14 12V16C14 16.552 13.552 17 13 17ZM19 16V10C19 9.448 18.552 9 18 9C17.448 9 17 9.448 17 10V16C17 16.552 17.448 17 18 17C18.552 17 19 16.552 19 16ZM9 16V14C9 13.448 8.552 13 8 13C7.448 13 7 13.448 7 14V16C7 16.552 7.448 17 8 17C8.552 17 9 16.552 9 16Z" fill="#2F9E2E"/>
<path d="M18.923 3.61804C18.822 3.37404 18.627 3.17903 18.382 3.07703C18.26 3.02603 18.13 3 18 3H15C14.448 3 14 3.448 14 4C14 4.552 14.448 5 15 5H15.586L13.668 6.91797C13.572 7.01297 13.405 7.01397 13.307 6.91797L12.157 5.76794C11.278 4.88794 9.84599 4.88794 8.96799 5.76794L7.29301 7.44299C6.90201 7.83399 6.90201 8.46606 7.29301 8.85706C7.48801 9.05206 7.74401 9.15002 8.00001 9.15002C8.25601 9.15002 8.51201 9.05206 8.70701 8.85706L10.382 7.18201C10.48 7.08401 10.646 7.08401 10.743 7.18201L11.893 8.33203C12.772 9.21103 14.203 9.21103 15.082 8.33203L17 6.41394V7C17 7.552 17.448 8 18 8C18.552 8 19 7.552 19 7V4C19 3.87 18.973 3.74004 18.923 3.61804Z" fill="#2F9E2E"/>
</svg>
