<svg width="24" height="24" viewBox="0 0 24 24" fill="none" xmlns="http://www.w3.org/2000/svg">
<path opacity="0.4" d="M3.00197 11.999C3.00197 13.339 3.30205 14.619 3.83205 15.759C4.04205 16.199 4.04211 16.709 3.89211 17.179L3.05202 19.679C2.79202 20.459 3.54204 21.209 4.32204 20.949L6.82204 20.109C7.29204 19.959 7.80196 19.959 8.24196 20.169C9.38196 20.699 10.662 20.999 12.002 20.999C16.972 20.999 21.001 16.97 21.001 12C21.001 7.03 16.972 3.00098 12.002 3.00098C7.03097 2.99998 3.00197 7.02902 3.00197 11.999Z" fill="#25314C"/>
<path d="M11.98 9.78008L14.22 12.0201L10.22 16H8V13.7801L11.98 9.78008ZM15.74 9.25005L14.75 8.26006C14.4 7.91006 13.84 7.91006 13.49 8.26006L12.6799 9.08007L14.9199 11.3201L15.74 10.5101C16.09 10.1601 16.09 9.60005 15.74 9.25005Z" fill="#25314C"/>
</svg>
