<svg width="41" height="40" viewBox="0 0 41 40" fill="none" xmlns="http://www.w3.org/2000/svg">
<path d="M36.8501 18.3333C36.8501 22.8783 33.6233 26.8283 29.18 27.725C29.0967 27.7417 29.0135 27.75 28.9318 27.75C28.3485 27.75 27.8283 27.34 27.7083 26.7466C27.5716 26.07 28.0102 25.41 28.6868 25.275C31.9702 24.6133 34.3501 21.6933 34.3501 18.3333C34.3501 14.4267 31.1734 11.25 27.2668 11.25C26.7951 11.25 26.3417 11.2917 25.8817 11.3784C25.3733 11.475 24.8585 11.2467 24.5885 10.8067C24.1019 10.0217 23.4835 9.2883 22.7485 8.62996C21.0185 7.09663 18.7734 6.25 16.4334 6.25C11.1484 6.25 6.8501 10.5483 6.8501 15.8333C6.8501 19.7133 9.1652 23.185 12.7485 24.68C13.3852 24.945 13.6849 25.6783 13.4199 26.315C13.1533 26.9533 12.4183 27.2517 11.785 26.9867C7.26833 25.1034 4.3501 20.725 4.3501 15.8333C4.3501 9.17 9.7701 3.75 16.4334 3.75C19.3851 3.75 22.2203 4.82003 24.4119 6.76503C25.1119 7.3917 25.727 8.07334 26.252 8.80168C26.587 8.76668 26.9234 8.75 27.2668 8.75C32.5518 8.75 36.8501 13.0483 36.8501 18.3333ZM21.4851 17.45C21.3701 17.335 21.2319 17.2433 21.0786 17.18C20.7736 17.0533 20.4286 17.0533 20.1236 17.18C19.9703 17.2433 19.8317 17.335 19.7167 17.45L16.3834 20.7833C15.895 21.2716 15.895 22.0633 16.3834 22.5517C16.8717 23.04 17.6634 23.04 18.1518 22.5517L19.3517 21.3516V35C19.3517 35.69 19.9117 36.25 20.6017 36.25C21.2917 36.25 21.8517 35.69 21.8517 35V21.3516L23.0517 22.5517C23.295 22.795 23.6151 22.9183 23.9351 22.9183C24.2551 22.9183 24.5751 22.7967 24.8184 22.5517C25.3068 22.0633 25.3068 21.2716 24.8184 20.7833L21.4851 17.45Z" fill="#25314C"/>
</svg>
