<svg width="24" height="24" viewBox="0 0 24 24" fill="none" xmlns="http://www.w3.org/2000/svg">
<path opacity="0.4" d="M12 22C6.527 22 2 17.522 2 12C2 6.478 6.43797 2 11.91 2C16.626 2 20.916 5.30402 21.82 9.77802C22.921 15.334 18.683 16.445 16.459 16.445H14.234C11.019 16.445 10.968 18.658 12.281 19.399C14.062 20.404 13.867 22 12 22Z" fill="#25314C"/>
<path d="M17.02 11.25C16.33 11.25 15.765 10.69 15.765 10C15.765 9.31 16.32 8.75 17.01 8.75H17.02C17.71 8.75 18.27 9.31 18.27 10C18.27 10.69 17.71 11.25 17.02 11.25ZM11.27 7C11.27 6.31 10.71 5.75 10.02 5.75H10.01C9.32001 5.75 8.76501 6.31 8.76501 7C8.76501 7.69 9.32902 8.25 10.02 8.25C10.711 8.25 11.27 7.69 11.27 7ZM15.27 7C15.27 6.31 14.71 5.75 14.02 5.75H14.01C13.32 5.75 12.765 6.31 12.765 7C12.765 7.69 13.329 8.25 14.02 8.25C14.711 8.25 15.27 7.69 15.27 7ZM8.27002 10C8.27002 9.31 7.71002 8.75 7.02002 8.75H7.01001C6.32001 8.75 5.76501 9.31 5.76501 10C5.76501 10.69 6.32902 11.25 7.02002 11.25C7.71102 11.25 8.27002 10.69 8.27002 10ZM8.27002 14C8.27002 13.31 7.71002 12.75 7.02002 12.75H7.01001C6.32001 12.75 5.76501 13.31 5.76501 14C5.76501 14.69 6.32902 15.25 7.02002 15.25C7.71102 15.25 8.27002 14.69 8.27002 14Z" fill="#25314C"/>
</svg>
