<svg width="24" height="24" viewBox="0 0 24 24" fill="none" xmlns="http://www.w3.org/2000/svg">
<path d="M19.5891 18.2629C20.4691 17.3129 20.999 16.033 20.999 14.502C20.999 12.183 19.8009 10.463 17.9919 9.53296C17.9929 9.57896 17.999 9.62195 17.999 9.66895C17.999 13.8369 14.641 16.338 10.499 16.338C9.69802 16.338 8.92998 16.244 8.20898 16.063C8.90898 18.733 11.459 20.283 14.498 20.283C15.418 20.283 16.2979 20.143 17.0879 19.863C18.0579 20.893 19.638 21.033 20.668 20.993C20.978 20.993 21.1179 20.5929 20.8779 20.3929C20.0889 19.7539 19.6991 18.9639 19.5891 18.2629Z" fill="#25314C"/>
<path opacity="0.4" d="M17.999 9.66895C17.999 9.62195 17.9929 9.57896 17.9919 9.53296C17.9179 5.44796 14.595 3 10.5 3C6.359 3 3 5.50095 3 9.66895C3 11.4359 3.608 12.912 4.625 14.012C4.5 14.812 4.05009 15.729 3.14209 16.463C2.86709 16.696 3.02503 17.155 3.38403 17.163C4.56703 17.205 6.39203 17.046 7.50903 15.854C7.73703 15.933 7.97194 16.002 8.21094 16.062C8.93194 16.243 9.69998 16.337 10.501 16.337C14.641 16.339 17.999 13.8379 17.999 9.66895Z" fill="#25314C"/>
<path d="M13.833 8.75H7.16699C6.75299 8.75 6.41699 8.414 6.41699 8C6.41699 7.586 6.75299 7.25 7.16699 7.25H13.833C14.247 7.25 14.583 7.586 14.583 8C14.583 8.414 14.247 8.75 13.833 8.75ZM12.083 11.333C12.083 10.919 11.747 10.583 11.333 10.583H7.16699C6.75299 10.583 6.41699 10.919 6.41699 11.333C6.41699 11.747 6.75299 12.083 7.16699 12.083H11.333C11.747 12.083 12.083 11.748 12.083 11.333Z" fill="#25314C"/>
</svg>
