<svg width="24" height="24" viewBox="0 0 24 24" fill="none" xmlns="http://www.w3.org/2000/svg">
<path opacity="0.4" d="M19 12C19 13.1 19.9 14 21 14V17C21 19 20 20 18 20H6C4 20 3 19 3 17V14C4.1 14 5 13.1 5 12C5 10.9 4.1 10 3 10V7C3 5 4 4 6 4H18C20 4 21 5 21 7V10C19.9 10 19 10.9 19 12Z" fill="#25314C"/>
<path d="M9.5 15.25C9.308 15.25 9.11597 15.177 8.96997 15.03C8.67697 14.737 8.67697 14.262 8.96997 13.969L13.97 8.96899C14.263 8.67599 14.738 8.67599 15.031 8.96899C15.324 9.26199 15.324 9.737 15.031 10.03L10.031 15.03C9.88401 15.177 9.692 15.25 9.5 15.25ZM10.52 9.5C10.52 8.948 10.073 8.5 9.52002 8.5H9.51001C8.95801 8.5 8.51501 8.948 8.51501 9.5C8.51501 10.052 8.96802 10.5 9.52002 10.5C10.072 10.5 10.52 10.052 10.52 9.5ZM15.52 14.5C15.52 13.948 15.073 13.5 14.52 13.5H14.51C13.958 13.5 13.515 13.948 13.515 14.5C13.515 15.052 13.968 15.5 14.52 15.5C15.072 15.5 15.52 15.052 15.52 14.5Z" fill="#25314C"/>
</svg>
