<svg width="24" height="24" viewBox="0 0 24 24" fill="none" xmlns="http://www.w3.org/2000/svg">
<g id="credit-card-convert">
<path id="Vector" opacity="0.4" d="M20 9V10.98C20 11.188 19.797 11.323 19.599 11.258C18.471 10.885 17.152 10.883 15.861 11.47C14.827 11.941 13.977 12.783 13.494 13.812C12.882 15.117 12.881 16.456 13.258 17.598C13.323 17.796 13.189 17.999 12.98 17.999H5C3 17.999 2 16.999 2 14.999V8.99902H20V9Z" fill="#FF7E3B"/>
<path id="Vector_2" d="M20 7V9H2V7C2 5 3 4 5 4H17C19 4 20 5 20 7Z" fill="#FF7E3B"/>
<path id="Vector_3" d="M9 14.75H6C5.586 14.75 5.25 14.414 5.25 14C5.25 13.586 5.586 13.25 6 13.25H9C9.414 13.25 9.75 13.586 9.75 14C9.75 14.414 9.414 14.75 9 14.75Z" fill="#FF7E3B"/>
<path id="Vector_4" d="M22.693 18.713C22.809 18.993 22.745 19.3161 22.53 19.5301L21.53 20.5301C21.384 20.6761 21.192 20.75 21 20.75C20.808 20.75 20.616 20.6771 20.47 20.5301C20.259 20.3191 20.2 20.014 20.293 19.75H17.5C16.259 19.75 15.25 18.741 15.25 17.5V17C15.25 16.586 15.586 16.25 16 16.25C16.414 16.25 16.75 16.586 16.75 17V17.5C16.75 17.914 17.086 18.25 17.5 18.25H22C22.303 18.25 22.577 18.433 22.693 18.713ZM20.5 13.75H17.708C17.801 13.486 17.742 13.181 17.531 12.97C17.238 12.677 16.763 12.677 16.47 12.97L15.47 13.97C15.256 14.184 15.191 14.507 15.307 14.787C15.423 15.067 15.697 15.25 16 15.25H20.5C20.914 15.25 21.25 15.586 21.25 16V16.5C21.25 16.914 21.586 17.25 22 17.25C22.414 17.25 22.75 16.914 22.75 16.5V16C22.75 14.759 21.741 13.75 20.5 13.75Z" fill="#FF7E3B"/>
</g>
</svg>
