<svg width="24" height="24" viewBox="0 0 24 24" fill="none" xmlns="http://www.w3.org/2000/svg">
<path d="M19.9 19.42C19.95 19.72 19.72 20 19.41 20H4.59004C4.28004 20 4.04998 19.72 4.09998 19.42L4.68 16.001H19.319L19.9 19.42Z" fill="#25314C"/>
<path opacity="0.4" d="M20.979 8.57199L19.319 15.981V16.001H4.68002V15.981L3.02004 8.57199C2.85004 7.72199 3.77003 7.08201 4.51003 7.53201L7.00003 9.03201C7.46003 9.31201 8.05005 9.18199 8.34005 8.73199L11.18 4.44299C11.57 3.85299 12.43 3.85299 12.82 4.44299L15.66 8.742C15.95 9.182 16.54 9.31199 16.99 9.04199L19.49 7.53201C20.229 7.08201 21.149 7.72199 20.979 8.57199Z" fill="#25314C"/>
</svg>
