<svg width="24" height="24" viewBox="0 0 24 24" fill="none" xmlns="http://www.w3.org/2000/svg">
<path d="M19.627 8.75195C19.323 9.70695 18.5431 10.482 17.5861 10.781C16.0381 11.265 14.566 10.601 13.83 9.43201C13.772 9.34001 13.776 9.22403 13.829 9.12903C14.264 8.35303 14.511 7.457 14.511 6.5C14.511 6.168 14.482 5.84398 14.424 5.52698C14.405 5.42298 14.437 5.31497 14.518 5.24597C15.073 4.77497 15.791 4.5 16.561 4.5C18.677 4.5 20.327 6.55095 19.627 8.75195Z" fill="#25314C"/>
<path opacity="0.4" d="M22.5 16.6801C22.5 18.5001 21.49 19.5 19.66 19.5H18.2C18.04 19.5 17.907 19.371 17.907 19.201C17.907 19.161 17.91 19.124 17.92 19.08C17.98 18.75 18 18.39 18 18.02C18 16.1 17.35 14.1699 15.95 12.8199C15.94 12.8099 15.93 12.8 15.92 12.79C15.86 12.74 15.83 12.66 15.83 12.58C15.83 12.41 15.96 12.28 16.13 12.28H18.11C21.35 12.28 22.5 14.6501 22.5 16.6801Z" fill="#25314C"/>
<path d="M9.01001 10.5C11.2191 10.5 13.01 8.70914 13.01 6.5C13.01 4.29086 11.2191 2.5 9.01001 2.5C6.80087 2.5 5.01001 4.29086 5.01001 6.5C5.01001 8.70914 6.80087 10.5 9.01001 10.5Z" fill="#25314C"/>
<path opacity="0.4" d="M16.5 18.02C16.5 20.3 15.29 21.5 13 21.5H5C2.71 21.5 1.5 20.3 1.5 18.02C1.5 15.47 2.94 12.5 7 12.5H11C15.06 12.5 16.5 15.47 16.5 18.02Z" fill="#25314C"/>
</svg>
