<svg width="32" height="32" viewBox="0 0 32 32" fill="none" xmlns="http://www.w3.org/2000/svg">
<rect width="32" height="32" fill="white"/>
<path opacity="0.4" d="M13.9733 14.8667C14.3066 15.0133 14.6533 15.1067 15 15.1867V27.88C14.7867 27.8267 14.5734 27.7467 14.3734 27.6533L6.37337 24.0933C4.93337 23.4533 4 22.0266 4 20.44V11.56C4 11.2 4.05331 10.84 4.14665 10.5067L13.9733 14.8667Z" fill="#347EC2"/>
<path opacity="0.4" d="M26.8399 8.74665L22.1866 10.8133L19.7598 11.8933L17.2266 13.0266C16.44 13.3733 15.5465 13.3733 14.7732 13.0266L5.15991 8.74665C5.50658 8.39998 5.90662 8.10664 6.37329 7.90664L8.89331 6.78665L11.3199 5.70665L14.3733 4.34666C15.4133 3.88 16.5865 3.88 17.6265 4.34666L25.6265 7.90664C26.0932 8.10664 26.4933 8.39998 26.8399 8.74665Z" fill="#347EC2"/>
<path opacity="0.4" d="M28 11.56V20.44C28 22.0266 27.0666 23.4533 25.6266 24.0933L17.6266 27.6533C17.4266 27.7467 17.2133 27.8267 17 27.88V15.1867C17.3467 15.1067 17.6934 15 18.0267 14.8667L21.1733 13.4667L23.1733 12.5867L27.8534 10.5067C27.9467 10.84 28 11.2 28 11.56Z" fill="#347EC2"/>
<path d="M22.1866 10.8133L19.7598 11.8934L8.89331 6.78666L11.3199 5.70667L22.1866 10.8133Z" fill="#347EC2"/>
<path d="M23.1733 12.5867V15.8534C23.1733 16.4 22.72 16.8534 22.1733 16.8534C21.6267 16.8534 21.1733 16.4 21.1733 15.8534V13.4667L23.1733 12.5867Z" fill="#347EC2"/>
</svg>
