<svg width="32" height="32" viewBox="0 0 32 32" fill="none" xmlns="http://www.w3.org/2000/svg">
<path opacity="0.4" d="M18.38 17.8521H13.6212C8.73451 17.8521 7.00122 21.4147 7.00122 24.4653C7.00122 27.1747 8.5092 28.6654 11.2452 28.6654H20.7572C23.4932 28.6654 25.0012 27.1733 25.0012 24.4653C24.9999 21.416 23.2666 17.8521 18.38 17.8521Z" fill="#44AA5C"/>
<path d="M16.0107 15.3493C18.6001 15.3493 20.7054 13.252 20.7054 10.6746C20.7054 8.09598 18.5987 6 16.0107 6C13.4227 6 11.3174 8.09731 11.3174 10.6746C11.3174 13.252 13.4214 15.3493 16.0107 15.3493Z" fill="#44AA5C"/>
<path opacity="0.4" d="M29.9999 16.8667C29.9999 18.9467 28.8531 20.0933 26.7598 20.0933H26.1999C26.0266 20.0933 25.8932 20 25.8265 19.8534C24.8532 18.0934 23.2132 16.7066 20.8532 16.1466C20.5465 16.0666 20.4132 15.6933 20.6398 15.48C21.5598 14.6133 22.2265 13.48 22.5199 12.2134C22.5599 12.04 22.7199 11.9067 22.9066 11.9067H25.0532C28.7066 11.9067 29.9999 14.5867 29.9999 16.8667Z" fill="#44AA5C"/>
<path d="M26.9067 6.89339C26.9067 8.86672 25.3066 10.4666 23.3466 10.4666C23.248 10.4666 23.1506 10.4613 23.056 10.4533C22.9333 10.4426 22.8427 10.4027 22.7814 10.3374C22.72 10.2721 22.6854 10.2094 22.6774 10.1081C22.5347 8.30674 21.664 6.71328 20.3587 5.61328C20.2774 5.54395 20.2373 5.49734 20.2173 5.40934C20.1986 5.32534 20.1959 5.22931 20.2452 5.13997C20.8559 4.06131 22.016 3.33203 23.3466 3.33203C25.3066 3.33336 26.9067 4.93339 26.9067 6.89339Z" fill="#44AA5C"/>
<path opacity="0.4" d="M2 16.8667C2 18.9467 3.14674 20.0933 5.24007 20.0933H5.79997C5.9733 20.0933 6.10667 20 6.17334 19.8534C7.14667 18.0934 8.78665 16.7066 11.1466 16.1466C11.4533 16.0666 11.5867 15.6933 11.36 15.48C10.44 14.6133 9.77331 13.48 9.47998 12.2134C9.43998 12.04 9.27993 11.9067 9.09326 11.9067H6.94661C3.29328 11.9067 2 14.5867 2 16.8667Z" fill="#44AA5C"/>
<path d="M5.09326 6.89339C5.09326 8.86672 6.69332 10.4666 8.65332 10.4666C8.75199 10.4666 8.84934 10.4613 8.94401 10.4533C9.06668 10.4426 9.15725 10.4027 9.21859 10.3374C9.27992 10.2721 9.31459 10.2094 9.32259 10.1081C9.46526 8.30674 10.3359 6.71328 11.6413 5.61328C11.7226 5.54395 11.7627 5.49734 11.7827 5.40934C11.8014 5.32534 11.8041 5.22931 11.7547 5.13997C11.1441 4.06131 9.98399 3.33203 8.65332 3.33203C6.69332 3.33336 5.09326 4.93339 5.09326 6.89339Z" fill="#44AA5C"/>
</svg>
