<svg width="32" height="32" viewBox="0 0 32 32" fill="none" xmlns="http://www.w3.org/2000/svg">
<path opacity="0.4" d="M26.6666 15.12V24C26.6666 26.6667 25.3333 28 22.6666 28H19.1065C18.8852 28 18.7066 27.8214 18.7066 27.6V23.496C18.7066 22.1667 17.8065 20.9267 16.4958 20.7053C14.8305 20.4253 13.3733 21.7173 13.3733 23.3333V27.6C13.3733 27.8214 13.1946 28 12.9732 28H9.33325C6.66659 28 5.33325 26.6667 5.33325 24V15.12C5.47992 15.24 5.6399 15.36 5.81323 15.4533C6.41323 15.8 7.11995 16 7.86662 16C9.63995 16 11.3865 14.8933 11.9332 13.3333C12.4799 14.8933 14.2266 16 15.9999 16C17.7733 16 19.52 14.8933 20.0666 13.3333C20.6133 14.8933 22.3599 16 24.1332 16C24.8799 16 25.5866 15.8 26.1866 15.4533C26.3599 15.36 26.5199 15.24 26.6666 15.12Z" fill="#8322FF"/>
<path d="M10.0066 4C6.67322 4 6.16249 5.09333 5.61316 6.71733L4.2266 10.8147C3.6426 12.54 4.23324 14.536 5.82524 15.456C6.4239 15.8027 7.12395 16 7.87195 16C9.64528 16 11.3905 14.8933 11.9452 13.3333C12.4865 14.8933 14.2319 16 16.0052 16C17.7786 16 19.5238 14.8933 20.0651 13.3333C20.6198 14.8933 22.3666 16 24.1385 16C24.8879 16 25.5866 15.8027 26.1853 15.456C27.7773 14.536 28.3679 12.54 27.7839 10.8147L26.3972 6.71733C25.8478 5.09333 25.3373 4 22.0039 4H10.0066Z" fill="#8322FF"/>
</svg>
