<svg width="32" height="32" viewBox="0 0 32 32" fill="none" xmlns="http://www.w3.org/2000/svg">
<path opacity="0.4" d="M25.3334 8H9.2548L8.97616 6.152C8.71749 4.32533 7.18946 3 5.34546 3H4.99878C4.44678 3 3.99878 3.448 3.99878 4C3.99878 4.552 4.44678 5 4.99878 5H5.34546C6.18413 5 6.87748 5.60267 6.99748 6.44267L8.99878 20.3733C9.18545 21.6933 10.3054 22.6667 11.6388 22.6667H22.6654C25.4654 22.6667 26.252 21.28 26.5987 19.3867L27.9454 11.1467C28.2534 9.50667 26.9867 8 25.3334 8Z" fill="#DD2C5C"/>
<path d="M12.0281 29.6667C11.1094 29.6667 10.3547 28.92 10.3547 28C10.3547 27.08 11.0947 26.3333 12.0147 26.3333H12.0281C12.9481 26.3333 13.6947 27.08 13.6947 28C13.6947 28.92 12.9481 29.6667 12.0281 29.6667Z" fill="#DD2C5C"/>
<path d="M22.6946 29.6667C21.7759 29.6667 21.0212 28.92 21.0212 28C21.0212 27.08 21.7612 26.3333 22.6812 26.3333H22.6946C23.6146 26.3333 24.3612 27.08 24.3612 28C24.3612 28.92 23.6146 29.6667 22.6946 29.6667Z" fill="#DD2C5C"/>
<path d="M27.0948 16.3333L26.7748 18.3333H17.3347C16.7881 18.3333 16.3347 17.88 16.3347 17.3333C16.3347 16.7867 16.7881 16.3333 17.3347 16.3333H27.0948Z" fill="#DD2C5C"/>
</svg>
