<svg width="24" height="24" viewBox="0 0 24 24" fill="none" xmlns="http://www.w3.org/2000/svg">
<path d="M21.74 16.65C21.81 17.06 21.54 17.45 21.13 17.52L10.47 19.4C10.49 19.27 10.5 19.14 10.5 19C10.5 18.61 10.41 18.24 10.25 17.91L20.87 16.04C21.28 15.97 21.67 16.24 21.74 16.65Z" fill="#25314C"/>
<path d="M8.78002 16.62C8.54002 16.54 8.26999 16.5 7.99999 16.5C7.73999 16.5 7.47999 16.54 7.24999 16.61L5.17003 4.78003C5.05003 4.10003 4.39996 3.65004 3.71996 3.77004L3.11998 3.87003C2.71998 3.94003 2.33 3.66003 2.26 3.26003C2.19 2.85003 2.46999 2.46003 2.87999 2.39003L3.45995 2.29003C4.93995 2.03003 6.39001 3.03004 6.65001 4.52004L8.78002 16.62Z" fill="#25314C"/>
<path opacity="0.4" d="M8 21.5C9.38071 21.5 10.5 20.3807 10.5 19C10.5 17.6193 9.38071 16.5 8 16.5C6.61929 16.5 5.5 17.6193 5.5 19C5.5 20.3807 6.61929 21.5 8 21.5Z" fill="#25314C"/>
<path opacity="0.4" d="M13.7751 15.216L17.4091 14.575C19.4681 14.212 20.266 13.072 19.903 11.013L19.262 7.37904C18.899 5.32004 17.759 4.52204 15.7 4.88504L12.0661 5.52604C10.0071 5.88904 9.20905 7.02904 9.57205 9.08804L10.213 12.722C10.576 14.781 11.7161 15.579 13.7751 15.216Z" fill="#25314C"/>
<path d="M16.5611 8.68497L14.839 7.47197C14.757 7.41197 14.663 7.36998 14.562 7.34798C14.368 7.30498 14.165 7.34198 13.997 7.44898C13.939 7.48598 13.896 7.53697 13.851 7.58797C13.831 7.60997 13.805 7.62397 13.787 7.64897L12.5601 9.38898C12.3221 9.72698 12.403 10.195 12.741 10.434C12.873 10.527 13.023 10.571 13.173 10.571C13.409 10.571 13.641 10.461 13.787 10.254L13.975 9.98697L14.3571 12.152C14.4201 12.516 14.737 12.772 15.094 12.772C15.137 12.772 15.181 12.768 15.225 12.76C15.633 12.688 15.906 12.299 15.833 11.891L15.454 9.74297L15.695 9.91297C16.035 10.152 16.502 10.07 16.741 9.73197C16.979 9.39097 16.8981 8.92297 16.5611 8.68497Z" fill="#25314C"/>
</svg>
