<svg width="24" height="24" viewBox="0 0 24 24" fill="none" xmlns="http://www.w3.org/2000/svg">
<path d="M12.885 10.228C12.659 10.069 12.606 9.75598 12.765 9.53098L13.99 7.79398C13.99 7.79398 13.9899 7.79297 13.9909 7.79297L13.9919 7.79198C13.9969 7.78498 14.005 7.78197 14.01 7.77497C14.045 7.73097 14.0839 7.68997 14.1319 7.65897C14.1819 7.62697 14.238 7.60697 14.296 7.59497C14.302 7.59397 14.307 7.58897 14.313 7.58797C14.439 7.56597 14.574 7.59198 14.688 7.67098L16.417 8.88898C16.643 9.04798 16.696 9.36097 16.537 9.58597C16.379 9.81197 16.0659 9.86497 15.8409 9.70597L15.104 9.18598L15.588 11.931C15.636 12.203 15.454 12.462 15.183 12.51C15.154 12.515 15.1239 12.518 15.0949 12.518C14.8579 12.518 14.647 12.347 14.604 12.105L14.1169 9.34798L13.582 10.106C13.485 10.245 13.3299 10.318 13.1739 10.318C13.0729 10.318 12.973 10.289 12.885 10.228ZM9.07992 9.17498C8.87192 7.99898 9.00994 7.08598 9.50095 6.38398C9.99195 5.68198 10.8029 5.24098 11.9799 5.03298L15.614 4.39197C17.96 3.97897 19.343 4.95698 19.755 7.29198L20.396 10.926C20.604 12.102 20.4659 13.015 19.9749 13.717C19.4839 14.419 18.6729 14.86 17.4959 15.068L13.862 15.709C13.514 15.771 13.188 15.801 12.883 15.801C11.133 15.801 10.0709 14.799 9.72092 12.81L9.07992 9.17498ZM10.0639 9.00098L10.7049 12.635C11.0189 14.412 11.913 15.037 13.687 14.724L17.321 14.083C18.223 13.924 18.823 13.617 19.154 13.144C19.485 12.671 19.569 12.002 19.41 11.101L18.769 7.46697C18.455 5.68997 17.562 5.06497 15.787 5.37897L12.1529 6.01998C11.2509 6.17898 10.6509 6.48597 10.3199 6.95897C9.98891 7.43097 9.90493 8.09998 10.0639 9.00098ZM21.4919 16.693C21.5399 16.965 21.358 17.224 21.087 17.272L10.4859 19.138C10.4119 20.451 9.33097 21.499 7.99997 21.499C6.62097 21.499 5.49997 20.377 5.49997 18.999C5.49997 17.794 6.35699 16.785 7.49399 16.551L5.41794 4.73597C5.27394 3.92397 4.49899 3.37898 3.67599 3.52198L3.08395 3.62297C2.82195 3.66997 2.55393 3.48698 2.50693 3.21398C2.46093 2.94198 2.64498 2.68397 2.91598 2.63697L3.50595 2.53698C4.86695 2.29898 6.16395 3.20898 6.40195 4.56298L8.50803 16.552C9.36003 16.729 10.0469 17.344 10.3399 18.148L20.912 16.287C21.181 16.24 21.4449 16.421 21.4919 16.693ZM9.49997 19C9.49997 18.173 8.82697 17.5 7.99997 17.5C7.17297 17.5 6.49997 18.173 6.49997 19C6.49997 19.827 7.17297 20.5 7.99997 20.5C8.82697 20.5 9.49997 19.827 9.49997 19Z" fill="#25314C"/>
</svg>
