<svg width="24" height="24" viewBox="0 0 24 24" fill="none" xmlns="http://www.w3.org/2000/svg">
<path opacity="0.4" d="M6 10C4 10 3 11 3 13V18C3 20 4 21 6 21H18C20 21 21 20 21 18V13C21 11 20 10 18 10H6Z" fill="#25314C"/>
<path d="M15.5301 12.47C15.2371 12.177 14.762 12.177 14.469 12.47L12.749 14.19V3C12.749 2.586 12.413 2.25 11.999 2.25C11.585 2.25 11.249 2.586 11.249 3V14.189L9.52908 12.469C9.23608 12.176 8.76104 12.176 8.46804 12.469C8.17504 12.762 8.17504 13.237 8.46804 13.53L11.468 16.53C11.537 16.599 11.6199 16.654 11.7119 16.692C11.8039 16.73 11.901 16.75 11.999 16.75C12.097 16.75 12.1939 16.73 12.2859 16.692C12.3779 16.654 12.4611 16.599 12.5301 16.53L15.5301 13.53C15.8231 13.238 15.8231 12.762 15.5301 12.47Z" fill="#25314C"/>
</svg>
