<svg width="24" height="24" viewBox="0 0 24 24" fill="none" xmlns="http://www.w3.org/2000/svg">
<path d="M16 21.75H6C3.582 21.75 2.25 20.418 2.25 18V8C2.25 5.582 3.582 4.25 6 4.25H9C9.414 4.25 9.75 4.586 9.75 5C9.75 5.414 9.414 5.75 9 5.75H6C4.423 5.75 3.75 6.423 3.75 8V18C3.75 19.577 4.423 20.25 6 20.25H16C17.577 20.25 18.25 19.577 18.25 18V15C18.25 14.586 18.586 14.25 19 14.25C19.414 14.25 19.75 14.586 19.75 15V18C19.75 20.418 18.418 21.75 16 21.75Z" fill="#25314C"/>
<path d="M20.5701 7.07996L18.6801 8.95997L15.04 5.31998L16.92 3.42997C17.49 2.85997 18.4 2.85999 18.97 3.41999L20.5801 5.02997C21.1401 5.59997 21.1401 6.50996 20.5701 7.07996Z" fill="#25314C"/>
<path opacity="0.4" d="M18.68 8.95999L11.61 16H8V12.39L15.04 5.32001L18.68 8.95999Z" fill="#25314C"/>
</svg>
