<svg width="24" height="24" viewBox="0 0 24 24" fill="none" xmlns="http://www.w3.org/2000/svg">
<path d="M10.009 10.5C12.2182 10.5 14.009 8.70914 14.009 6.5C14.009 4.29086 12.2182 2.5 10.009 2.5C7.79989 2.5 6.00903 4.29086 6.00903 6.5C6.00903 8.70914 7.79989 10.5 10.009 10.5Z" fill="#25314C"/>
<path opacity="0.4" d="M15.38 13.48C14.55 12.88 13.44 12.5 12 12.5H8C3.94 12.5 2.5 15.47 2.5 18.02C2.5 20.3 3.71 21.5 6 21.5H13.03C13.19 21.5 13.3199 21.39 13.3199 21.21C13.3199 21.15 13.26 21.03 13.24 20.99L12.72 20.1C12.49 19.71 12.4399 19.2401 12.5699 18.8101C12.6399 18.5901 12.75 18.38 12.91 18.21C12.92 18.2 13 18.112 13 18C13 17.92 12.96 17.84 12.91 17.79C12.65 17.49 12.5 17.11 12.5 16.71C12.5 16.39 12.6001 16.13 12.6801 15.97C12.7001 15.93 12.71 15.9 12.73 15.87L13.49 14.62C13.78 14.1 14.33 13.78 14.92 13.78C15.04 13.78 15.15 13.7899 15.26 13.8199C15.28 13.8199 15.3 13.83 15.33 13.83C15.45 13.83 15.51 13.75 15.5 13.65C15.5 13.57 15.42 13.51 15.38 13.48Z" fill="#25314C"/>
<path d="M21.1801 18C21.1801 17.52 21.44 17.08 21.87 16.84L22 16.77L21.08 15.23L20.95 15.3C20.74 15.42 20.5 15.48 20.26 15.48C20.02 15.48 19.7799 15.42 19.5699 15.3C19.1499 15.06 18.89 14.62 18.89 14.15C18.89 14.07 18.82 14 18.73 14H17.21C17.12 14 17.0601 14.07 17.0601 14.15C17.0601 14.62 16.8 15.06 16.37 15.3C16.16 15.42 15.9201 15.48 15.6801 15.48C15.4401 15.48 15.2 15.42 14.99 15.3C14.92 15.26 14.83 15.29 14.79 15.36L14.02 16.64C14.01 16.66 14 16.69 14 16.71C14 16.76 14.03 16.81 14.08 16.84C14.5 17.08 14.76 17.52 14.76 18V18.03C14.76 18.49 14.49 18.92 14.08 19.16C14 19.2 13.98 19.29 14.02 19.36L14.78 20.64C14.81 20.69 14.87 20.72 14.92 20.72C14.95 20.72 14.97 20.71 14.99 20.7C15.42 20.46 15.95 20.46 16.37 20.7C16.78 20.94 17.05 21.3599 17.05 21.8199V21.85C17.05 21.93 17.12 22 17.21 22H18.74C18.82 22 18.89 21.93 18.89 21.85C18.89 21.38 19.1499 20.94 19.5699 20.7C19.7799 20.58 20.02 20.52 20.26 20.52C20.5 20.52 20.74 20.58 20.95 20.7C21.02 20.74 21.12 20.71 21.16 20.64L21.92 19.36C21.94 19.34 21.9399 19.31 21.9399 19.28C21.9399 19.23 21.92 19.19 21.87 19.16C21.44 18.92 21.1801 18.48 21.1801 18ZM18.02 19.14C17.39 19.14 16.87 18.63 16.87 18C16.87 17.37 17.38 16.86 18.01 16.86H18.02C18.65 16.86 19.17 17.37 19.17 18C19.17 18.63 18.65 19.14 18.02 19.14Z" fill="#25314C"/>
</svg>
