<svg width="24" height="24" viewBox="0 0 24 24" fill="none" xmlns="http://www.w3.org/2000/svg">
<path opacity="0.4" d="M21 9C20.447 9 20 8.552 20 8V4.5C20 4.051 19.948 4 19.5 4H16C15.447 4 15 3.552 15 3C15 2.448 15.447 2 16 2H19.5C21.042 2 22 2.958 22 4.5V8C22 8.552 21.553 9 21 9Z" fill="#25314C"/>
<path d="M3 9C2.447 9 2 8.552 2 8V4.5C2 2.958 2.958 2 4.5 2H8C8.553 2 9 2.448 9 3C9 3.552 8.553 4 8 4H4.5C4.052 4 4 4.051 4 4.5V8C4 8.552 3.553 9 3 9Z" fill="#25314C"/>
<path opacity="0.4" d="M8 22H4.5C2.958 22 2 21.042 2 19.5V16C2 15.448 2.447 15 3 15C3.553 15 4 15.448 4 16V19.5C4 19.949 4.052 20 4.5 20H8C8.553 20 9 20.448 9 21C9 21.552 8.553 22 8 22Z" fill="#25314C"/>
<path d="M19.5 22H16C15.447 22 15 21.552 15 21C15 20.448 15.447 20 16 20H19.5C19.948 20 20 19.949 20 19.5V16C20 15.448 20.447 15 21 15C21.553 15 22 15.448 22 16V19.5C22 21.042 21.042 22 19.5 22Z" fill="#25314C"/>
</svg>
