<svg width="24" height="24" viewBox="0 0 24 24" fill="none" xmlns="http://www.w3.org/2000/svg">
<path opacity="0.4" d="M6.375 21H17.625C19.875 21 21 19.875 21 17.625V6.375C21 4.125 19.875 3 17.625 3H6.375C4.125 3 3 4.125 3 6.375V17.625C3 19.875 4.125 21 6.375 21Z" fill="#25314C"/>
<path d="M10.7781 6.5H13.5151C13.9541 6.5 14.25 6.95 14.076 7.353L13.0281 9.782C12.9501 9.964 13.083 10.166 13.281 10.166H15.055C15.599 10.166 15.872 10.824 15.487 11.209L9.19804 17.499L10.961 12.363C11.022 12.184 10.89 11.999 10.701 11.999H8.94602C8.52902 11.999 8.23407 11.59 8.36607 11.195L9.96006 7.12601C10.0841 6.75201 10.3831 6.5 10.7781 6.5Z" fill="#25314C"/>
</svg>
