<svg width="24" height="24" viewBox="0 0 24 24" fill="none" xmlns="http://www.w3.org/2000/svg">
<path opacity="0.4" d="M21.339 8.604C20.526 8.974 19.582 9.10311 18.6 8.91211C16.693 8.54211 15.211 6.89101 15.022 4.95801C14.977 4.49901 14.999 4.04701 15.088 3.61401C15.127 3.42501 14.996 3.24902 14.803 3.24902H9H6C3.58 3.24902 2.25 4.57902 2.25 6.99902V16.999C2.25 19.419 3.58 20.749 6 20.749H18C20.42 20.749 21.75 19.419 21.75 16.999V11.999V8.8811C21.75 8.6701 21.532 8.516 21.339 8.604Z" fill="#25314C"/>
<path d="M20.162 14.1621L15.71 9.71C15.32 9.319 14.681 9.319 14.29 9.71L9.34998 14.6499C9.15698 14.8419 8.84202 14.8419 8.65002 14.6499L7.70996 13.71C7.31996 13.319 6.68104 13.319 6.29004 13.71L3.83801 16.1621C3.78201 16.2181 3.75 16.2951 3.75 16.3741V17C3.75 18.58 4.42 19.25 6 19.25H18C19.58 19.25 20.25 18.58 20.25 17V14.3741C20.25 14.2951 20.218 14.2181 20.162 14.1621Z" fill="#25314C"/>
<path d="M8.00195 10.25C7.31395 10.25 6.75 9.69 6.75 9C6.75 8.31 7.30404 7.75 7.99304 7.75H8.00305C8.69205 7.75 9.25098 8.31 9.25098 9C9.25098 9.69 8.69195 10.25 8.00195 10.25Z" fill="#25314C"/>
<path d="M21.5301 3.97009L20.0301 2.47009C19.9611 2.40109 19.878 2.34622 19.786 2.30822C19.603 2.23222 19.396 2.23222 19.213 2.30822C19.121 2.34622 19.038 2.40109 18.969 2.47009L17.469 3.97009C17.176 4.26309 17.176 4.73812 17.469 5.03112C17.762 5.32412 18.2371 5.32412 18.5301 5.03112L18.75 4.81115V7.00012C18.75 7.41412 19.086 7.75012 19.5 7.75012C19.914 7.75012 20.25 7.41412 20.25 7.00012V4.81115L20.47 5.03112C20.616 5.17712 20.808 5.25109 21 5.25109C21.192 5.25109 21.3841 5.17812 21.5301 5.03112C21.8231 4.73712 21.8231 4.26309 21.5301 3.97009Z" fill="#25314C"/>
</svg>
