<svg width="24" height="24" viewBox="0 0 24 24" fill="none" xmlns="http://www.w3.org/2000/svg">
<g clip-path="url(#clip0_1561_4057)">
<path d="M21.0806 4.25146H12.126L11.8633 2.14631C11.7376 1.13109 11.0136 0.422058 10.1025 0.422058H2.40909C1.43611 0.422058 0.644531 1.21364 0.644531 2.18662V17.4233C0.644531 18.3963 1.43611 19.1879 2.40909 19.1879H8.36986V21.3032C8.36986 22.5575 9.39094 23.578 10.646 23.578H21.0806C22.3349 23.578 23.3554 22.5575 23.3554 21.3032V6.52757C23.3554 5.2725 22.3349 4.25146 21.0806 4.25146ZM1.30092 17.4232V2.18657C1.30092 1.57551 1.79803 1.0784 2.40909 1.0784H10.1025C10.767 1.0784 11.1434 1.67376 11.2119 2.22721L13.2467 18.5314H2.40909C1.79803 18.5314 1.30092 18.0343 1.30092 17.4232ZM9.02625 21.3032V19.1878H12.7997L9.44728 22.3905C9.18581 22.103 9.02625 21.7214 9.02625 21.3032ZM22.699 21.3032C22.699 22.1956 21.973 22.9216 21.0806 22.9216H10.646C10.4118 22.9216 10.1894 22.8713 9.98817 22.7816L13.845 19.0969L13.8449 19.0967C13.8516 19.0903 13.8582 19.0839 13.8644 19.0769C13.9267 19.0063 13.9557 18.9124 13.944 18.819L12.2079 4.90781H21.0806C21.973 4.90781 22.699 5.63442 22.699 6.52757V21.3032ZM21.1031 11.6286C21.1031 11.8099 20.9562 11.9568 20.775 11.9568H19.6693C19.6611 12.153 19.6454 12.3516 19.6204 12.5504C19.4554 13.8231 18.9507 15.0212 18.1975 15.9372C18.7993 16.5079 19.4797 16.82 20.1372 16.82C20.3184 16.82 20.4653 16.967 20.4653 17.1482C20.4653 17.3294 20.3184 17.4764 20.1372 17.4764C19.2924 17.4764 18.4593 17.0825 17.7537 16.4167C17.0299 17.1038 16.1971 17.4764 15.3644 17.4764C15.1831 17.4764 15.0362 17.3294 15.0362 17.1482C15.0362 16.967 15.1831 16.82 15.3644 16.82C16.0278 16.82 16.7039 16.5087 17.3053 15.9362C16.6869 15.1865 16.21 14.2105 15.9774 13.1159C15.9397 12.9386 16.053 12.7643 16.2303 12.7267C16.4077 12.6889 16.5818 12.8022 16.6195 12.9795C16.8163 13.9056 17.2132 14.7674 17.7504 15.4468C18.3933 14.6346 18.8245 13.5839 18.9693 12.4674C18.9907 12.2966 19.0046 12.1259 19.0124 11.9568H14.801C14.6197 11.9568 14.4728 11.8099 14.4728 11.6287C14.4728 11.4474 14.6198 11.3005 14.801 11.3005H17.4598V10.6813C17.4598 10.5 17.6068 10.3531 17.788 10.3531C17.9692 10.3531 18.1162 10.5001 18.1162 10.6813V11.3005H20.775C20.9562 11.3004 21.1031 11.4473 21.1031 11.6286ZM9.05255 11.1596L9.98391 13.176C10.0599 13.3406 10.2548 13.4124 10.4195 13.3364C10.584 13.2603 10.6558 13.0653 10.5798 12.9008L7.59276 6.43382C7.53909 6.31762 7.4228 6.24328 7.29483 6.24328C7.16686 6.24328 7.05056 6.31767 6.99689 6.43382L4.00992 12.9008C3.93394 13.0654 4.0057 13.2604 4.17023 13.3364C4.21481 13.3569 4.26159 13.3667 4.30767 13.3667C4.4317 13.3667 4.55039 13.296 4.60584 13.176L5.53725 11.1596H9.05255ZM7.29487 7.35412L8.74936 10.5032H5.84034L7.29487 7.35412Z" fill="#25314C"/>
</g>
<defs>
<clipPath id="clip0_1561_4057">
<rect width="24" height="24" fill="white"/>
</clipPath>
</defs>
</svg>
