<svg width="24" height="24" viewBox="0 0 24 24" fill="none" xmlns="http://www.w3.org/2000/svg">
<path opacity="0.3" d="M11.9999 22L10.9999 19H3.99995C3.44995 19 2.97995 18.804 2.58795 18.413C2.39863 18.2301 2.24878 18.0104 2.14765 17.7673C2.04652 17.5243 1.99625 17.2632 1.99995 17V3.99996C1.99995 3.44996 2.19595 2.97896 2.58795 2.58696C2.77072 2.39785 2.99031 2.2482 3.23316 2.14724C3.47601 2.04628 3.73697 1.99615 3.99995 1.99996H9.99995L10.8749 4.99996H19.9999C20.5829 4.99996 21.0629 5.18696 21.4379 5.56196C21.8129 5.93696 21.9999 6.41696 21.9999 6.99996V20C22.0046 20.261 21.9573 20.5203 21.8608 20.7629C21.7643 21.0054 21.6206 21.2264 21.4379 21.413C21.0629 21.804 20.5829 22 19.9999 22H11.9999Z" fill="#25314C"/>
<path d="M13 21H20C20.3 21 20.542 20.904 20.725 20.712C20.8157 20.6174 20.8867 20.5058 20.9339 20.3836C20.9811 20.2613 21.0036 20.131 21 20V7C21 6.7 20.908 6.458 20.725 6.275C20.542 6.092 20.3 6 20 6H11.175L12.35 10.05H14.325V9H15.35V10.05H19V11.075H17.725C17.5534 11.7206 17.3015 12.3421 16.975 12.925C16.6431 13.523 16.2493 14.0844 15.8 14.6L18.525 17.275L17.8 18L15.1 15.3L14.2 16.225L15 19L13 21Z" fill="#25314C"/>
<path d="M15.1 13.825C15.567 13.275 15.921 12.75 16.163 12.25C16.404 11.75 16.567 11.358 16.65 11.075H12.675L12.975 12.125H13.975C14.108 12.375 14.267 12.646 14.45 12.938C14.633 13.229 14.85 13.525 15.1 13.825ZM13.85 15.1L14.4 14.575C14.1786 14.3071 13.9661 14.0319 13.763 13.75C13.5646 13.4738 13.3768 13.1903 13.2 12.9L13.85 15.1ZM7.14998 14.6C8.29998 14.6 9.24598 14.23 9.98798 13.488C10.729 12.746 11.1 11.783 11.1 10.6C11.1004 10.4789 11.0964 10.3578 11.088 10.237C11.0782 10.1228 11.0571 10.0099 11.025 9.89996H7.07498V11.45H9.29998C9.18402 11.892 8.91327 12.2777 8.53698 12.537C8.16198 12.796 7.70798 12.925 7.17498 12.925C6.52498 12.925 5.96698 12.692 5.49998 12.225C5.03298 11.758 4.79998 11.183 4.79998 10.5C4.79998 9.81696 5.03298 9.24196 5.49998 8.77496C5.71653 8.55003 5.97689 8.37187 6.26498 8.25148C6.55306 8.13108 6.86277 8.07101 7.17498 8.07496C7.47498 8.07496 7.75798 8.12896 8.02498 8.23696C8.29198 8.34596 8.53298 8.50796 8.74998 8.72496L9.97498 7.54996C9.62498 7.18296 9.20498 6.89996 8.71298 6.69996C8.2165 6.49908 7.68555 6.39717 7.14998 6.39996C6.03298 6.39996 5.07998 6.79596 4.28798 7.58696C3.49598 8.37896 3.09998 9.34996 3.09998 10.5C3.09998 11.65 3.49598 12.62 4.28798 13.412C5.07898 14.204 6.03298 14.6 7.14998 14.6Z" fill="#25314C"/>
</svg>
