<svg width="24" height="24" viewBox="0 0 24 24" fill="none" xmlns="http://www.w3.org/2000/svg">
<path opacity="0.4" d="M18 9V13.222C18 13.403 17.838 13.507 17.759 13.52C17.606 13.546 17.4581 13.597 17.3201 13.67C16.6801 13.99 16.0401 14.3 14.5801 14.73C13.9401 14.91 13.5 15.5 13.5 16.17V18.11C13.5 19.052 13.7249 19.87 14.0959 20.572C14.1989 20.767 14.0459 21 13.8259 21H6C4 21 3 20 3 18V6C3 4 4 3 6 3H12V6C12 7.657 13.343 9 15 9H18Z" fill="#25314C"/>
<path d="M15 9H18L12 3V6C12 8 13 9 15 9Z" fill="#25314C"/>
<path d="M14 12.75H7C6.586 12.75 6.25 12.414 6.25 12C6.25 11.586 6.586 11.25 7 11.25H14C14.414 11.25 14.75 11.586 14.75 12C14.75 12.414 14.414 12.75 14 12.75ZM11.75 16C11.75 15.586 11.414 15.25 11 15.25H7C6.586 15.25 6.25 15.586 6.25 16C6.25 16.414 6.586 16.75 7 16.75H11C11.414 16.75 11.75 16.414 11.75 16Z" fill="#25314C"/>
<path d="M21 16.116C19.5 15.727 18.7501 15.389 18.0061 15C17.2501 15.389 16.501 15.727 15 16.167C15 16.565 15 17.696 15 18.111C15 20.444 16.875 21.611 18 22C19.125 21.611 21 20.444 21 18.111C21 17.682 21 16.534 21 16.116Z" fill="#25314C"/>
</svg>
