<svg width="24" height="24" viewBox="0 0 24 24" fill="none" xmlns="http://www.w3.org/2000/svg">
<path opacity="0.4" d="M21 6.5H10C9.448 6.5 9 6.052 9 5.5C9 4.948 9.448 4.5 10 4.5H21C21.552 4.5 22 4.948 22 5.5C22 6.052 21.552 6.5 21 6.5Z" fill="#25314C"/>
<path opacity="0.4" d="M21 13H10C9.448 13 9 12.552 9 12C9 11.448 9.448 11 10 11H21C21.552 11 22 11.448 22 12C22 12.552 21.552 13 21 13Z" fill="#25314C"/>
<path opacity="0.4" d="M21 19.5H10C9.448 19.5 9 19.052 9 18.5C9 17.948 9.448 17.5 10 17.5H21C21.552 17.5 22 17.948 22 18.5C22 19.052 21.552 19.5 21 19.5Z" fill="#25314C"/>
<path d="M4.5 7C3.672 7 3 6.328 3 5.5C3 4.672 3.672 4 4.5 4C5.328 4 6 4.672 6 5.5C6 6.328 5.328 7 4.5 7Z" fill="#25314C"/>
<path d="M4.5 13.5C3.672 13.5 3 12.828 3 12C3 11.172 3.672 10.5 4.5 10.5C5.328 10.5 6 11.172 6 12C6 12.828 5.328 13.5 4.5 13.5Z" fill="#25314C"/>
<path d="M4.5 20C3.672 20 3 19.328 3 18.5C3 17.672 3.672 17 4.5 17C5.328 17 6 17.672 6 18.5C6 19.328 5.328 20 4.5 20Z" fill="#25314C"/>
</svg>
