<svg width="20" height="21" viewBox="0 0 20 21" fill="none" xmlns="http://www.w3.org/2000/svg">
<path d="M5.83337 1.69556C5.17033 1.69556 4.53445 1.95895 4.06561 2.42779C3.59677 2.89663 3.33337 3.53252 3.33337 4.19556V15.8622C3.33337 16.5253 3.59677 17.1611 4.06561 17.63C4.53445 18.0988 5.17033 18.3622 5.83337 18.3622H14.1667C14.8297 18.3622 15.4656 18.0988 15.9345 17.63C16.4033 17.1611 16.6667 16.5253 16.6667 15.8622V15.0289C16.6667 14.5687 16.2936 14.1956 15.8334 14.1956C15.3731 14.1956 15 14.5687 15 15.0289V15.8622C15 16.0832 14.9122 16.2952 14.756 16.4515C14.5997 16.6078 14.3877 16.6956 14.1667 16.6956H5.83337C5.61236 16.6956 5.4004 16.6078 5.24412 16.4515C5.08784 16.2952 5.00004 16.0832 5.00004 15.8622V4.19556C5.00004 3.97454 5.08784 3.76258 5.24412 3.6063C5.4004 3.45002 5.61236 3.36222 5.83337 3.36222H14.1667C14.3877 3.36222 14.5997 3.45002 14.756 3.6063C14.9122 3.76258 15 3.97454 15 4.19556V5.02889C15 5.48913 15.3731 5.86222 15.8334 5.86222C16.2936 5.86222 16.6667 5.48913 16.6667 5.02889V4.19556C16.6667 3.53251 16.4033 2.89663 15.9345 2.42779C15.4656 1.95895 14.8297 1.69556 14.1667 1.69556H5.83337Z" fill="#D55F5A"/>
<path d="M13.9226 6.93963C13.5972 6.6142 13.0696 6.6142 12.7441 6.93963C12.4187 7.26507 12.4187 7.79271 12.7441 8.11815L13.8215 9.19556H10C9.5398 9.19556 9.16671 9.56865 9.16671 10.0289C9.16671 10.4891 9.5398 10.8622 10 10.8622H13.8215L12.7441 11.9396C12.4187 12.2651 12.4187 12.7927 12.7441 13.1181C13.0696 13.4436 13.5972 13.4436 13.9226 13.1181L16.4226 10.6181C16.7481 10.2927 16.7481 9.76507 16.4226 9.43963L13.9226 6.93963Z" fill="#D55F5A"/>
</svg>
