<svg width="24" height="24" viewBox="0 0 24 24" fill="none" xmlns="http://www.w3.org/2000/svg">
<path opacity="0.4" d="M21 7.73303V15C21 17 20 18 18 18H6L3 21V6C3 4 4 3 6 3H16.2671C16.4621 3 16.5929 3.17997 16.5569 3.37097C16.5059 3.64397 16.4891 3.926 16.5061 4.224C16.6081 5.95 18.0469 7.39104 19.7729 7.49304C20.0709 7.51104 20.3549 7.49402 20.6279 7.44202C20.8199 7.40702 21 7.53803 21 7.73303Z" fill="#25314C"/>
<path d="M15 9.75H8C7.586 9.75 7.25 9.414 7.25 9C7.25 8.586 7.586 8.25 8 8.25H15C15.414 8.25 15.75 8.586 15.75 9C15.75 9.414 15.414 9.75 15 9.75ZM13.75 13C13.75 12.586 13.414 12.25 13 12.25H8C7.586 12.25 7.25 12.586 7.25 13C7.25 13.414 7.586 13.75 8 13.75H13C13.414 13.75 13.75 13.414 13.75 13Z" fill="#25314C"/>
<path d="M20 6C21.1046 6 22 5.10457 22 4C22 2.89543 21.1046 2 20 2C18.8954 2 18 2.89543 18 4C18 5.10457 18.8954 6 20 6Z" fill="#25314C"/>
</svg>
