<svg width="24" height="25" viewBox="0 0 24 25" fill="none" xmlns="http://www.w3.org/2000/svg">
<path d="M12.1151 22.249C11.6351 22.249 11.1501 22.215 10.6611 22.145C6.27211 21.519 2.84311 18.04 2.32111 13.685C2.06111 11.515 2.51211 9.388 3.62711 7.534C5.40111 4.583 8.66009 2.75 12.1331 2.75C12.6041 2.751 13.0041 3.02901 13.1631 3.45801C13.3241 3.89101 13.2011 4.366 12.8501 4.668C11.2721 6.026 10.5661 8.06899 10.9631 10.132C11.4231 12.53 13.3971 14.363 15.8731 14.694C17.3701 14.893 18.8111 14.558 20.0321 13.72C20.4151 13.459 20.9071 13.461 21.2841 13.726C21.6601 13.989 21.8291 14.446 21.7161 14.889C20.5931 19.279 16.6051 22.248 12.1151 22.249ZM11.0851 4.31601C8.53609 4.63701 6.23508 6.10501 4.91208 8.30701C3.97208 9.87201 3.59009 11.67 3.81009 13.506C4.25109 17.188 7.1551 20.129 10.8721 20.66C14.8161 21.222 18.5421 19.046 19.9421 15.503C18.6341 16.139 17.1531 16.379 15.6721 16.182C12.5551 15.766 10.0701 13.448 9.4881 10.416C9.0621 8.18898 9.65409 5.98101 11.0851 4.31601ZM4.27008 7.92001H4.28009H4.27008Z" fill="#687387"/>
</svg>
