<svg width="24" height="24" viewBox="0 0 24 24" fill="none" xmlns="http://www.w3.org/2000/svg">
<path opacity="0.4" d="M20.391 17.688C20.372 17.665 18.495 15.282 18.495 12.5V8.995C18.495 5.414 15.581 2.5 12 2.5C8.41904 2.5 5.50505 5.414 5.50505 8.995V12.5C5.50505 15.281 3.62905 17.664 3.60905 17.688C3.48905 17.838 3.46605 18.044 3.54905 18.217C3.63205 18.39 3.80704 18.5 3.99904 18.5H19.999C20.191 18.5 20.366 18.39 20.449 18.217C20.534 18.043 20.51 17.838 20.391 17.688Z" fill="#25314C"/>
<path d="M3.00104 8.75C2.97604 8.75 2.95102 8.749 2.92502 8.746C2.51302 8.705 2.21203 8.337 2.25403 7.925C2.45603 5.902 3.27405 4.02701 4.61805 2.50301C4.89105 2.19201 5.36604 2.162 5.67704 2.437C5.98804 2.711 6.01705 3.185 5.74305 3.496C4.60805 4.782 3.91704 6.36501 3.74604 8.07401C3.70804 8.46101 3.38104 8.75 3.00104 8.75Z" fill="#25314C"/>
<path d="M20.9991 8.75C20.6191 8.75 20.2921 8.461 20.2541 8.075C20.0831 6.366 19.3931 4.783 18.2571 3.497C17.9831 3.186 18.0131 2.71201 18.3231 2.43801C18.6341 2.16301 19.1081 2.194 19.3821 2.504C20.7261 4.027 21.5441 5.902 21.7461 7.926C21.7881 8.338 21.4871 8.706 21.0751 8.747C21.0491 8.749 21.0241 8.75 20.9991 8.75Z" fill="#25314C"/>
<path d="M14.164 19.751C14.075 19.596 13.91 19.5 13.73 19.5H10.27C10.091 19.5 9.92603 19.596 9.83603 19.751C9.74603 19.906 9.74805 20.098 9.83805 20.252C10.294 21.033 11.102 21.5 12 21.5C12.898 21.5 13.706 21.033 14.162 20.252C14.252 20.098 14.253 19.906 14.164 19.751Z" fill="#25314C"/>
</svg>
