<svg width="24" height="24" viewBox="0 0 24 24" fill="none" xmlns="http://www.w3.org/2000/svg">
<path d="M9.021 22.25C8.332 22.25 7.76599 21.69 7.76599 21C7.76599 20.31 8.32099 19.75 9.01099 19.75H9.021C9.711 19.75 10.271 20.31 10.271 21C10.271 21.69 9.711 22.25 9.021 22.25Z" fill="#25314C"/>
<path d="M17.021 22.25C16.332 22.25 15.766 21.69 15.766 21C15.766 20.31 16.321 19.75 17.011 19.75H17.021C17.711 19.75 18.271 20.31 18.271 21C18.271 21.69 17.711 22.25 17.021 22.25Z" fill="#25314C"/>
<path opacity="0.4" d="M19 6H6.94104L6.73206 4.614C6.53806 3.244 5.39203 2.25 4.00903 2.25H3.74902C3.33502 2.25 2.99902 2.586 2.99902 3C2.99902 3.414 3.33502 3.75 3.74902 3.75H4.00903C4.63803 3.75 5.15805 4.202 5.24805 4.832L6.74902 15.28C6.88902 16.27 7.729 17 8.729 17H16.999C19.099 17 19.689 15.96 19.949 14.54L20.959 8.36C21.19 7.13 20.24 6 19 6Z" fill="#25314C"/>
<path d="M15.5 10.75H14.25V9.5C14.25 9.086 13.914 8.75 13.5 8.75C13.086 8.75 12.75 9.086 12.75 9.5V10.75H11.5C11.086 10.75 10.75 11.086 10.75 11.5C10.75 11.914 11.086 12.25 11.5 12.25H12.75V13.5C12.75 13.914 13.086 14.25 13.5 14.25C13.914 14.25 14.25 13.914 14.25 13.5V12.25H15.5C15.914 12.25 16.25 11.914 16.25 11.5C16.25 11.086 15.914 10.75 15.5 10.75Z" fill="#25314C"/>
</svg>
