<svg width="24" height="24" viewBox="0 0 24 24" fill="none" xmlns="http://www.w3.org/2000/svg">
<path opacity="0.4" d="M10.48 11.15C10.73 11.26 10.99 11.33 11.25 11.39V20.91C11.09 20.87 10.93 20.81 10.78 20.74L4.78003 18.07C3.70003 17.59 3 16.52 3 15.33V8.67001C3 8.40001 3.03999 8.13 3.10999 7.88L10.48 11.15Z" fill="#25314C"/>
<path opacity="0.4" d="M20.13 6.56005L16.64 8.11003L14.8199 8.92006L12.92 9.77004C12.33 10.03 11.66 10.03 11.08 9.77004L3.87 6.56005C4.13 6.30005 4.43003 6.08004 4.78003 5.93004L6.67004 5.09005L8.48999 4.28005L10.78 3.26006C11.56 2.91006 12.44 2.91006 13.22 3.26006L19.22 5.93004C19.57 6.08004 19.87 6.30005 20.13 6.56005Z" fill="#25314C"/>
<path opacity="0.4" d="M21 8.67001V15.33C21 16.52 20.3 17.59 19.22 18.07L13.22 20.74C13.07 20.81 12.91 20.87 12.75 20.91V11.39C13.01 11.33 13.27 11.25 13.52 11.15L15.88 10.1L17.38 9.44L20.89 7.88C20.96 8.13 21 8.40001 21 8.67001Z" fill="#25314C"/>
<path d="M16.64 8.11002L14.8199 8.92004L6.67004 5.09003L8.48999 4.28003L16.64 8.11002Z" fill="#25314C"/>
<path d="M17.38 9.43994V11.89C17.38 12.3 17.04 12.64 16.63 12.64C16.22 12.64 15.88 12.3 15.88 11.89V10.0999L17.38 9.43994Z" fill="#25314C"/>
</svg>
