<svg width="24" height="24" viewBox="0 0 24 24" fill="none" xmlns="http://www.w3.org/2000/svg">
<path opacity="0.4" d="M18 20.75H6C3.582 20.75 2.25 19.418 2.25 17V7C2.25 4.582 3.582 3.25 6 3.25H18C20.418 3.25 21.75 4.582 21.75 7V17C21.75 19.418 20.418 20.75 18 20.75Z" fill="#25314C"/>
<path d="M20.162 14.1621L15.71 9.71C15.32 9.319 14.681 9.319 14.29 9.71L9.34998 14.6499C9.15698 14.8419 8.84202 14.8419 8.65002 14.6499L7.70996 13.71C7.31996 13.319 6.68104 13.319 6.29004 13.71L3.83801 16.1621C3.78201 16.2181 3.75 16.2951 3.75 16.3741V17C3.75 18.58 4.42 19.25 6 19.25H18C19.58 19.25 20.25 18.58 20.25 17V14.3741C20.25 14.2951 20.218 14.2181 20.162 14.1621Z" fill="#25314C"/>
<path d="M8.00195 10.25C7.31395 10.25 6.75 9.69 6.75 9C6.75 8.31 7.30404 7.75 7.99304 7.75H8.00305C8.69205 7.75 9.25098 8.31 9.25098 9C9.25098 9.69 8.69195 10.25 8.00195 10.25Z" fill="#25314C"/>
</svg>
