<svg width="24" height="24" viewBox="0 0 24 24" fill="none" xmlns="http://www.w3.org/2000/svg">
<path opacity="0.2" d="M21.8527 14.2874C21.8527 14.9363 21.6602 15.5707 21.2997 16.1103C20.9391 16.6499 20.4267 17.0705 19.8271 17.3188C19.2275 17.5672 18.5678 17.6322 17.9313 17.5056C17.2948 17.3789 16.7101 17.0664 16.2512 16.6075C15.7923 16.1487 15.4798 15.564 15.3532 14.9275C15.2266 14.291 15.2916 13.6312 15.5399 13.0317C15.7883 12.4321 16.2088 11.9196 16.7484 11.5591C17.288 11.1985 17.9224 11.0061 18.5714 11.0061C19.4417 11.0061 20.2763 11.3518 20.8916 11.9672C21.507 12.5825 21.8527 13.4171 21.8527 14.2874ZM5.44641 11.0061C4.79744 11.0061 4.16305 11.1985 3.62345 11.5591C3.08385 11.9196 2.66328 12.4321 2.41493 13.0317C2.16658 13.6312 2.1016 14.291 2.22821 14.9275C2.35482 15.564 2.66733 16.1487 3.12622 16.6075C3.58511 17.0664 4.16977 17.3789 4.80627 17.5056C5.44277 17.6322 6.10252 17.5672 6.70209 17.3188C7.30166 17.0705 7.81412 16.6499 8.17467 16.1103C8.53522 15.5707 8.72766 14.9363 8.72766 14.2874C8.72766 13.4171 8.38196 12.5825 7.76661 11.9672C7.15125 11.3518 6.31665 11.0061 5.44641 11.0061Z" fill="#25314C"/>
<path d="M18.5715 10.3499C18.097 10.3496 17.6265 10.4355 17.1827 10.6033L15.1204 7.0686H17.259C17.433 7.0686 17.5999 7.13774 17.723 7.26081C17.8461 7.38389 17.9152 7.55081 17.9152 7.72485C17.9152 7.8989 17.9844 8.06582 18.1074 8.18889C18.2305 8.31196 18.3974 8.3811 18.5715 8.3811C18.7455 8.3811 18.9124 8.31196 19.0355 8.18889C19.1586 8.06582 19.2277 7.8989 19.2277 7.72485C19.2277 7.20271 19.0203 6.70195 18.6511 6.33274C18.2819 5.96352 17.7811 5.7561 17.259 5.7561H13.9777C13.8626 5.75637 13.7497 5.78688 13.6501 5.84458C13.5506 5.90229 13.4679 5.98516 13.4105 6.08487C13.3531 6.18459 13.3229 6.29766 13.323 6.41273C13.323 6.5278 13.3533 6.64083 13.4109 6.74048L14.3665 8.3811H9.65139L8.31017 6.08423C8.2527 5.98468 8.17009 5.90198 8.07062 5.8444C7.97114 5.78681 7.85828 5.75637 7.74334 5.7561H5.44646C5.27242 5.7561 5.1055 5.82524 4.98242 5.94831C4.85935 6.07139 4.79021 6.23831 4.79021 6.41235C4.79021 6.5864 4.85935 6.75332 4.98242 6.87639C5.1055 6.99946 5.27242 7.0686 5.44646 7.0686H7.36682L8.49146 8.99716L7.20275 10.7649C6.31732 10.3218 5.29773 10.2276 4.34608 10.5009C3.39443 10.7742 2.5802 11.395 2.06479 12.2404C1.54938 13.0858 1.37042 14.094 1.56339 15.0651C1.75635 16.0363 2.30716 16.8994 3.10661 17.4836C3.90607 18.0677 4.89581 18.3301 5.87965 18.2188C6.86349 18.1075 7.7696 17.6306 8.41836 16.8827C9.06713 16.1347 9.41118 15.1703 9.38233 14.1806C9.35348 13.1909 8.95383 12.2482 8.2626 11.5393L9.21334 10.235L11.7703 14.6155C11.8102 14.6957 11.8662 14.7669 11.9347 14.8247C12.0033 14.8825 12.0829 14.9256 12.1688 14.9514C12.2546 14.9773 12.3449 14.9852 12.4339 14.9748C12.5229 14.9644 12.6089 14.9359 12.6865 14.8909C12.7641 14.846 12.8316 14.7857 12.885 14.7137C12.9384 14.6416 12.9764 14.5594 12.9968 14.4721C13.0172 14.3848 13.0194 14.2943 13.0035 14.2061C12.9875 14.1178 12.9536 14.0338 12.9039 13.9592L10.4167 9.6936H15.1319L16.0498 11.2661C15.3392 11.8601 14.8606 12.6856 14.6983 13.5975C14.5361 14.5093 14.7004 15.4492 15.1625 16.2519C15.6246 17.0546 16.3549 17.6687 17.225 17.9862C18.095 18.3037 19.0492 18.3044 19.9197 17.9881C20.7902 17.6718 21.5213 17.0587 21.9846 16.2567C22.4478 15.4547 22.6135 14.515 22.4525 13.6029C22.2915 12.6908 21.8141 11.8647 21.1043 11.2697C20.3945 10.6747 19.4977 10.349 18.5715 10.3499ZM8.07146 14.2874C8.07162 14.8488 7.89175 15.3955 7.55826 15.8472C7.22478 16.2989 6.75525 16.6318 6.21863 16.7969C5.68201 16.9621 5.10657 16.9509 4.57682 16.7648C4.04706 16.5788 3.59091 16.2279 3.27533 15.7635C2.95976 15.2991 2.8014 14.7458 2.8235 14.1847C2.8456 13.6237 3.047 13.0846 3.39813 12.6464C3.74926 12.2083 4.23162 11.8943 4.77436 11.7506C5.31711 11.6068 5.89165 11.6409 6.41361 11.8477L4.91654 13.8985C4.86204 13.9678 4.82206 14.0474 4.79901 14.1326C4.77595 14.2177 4.77029 14.3066 4.78235 14.3939C4.79442 14.4813 4.82397 14.5653 4.86923 14.641C4.9145 14.7167 4.97455 14.7825 5.04581 14.8344C5.11707 14.8864 5.19806 14.9234 5.28396 14.9434C5.36986 14.9633 5.4589 14.9658 5.54576 14.9505C5.63262 14.9353 5.71552 14.9027 5.78951 14.8547C5.86349 14.8068 5.92705 14.7444 5.97639 14.6713L7.47346 12.6205C7.86058 13.0896 8.07204 13.6791 8.07146 14.2874ZM18.5715 16.9124C18.0515 16.912 17.5434 16.7572 17.1116 16.4676C16.6798 16.1781 16.3436 15.7668 16.1458 15.286C15.9481 14.8052 15.8975 14.2764 16.0006 13.7668C16.1037 13.2572 16.3558 12.7897 16.7249 12.4236L18.0046 14.6155C18.0446 14.6957 18.1006 14.7669 18.1691 14.8247C18.2376 14.8825 18.3173 14.9256 18.4031 14.9514C18.489 14.9773 18.5792 14.9852 18.6683 14.9748C18.7573 14.9644 18.8433 14.9359 18.9209 14.8909C18.9984 14.846 19.066 14.7857 19.1194 14.7137C19.1727 14.6416 19.2108 14.5594 19.2312 14.4721C19.2515 14.3848 19.2538 14.2943 19.2378 14.2061C19.2219 14.1178 19.188 14.0338 19.1383 13.9592L17.8578 11.7616C18.2189 11.6594 18.5977 11.6358 18.9686 11.6924C19.3396 11.749 19.6942 11.8844 20.0083 12.0897C20.3225 12.2949 20.5891 12.5651 20.79 12.882C20.9909 13.199 21.1215 13.5554 21.173 13.9271C21.2245 14.2988 21.1957 14.6772 21.0885 15.0369C20.9814 15.3965 20.7983 15.729 20.5518 16.0119C20.3053 16.2949 20.0009 16.5216 19.6593 16.6769C19.3177 16.8323 18.9467 16.9125 18.5715 16.9124Z" fill="#25314C"/>
</svg>
