<svg width="24" height="24" viewBox="0 0 24 24" fill="none" xmlns="http://www.w3.org/2000/svg">
<path opacity="0.4" d="M21 8.75C20.586 8.75 20.25 8.414 20.25 8V4.5C20.25 3.911 20.089 3.75 19.5 3.75H16C15.586 3.75 15.25 3.414 15.25 3C15.25 2.586 15.586 2.25 16 2.25H19.5C20.909 2.25 21.75 3.091 21.75 4.5V8C21.75 8.414 21.414 8.75 21 8.75ZM3.75 8V4.5C3.75 3.911 3.911 3.75 4.5 3.75H8C8.414 3.75 8.75 3.414 8.75 3C8.75 2.586 8.414 2.25 8 2.25H4.5C3.091 2.25 2.25 3.091 2.25 4.5V8C2.25 8.414 2.586 8.75 3 8.75C3.414 8.75 3.75 8.414 3.75 8ZM8.75 21C8.75 20.586 8.414 20.25 8 20.25H4.5C3.911 20.25 3.75 20.089 3.75 19.5V16C3.75 15.586 3.414 15.25 3 15.25C2.586 15.25 2.25 15.586 2.25 16V19.5C2.25 20.909 3.091 21.75 4.5 21.75H8C8.414 21.75 8.75 21.414 8.75 21ZM21.75 19.5V16C21.75 15.586 21.414 15.25 21 15.25C20.586 15.25 20.25 15.586 20.25 16V19.5C20.25 20.089 20.089 20.25 19.5 20.25H16C15.586 20.25 15.25 20.586 15.25 21C15.25 21.414 15.586 21.75 16 21.75H19.5C20.909 21.75 21.75 20.909 21.75 19.5Z" fill="#25314C"/>
<path opacity="0.4" d="M17.5 12V15.12C17.5 16.65 16.66 17.5 15.12 17.5H8.88C7.34 17.5 6.5 16.65 6.5 15.12V12H17.5Z" fill="#25314C"/>
<path d="M19 12.75H5C4.586 12.75 4.25 12.414 4.25 12C4.25 11.586 4.586 11.25 5 11.25H19C19.414 11.25 19.75 11.586 19.75 12C19.75 12.414 19.414 12.75 19 12.75Z" fill="#25314C"/>
<path d="M17 9.75C16.586 9.75 16.25 9.414 16.25 9V8.88C16.25 8.035 15.965 7.75 15.12 7.75H8.88C8.035 7.75 7.75 8.035 7.75 8.88V9C7.75 9.414 7.414 9.75 7 9.75C6.586 9.75 6.25 9.414 6.25 9V8.88C6.25 7.209 7.209 6.25 8.88 6.25H15.12C16.791 6.25 17.75 7.208 17.75 8.88V9C17.75 9.414 17.414 9.75 17 9.75Z" fill="#25314C"/>
</svg>
