<svg width="24" height="24" viewBox="0 0 24 24" fill="none" xmlns="http://www.w3.org/2000/svg">
<path opacity="0.4" d="M8.18994 18.069L8.18695 18.067C7.25495 17.527 6.10494 17.525 5.17194 18.063C5.01294 18.155 4.80895 18.1 4.71695 17.942L3.04495 15.057C2.95295 14.898 3.00693 14.695 3.16593 14.603L3.17493 14.598C4.10293 14.06 4.67393 13.067 4.67093 11.995C4.66793 10.924 4.09695 9.93596 3.16995 9.39896L3.16495 9.39597C3.00695 9.30397 2.95295 9.10198 3.04395 8.94498L4.71695 6.05698C4.80895 5.89898 5.01095 5.84497 5.16995 5.93597C6.10395 6.47397 7.25395 6.47298 8.18695 5.93198L8.18994 5.93097C9.11494 5.39497 9.68494 4.40598 9.68494 3.33698C9.68494 3.15098 9.83594 3.00098 10.0219 3.00098H13.9769C14.1629 3.00098 14.3139 3.15198 14.3139 3.33698C14.3139 4.40598 14.8839 5.39497 15.8089 5.93097L15.812 5.93198C16.745 6.47298 17.895 6.47397 18.829 5.93597C18.988 5.84497 19.19 5.89898 19.282 6.05698L20.954 8.94296C21.0459 9.10196 20.9919 9.30497 20.8329 9.39697L20.825 9.40097C19.898 9.93797 19.327 10.93 19.329 12.001C19.331 13.073 19.9019 14.064 20.8299 14.602L20.834 14.604C20.992 14.696 21.0459 14.898 20.954 15.055L19.2809 17.943C19.1889 18.101 18.9869 18.155 18.8279 18.064C17.8939 17.526 16.7429 17.527 15.8109 18.068L15.8089 18.069C14.8829 18.606 14.3139 19.594 14.3139 20.664C14.3139 20.849 14.1629 20.999 13.9779 20.999H10.019C9.83295 20.999 9.68196 20.849 9.68296 20.663C9.68396 19.595 9.11494 18.606 8.18994 18.069Z" fill="#25314C"/>
<path d="M12.001 15C13.6578 15 15.001 13.6569 15.001 12C15.001 10.3431 13.6578 9 12.001 9C10.3441 9 9.00098 10.3431 9.00098 12C9.00098 13.6569 10.3441 15 12.001 15Z" fill="#25314C"/>
</svg>
