<svg width="24" height="24" viewBox="0 0 24 24" fill="none" xmlns="http://www.w3.org/2000/svg">
<path opacity="0.4" fill-rule="evenodd" clip-rule="evenodd" d="M19.525 10.92L18.775 18.3C18.625 19.83 17.985 21 15.795 21H8.22498C5.98498 21 5.39499 19.83 5.23499 18.3L4.47498 10.93C4.63498 10.98 4.80499 11 4.98499 11H18.985C19.175 11 19.355 10.97 19.525 10.92Z" fill="#25314C"/>
<path d="M19 6.99998H17.277L14.663 2.61597C14.451 2.25997 13.99 2.14397 13.635 2.35497C13.279 2.56697 13.162 3.02797 13.374 3.38297L15.53 6.99897H8.479L10.66 3.38697C10.875 3.03297 10.761 2.57197 10.406 2.35697C10.051 2.14197 9.59095 2.25697 9.37695 2.61097L6.72803 6.99897H5C3.896 6.99897 3 7.89497 3 8.99897C3 10.103 3.896 10.999 5 10.999H19C20.104 10.999 21 10.103 21 8.99897C21 7.89497 20.104 6.99998 19 6.99998Z" fill="#25314C"/>
<path d="M10.0179 18.25C9.60394 18.25 9.26794 17.914 9.26794 17.5V14.5C9.26794 14.086 9.60394 13.75 10.0179 13.75C10.4319 13.75 10.7679 14.086 10.7679 14.5V17.5C10.7679 17.914 10.4319 18.25 10.0179 18.25ZM14.7679 17.5V14.5C14.7679 14.086 14.4319 13.75 14.0179 13.75C13.6039 13.75 13.2679 14.086 13.2679 14.5V17.5C13.2679 17.914 13.6039 18.25 14.0179 18.25C14.4319 18.25 14.7679 17.914 14.7679 17.5Z" fill="#25314C"/>
</svg>
