<svg width="24" height="24" viewBox="0 0 24 24" fill="none" xmlns="http://www.w3.org/2000/svg">
<path opacity="0.4" d="M20 11.34V18C20 20 19 21 17 21H14.33C14.164 21 14.03 20.866 14.03 20.7V17.622C14.03 16.625 13.3549 15.695 12.3719 15.529C11.1229 15.319 10.03 16.288 10.03 17.5V20.7C10.03 20.866 9.89598 21 9.72998 21H7C5 21 4 20 4 18V11.34C4.11 11.43 4.22999 11.52 4.35999 11.59C4.80999 11.85 5.34002 12 5.90002 12C7.23002 12 8.53995 11.17 8.94995 10C9.35995 11.17 10.67 12 12 12C13.33 12 14.64 11.17 15.05 10C15.46 11.17 16.77 12 18.1 12C18.66 12 19.19 11.85 19.64 11.59C19.77 11.52 19.89 11.43 20 11.34Z" fill="#25314C"/>
<path d="M7.50498 3C5.00498 3 4.62193 3.81999 4.20993 5.03799L3.17001 8.11099C2.73201 9.40499 3.17499 10.902 4.36899 11.592C4.81799 11.852 5.34302 12 5.90402 12C7.23402 12 8.54295 11.17 8.95895 10C9.36495 11.17 10.674 12 12.004 12C13.334 12 14.6429 11.17 15.0489 10C15.4649 11.17 16.775 12 18.104 12C18.666 12 19.19 11.852 19.639 11.592C20.833 10.902 21.276 9.40499 20.838 8.11099L19.7979 5.03799C19.3859 3.81999 19.003 3 16.503 3H7.50498Z" fill="#25314C"/>
</svg>
