<svg width="24" height="25" viewBox="0 0 24 25" fill="none" xmlns="http://www.w3.org/2000/svg">
<path d="M16.5 12.5C16.5 14.981 14.481 17 12 17C9.519 17 7.5 14.981 7.5 12.5C7.5 10.019 9.519 8 12 8C14.481 8 16.5 10.019 16.5 12.5ZM12.75 5.5V3.5C12.75 3.086 12.414 2.75 12 2.75C11.586 2.75 11.25 3.086 11.25 3.5V5.5C11.25 5.914 11.586 6.25 12 6.25C12.414 6.25 12.75 5.914 12.75 5.5ZM12.75 21.5V19.5C12.75 19.086 12.414 18.75 12 18.75C11.586 18.75 11.25 19.086 11.25 19.5V21.5C11.25 21.914 11.586 22.25 12 22.25C12.414 22.25 12.75 21.914 12.75 21.5ZM5.75 12.5C5.75 12.086 5.414 11.75 5 11.75H3C2.586 11.75 2.25 12.086 2.25 12.5C2.25 12.914 2.586 13.25 3 13.25H5C5.414 13.25 5.75 12.914 5.75 12.5ZM21.75 12.5C21.75 12.086 21.414 11.75 21 11.75H19C18.586 11.75 18.25 12.086 18.25 12.5C18.25 12.914 18.586 13.25 19 13.25H21C21.414 13.25 21.75 12.914 21.75 12.5ZM7.58099 8.08099C7.87399 7.78799 7.87399 7.31299 7.58099 7.01999L6.16699 5.60599C5.87399 5.31299 5.39899 5.31299 5.10599 5.60599C4.81299 5.89899 4.81299 6.37399 5.10599 6.66699L6.51999 8.08099C6.66599 8.22699 6.85799 8.30099 7.04999 8.30099C7.24199 8.30099 7.43399 8.22699 7.58099 8.08099ZM18.894 19.394C19.187 19.101 19.187 18.626 18.894 18.333L17.48 16.919C17.187 16.626 16.712 16.626 16.419 16.919C16.126 17.212 16.126 17.687 16.419 17.98L17.833 19.394C17.979 19.54 18.171 19.614 18.363 19.614C18.555 19.614 18.748 19.541 18.894 19.394ZM6.16699 19.394L7.58099 17.98C7.87399 17.687 7.87399 17.212 7.58099 16.919C7.28799 16.626 6.81299 16.626 6.51999 16.919L5.10599 18.333C4.81299 18.626 4.81299 19.101 5.10599 19.394C5.25199 19.54 5.44399 19.614 5.63599 19.614C5.82799 19.614 6.01999 19.541 6.16699 19.394ZM17.48 8.08099L18.894 6.66699C19.187 6.37399 19.187 5.89899 18.894 5.60599C18.601 5.31299 18.126 5.31299 17.833 5.60599L16.419 7.01999C16.126 7.31299 16.126 7.78799 16.419 8.08099C16.565 8.22699 16.757 8.30099 16.949 8.30099C17.141 8.30099 17.333 8.22699 17.48 8.08099Z" fill="#FFC107"/>
</svg>
