<svg width="24" height="24" viewBox="0 0 24 24" fill="none" xmlns="http://www.w3.org/2000/svg">
<path opacity="0.4" d="M6 10C4 10 3 11 3 13V18C3 20 4 21 6 21H18C20 21 21 20 21 18V13C21 11 20 10 18 10H6Z" fill="#25314C"/>
<path d="M15.5301 5.46996L12.5301 2.46996C12.4611 2.40096 12.3779 2.34598 12.2859 2.30798C12.1029 2.23198 11.8959 2.23198 11.7129 2.30798C11.6209 2.34598 11.538 2.40096 11.469 2.46996L8.46902 5.46996C8.17602 5.76296 8.17602 6.238 8.46902 6.531C8.76202 6.824 9.23705 6.824 9.53005 6.531L11.25 4.81097V16C11.25 16.414 11.586 16.75 12 16.75C12.414 16.75 12.75 16.414 12.75 16V4.81097L14.47 6.531C14.616 6.677 14.808 6.75097 15 6.75097C15.192 6.75097 15.3841 6.678 15.5301 6.531C15.8231 6.238 15.8231 5.76196 15.5301 5.46996Z" fill="#25314C"/>
</svg>
