<svg width="24" height="24" viewBox="0 0 24 24" fill="none" xmlns="http://www.w3.org/2000/svg">
<path opacity="0.4" d="M12 22C17.5228 22 22 17.5228 22 12C22 6.47715 17.5228 2 12 2C6.47715 2 2 6.47715 2 12C2 17.5228 6.47715 22 12 22Z" fill="#25314C"/>
<path d="M17.74 18.26C16.23 19.65 14.21 20.5 12 20.5C9.79 20.5 7.77001 19.65 6.26001 18.26C6.70001 16.88 7.84004 15.5699 10.29 15.5699H13.71C16.15 15.5699 17.29 16.89 17.74 18.26ZM15.0081 10C15.0081 8.343 13.6651 7 12.0081 7C10.3511 7 9.00806 8.343 9.00806 10C9.00806 11.657 10.3511 13 12.0081 13C13.6651 13 15.0081 11.657 15.0081 10Z" fill="#25314C"/>
</svg>
