<svg width="24" height="24" viewBox="0 0 24 24" fill="none" xmlns="http://www.w3.org/2000/svg">
<path opacity="0.4" d="M18 7H5C3.9 7 3 6.1 3 5V18C3 20 4 21 6 21H18C20 21 21 20 21 18V10C21 8 20 7 18 7Z" fill="#25314C"/>
<path d="M16.5 11.5C15.12 11.5 14 12.62 14 14C14 14.69 14.28 15.32 14.73 15.77C15.18 16.22 15.81 16.5 16.5 16.5H21V11.5H16.5ZM17 15C16.45 15 16 14.55 16 14C16 13.45 16.45 13 17 13C17.55 13 18 13.45 18 14C18 14.55 17.55 15 17 15Z" fill="#25314C"/>
<path d="M3 5C3 5.55 3.22003 6.04997 3.59003 6.40997C3.95003 6.77997 4.45 7 5 7H18V6C18 4 17 3 15 3H5C3.9 3 3 3.9 3 5Z" fill="#25314C"/>
</svg>
