<svg width="24" height="24" viewBox="0 0 24 24" fill="none" xmlns="http://www.w3.org/2000/svg">
<path opacity="0.4" d="M21 7V11.98C21 12.19 20.8 12.32 20.6 12.26C20.1 12.09 19.56 12 19 12C16.24 12 14 14.24 14 17C14 17.19 14.01 17.38 14.03 17.57C14.04 17.61 14.05 17.65 14.05 17.69C14.05 17.86 13.91 18 13.74 18H6C4 18 3 17 3 15V7C3 5 4 4 6 4H18C20 4 21 5 21 7Z" fill="#25314C"/>
<path d="M12 14C13.6569 14 15 12.6569 15 11C15 9.34315 13.6569 8 12 8C10.3431 8 9 9.34315 9 11C9 12.6569 10.3431 14 12 14Z" fill="#25314C"/>
<path d="M6 11.999C6.55228 11.999 7 11.5513 7 10.999C7 10.4467 6.55228 9.99902 6 9.99902C5.44772 9.99902 5 10.4467 5 10.999C5 11.5513 5.44772 11.999 6 11.999Z" fill="#25314C"/>
<path d="M21.5301 17.47C21.2371 17.177 20.762 17.177 20.469 17.47L19.749 18.19V15C19.749 14.586 19.413 14.25 18.999 14.25C18.585 14.25 18.249 14.586 18.249 15V18.189L17.529 17.469C17.236 17.176 16.761 17.176 16.468 17.469C16.175 17.762 16.175 18.237 16.468 18.53L18.468 20.53C18.614 20.676 18.806 20.75 18.998 20.75C19.19 20.75 19.382 20.677 19.528 20.53L21.528 18.53C21.823 18.238 21.8231 17.762 21.5301 17.47Z" fill="#25314C"/>
</svg>
